<svg height="512pt" viewBox="0 0 512 512.001" width="512pt" xmlns="http://www.w3.org/2000/svg"><path d="m512 256c0 141.386719-114.613281 256-256 256-141.382812 0-256-114.613281-256-256s114.617188-256 256-256c141.386719 0 256 114.613281 256 256zm0 0" fill="#e6cebe"/><path d="m512 256c0-21.378906-2.636719-42.140625-7.574219-61.988281l-110.816406-110.816407c-75.390625-50-137.609375 0-137.609375 0s-62.21875-50-137.609375 0l14.800781 16.746094c-30.5 11.785156-109.078125 55.269532-78.191406 183.585938l25.878906 26.570312c5.828125 28.035156 18.292969 63.136719 44.789063 92.902344 4.847656 5.449219 9.75 10.457031 14.679687 15.105469l92.875 92.875c7.507813.664062 15.101563 1.019531 22.777344 1.019531 141.386719 0 256-114.613281 256-256zm0 0" fill="#d3af91"/><path d="m367.3125 96.195312 26.296875-13c-75.390625-50-137.609375 0-137.609375 0s-62.21875-50-137.609375 0l26.300781 13s-127.691406 29.472657-89.691406 187.332032l20.933594-24.023438s-4.265625 82.832032 49.734375 143.496094c44.90625 50.453125 94.105469 64.988281 130.332031 73.332031 36.226562-8.34375 85.425781-22.878906 130.332031-73.332031 54-60.667969 49.738281-143.496094 49.738281-143.496094l20.929688 24.023438c38-157.859375-89.6875-187.332032-89.6875-187.332032zm0 0" fill="#ff6339"/><path d="m457 283.53125-20.929688-24.03125s4.261719 82.828125-49.738281 143.5c-44.910156 50.449219-94.101562 64.988281-130.332031 73.328125v-393.136719s62.21875-50 137.609375 0l-26.300781 13s127.691406 29.480469 89.691406 187.339844zm0 0" fill="#eb1800"/><path d="m366.332031 231.667969c-6.664062-55.667969-50.664062-82-110.332031-82-59.664062 0-103.667969 26.332031-110.332031 82-5.109375 42.65625 10.332031 61.332031 34 85.332031 27.652343 28.042969-16.667969 100 76.332031 100s48.679688-71.957031 76.332031-100c23.667969-24 39.109375-42.675781 34-85.332031zm0 0" fill="#ffed93"/><path d="m332.332031 317c-13.203125 13.378906-10 36.769531-13.171875 57.558594-.089844.589844-.179687 1.179687-.28125 1.761718-.019531.070313-.027344.128907-.027344.191407-.101562.519531-.191406 1.039062-.292968 1.558593-4.097656 21.25-16.457032 38.929688-62.558594 38.929688v-267.328125c59.671875 0 103.671875 26.328125 110.332031 82 5.109375 42.65625-10.332031 61.328125-34 85.328125zm0 0" fill="#ffe767"/><path d="m256 352.742188s-10.847656 35.765624-63.164062 21.820312c.179687 1.179688.378906 2.351562.605468 3.511719 11.433594 6.316406 33.167969 14.390625 62.558594 7.59375 29.390625 6.796875 51.125-1.277344 62.558594-7.59375.226562-1.160157.425781-2.332031.605468-3.511719-52.316406 13.945312-63.164062-21.820312-63.164062-21.820312zm0 0" fill="#002659"/><path d="m319.160156 374.558594c-.089844.589844-.179687 1.179687-.28125 1.761718-.019531.070313-.027344.128907-.027344.191407-.101562.519531-.191406 1.039062-.292968 1.558593-11.429688 6.320313-33.167969 14.398438-62.558594 7.601563v-32.933594s1.171875 3.871094 4.609375 8.5625c7 9.589844 23.441406 22.621094 58.550781 13.257813zm0 0" fill="#001737"/><path d="m180.421875 149.210938c-7.433594-7.949219-18.011719-12.925782-29.753906-12.925782-22.496094 0-40.734375 18.234375-40.734375 40.730469 0 15.785156 8.984375 29.464844 22.117187 36.226563 6.558594-29.84375 23.789063-51.035157 48.371094-64.03125zm0 0" fill="#ffe767"/><path d="m402.066406 177.015625c0-22.496094-18.238281-40.730469-40.734375-40.730469-11.742187 0-22.320312 4.976563-29.75 12.925782 24.578125 12.996093 41.808594 34.1875 48.371094 64.03125 13.128906-6.761719 22.113281-20.441407 22.113281-36.226563zm0 0" fill="#ffdc00"/><path d="m228.167969 256c0 8.511719-6.902344 15.414062-15.414063 15.414062-8.511718 0-15.414062-6.902343-15.414062-15.414062s6.902344-15.414062 15.414062-15.414062c8.511719 0 15.414063 6.902343 15.414063 15.414062zm0 0" fill="#002659"/><path d="m314.660156 256c0 8.511719-6.902344 15.414062-15.414062 15.414062-8.511719 0-15.414063-6.902343-15.414063-15.414062s6.902344-15.414062 15.414063-15.414062c8.511718 0 15.414062 6.902343 15.414062 15.414062zm0 0" fill="#001737"/><path d="m256 314c-16.988281 0-39.863281 6.035156-31.367188 24.136719 8.496094 18.097656 20.914063 23.53125 31.367188 23.53125 10.457031 0 22.871094-5.429688 31.367188-23.53125 8.496093-18.101563-14.375-24.136719-31.367188-24.136719zm0 0" fill="#00347b"/><path d="m287.371094 338.140625c-7.28125 15.5-17.421875 21.710937-26.761719 23.160156-1.558594.257813-3.109375.371094-4.609375.371094v-47.671875c16.992188 0 39.859375 6.03125 31.371094 24.140625zm0 0" fill="#002659"/><g fill="#001737"><path d="m228.773438 338.429688c-1.292969 0-2.535157.21875-3.699219.609374 3.933593 8.058594 8.65625 13.511719 13.621093 17.035157 1.070313-1.757813 1.699219-3.816407 1.699219-6.027344 0-6.414063-5.203125-11.617187-11.621093-11.617187zm0 0"/><path d="m286.925781 339.039062c-1.164062-.390624-2.402343-.609374-3.699219-.609374-6.417968 0-11.617187 5.203124-11.617187 11.617187 0 2.210937.628906 4.269531 1.699219 6.027344 4.960937-3.523438 9.683594-8.980469 13.617187-17.035157zm0 0"/></g></svg>