<svg id="Capa_1" enable-background="new 0 0 512 512" height="512" viewBox="0 0 512 512" width="512" xmlns="http://www.w3.org/2000/svg"><g><g><path d="m419.38 419.036-30.065-213.028c-7.013 0-270.275 0-278.647 0l-30.065 213.028c-4.397 31.156 19.79 58.997 51.255 58.997h236.274c31.462-.004 55.645-27.844 51.248-58.997z" fill="#aa6a51"/><path d="m431.38 419.036-30.065-213.028h-22l30.065 213.028c4.397 31.156-19.79 58.997-51.255 58.997h22c31.465 0 55.653-27.841 51.255-58.997z" fill="#935b44"/><path d="m317.833 237.418h55.908c21.846 0 39.556-17.71 39.556-39.557v-.243c0-21.846-17.71-39.556-39.556-39.556h-55.908z" fill="#f89580"/><path d="m391.303 499.333v-86.726c0-33.246-26.949-60.197-60.193-60.201-3.038 0-144.653 0-160.229 0-33.248 0-60.201 26.953-60.201 60.201v91.893h268.623z" fill="#f58a97"/><path d="m341.103 352.407h-22c33.248 0 60.201 26.953 60.201 60.201v91.892h22v-91.893c-.001-33.248-26.954-60.2-60.201-60.2z" fill="#f07281"/><path d="m298.242 338.25v-94.442h-84.5v94.942l-6.5 6.39v15.986c0 26.924 21.826 48.75 48.75 48.75 26.924 0 48.75-21.826 48.75-48.75v-16.376z" fill="#ffa78f"/><path d="m207.242 345.14c14.749 6.622 31.273 10.349 48.985 10.349 17.304 0 33.73-3.751 48.515-10.48v-101.2h-97.5z" fill="#f89580"/><path d="m194.456 158.063h-55.908c-21.846 0-39.556 17.71-39.556 39.557v.243c0 21.846 17.71 39.556 39.556 39.556h55.908z" fill="#ffa78f"/><path d="m251.098 334.982c59.654-5.486 106.372-55.651 106.372-116.737v-41.559c0-59.435-44.927-111.162-106.912-116.737h-6c-58.894 5.282-106.372 55.05-106.372 116.737v41.559c0 58.79 44.041 110.835 106.912 116.737z" fill="#ffcebf"/><path d="m255.429 59.443c-3.666 0-7.291.177-10.871.506 61.986 5.575 106.912 57.302 106.912 116.737v41.559c0 61.085-46.718 111.251-106.372 116.737 3.653.329 7.363.506 11.129.506 64.752 0 117.243-52.492 117.243-117.243v-41.559c0-62.938-50.375-117.243-118.041-117.243z" fill="#ffb09e"/><g fill="#fe8f83"><path d="m336.868 252.986h-19.341c-4.299 0-7.785-3.485-7.785-7.785s3.485-7.785 7.785-7.785h19.341c4.299 0 7.785 3.485 7.785 7.785s-3.486 7.785-7.785 7.785z"/><path d="m194.456 252.986h-19.341c-4.299 0-7.785-3.485-7.785-7.785s3.485-7.785 7.785-7.785h19.341c4.299 0 7.785 3.485 7.785 7.785s-3.486 7.785-7.785 7.785z"/></g><g><path d="m363.41 76.457c-1.895-2.987-3.967-5.97-6.226-8.968h.005c-44.734-61.761-112.197-59.488-112.197-59.488-75.13 6.073-134.213 68.95-134.213 145.644v15.769h66.146c40.018 0 73.171-29.383 79.067-67.751 5.895 38.368 39.049 67.751 79.067 67.751h44.146 5.388v-20.048c-.001-25.82-7.348-51.108-21.183-72.909z" fill="#aa6a51"/><g><path d="m256.925 7.523v-.023s-.467 0-.933 0c-.467 0-.933 0-.933 0v.023c-3.385.042-6.74.209-10.067.478 75.13 6.073 134.212 68.95 134.212 145.644v15.769h22v-15.769c0-80.105-64.442-145.121-144.279-146.122z" fill="#935b44"/></g></g></g><g><path d="m255.992 285.597c17.914 0 32.488-14.574 32.488-32.487 0-4.142-3.358-7.5-7.5-7.5s-7.5 3.358-7.5 7.5c0 9.643-7.845 17.487-17.488 17.487s-17.488-7.845-17.488-17.487c0-4.142-3.358-7.5-7.5-7.5s-7.5 3.358-7.5 7.5c0 17.913 14.573 32.487 32.488 32.487z"/><path d="m313.375 225.907c4.142 0 7.5-3.358 7.5-7.5v-14.28c3.519-.619 6.193-3.69 6.193-7.387 0-4.142-3.358-7.5-7.5-7.5h-6.193c-4.142 0-7.5 3.358-7.5 7.5v21.667c0 4.142 3.358 7.5 7.5 7.5z"/><path d="m191.108 204.127v14.28c0 4.142 3.358 7.5 7.5 7.5s7.5-3.358 7.5-7.5v-21.667c0-4.142-3.358-7.5-7.5-7.5h-6.193c-4.142 0-7.5 3.358-7.5 7.5-.001 3.697 2.674 6.768 6.193 7.387z"/><path d="m439.398 426.365c0-6.944-.15-5.248-14.566-107.396-.579-4.102-4.377-6.962-8.474-6.378-4.102.579-6.958 4.373-6.378 8.475 15.081 106.86 14.418 100.167 14.418 105.3 0 13.11-5.866 25.348-15.595 33.625v-47.383c0-37.33-30.371-67.701-67.701-67.701h-28.861v-15.173c35.635-17.873 58.704-51.173 66.112-85.147 7.4-.782 14.055-2.943 19.919-6.465l6.815 48.287c.578 4.101 4.376 6.961 8.474 6.378 4.102-.579 6.958-4.373 6.378-8.474l-8.234-58.344c6.192-8.348 9.397-18.485 9.397-28.36v-.245c0-11.435-4.056-22.268-11.465-30.853v-12.866c.001-84.72-68.925-153.645-153.645-153.645-30.596 0-60.148 8.971-85.462 25.943-3.44 2.307-4.359 6.966-2.053 10.406 2.308 3.44 6.965 4.358 10.406 2.053 20.759-13.918 44.685-21.872 69.608-23.202v74.215c0 39.977-32.523 72.5-72.5 72.5-6.695 0-53.081 0-58.646 0v-8.269c0-34.777 12.931-68.037 36.411-93.653 2.799-3.054 2.592-7.798-.461-10.597s-7.798-2.592-10.597.461c-26.022 28.391-40.354 65.25-40.354 103.789v12.866c-7.409 8.584-11.465 19.417-11.465 30.852v.245c0 10.183 3.383 20.217 9.404 28.311l-27.106 192.067c-3.433 24.327 8.772 48.366 30.003 60.146v26.367c0 4.142 3.358 7.5 7.5 7.5h290.623c4.142 0 7.5-3.358 7.5-7.5v-26.371c18.733-10.367 30.595-30.177 30.595-51.764zm-224.656-65.239c0-2.675 0-22.181 0-24.944 12.982 4.442 27.218 6.806 41.485 6.806 14.215 0 27.879-2.396 40.617-6.795.132-.045.266-.083.398-.128v25.061c0 22.745-18.505 41.25-41.25 41.25s-41.25-18.505-41.25-41.25zm184.063-184.211c4.726 5.76 7.298 12.916 7.298 20.45v.245c0 13.502-8.909 27.736-25.599 31.406.619-7.163.465-8.471.465-52.1h17.836zm-4.167-23.269v8.269c-8.523 0-49.764 0-58.646 0-39.977 0-72.5-32.523-72.5-72.5v-74.215c72.977 3.908 131.146 64.511 131.146 138.446zm-138.646-28.793c13.842 31.172 45.005 52.062 80 52.062h29.978c0 44.087.38 47.792-1.424 58.964-8.512 52.475-55.265 94.718-114.055 91.963-50.738-2.587-92.544-39.298-102.534-87.409-.011-.054-.023-.109-.034-.163-2.956-14.346-2.237-20.772-2.237-63.355h30.306c35.054 0 66.197-20.978 80-52.062zm-125.307 52.062c0 44.926-.132 45.129.464 52.082-15.443-3.468-25.269-16.773-25.269-31.387v-.245c0-7.534 2.572-14.69 7.298-20.45zm-42.656 243.169 25.678-181.939c5.838 3.522 12.442 5.679 19.766 6.451 7.875 36.73 32.066 68.243 66.269 85.302v15.009h-28.861c-37.33 0-67.701 30.371-67.701 67.701v47.354c-11.284-9.669-17.293-24.699-15.151-39.878zm305.774 76.916h-275.623c0-9.227 0-75.57 0-84.393 0-29.059 23.642-52.701 52.701-52.701h28.861c0 33.827 26.382 57.469 56.25 57.469 29.83 0 56.25-23.592 56.25-57.469h28.861c29.059 0 52.701 23.642 52.701 52.701-.001 8.823-.001 75.149-.001 84.393z"/></g></g></svg>