<svg height="512pt" viewBox="0 -72 512 512" width="512pt" xmlns="http://www.w3.org/2000/svg"><g fill-rule="evenodd"><path d="m0 44.703125v278.589844c0 24.605469 20.0625 44.707031 44.621094 44.707031h422.757812c24.53125 0 44.621094-20.101562 44.621094-44.703125v-278.59375c0-24.601563-20.089844-44.703125-44.621094-44.703125h-422.757812c-24.558594 0-44.621094 20.101562-44.621094 44.703125zm0 0" fill="#eee"/><path d="m225.761719 73.378906h-117.042969c-8.351562 0-15.15625 6.84375-15.15625 15.183594v117.265625c0 8.367187 6.804688 15.183594 15.15625 15.183594h117.042969c8.324219 0 15.15625-6.816407 15.15625-15.183594v-117.265625c0-8.339844-6.832031-15.183594-15.15625-15.183594zm0 0" fill="#bbdefb"/><path d="m181.199219 147.398438-16.089844 21.621093 43.335937 51.992188h17.316407c8.324219 0 15.15625-6.820313 15.15625-15.1875v-15.386719l-22.367188-27.386719-12.585937-15.683593c-6.746094-9.535157-16.882813-10.472657-24.765625.03125zm0 0" fill="#51db61"/><path d="m108.632812 162.085938-15.070312 20.335937v23.402344c0 8.371093 6.804688 15.1875 15.15625 15.1875h99.726562l-43.335937-51.992188-5.785156-6.933593-13.023438-16.265626c-7.007812-9.859374-17.519531-10.824218-25.667969.058594zm0 0" fill="#51db61"/><path d="m130.59375 147.925781c0 30.808594 16.117188 57.8125 40.355469 73.085938h37.496093l-43.335937-51.992188-5.785156-6.933593-13.023438-16.265626c-4.234375-5.910156-9.695312-8.632812-15.183593-7.492187-.351563 3.160156-.523438 6.351563-.523438 9.597656zm0 0" fill="#1ab52c"/><path d="m193.085938 147.925781c0 30.019531 15.300781 56.46875 38.515624 71.914063 5.460938-2.308594 9.316407-7.722656 9.316407-14.011719v-15.390625l-22.371094-27.382812-12.585937-15.683594c-3.503907-4.972656-7.941407-7.605469-12.527344-7.488282-.234375 2.628907-.347656 5.320313-.347656 8.042969zm0 0" fill="#1ab52c"/><path d="m219.277344 88.5625v75.367188l21.640625 26.507812v-101.875c0-8.339844-6.832031-15.1875-15.15625-15.1875h-21.640625c8.351562.003906 15.15625 6.847656 15.15625 15.1875zm0 0" fill="#7fbaeb"/></g><path d="m413.121094 134.710938h-48.355469c-4.300781 0-7.789063-3.488282-7.789063-7.792969 0-4.300781 3.488282-7.789063 7.789063-7.789063h48.355469c4.300781 0 7.789062 3.488282 7.789062 7.789063-.003906 4.304687-3.488281 7.792969-7.789062 7.792969zm0 0" fill="#666"/><path d="m413.121094 99.367188h-131.757813c-4.300781 0-7.789062-3.488282-7.789062-7.792969 0-4.300781 3.488281-7.789063 7.789062-7.789063h131.757813c4.300781 0 7.789062 3.488282 7.789062 7.789063 0 4.304687-3.488281 7.792969-7.789062 7.792969zm0 0" fill="#666"/><path d="m413.121094 170.054688h-131.757813c-4.300781 0-7.789062-3.488282-7.789062-7.792969 0-4.300781 3.488281-7.792969 7.789062-7.792969h131.757813c4.300781 0 7.789062 3.492188 7.789062 7.792969 0 4.304687-3.488281 7.792969-7.789062 7.792969zm0 0" fill="#666"/><path d="m413.121094 205.398438h-131.757813c-4.300781 0-7.789062-3.492188-7.789062-7.792969 0-4.304688 3.488281-7.792969 7.789062-7.792969h131.757813c4.300781 0 7.789062 3.488281 7.789062 7.792969 0 4.300781-3.488281 7.792969-7.789062 7.792969zm0 0" fill="#666"/><path d="m54.371094 169.265625c-1.816406 0-3.640625-.632813-5.117188-1.921875l-18.019531-15.742188c-3.894531-3.386718-6.101563-8.386718-6.042969-13.703124.058594-5.292969 2.371094-10.347657 6.1875-13.519532l18.011719-15.003906c3.304687-2.753906 8.214844-2.304688 10.96875 1.003906 2.75 3.304688 2.300781 8.21875-1.003906 10.972656l-18.015625 15.007813c-.199219.164063-.566406.832031-.574219 1.710937-.003906.53125.113281 1.269532.699219 1.78125l18.03125 15.75c3.238281 2.832032 3.570312 7.753907.742187 10.996094-1.539062 1.761719-3.699219 2.667969-5.867187 2.667969zm0 0" fill="#666"/><path d="m170.132812 275.78125c-9.871093 0-17.875 8.015625-17.875 17.875 0 9.890625 8.003907 17.875 17.875 17.875 9.839844 0 17.839844-7.984375 17.839844-17.875 0-9.859375-8-17.875-17.839844-17.875zm0 0" fill="#ff7b83" fill-rule="evenodd"/><path d="m254.699219 275.78125c-9.839844 0-17.839844 8.015625-17.839844 17.875 0 9.890625 8 17.875 17.839844 17.875 9.871093 0 17.84375-7.984375 17.84375-17.875 0-9.859375-7.972657-17.875-17.84375-17.875zm0 0" fill="#ffc107" fill-rule="evenodd"/><path d="m339.300781 275.78125c-9.871093 0-17.875 8.015625-17.875 17.875 0 9.890625 8.003907 17.875 17.875 17.875 9.839844 0 17.839844-7.984375 17.839844-17.875 0-9.859375-8-17.875-17.839844-17.875zm0 0" fill="#ffc107" fill-rule="evenodd"/><path d="m477.394531 44.703125v278.589844c0 24.605469-20.089843 44.707031-44.621093 44.707031h34.605468c24.53125 0 44.621094-20.101562 44.621094-44.707031v-278.589844c0-24.601563-20.089844-44.703125-44.621094-44.703125h-34.605468c24.53125 0 44.621093 20.101562 44.621093 44.703125zm0 0" fill="#bdbdbd" fill-rule="evenodd"/><path d="m456.546875 170.054688c-2.167969 0-4.328125-.902344-5.867187-2.667969-2.828126-3.242188-2.496094-8.164063.742187-10.996094l18.019531-15.738281c.609375-.535156.730469-1.289063.722656-1.824219-.011718-.84375-.355468-1.519531-.582031-1.707031l-18.019531-15.011719c-3.304688-2.75-3.753906-7.664063-1.003906-10.972656 2.753906-3.304688 7.664062-3.753907 10.96875-1.003907l18.019531 15.011719c3.808594 3.171875 6.125 8.214844 6.191406 13.488281.066407 5.316407-2.136719 10.328126-6.046875 13.75l-18.023437 15.75c-1.476563 1.289063-3.304688 1.921876-5.121094 1.921876zm0 0" fill="#666"/><path d="m329.078125 134.710938h-47.714844c-4.300781 0-7.789062-3.488282-7.789062-7.792969 0-4.300781 3.488281-7.789063 7.789062-7.789063h47.714844c4.300781 0 7.785156 3.488282 7.785156 7.789063 0 4.304687-3.484375 7.792969-7.785156 7.792969zm0 0" fill="#666"/></svg>