<svg id="Companion" viewBox="0 0 64 64" xmlns="http://www.w3.org/2000/svg"><path d="m36 53h-8c-.55 0-1 .45-1 1v2c0 2.76 2.24 5 5 5s5-2.24 5-5v-2c0-.55-.45-1-1-1z" fill="#7834bf"/><path d="m51 22c-.55 0-1-.45-1-1v-13c0-.55.45-1 1-1s1 .45 1 1v13c0 .55-.45 1-1 1z" fill="#995cea"/><circle cx="51" cy="6" fill="#f3388f" r="3"/><path d="m13 22c-.55 0-1-.45-1-1v-13c0-.55.45-1 1-1s1 .45 1 1v13c0 .55-.45 1-1 1z" fill="#995cea"/><path d="m41.89 49.39c-.19-.24-.48-.39-.79-.39h-18.2c-.31 0-.6.14-.79.39-.19.24-.26.56-.18.86l.25.96c.56 2.23 2.57 3.79 4.89 3.79h9.86c2.32 0 4.33-1.56 4.89-3.78l.25-.97c.08-.3.01-.62-.18-.86z" fill="#995cea"/><path d="m42.95 38.95c-.96-1.24-2.42-1.95-4-1.95h-13.9c-1.58 0-3.04.71-4 1.95-.95 1.22-1.28 2.77-.9 4.26l1.97 7.78h19.76l1.97-7.78c.38-1.49.05-3.04-.9-4.26z" fill="#7834bf"/><path d="m34 37.94h-4c-.55 0-1 .45-1 1v2.06c0 1.65 1.35 3 3 3s3-1.35 3-3v-2.06c0-.55-.45-1-1-1z" fill="#b485ff"/><path d="m16 20h-3c-1.65 0-3 1.35-3 3v2c0 1.65 1.35 3 3 3h3c.55 0 1-.45 1-1v-6c0-.55-.45-1-1-1z" fill="#7834bf"/><path d="m51 20h-3c-.55 0-1 .45-1 1v6c0 .55.45 1 1 1h3c1.65 0 3-1.35 3-3v-2c0-1.65-1.35-3-3-3z" fill="#7834bf"/><path d="m42.74 10.53c-6.48-2-14.99-2-21.48 0-3.75 1.16-6.26 4.6-6.26 8.58v9.79c0 3.97 2.52 7.42 6.26 8.58 3.24 1 6.95 1.53 10.74 1.53s7.5-.53 10.74-1.53c3.75-1.16 6.26-4.6 6.26-8.58v-9.79c0-3.97-2.52-7.42-6.26-8.58z" fill="#995cea"/><path d="m37 17h-10c-4.41 0-8 3.59-8 8s3.59 8 8 8h10c4.41 0 8-3.59 8-8s-3.59-8-8-8z" fill="#f1f2f2"/><circle cx="26" cy="25" fill="#7834bf" r="3"/><circle cx="38" cy="25" fill="#7834bf" r="3"/><circle cx="13" cy="6" fill="#f3388f" r="3"/></svg>