<svg height="512" viewBox="0 0 32 32" width="512" xmlns="http://www.w3.org/2000/svg"><g id="star"><path d="m30.1636 12.7241a1.0006 1.0006 0 0 0 -.8076-.6806l-8.6089-1.25-3.85-7.8018a1.0418 1.0418 0 0 0 -1.794 0l-3.85 7.8018-8.6089 1.25a1 1 0 0 0 -.5548 1.7065l6.2294 6.0718-1.4707 8.5757a1 1 0 0 0 1.4512 1.0537l7.7007-4.0479 7.7007 4.0479a1.0013 1.0013 0 0 0 1.0532-.0762 1.0246 1.0246 0 0 0 .398-.9775l-1.4707-8.5762 6.2294-6.0713a1.0013 1.0013 0 0 0 .253-1.0259z" fill="#cdeef6"/><path d="m30.1636 12.7241a1 1 0 0 0 -.8076-.6806l-8.6089-1.2505-3.85-7.8018a1.0418 1.0418 0 0 0 -1.794 0l-3.85 7.8018-8.6091 1.2505a1 1 0 0 0 -.5546 1.706l6.2294 6.0718-1.4707 8.5762a1 1 0 0 0 1.4512 1.0537l7.7007-4.0479 7.7007 4.0479a1.0014 1.0014 0 0 0 1.0532-.0762 1.0246 1.0246 0 0 0 .398-.9775l-1.4707-8.5762 6.2294-6.0713a1.001 1.001 0 0 0 .253-1.0259zm-8.2554 6.0327a1.0016 1.0016 0 0 0 -.2876.8848l1.2173 7.0967-6.3726-3.35a.9965.9965 0 0 0 -.9306 0l-6.3726 3.35 1.2173-7.0967a1.0016 1.0016 0 0 0 -.2876-.8848l-5.1553-5.0254 7.124-1.0346a1.0007 1.0007 0 0 0 .7535-.5474l3.186-6.456 3.186 6.456a1.0007 1.0007 0 0 0 .7535.5474l7.124 1.0346z" fill="#4f83d1"/></g></svg>