<svg id="Capa_1" enable-background="new 0 0 510 510" height="512" viewBox="0 0 510 510" width="512" xmlns="http://www.w3.org/2000/svg"><g><path d="m210 428.762v51.238l22.5 15 27.997-10.38 9.503-27.12-15-22.5-22.717-15z" fill="#e8f1fd"/><path d="m300 428.762-22.283-8.762-22.717 15v45l22.5 15 22.5-15c0-16.3 0-34.938 0-51.238z" fill="#cfdbfd"/><path d="m150 480v30h105l15-15-15-15c-28.278 0-88.527 0-105 0z" fill="#cfdbfd"/><path d="m360 480c-28.278 0-88.527 0-105 0v30h105c0-10.492 0-19.508 0-30z" fill="#b3c7ef"/><path d="m150 105 15 15-15 15v30l15 15-15 15v30l15 15-15 15c0 57.896 47.101 105 105 105l15-180-15-180c-57.896 0-105 47.101-105 105z" fill="#4e5f7f"/><path d="m360 255-15-15 15-15v-30l-15-15 15-15v-30l-15-15 15-15c0-57.896-47.101-105-105-105v360c57.896 0 105-47.101 105-105z" fill="#3e4665"/><path d="m120 270c0-5.246 0-9.754 0-15h30l15-15-15-15c-7.259 0-52.693 0-60 0v45c0 90.979 74.016 165 165 165l15-15-15-15c-74.438 0-135-60.559-135-135z" fill="#cfdbfd"/><path d="m420 270c0-14.981 0-30.019 0-45-7.259 0-52.693 0-60 0l-15 15 15 15h30v15c0 74.438-60.559 135-135 135v30c90.979 0 165-74.016 165-165z" fill="#b3c7ef"/><path d="m405 150h30v-90h-30z" fill="#6594e2"/><path d="m465 210h30c0-10 0-170 0-180h-30z" fill="#6594e2"/><path d="m105 180c-10.492 0-19.508 0-30 0v-90h30z" fill="#8bcafc"/><path d="m45 210c-10.492 0-19.508 0-30 0v-180h30z" fill="#8bcafc"/><path d="m300 135h60c0-10.492 0-19.508 0-30-7.259 0-52.693 0-60 0z" fill="#2e2f4c"/><path d="m300 195h60c0-10.492 0-19.508 0-30-7.259 0-52.693 0-60 0z" fill="#2e2f4c"/><path d="m300 255h60c0-10.492 0-19.508 0-30-7.259 0-52.693 0-60 0z" fill="#2e2f4c"/><g fill="#3e4665"><path d="m210 135c-7.259 0-52.693 0-60 0 0-10.492 0-19.508 0-30h60z"/><path d="m210 195c-7.259 0-52.693 0-60 0 0-10.492 0-19.508 0-30h60z"/><path d="m210 255c-7.259 0-52.693 0-60 0 0-10.492 0-19.508 0-30h60z"/></g></g></svg>