<svg clip-rule="evenodd" fill-rule="evenodd" stroke-linejoin="round" stroke-miterlimit="2" viewBox="0 0 510 510" xmlns="http://www.w3.org/2000/svg"><g><g fill="#a4d4ff"><path d="m310.308 13.821 76.414 76.414h-76.414z"/><circle cx="86.642" cy="78.321" r="16.5"/><circle cx="315.642" cy="176.893" r="16.5"/><circle cx="90.063" cy="275.464" r="16.5"/><path d="m470.775 246.329c0-31.208-25.3-56.508-56.508-56.508h-.003c-31.208 0-56.508 25.3-56.508 56.508v100.509c0 31.209 25.3 56.508 56.508 56.508h.003c31.208 0 56.508-25.299 56.508-56.508z"/></g><path d="m350.194 348.017v-100.509c0-35.075 28.433-63.508 63.508-63.508h.002c35.075 0 63.508 28.433 63.508 63.508v100.509c0 35.074-28.433 63.508-63.508 63.508h-.002c-35.075 0-63.508-28.434-63.508-63.508zm14-4.401v4.401c0 27.342 22.165 49.508 49.508 49.508h.002c27.343 0 49.508-22.166 49.508-49.508v-100.509c0-27.343-22.165-49.508-49.508-49.508h-.002c-27.343 0-49.508 22.165-49.508 49.508v4.4h49.509c3.863 0 7 3.137 7 7 0 3.864-3.137 7-7 7h-49.509v24.854h49.509c3.863 0 7 3.137 7 7 0 3.864-3.137 7-7 7h-49.509v24.854h49.509c3.863 0 7 3.137 7 7 0 3.864-3.137 7-7 7zm-61.448-321.616h-280.746v456h316c3.863 0 7 3.137 7 7s-3.137 7-7 7h-323c-3.866 0-7-3.134-7-7v-470c0-3.866 3.134-7 7-7h294.746c1.856 0 3.637.737 4.95 2.05l76.413 76.414c1.313 1.313 2.05 3.093 2.05 4.95v74.711c0 3.864-3.136 7-7 7-3.863 0-7-3.136-7-7v-67.711h-69.413c-3.866 0-7-3.134-7-7zm66.514 62.414-52.514-52.515v52.515zm-283.18-28.414c12.97 0 23.5 10.53 23.5 23.5s-10.53 23.5-23.5 23.5-23.5-10.53-23.5-23.5 10.53-23.5 23.5-23.5zm0 14c-5.244 0-9.5 4.257-9.5 9.5s4.256 9.5 9.5 9.5c5.243 0 9.5-4.257 9.5-9.5s-4.257-9.5-9.5-9.5zm229 84.571c12.97 0 23.5 10.53 23.5 23.5s-10.53 23.5-23.5 23.5-23.5-10.53-23.5-23.5 10.53-23.5 23.5-23.5zm0 14c-5.244 0-9.5 4.257-9.5 9.5 0 5.244 4.256 9.5 9.5 9.5 5.243 0 9.5-4.256 9.5-9.5 0-5.243-4.257-9.5-9.5-9.5zm-225.58 84.572c12.97 0 23.5 10.53 23.5 23.5s-10.53 23.5-23.5 23.5-23.5-10.53-23.5-23.5 10.53-23.5 23.5-23.5zm0 14c-5.243 0-9.5 4.257-9.5 9.5s4.257 9.5 9.5 9.5 9.5-4.257 9.5-9.5-4.257-9.5-9.5-9.5zm36.08-180.643c-3.864 0-7-3.137-7-7s3.136-7 7-7h147c3.863 0 7 3.137 7 7s-3.137 7-7 7zm-40.5 49.286c-3.864 0-7-3.137-7-7 0-3.864 3.136-7 7-7h187.5c3.863 0 7 3.136 7 7 0 3.863-3.137 7-7 7zm0 49.285c-3.864 0-7-3.136-7-7 0-3.863 3.136-7 7-7h187.5c3.863 0 7 3.137 7 7 0 3.864-3.137 7-7 7zm1 49.286c-3.864 0-7-3.136-7-7 0-3.863 3.136-7 7-7h229c3.863 0 7 3.137 7 7 0 3.864-3.137 7-7 7zm0 98.572c-3.864 0-7-3.137-7-7 0-3.864 3.136-7 7-7h229c3.863 0 7 3.136 7 7 0 3.863-3.137 7-7 7zm0 49.285c-3.864 0-7-3.136-7-7 0-3.863 3.136-7 7-7h229c3.863 0 7 3.137 7 7 0 3.864-3.137 7-7 7zm0 49.286c-3.864 0-7-3.137-7-7s3.136-7 7-7h103.92c3.863 0 7 3.137 7 7s-3.137 7-7 7zm41.5-147.857c-3.864 0-7-3.137-7-7 0-3.864 3.136-7 7-7h187.5c3.863 0 7 3.136 7 7 0 3.863-3.137 7-7 7zm286.123 138.669c19.705 0 38.603-7.827 52.536-21.761 13.933-13.933 21.761-32.831 21.761-52.535 0-3.864 3.137-7 7-7s7 3.136 7 7c0 23.417-9.303 45.876-25.862 62.435-14.9 14.901-34.579 23.926-55.435 25.584v51.965h44.908c3.863 0 7 3.137 7 7s-3.137 7-7 7h-103.816c-3.863 0-7-3.137-7-7s3.137-7 7-7h44.908v-51.965c-20.856-1.658-40.534-10.683-55.435-25.584-16.559-16.559-25.862-39.018-25.862-62.435 0-3.864 3.137-7 7-7 3.864 0 7 3.136 7 7 0 19.704 7.828 38.602 21.761 52.535 13.933 13.934 32.831 21.761 52.536 21.761z" fill="#1f4571"/></g></svg>