<svg id="Layer_22" viewBox="0 0 32 32" xmlns="http://www.w3.org/2000/svg" data-name="Layer 22"><path d="m27.9824219 15.3833008-18.7778321-13c-.2290039-.1591797-.527832-.1767578-.7749023-.0478516-.2470703.1298828-.4018555.3857422-.4018555.6645508v26c0 .2788086.1547852.534668.4018555.6645508.109375.0571289.2290039.0854492.3481445.0854492.1499023 0 .2993164-.0449219.4267578-.1333008l18.777832-13c.2026367-.1401367.3232422-.3706055.3232422-.6166992s-.1206055-.4765625-.3232422-.6166992zm-18.4545898 12.1850586v-23.1367188l16.7104492 11.5683594zm-4.3334962-24.5683594v26c0 .4140625-.3359375.75-.75.75s-.75-.3359375-.75-.75v-26c0-.4140625.3359375-.75.75-.75s.75.3359375.75.75z"/></svg>