<svg id="Icons" height="512" viewBox="0 0 60 60" width="512" xmlns="http://www.w3.org/2000/svg"><path d="m24 53-13-14-1-1v-16l1-1 13-14 1 1v44z" fill="#ccd0da"/><path d="m24 7h2a2 2 0 0 1 2 2v42a2 2 0 0 1 -2 2h-2a0 0 0 0 1 0 0v-46a0 0 0 0 1 0 0z" fill="#b9bfcc"/><path d="m11 21v18h-8a2 2 0 0 1 -2-2v-14a2.006 2.006 0 0 1 2-2z" fill="#d6dbe3"/><g fill="#37cba1"><path d="m33.658 37.659-1.3-1.293a1.2 1.2 0 0 1 -.13-1.559 8.461 8.461 0 0 0 1.772-4.807 8.468 8.468 0 0 0 -1.773-4.807 1.2 1.2 0 0 1 .129-1.558l1.3-1.294a1 1 0 0 1 1.486.083 12.652 12.652 0 0 1 2.858 7.576 12.652 12.652 0 0 1 -2.856 7.576 1 1 0 0 1 -1.486.083z"/><path d="m40.673 46.685-1.366-1.391a1.059 1.059 0 0 1 -.049-1.438c1.633-1.885 5.742-7.285 5.742-13.856s-4.11-11.971-5.743-13.856a1.058 1.058 0 0 1 .049-1.437l1.365-1.392a1 1 0 0 1 1.455.029c1.91 2.146 6.874 8.51 6.874 16.656s-4.964 14.51-6.873 16.656a.994.994 0 0 1 -1.454.029z"/><path d="m47.679 53.7-1.371-1.39a1.058 1.058 0 0 1 -.043-1.447c2.151-2.42 8.735-10.67 8.735-20.863s-6.584-18.443-8.735-20.866a1.058 1.058 0 0 1 .043-1.447l1.371-1.387a1 1 0 0 1 1.452.031c2.409 2.65 9.869 11.822 9.869 23.669s-7.459 21.018-9.869 23.671a1 1 0 0 1 -1.452.029z"/></g><path d="m20.74 17.67-9.74 10.77v-2.98l8.26-9.13a1 1 0 1 1 1.48 1.34z" fill="#e2e4e8"/><path d="m11 28h-6a1 1 0 0 1 0-2h6z" fill="#f0f2f5"/></svg>