<svg id="Layer_1" enable-background="new 0 0 55 55" height="512" viewBox="0 0 55 55" width="512" xmlns="http://www.w3.org/2000/svg"><g fill="rgb(0,0,0)"><path d="m3.9143729 35.2906837.0913086.9553223.0615234.4912109.0244141.1396484c.017334.0681152.0200195.1530762.0522461.220459l.1015625.2011719c.0334473.0666504.0444336.1477051.1013184.2004395.2578125.2558594.3913574.3405762.5581055.4506836.7016215.4513397 1.6578927.721756 2.4724121.8579102l.5402832.0463867.4741206.0229492c4.7075138.1631203 2.3286533.0996666 10.3464365.2695313-.0600586.0908203-.1181641.1950684-.1628418.3369141-.0866699.3081055-.0739746.7141113.1005859 1.1281738.1582031.4101563.5615234.8452148 1.0375977 1.088623.5727539.3100586 1.2248535.434082 1.9013672.5021973-.7799473 1.2117043-1.6989231 2.9945526-2.4985352 5.0891113-.2141113.6542969-.5986328 1.3178711-.5739746 2.3691406.0234375.5251465.2575684 1.0788574.6491699 1.4758301.3884277.4091797.979248.6657715 1.5500488.6699219 1.1281738.0268555 2.0812988-.7045898 2.5180664-1.5134277.435791-.8137207.5969238-1.4631348.8596191-2.1181641.5505123-1.50811 1.5255718-4.2644653 1.8999023-5.8325195.589529-.004921 1.1770649.0096779 3.0678711-.0825195.3762512 1.5637093 1.3379288 4.2857323 1.8933105 5.8063965.2626953.6547852.423584 1.3044434.8596191 2.1181641.4367657.8088379 1.3896465 1.5402832 2.5178204 1.5134277.5710449-.0041504 1.1618652-.2609863 1.5500488-.6699219.3918457-.3972168.6257324-.9506836.6491699-1.4760742.0246582-1.0510254-.3598633-1.7148438-.5737305-2.3688965-.6576729-1.7219238-1.5990791-3.7383118-2.6118164-5.2609863.3625488-.0629883.7268066-.1635742 1.057373-.3696289.5285645-.3193359.800293-.8632813.8769531-1.2805176.0844727-.4279785.0473633-.7731934.0036621-1.0437012-.0002441-.0007324-.0002441-.0012207-.0004883-.0019531 3.5124512-.0332031 6.8803711-.1013184 10.0629883-.2531738 1.4589958-.0865784 3.0786705-.1066551 4.3222656-.4377441.4804688-.130127 1.010498-.3344727 1.4448242-.782959.440918-.4599609.5510254-1.1479492.5324707-1.5915527.0090179-.9555511.0100975-1.0336456.0341797-3.8305664-.0559082-6.5688477-.2739258-11.8666992-.3859863-15.5288086-.2762222-7.5578432-.4746857-7.5858164-.5476074.0090332-.0148926 3.659668-.0366211 8.9580078-.0634766 15.5144043-.0224609.8178711-.092041 3.3718262-.1037598 3.8093262-.0012207.4267578-.0759277.6687012-.2626953.8757324-.4016113.4130859-1.3413086.5720215-2.2114258.652832-.8925781.0822754-1.8508301.0961914-2.8078613.1398926-7.4448929.2557564-18.5432091.1151276-25.9536114-.034668-8.7059278-.2137642-6.2332067-.1413651-10.9052744-.3120117l-.4572754-.0227051-.3908687-.029541c-.6125689-.1029739-1.4209232-.3180733-1.9404297-.6542969-.0979004-.0581055-.2199707-.1623535-.1811523-.1303711l-.0161133-.0944824-.0541992-.4365234-.0874023-.9162598c-.3791504-5.0915527-.5498047-10.1184082-.6335449-14.9472656-.0319824-2.4145508-.0400391-4.7932138.078125-7.0881357.027832-.5742188.0778809-1.1369629.1425781-1.6826172.0395508-.2653809.0812988-.5302734.140625-.7485352.0439453-.1062012.0244141-.1335449.1010742-.2268066l.1931152-.2468262c.5695805-.6625978 1.6281742-1.0522463 2.6333012-1.3183596 2.0610347-.532959 4.2285151-.6713867 6.3090816-.770752 1.8898745-.0758505 1.9194937-.0607729 17.1430664-.1821284 3.3725567-.0402832 6.4233379-.0766602 9.1025372-.1086426 2.6787109-.0898438 4.9660645-.1235352 6.8156738.0891113 1.7895508.2380366 3.4199219.6037593 3.4091797 1.6896968.1083984.9577637.1396484 1.5014648.1977539 1.4931641.0393066-.0075684.107666-.5090332.0874023-1.5307617-.0644379-.7340536-.3725281-1.1783953-1.151123-1.5180664-.6906738-.295898-1.5166016-.5356441-2.4672852-.6843257-1.8903809-.3049316-4.2290039-.3503418-6.9013672-.3366699-2.1481934-.0241699-4.5461426-.0512695-7.1472168-.0805664.0124512-.4702148-.1474609-1.1135254-.6015625-1.7338867-.4841309-.6870117-1.3676739-1.3535159-2.418211-1.6635745-1.0490723-.3388672-2.2307129-.4072266-3.3984375-.3757324-1.1516113.0366211-2.2849121.0869141-3.3400879.3684082-1.0410156.2629395-1.9880371.8232424-2.5126953 1.5144045-.5080566.6257324-.6801758 1.3037109-.6601563 1.7819824-1.3620129 0-3.8973999-.0447927-6.2021494.0234375-2.128418.0830078-4.3339844.1906738-6.5991206.753418-1.1113281.3093262-2.3269043.650146-3.3054199 1.7045894l-.3320303.4304199c-.1071777.1259766-.1960449.3918457-.2478027.5507813-.0935059.3356934-.1401367.6396484-.1879883.9443359-.0756836.5996094-.1308594 1.1931152-.1630859 1.7836914-.1357422 2.3640137-.1381836 4.7524424-.1157227 7.1862803.065918 4.8676758.2248535 9.8830566.609375 15.0490722zm20.1477056 5.6772461c-.2435627.0050774-.9443169.0197754-1.0498047.0212402-.027277-.6078873-.2585831-1.3032684-.6015625-1.7880859.4528809.0053711.9008789.0095215 1.3503418.0141602-.0193615.5371628.136755 1.2389488.3010254 1.7526855zm-1.1687012 6.7314454c-.2797852.6179199-.5375977 1.3745117-.8361816 1.8803711-.1599121.2575684-.3344727.4504395-.5563965.5856934-.2255859.1386719-.4960938.2229004-.7258301.2141113-.442627.0058594-.8049316-.3745117-.8378906-.8181152-.0534668-.4763184.2180176-1.1801758.4191895-1.8325195.4199219-1.2990723.8425293-2.4567871 1.206543-3.4289551.3115234-.824707.5737305-1.5070801.763916-2.0380859.8990269.0497551 1.5896816.0822945 3.050293.0854492-.2744142.5004882-1.8438264 3.846855-2.4836427 5.3520507zm2.5588379-6.7600098c-.0519829-.6501274-.2554874-1.2494583-.5380859-1.7141113.5900879.005127 1.1821289.010498 1.7658691.013916-.1564369.4467888-.0085907 1.172657.4689941 1.6652832-.0375976.0007324-1.6001148.0329132-1.6967773.0349121zm6.3227539-.5336914c.0551758.1542969.1264648.2915039.2041016.4150391-.7064037-.0068893-.7310066.0031738-1.3017578.0146484.0053711-.2749023-.0686035-.6071777-.2290039-.9387207-.1308594-.270752-.3005371-.4812012-.4765625-.6464844.6032715.0004883 1.1962891-.001709 1.791748-.0031738-.1403809.2690429-.152832.6999511.0114746 1.1586914zm-2.6113281.1123047c.0620117.1281738.1376953.2358398.2128906.3427734-.4133301.0083008-.8413086.0166016-1.2724609.0249023.1306152-.2724609.1484375-.6843262-.0229492-1.119873-.0827637-.2114258-.1989746-.3786621-.3242188-.5224609.4147949.001709.8308105.0036621 1.2421875.0046387-.1176758.3024902-.0698242.7854003.1645508 1.2700195zm5.5795879 7.1022949c.2009277.6523438.4726563 1.3562012.4191895 1.8322754-.0332031.4436035-.3955078.8239746-.8378906.8183594-.2299805.0087891-.5002441-.0756836-.7258301-.2141113-.222168-.1352539-.3964844-.328125-.5563965-.5856934-.045166-.0766602-.0878906-.1674805-.1313477-.2541504.1281738-.0124512.2600098-.0324707.3969727-.0859375.6508789-.2529297.9306641-.8457031.7001953-1.1618652-.2314453-.3222656-.7497559-.3464355-1.2180176-.1679688-.1474609.0585938-.2773438.140625-.3950195.230957-.1525764-.3683319-.1126442-.2621498-.34375-.8017578.5466309-.1689453.8989258-.6037598.7868652-.9782715-.1130371-.3774414-.6538086-.5490723-1.20825-.3833008-.0527344.0158691-.0932617.0444336-.1420898.0646973-.0654297-.1477051-.1291504-.2900391-.1928711-.432373.1704102.0026855.3493652-.015625.5341797-.0839844.5559063-.2053223.89575-.6716309.7590313-1.0412598-.1364746-.3696289-.6979961-.5026855-1.2539043-.2971191-.2197266.0812988-.3913574.2089844-.5275879.3496094-.03125-.0671387-.0644531-.140625-.0949707-.2060547-.3864746-.8261719-.722168-1.4975586-.9980469-1.9995117 1.3686924-.0778275.9932308-.0537338 3.006834-.2158203.1921387.5476074.4753418 1.2824707.815918 2.1843262.3642577.9721679.7868651 2.1298827 1.206787 3.428955zm.0117188-8.3898926c-.0004883.0021973-.0007324.003418-.0009766.0056152-.0725098.4733887-.2260742 1.2021484-.8146973 1.4338379-.1804199.0808105-.4326172.1188965-.7250977.1379395.0446777-.2553711.0166016-.5698242-.0959473-.8835449-.1010742-.2819824-.2583008-.5107422-.4311523-.6789551.8439065-.0019264.8947983-.0050278 2.0678712-.0148926zm-13.3955059-.0437012c-.0717773.3435059-.034668.8347168.130127 1.3547363.0517578.1635742.1142578.314209.1809082.4567871-.5981445-.0092773-1.1245117-.0532227-1.5273438-.2111816-.6994629-.2258301-.9936523-.8300781-1.0175781-1.2268066-.0131836-.1660156.0158691-.2954102.0476074-.404541.0566406.0012207.114502.0024414.1708984.0036621.6779785.0107422 1.3444824.0183105 2.0153809.0273437zm.4980468-33.4167485c.4785156-.4375 1.1762695-.753418 2.0710449-.9206543.8820801-.1711426 1.9438477-.1887207 3.0773926-.2226563 1.1166992-.0310059 2.1411133.0021973 3.005127.2141113.8764648.1953125 1.5273438.5922852 2.0070782 1.0507813.3955078.3745117.6049805.751709.7331543 1.0742188-1.8463402-.0207572.156662-.0028095-11.678709-.0961914.1267089-.3295899.3437499-.7207031.784912-1.0996094z"/><path d="m44.1882973 16.9850197c-.2768555.5358887-.5834961 1.1828613-.9035645 1.9091797-.1555176.3647461-.3188477.7478027-.4882813 1.1447754-.1618652.3723145-.3413086.8901367-.4724121 1.1159668.1416016.2155762-1.126709.2324219-1.8173828.3356934-.779541.0837402-1.4819336.1591797-2.0722656.2226563-.3361816.0395508-.6320801.0795898-.890625.1208496-.0490723-.5178223-.1181641-1.0419922-.2243652-1.5744629-.3969727-1.8571777-1.1818848-3.8134766-2.5864258-5.4975595-1.362793-1.7041016-3.4602032-3.0166016-5.8234844-3.4526367-1.1789551-.2404785-2.4052734-.2211914-3.6120605-.0698242-1.2131348.1218262-2.4199219.5075684-3.574707 1.0229492-.28125.1342773-.5541992.2822266-.8198242.440918-.4211426-.354248-.9042969-.671875-1.496582-.8723145-.6750488-.2148438-1.3237305-.2355957-1.8928223-.2319336-.5522461.0168457-1.0852051.032959-1.5927744.0483398-1.0092773.041748-1.9179688.0991211-2.6809082.1679688-3.2906113.2968979-3.2940683.748518.0056152 1.0090332.7636719.0603027 1.6730957.1074219 2.6826172.1379395 1.0034189.0578613 2.1760263-.046875 3.0422373.2275391.2587891.0861816.4990234.2167969.7299805.3664551-1.3261719 1.0759277-2.3723145 2.4489756-3.0078125 3.9377451-.4919434 1.081543-.8063974 2.2126465-.9550791 3.3344727-.1682129 1.119873-.1867676 2.2336426-.0725098 3.3041992.1921387 2.1479492.9084482 4.121582 1.9165049 5.7548828.1984863.3178711.4213867.6079102.6452637.895752-.4672852.0258789-.9775391.0424805-1.4765625.0898438-4.1689463.3000488-7.5256357.8618164-7.4973154 1.2548828.0280762.3930664 3.4306641.4685059 7.5998545.168457.5209961-.0424805 1.029541-.0839844 1.5209961-.1240234.3081055-.0280762.6342773-.0773926.9633789-.1489258 1.7491379 1.6398582 3.8693466 2.5398331 6.2849121 2.6650391 1.28125.0869141 2.3684082-.1149902 3.2321777-.2954102 1.7463379-.3813477 2.5646973-.9929199 2.5244141-1.0551758-.046875-.1125488-.9284668.3125-2.6220703.5083008-1.6538086.2021484-4.2663574.3215332-6.8347168-1.1877441-.4978027-.2971191-.9787598-.6726074-1.440918-1.0900879.2983398-.2026367.5551758-.4521484.7268066-.704834.2827148-.3972168.4353027-.7805176.560791-1.1149902.2382813-.6738281.371582-1.1779785.4914551-1.5290527.1125488-.3500977.1835938-.5593262.1069336-.6279297-.0688477-.0632324-.2961426.0349121-.5820313.3400879-.2890625.2988281-.5957031.8149414-.9284668 1.3852539-.3352051.560791-.7111816 1.1025391-1.3103027 1.2822266-.3427734-.409668-.6699219-.8435059-.954834-1.3291016-.8652344-1.496582-1.4780273-3.3005371-1.6166992-5.2539063-.0874023-.9729004-.0544434-1.980957.1105957-2.9851074.145752-1.0073242.4389648-2.012207.8811035-2.9602051.6052246-1.3808594 1.5793457-2.6149912 2.814209-3.5571299.1269531.144043.2529297.2895508.3701172.4399414.5952148.7536621 1.1113281 1.5175791 1.6154785 2.1208506.9904785 1.246582 1.9475098 1.7177734 2.0454102 1.5559082.119873-.1716309-.4990234-.8278809-1.2172852-2.1325684-.3764648-.6440439-.7902832-1.4460459-1.3847656-2.3242197-.0866699-.1276855-.1936035-.2629395-.2937012-.3959961.1401367-.0771484.277832-.1582031.4228516-.2280273 1.0773926-.4921875 2.2429199-.8024902 3.407959-.9333496-.229248 1.7102051-.3166504 6.0898447-.1911621 11.2434092.0234375.4350586.0231934.9702148.378418 1.5466309.1755371.2817383.4692383.5214844.7658691.6442871.298584.126709.579834.1604004.8269043.1704102.5058594.0085449.8603516-.057373 1.2358398-.0883789 1.4080906-.150835 3.0284309-.3241119 4.8847637-.5939941 1.2504883-.1818848 2.2089844-.355957 2.7998047-.5087891-.0119629.1091309-.0146484.2241211-.0297852.3312988-.3813477 2.9897461-1.7827148 5.1235352-2.9807129 6.2861328-1.2219238 1.168457-2.119627 1.572998-2.0578594 1.6906738.0180664.059082 1.008543-.166748 2.4282207-1.2768555 1.390625-1.0996094 3.0646973-3.3349609 3.607666-6.5466309.1652832-.9067383.2194824-1.8867188.1774902-2.9042969 1.2929115.2209873 2.9132118.2295609 4.253418.1435547.2050781-.0180664.4626465-.0112305.8234863-.1276855.3757324-.111084.7312012-.4606934.8774414-.7348633.3112793-.5769043.3835449-.9245605.5539551-1.3474121.142334-.4074707.2797852-.8005371.4106445-1.1750488.2526855-.7521973.4621582-1.4370117.6184082-2.0195313.6742325-2.5091766.2564583-2.6816448-.9409179-.3645023zm-10.4592285-1.3735361c.1794434.2070313.326416.4313974.4858398.6491709-2.1166344 1.6913471-6.0672035 6.1655865-7.1728497 8.1381836-.0344238-.1540527-.057373-.3537598-.0603027-.5820313-.0212402-.869873-.0476074-1.7163086-.0778809-2.5336914.1862793-.1704102.40625-.3920898.6794434-.6662598.6259766-.6352539 1.5397949-1.5419922 2.4541016-2.6276855 1.1774902-1.3852539 2.1054668-2.680665 2.5441875-3.5034189.4199219.3415527.8071289.7163085 1.147461 1.1257324zm-7.0219708 1.668458c.4802246-.3134766 1.2385254-1.2185059 2.0290527-2.3193369.510498-.7155762.9440918-1.3898926 1.2268066-1.9291992.7128906.2468262 1.3808594.5820313 1.9902344.9909668-.7416992.5771484-1.8515625 1.6879883-3.0029297 3.0422373-.8681641 1.0319824-1.623291 1.9951172-2.1035156 2.8303223-.0419921-.9284669-.088623-1.8061525-.1396484-2.6149903zm1.9504395-4.5952158c.0439453.0078125.0859375.020752.1296387.0290527-.9073544.8743391-1.7157078 2.0476904-2.1855469 3.0695801-.1118164-1.4311523-.2363281-2.543457-.362793-3.2155762.8232422-.0556641 1.6398926-.0187988 2.4187012.1169434zm-.0112305 12.0900888c-.3735352.020752-.7827148.0671387-1.0588379.0498047-.0205078-.001709-.032959-.0048828-.0515137-.0068359 1.7818203-1.2887325 5.6065006-5.4859161 7.1596661-7.8642578.501709.8154297.8845215 1.6762695 1.1682129 2.5444336-.590332.3271484-1.5185547 1.1645508-2.3833008 2.3288574-.7910156 1.0576172-1.3198242 2.0913086-1.5214825 2.7636719-1.4065761.0607433-2.3093033.1209983-3.3127441.1843261zm4.4504375-.2270508c.9917831-1.062006 2.4635963-3.0763245 3.0395508-4.1262207.0078125.0317383.0205078.0637207.0280762.095459.3215332 1.4064941.4147949 2.7797852.3244629 4.050293-.9093437-.0861645-2.4931107-.0477581-3.3920899-.0195313z"/></g></svg>