<svg id="Layer_1" enable-background="new 0 0 100 100" viewBox="0 0 100 100" xmlns="http://www.w3.org/2000/svg" xmlns:xlink="http://www.w3.org/1999/xlink"><linearGradient id="lg1"><stop offset="0" stop-color="#97e0ff"/><stop offset="1" stop-color="#1075ff"/></linearGradient><linearGradient id="SVGID_1_" gradientUnits="userSpaceOnUse" x1="16.062" x2="108.079" xlink:href="#lg1" y1="-19.554" y2="81.286"/><linearGradient id="SVGID_00000054951158086862973700000015021359921561066399_" gradientUnits="userSpaceOnUse" x1="-16.205" x2="75.812" xlink:href="#lg1" y1="9.89" y2="110.73"/><path d="m90.6090622 9.3534832c-4.3942261-4.3942175-10.1865997-6.7910638-16.3784561-6.7910638-6.1918488 0-11.9842262 2.3968463-16.3784485 6.7910638l-10.6859322 10.586071c-2.0972366 2.0972404-2.0972366 5.3929043 0 7.390276 2.0972404 2.0972404 5.3929062 2.0972404 7.3902779 0l10.5860748-10.5860729c4.7936935-4.7936916 13.1826477-4.7936916 17.8764801 0 4.8935623 4.8935623 4.8935623 12.9829178 0 17.8764782l-17.4770126 17.7766113c-4.7936935 4.7936935-13.1826553 4.7936935-17.8764801 0-2.0972404-2.0972366-5.3929062-2.0972366-7.3902779 0-2.0972366 2.0972404-2.0972366 5.3929062 0 7.3902779 4.3942223 4.3942184 10.1865959 6.791069 16.3784523 6.791069s11.98423-2.3968506 16.3784485-6.7910652l17.6767426-17.6767426c4.3942184-4.3942185 6.791069-10.1865959 6.791069-16.3784466s-2.4967194-11.9842377-6.8909378-16.3784561z" fill="url(#SVGID_1_)"/><path d="m45.2687225 72.5703049-10.586071 10.6859436c-4.8935585 4.8935623-12.9829159 4.8935623-17.8764763 0s-4.8935585-12.9829178 0-17.8764801l17.6767388-17.6767464c4.8935623-4.8935623 12.9829178-4.8935623 17.8764801 0 2.0972404 2.0972404 5.3929062 2.0972404 7.3902779 0 2.0972366-2.0972366 2.0972366-5.3929062 0-7.3902779-9.0880394-9.0880394-23.7687225-9.0880394-32.756897 0l-17.6767435 17.5768776c-9.0880413 9.0880394-9.0880413 23.7687187 0 32.7568932 4.4940872 4.4940872 10.4861994 6.791069 16.3784485 6.791069s11.8843575-2.2969818 16.3784447-6.791069l10.586071-10.5860672c2.0972366-2.0972443 2.0972366-5.3929062 0-7.3902817-1.997367-2.0972366-5.2930327-2.0972366-7.3902732-.0998611z" fill="url(#SVGID_00000054951158086862973700000015021359921561066399_)"/></svg>