<svg id="Layer_1" enable-background="new 0 0 68 68" height="512" viewBox="0 0 68 68" width="512" xmlns="http://www.w3.org/2000/svg"><g id="_x32_26"><path d="m18.5 46.4h9.9v4.5c0 .6.7 1 1.2.6l7-5.2h9.5c.4 0 .7-.3.8-.7l.3-17.2c0-.4-.3-.8-.8-.8h-27.9c-.4 0-.8.3-.8.8v17.2c.1.4.4.8.8.8zm.8-17.3h26.4l-.2 15.7h-9c-.1 0-.3 0-.4.1l-6 4.4v-3.8c0-.4-.3-.8-.8-.8h-9.9v-15.6z"/><path d="m24.6 35.4c-1.3-.1-2.6 1.1-2.7 2.4s1 2.6 2.4 2.8c1.4.1 2.7-1 2.8-2.3.1-1.4-1.1-2.8-2.5-2.9z"/><path d="m31.7 40.3c1.4.1 2.7-1 2.8-2.3.2-1.4-1-2.9-2.6-2.9-1.3 0-2.5 1.1-2.6 2.4 0 1.4 1.1 2.7 2.4 2.8z"/><path d="m39.4 40.1c1.4.1 2.7-1 2.8-2.3.2-1.5-1-2.9-2.5-2.9-1.3-.1-2.6 1.1-2.7 2.4-.1 1.4 1 2.6 2.4 2.8z"/><path d="m6.4 65c.6 1 2 1.6 3.1 1.3.4.1.7.2 1 .2 14.9-.2 30.5.2 44.9-3.1 1.3-.3 2.2-1.5 2-2.8-2.4-28.8-.9-47.6-1.5-48.4v-.1c-2.4-4.2-5.9-7.7-10-10.1-1-1.1-5.9 1.4-9.4 1.2-4-.2-7.3-.2-10.2-.1-5.3 0-9.6 0-14.6-.9-1-.2-2 .1-2.8.8-.2.1-.2.2-.5.5-1.9 1.7-2.9 4.2-3.4 6.8-.3 1.8 1 33.5.6 50.3 0 1.5 0 3.1.8 4.4zm47.4-53.5c-2.6-.4-5.3-.1-7.7 1.2-.1.1-.3 0-.3-.1.1-2.9.2-5.8.3-8.7 3 1.9 5.6 4.6 7.7 7.6zm-42.3-7.9c8 1.4 13.6.6 25 1 2.9.1 5.5-1 8.1-1.4-.1 3.1-.2 6.2-.3 9.2 0 1.3 1.3 2.1 2.4 1.5 2.4-1.3 5.2-1.5 7.8-.8-.2 18.5.3 33.6 1.4 47.5 0 .6-.3 1.1-.9 1.2-14.3 3.2-29.8 2.8-44.6 3-.7 0-1.2-.5-1.2-1.2 1.2-18.1.1-39.1-.1-58.2.1-1 1.2-2 2.4-1.8z"/><path d="m54.9 6.6c.4-1.4 1-2.7 1.9-3.9.6-.8-.7-1.7-1.2-.9-.9 1.3-1.6 2.8-2.1 4.4-.3 1 1.1 1.4 1.4.4z"/><path d="m60.8 6-4.8 2.8c-.9.5-.1 1.8.8 1.3l4.8-2.8c.8-.5.1-1.8-.8-1.3z"/><path d="m58.2 15c1.3-.1 2.6 0 3.9.3.9.3 1.4-1.2.4-1.4-1.4-.4-2.9-.5-4.4-.4-1 .1-.8 1.6.1 1.5z"/></g></svg>