<?xml version="1.0" encoding="UTF-8" standalone="no"?>
<!-- Created with Inkscape (http://www.inkscape.org/) -->

<svg
   version="1.1"
   id="svg2160"
   xml:space="preserve"
   width="682.66669"
   height="682.66669"
   viewBox="0 0 682.66669 682.66669"
   xmlns="http://www.w3.org/2000/svg"
   xmlns:svg="http://www.w3.org/2000/svg"><defs
     id="defs2164"><clipPath
       clipPathUnits="userSpaceOnUse"
       id="clipPath2174"><path
         d="M 0,512 H 512 V 0 H 0 Z"
         id="path2172" /></clipPath></defs><g
     id="g2166"
     transform="matrix(1.3333333,0,0,-1.3333333,0,682.66667)"><g
       id="g2168"><g
         id="g2170"
         clip-path="url(#clipPath2174)"><g
           id="g2176"
           transform="translate(202.397,428.2598)"><path
             d="m 0,0 c 16.307,7.531 34.462,11.739 53.603,11.739 42.022,0 56.212,-15.81 54.579,-34.145 26.035,9.404 56.363,-13.484 45.038,-44.421 16.326,-6.229 28.384,-26.539 28.384,-43.974 0,-17.434 -10.019,-31.35 -24.576,-38.303 19.3,-20.624 11.835,-49.268 -10.775,-58.215 -7.235,-2.863 -19.042,-5.083 -28.089,-2.591 -25.836,6.923 -15.764,24.993 -31.942,36.15 M 5.601,-307.905 c -0.188,39.897 -32.134,82.283 -57.518,119.171 -14.177,20.604 -22.481,45.567 -22.481,72.472 0,19.142 4.209,37.301 11.741,53.607"
             style="fill:none;stroke:#000000;stroke-width:20;stroke-linecap:round;stroke-linejoin:round;stroke-miterlimit:2.613;stroke-dasharray:none;stroke-opacity:1"
             id="path2178" /></g><g
           id="g2180"
           transform="translate(310.5791,405.854)"><path
             d="M 0,0 C -11.702,-5.464 -15.312,-13.455 -17.858,-20.338"
             style="fill:none;stroke:#000000;stroke-width:20;stroke-linecap:round;stroke-linejoin:round;stroke-miterlimit:2.613;stroke-dasharray:none;stroke-opacity:1"
             id="path2182" /></g><g
           id="g2184"
           transform="translate(316.5781,341.7222)"><path
             d="M 0,0 C -18.104,-10.232 -10.447,-38.167 -52.213,-38.167"
             style="fill:none;stroke:#000000;stroke-width:20;stroke-linecap:round;stroke-linejoin:round;stroke-miterlimit:2.613;stroke-dasharray:none;stroke-opacity:1"
             id="path2186" /></g><g
           id="g2188"
           transform="translate(319.8672,174.7646)"><path
             d="M 0,0 C -9.462,-18.187 -15.756,-36.196 -15.865,-54.285"
             style="fill:none;stroke:#000000;stroke-width:20;stroke-linecap:round;stroke-linejoin:round;stroke-miterlimit:22.926;stroke-dasharray:none;stroke-opacity:1"
             id="path2190" /></g><g
           id="g2192"
           transform="translate(255.9995,437.2588)"><path
             d="M 0,0 V -314.519"
             style="fill:none;stroke:#000000;stroke-width:20;stroke-linecap:round;stroke-linejoin:round;stroke-miterlimit:22.926;stroke-dasharray:none;stroke-opacity:1"
             id="path2194" /></g><g
           id="g2196"
           transform="translate(340.2402,217.5811)"><path
             d="M 0,0 C 10.355,-37.983 -30.576,-57.184 -49.407,-33.173"
             style="fill:none;stroke:#000000;stroke-width:20;stroke-linecap:round;stroke-linejoin:round;stroke-miterlimit:22.926;stroke-dasharray:none;stroke-opacity:1"
             id="path2198" /></g><g
           id="g2200"
           transform="translate(306,119.999)"><path
             d="m 0,0 h -100 c -5.5,0 -10,-4.5 -10,-10 v -30 c 0,-5.5 4.5,-10 10,-10 H 0 c 5.5,0 10,4.5 10,10 v 30 C 10,-4.5 5.5,0 0,0 Z"
             style="fill:none;stroke:#000000;stroke-width:20;stroke-linecap:round;stroke-linejoin:round;stroke-miterlimit:22.926;stroke-dasharray:none;stroke-opacity:1"
             id="path2202" /></g><g
           id="g2204"
           transform="translate(205.9995,69.9985)"><path
             d="m 0,0 v -39.999 c 0,-10.999 9,-20 20,-20 h 60 c 11,0 20,9 20,20 V 0"
             style="fill:none;stroke:#000000;stroke-width:20;stroke-linecap:round;stroke-linejoin:round;stroke-miterlimit:22.926;stroke-dasharray:none;stroke-opacity:1"
             id="path2206" /></g><g
           id="g2208"
           transform="translate(255.9995,480.0005)"><path
             d="M 0,0 V 22.001"
             style="fill:none;stroke:#000000;stroke-width:20;stroke-linecap:round;stroke-linejoin:round;stroke-miterlimit:22.926;stroke-dasharray:none;stroke-opacity:1"
             id="path2210" /></g><g
           id="g2212"
           transform="translate(171.9985,457.4922)"><path
             d="M 0,0 -11.001,19.054"
             style="fill:none;stroke:#000000;stroke-width:20;stroke-linecap:round;stroke-linejoin:round;stroke-miterlimit:22.926;stroke-dasharray:none;stroke-opacity:1"
             id="path2214" /></g><g
           id="g2216"
           transform="translate(110.5049,395.999)"><path
             d="M 0,0 -19.054,11.001"
             style="fill:none;stroke:#000000;stroke-width:20;stroke-linecap:round;stroke-linejoin:round;stroke-miterlimit:22.926;stroke-dasharray:none;stroke-opacity:1"
             id="path2218" /></g><g
           id="g2220"
           transform="translate(87.9966,311.9976)"><path
             d="M 0,0 H -22.001"
             style="fill:none;stroke:#000000;stroke-width:20;stroke-linecap:round;stroke-linejoin:round;stroke-miterlimit:22.926;stroke-dasharray:none;stroke-opacity:1"
             id="path2222" /></g><g
           id="g2224"
           transform="translate(110.5049,227.9961)"><path
             d="M 0,0 -19.054,-11"
             style="fill:none;stroke:#000000;stroke-width:20;stroke-linecap:round;stroke-linejoin:round;stroke-miterlimit:22.926;stroke-dasharray:none;stroke-opacity:1"
             id="path2226" /></g><g
           id="g2228"
           transform="translate(340.001,457.4922)"><path
             d="M 0,0 11.001,19.054"
             style="fill:none;stroke:#000000;stroke-width:20;stroke-linecap:round;stroke-linejoin:round;stroke-miterlimit:22.926;stroke-dasharray:none;stroke-opacity:1"
             id="path2230" /></g><g
           id="g2232"
           transform="translate(401.4941,395.999)"><path
             d="M 0,0 19.055,11.001"
             style="fill:none;stroke:#000000;stroke-width:20;stroke-linecap:round;stroke-linejoin:round;stroke-miterlimit:22.926;stroke-dasharray:none;stroke-opacity:1"
             id="path2234" /></g><g
           id="g2236"
           transform="translate(424.0029,311.9976)"><path
             d="M 0,0 H 22.001"
             style="fill:none;stroke:#000000;stroke-width:20;stroke-linecap:round;stroke-linejoin:round;stroke-miterlimit:22.926;stroke-dasharray:none;stroke-opacity:1"
             id="path2238" /></g><g
           id="g2240"
           transform="translate(401.4941,227.9961)"><path
             d="M 0,0 19.055,-11"
             style="fill:none;stroke:#000000;stroke-width:20;stroke-linecap:round;stroke-linejoin:round;stroke-miterlimit:22.926;stroke-dasharray:none;stroke-opacity:1"
             id="path2242" /></g><g
           id="g2244"
           transform="translate(165.4888,402.5088)"><path
             d="M 0,0 H 0.007"
             style="fill:none;stroke:#000000;stroke-width:20;stroke-linecap:round;stroke-linejoin:round;stroke-miterlimit:2.613;stroke-dasharray:none;stroke-opacity:1"
             id="path2246" /></g></g></g></g></svg>
