<svg id="Layer_1" enable-background="new 0 0 500 500" height="500" viewBox="0 0 500 500" width="500" xmlns="http://www.w3.org/2000/svg"><g fill="#333"><g><path d="m139 142h156c4.143 0 7.5-3.357 7.5-7.5s-3.357-7.5-7.5-7.5h-156c-4.143 0-7.5 3.357-7.5 7.5s3.357 7.5 7.5 7.5z"/><path d="m139 195h156c4.143 0 7.5-3.357 7.5-7.5s-3.357-7.5-7.5-7.5h-156c-4.143 0-7.5 3.357-7.5 7.5s3.357 7.5 7.5 7.5z"/><path d="m139 248h156c4.143 0 7.5-3.357 7.5-7.5s-3.357-7.5-7.5-7.5h-156c-4.143 0-7.5 3.357-7.5 7.5s3.357 7.5 7.5 7.5z"/><path d="m211 286h-72c-4.143 0-7.5 3.357-7.5 7.5s3.357 7.5 7.5 7.5h72c4.143 0 7.5-3.357 7.5-7.5s-3.357-7.5-7.5-7.5z"/><path d="m447.707 222.798-2.124-2.125c-5.194-5.193-12.101-8.054-19.444-8.054-7.346 0-14.252 2.861-19.446 8.056l-139.866 139.863c-8.409 8.41-20.292 42.801-23.732 53.141-.896 2.694-.196 5.664 1.812 7.672l2.121 2.121c1.43 1.429 3.347 2.196 5.305 2.196.792 0 1.592-.126 2.366-.384 10.341-3.441 44.731-15.322 53.142-23.732l139.865-139.865c10.722-10.723 10.722-28.168.001-38.889zm-145.172 162.844-19.797-19.8 115.115-115.114 19.799 19.798zm-26.621-12.483 19.305 19.306c-5.663 3.619-19.714 9.487-33.96 14.654 5.166-14.245 11.035-28.295 14.655-33.96zm161.184-122.08-12.373 12.374-19.8-19.797 12.375-12.375c2.361-2.361 5.5-3.662 8.839-3.662 3.338 0 6.477 1.3 8.837 3.659l2.122 2.125c2.362 2.36 3.662 5.499 3.662 8.838s-1.3 6.478-3.662 8.838z"/><path d="m330.143 138.611 26.602 8.823 8.819 26.6c.478 1.439 1.817 2.406 3.335 2.406 1.517 0 2.856-.967 3.332-2.406l8.824-26.6 26.598-8.823c1.44-.479 2.408-1.819 2.408-3.335 0-1.517-.968-2.855-2.408-3.331l-26.598-8.823-8.824-26.599c-.476-1.44-1.815-2.408-3.332-2.408-1.518 0-2.857.968-3.335 2.408l-8.819 26.599-26.602 8.823c-1.439.476-2.406 1.813-2.406 3.331-.001 1.517.966 2.857 2.406 3.335z"/><path d="m404.031 64.648 15.988 5.303 5.303 15.984c.243.736.93 1.231 1.702 1.231.773 0 1.46-.495 1.703-1.231l5.303-15.984 15.985-5.303c.734-.245 1.23-.932 1.23-1.705 0-.772-.496-1.459-1.23-1.701l-15.985-5.303-5.303-15.986c-.243-.734-.93-1.23-1.703-1.23-.772 0-1.459.496-1.702 1.23l-5.303 15.986-15.988 5.303c-.733.242-1.229.929-1.229 1.701.001.774.496 1.46 1.229 1.705z"/></g><g><path d="m359 187.967v58.464l20-19.589v-39.008c-2.911 1.973-6.399 3.106-10.102 3.106-3.615 0-7.027-1.083-9.898-2.973z"/><path d="m359 372.09v56.91c0 11.046-8.954 20-20 20h-245c-11.046 0-20-8.954-20-20v-353c0-11.046 8.954-20 20-20h245c11.046 0 20 8.954 20 20v6.588c2.871-1.889 6.283-2.973 9.898-2.973 3.702 0 7.19 1.134 10.102 3.105v-6.72c0-22.057-17.943-40-40-40h-245c-22.057 0-40 17.943-40 40v353c0 22.057 17.943 40 40 40h245c22.057 0 40-17.943 40-40v-76.955z"/></g></g></svg>