<svg id="Layer_1" enable-background="new 0 0 53 53" height="512" viewBox="0 0 53 53" width="512" xmlns="http://www.w3.org/2000/svg"><g><path d="m1.7 40.8c0 .2.1.5.3.7 5.7 5.6 3.9 3.9 9.7 9.6.2.2.4.3.6.3 22.6-.2.4.1 26-.3.8 0 1.3-.1 2-.5.6-.4 1.1-.9 1.4-1.6.1-.3.2-.7.3-1 0-.4 0-.6 0-.9 0-.1-.2-13.8-.5-23.2 1.1-1.2 2.1-2.3 3.2-3.5 1.6-1.8 3.3-3.6 4.9-5.5l1.2-1.4c.5-.5.7-1.2.6-1.9s-.4-1.3-.9-1.7l-1.4-1.2 1.2 1.4c1 .9.8 2.2 0 2.9l-1.3 1.3c-.4.4-.9.8-1.3 1.2-.2-.6-.5-1.1-.8-1.5-.8-1.2-1.9-2.2-3-2.9-.5-.3-1-.5-1.6-.7.4-.4.8-.9 1.2-1.3l1.2-1.4c.7-.8 2-1 2.9-.1l1.4 1.2-1.2-1.4c-.4-.5-1-.8-1.7-.9s-1.4.2-1.8.7l-1.3 1.3c-.5.5-1 .9-1.5 1.4l.1-4.5c.1-.9-.3-1.8-1-2.5-.3-.3-.8-.5-1.2-.7-.2-.1-.5-.1-.7-.1-16.7-.4-8.7-.2-11-.2l-20.8-.2h-1.3c-.4 0-1.1.1-1.5.3-1.1.4-1.9 1.3-2.2 2.4 0 .3-.1.6-.1.9 0 .1 0 2.1 0 1.9 0 6.3-.1 27.3-.1 33.6zm2.7.4c.9.2 1.8.3 2.8.4.8.1 1.5.1 2.3.2.5 0 1 .2 1.3.6s.5.8.6 1.3c.1.8.1 1.5.2 2.3.1.9.2 1.9.4 2.8zm38.3-28.9c.8 1.1 1.8 2.1 3 2.9.5.3 1 .5 1.6.7-4.7 4.5-8.5 8.3-13.4 13.2-.2-.4-.4-.7-.6-1.1-.8-1.2-1.9-2.2-3-2.9-.3-.2-.7-.4-1.1-.6 4.8-5.1 8.4-9 12.7-13.9.2.7.5 1.2.8 1.7zm-14 13.1c.2.3.3.6.5.9.8 1.1 1.8 2.1 3 2.9.3.2.6.3.9.5l-6.1 1.9zm-25.1-20.5c.1-.6.6-1.1 1.1-1.3.3-.2.5-.2.9-.2h1.3l20.7-.4 10.3-.2h1.2c1.2.3 2.1 1.4 2 2.6l.1 4.5c-4.9 4.7-9.1 8.9-14.1 14-.1.1-.2.2-.2.4s-2.4 8.6-2.4 8.5c-.1.2-.1.4 0 .6.2.5.7.8 1.3.6.1 0 8.5-2.8 8.4-2.8.1 0 .3-.1.4-.2 2.2-2.4 4.5-4.8 6.7-7.2-.3 9.4-.5 23-.5 23.1 0 .6 0 1-.2 1.5-.2.4-.5.8-.9 1-.5.3-.8.3-1.3.3-24.6-.4-4.4-.1-25.6-.3l-.1-.1c.3-1.2.4-2.3.5-3.5.1-.8.1-1.5.2-2.3.1-1-.3-2-1.1-2.7-.7-.7-1.8-1.1-2.7-1.1-.8.1-1.5.1-2.3.2-1.1.1-2.3.3-3.4.5l-.1-.1c.1-7.4 0-21.5-.1-33.2 0-.1 0-2.1 0-1.9-.1-.1-.1-.2-.1-.3z"/><path d="m22 9.9c1.9 0 3.9-.1 5.8-.2s3.9-.4 5.8-.8c-1.9-.4-3.9-.6-5.8-.8-1.9-.1-3.8-.2-5.8-.2-1.9 0-3.9.1-5.8.2s-3.9.4-5.8.8c1.9.4 3.9.6 5.8.8 2 .1 3.9.2 5.8.2z"/><path d="m22 17.6c1.9 0 3.9-.1 5.8-.2s3.9-.4 5.8-.8c-1.9-.4-3.9-.6-5.8-.8-1.9-.1-3.9-.2-5.8-.2s-3.9.1-5.8.2-3.9.4-5.8.8c1.9.4 3.9.6 5.8.8 2 .1 3.9.2 5.8.2z"/><path d="m16.5 25.3c1.9 0 4.3-.3 6-1-1.8-.7-4.1-1-6-1-1 0-2 .1-3 .2-1 .2-2 .4-3 .8 1 .4 2 .6 3 .8s2 .2 3 .2z"/></g></svg>