<svg id="Layer_1" enable-background="new 0 0 66 66" height="512" viewBox="0 0 66 66" width="512" xmlns="http://www.w3.org/2000/svg"><g><path d="m61.24 24.4c-.26-.88-.94-1.71-1.77-2.14l-.63-.28-.63-.16c-.42-.11-.9-.13-1.34-.09-1.34.14-2.46.71-3.4 1.42.01-.56.03-1.27.05-2.13.02-1.16.07-2.58-.13-4.25-.11-.83-.27-1.73-.7-2.63-.44-.89-1.09-1.68-1.79-2.46-.71-.78-1.46-1.53-2.18-2.39-.74-.85-1.51-1.75-2.36-2.64-1.57-1.61-3.38-3.36-5.84-4.37-.04-.08-.08-.12-.12-.12-.02 0-.03.04-.05.05-.15-.06-.3-.13-.46-.18-.69-.24-1.44-.35-2.19-.4-.7-.03-1.41-.05-2.13-.05-1.44-.01-2.91.01-4.41.06-2.99.09-6.07.27-9.21.39-3.09.03-6.37-.16-9.68.04-1.67.11-3.36.24-5.09.86-.43.16-.87.38-1.3.71-.42.3-.81.9-.95 1.36-.32.95-.36 1.84-.39 2.72-.02 1.74.18 3.43.29 5.06.06 1.66.13 3.32.19 4.98.15 3.33.3 6.64.45 9.9.33 6.52.67 12.84 1.06 18.73.2 2.95.39 5.78.64 8.48.11 1.35.25 2.66.41 3.96.05.33.09.65.14.97l.07.49.14.56c.12.77.6 1.42 1.12 1.96 1.01.99 2.32 1.38 3.46 1.52 1.17.15 2.28.09 3.32 0 1.97-.13 3.98-.17 5.89-.24 3.84-.13 7.43-.25 10.78-.36 6.72-.29 12.5-.57 17.5-1.28.62-.07 1.25-.21 1.85-.32.29-.04.62-.14.94-.24l.48-.15c.15-.07.31-.15.46-.23 1.23-.59 2.14-1.74 2.54-2.87.42-1.14.51-2.23.54-3.23.03-1.01-.04-1.94-.1-2.82s-.12-1.69-.16-2.46c-.02-.74-.01-1.52-.02-2.23-.01-1.43-.04-2.7-.08-3.84-.16-4.55-.42-6.91-.6-8.13-.05-.3-.09-.53-.13-.7.69-.77 1.38-1.53 2.09-2.32.48-.54.97-1.08 1.46-1.62.52-.57 1-1.28 1.35-2 .36-.72.62-1.49.75-2.31.13-.81.15-1.69-.13-2.58zm-6.18 19.69c-.01 1.13-.03 2.4-.05 3.81-.01.71-.04 1.44-.04 2.27.01.81.06 1.65.1 2.52.07 1.7.2 3.64-.43 5.34-.32.83-.88 1.51-1.72 1.91-.81.4-1.99.56-3.19.73-4.84.64-10.62.89-17.31 1.15-3.35.1-6.93.21-10.77.33-1.93.06-3.88.1-5.99.23-.99.08-1.98.13-2.91.01-.93-.11-1.78-.42-2.34-.97-.68-.6-.71-1.54-.91-2.85-.15-1.24-.29-2.54-.41-3.88-.25-2.67-.45-5.5-.67-8.43-.41-5.87-.8-12.19-1.17-18.7-.15-3.26-.33-6.56-.51-9.88-.08-1.67-.16-3.34-.24-5.01-.13-1.7-.34-3.34-.34-4.93.01-.79.06-1.58.27-2.21.12-.33.2-.45.44-.65.23-.18.53-.35.88-.48 1.38-.52 3.03-.7 4.62-.83 3.22-.24 6.41-.08 9.64-.16 3.15-.18 6.23-.36 9.2-.53 1.48-.07 2.94-.12 4.36-.13.71 0 1.41 0 2.11.01.65.03 1.28.11 1.89.31.21.06.4.15.6.22-.06.93-.07 2.35-.03 3.96.01 1.4.14 2.97.63 4.51.25.76.65 1.52 1.22 2.12.56.6 1.27.98 1.88 1.18 1.14.35 2.11.28 2.81.29.74-.01 1.38-.02 1.92-.03 1.1-.03 1.84-.09 2.34-.17 1-.16 1.05-.41 1.05-.68s-.03-.52-1.03-.71c-.5-.1-1.24-.18-2.33-.24-.55-.02-1.18-.05-1.92-.09-.78-.03-1.52-.01-2.23-.24-.78-.23-1.53-.85-2.01-2.06-.47-1.18-.77-2.66-.94-4.03-.2-1.36-.41-2.59-.6-3.48 1.85.9 3.41 2.32 4.78 3.68.85.85 1.63 1.72 2.39 2.55.75.85 1.56 1.61 2.26 2.35s1.33 1.47 1.75 2.25c.4.77.59 1.62.73 2.41.25 1.6.26 3.01.31 4.17.02.96.06 1.73.1 2.32-.22.17-.43.35-.62.53-.57.56-.98 1.07-1.43 1.58-.44.51-.88 1.02-1.3 1.51-1.69 1.99-3.21 3.87-4.51 5.54-2.37 3.05-4.35 5.8-6.07 8.2-.86 1.2-1.67 2.31-2.41 3.35-.38.51-.74 1.01-1.09 1.48l-.26.35-.29.43c-.17.3-.32.6-.44.89-.45 1.19-.55 2.24-.7 3.13-.07.45-.14.86-.24 1.23-.05.2-.09.34-.16.57-.08.26-.16.69-.11 1.01.09.68.62 1.18 1.21 1.31.29.07.6.07.89 0 .14-.03.3-.09.4-.13s.19-.09.27-.14c.34-.2.52-.33.76-.45.22-.12.45-.23.66-.33.87-.38 1.63-.67 2.17-1.01.54-.33.86-.65 1.04-.89.35-.48.26-.61.16-.69 0 0 0 0-.01 0 .01-.02.02-.04.03-.07-.01.03-.03.06-.02.07.1.09 1.69-1.53 4.18-4.2s5.89-6.4 9.63-10.53c.04-.05.09-.1.13-.15v.05c-.09 1.22-.04 3.58-.06 8.1zm-18.6 3.79c.04-.1.09-.18.14-.28.17.14.35.29.54.44.66.52 1.28 1.16 1.61 1.59.63.77.82 1.22 1.07 1.42.06.05.12.09.18.12-.16.08-.34.16-.56.24-.49.2-1.18.37-2.18.7-.25.09-.52.18-.8.31-.28.12-.6.31-.81.41-.12.06-.21.09-.23.08-.03 0-.07 0-.1-.01-.06-.02-.12-.09-.11-.16.01-.05 0-.02.04-.14.05-.15.14-.41.2-.62.13-.44.22-.9.31-1.36.21-.91.35-1.89.7-2.74zm17.45-12.71c-3.6 4.25-6.84 8.11-9.16 10.94-2.03 2.47-3.34 4.14-3.57 4.58.07-.39-.01-1.23-.92-2.33-.5-.62-1.55-1.3-2.48-1.55-.2-.06-.39-.1-.56-.13l.03-.04c.36-.47.74-.97 1.12-1.48.76-1.03 1.58-2.14 2.46-3.33 1.75-2.39 3.72-5.1 6.07-8.12 1.29-1.65 2.78-3.52 4.43-5.51.13-.16.27-.32.41-.49.04.14.08.29.15.46.27.72.87 1.65 1.79 2.41s1.95 1.16 2.71 1.29c.11.02.2.02.3.04-.01.01-.01.02-.02.02-.94 1.1-1.86 2.18-2.76 3.24zm5.23-6.57c-.28.61-.62 1.14-1.06 1.66-.37.43-.73.86-1.1 1.29-.69-.22-1.82-.61-2.87-1.5-1.16-.93-1.77-2.05-2.1-2.66.2-.24.39-.47.6-.71.44-.5.88-1.06 1.29-1.47.88-.85 2.01-1.57 3.13-1.69.28-.03.53-.03.81.04l.42.1.37.16c.46.24.79.61.97 1.13.35 1.04.1 2.47-.46 3.65z"/><path d="m34.48 55.57c-.74-.22-2.23-.46-5.15-.52-1.6-.03-4.12.1-6.22.39-2.1.28-3.78.69-3.75.96s1.74.35 3.82.42c2.1.06 4.56.14 6.12.18 2.86.06 4.32.07 5.08-.06.76-.12.81-.36.83-.63.02-.26.01-.51-.73-.74z"/><path d="m28.22 46.78c6.86-.37 6.98-.81 6.95-1.35s-.2-.97-7.06-.6c-3.76.2-11.81 1.07-11.78 1.61.04.53 8.13.54 11.89.34z"/><path d="m35.98 38.13c.02-.52-.12-1.03-7.6-1.12-4.1-.07-12.88.56-12.85 1.12.02.51 8.77.76 12.84.83 7.43.09 7.6-.27 7.61-.83z"/><path d="m33.19 31.09c5.19-.41 7.81-.87 9.13-1.2 1.32-.34 1.34-.59 1.31-.86s-.12-.5-1.48-.51c-1.36-.02-3.98.21-9.12.62-2.81.22-7.24.56-10.98.85-3.74.27-6.78.48-6.78.76 0 .27 3.05.55 6.82.63s8.26-.06 11.1-.29z"/><path d="m17.36 23.78c.01.54 13.65.29 20-.03 11.59-.59 11.8-1.04 11.76-1.58s-.31-.96-11.87-.38c-6.32.32-19.9 1.45-19.89 1.99z"/><path d="m28.29 17.46c7.08-.32 7.21-.76 7.19-1.3s-.19-.97-7.28-.65c-3.88.17-12.19.98-12.17 1.52.03.54 8.38.61 12.26.43z"/><path d="m26.9 10.33c5.56-.24 5.67-.62 5.66-1.17-.01-.52-.14-1.02-5.76-.78-3.08.11-9.63 1.11-9.57 1.67.06.52 6.63.39 9.67.28z"/><path d="m59.23 54.39c-.2 0-.29 1.72-.99 3.67-.68 1.96-1.69 3.35-1.54 3.47.12.13 1.45-1.15 2.18-3.24.76-2.09.53-3.92.35-3.9z"/><path d="m60.13 58.08c-.2 0-.34.81-.68 1.73-.33.93-.75 1.64-.61 1.76.13.13.86-.47 1.25-1.53.39-1.04.22-1.97.04-1.96z"/><path d="m53.5 25.8c-.18-.01-.26 1.1.47 2.18s1.79 1.41 1.85 1.24c.09-.18-.67-.71-1.28-1.63-.63-.91-.85-1.81-1.04-1.79z"/><path d="m9.63 8.4c-.19.02-.09 2.75.23 6.1.31 3.35.72 6.06.91 6.04s.09-2.75-.23-6.1-.73-6.05-.91-6.04z"/><path d="m11.11 6.48c-.01-.01-.01-.01-.01-.02l-.21.04c-.09.43-.05 1.59.17 2.94.28 1.7.74 3.03.93 2.98.18-.04.01-1.42-.26-3.09-.22-1.33-.44-2.45-.62-2.85z"/></g></svg>