<svg clip-rule="evenodd" fill-rule="evenodd" stroke-linejoin="round" stroke-miterlimit="2" viewBox="0 0 64 64" xmlns="http://www.w3.org/2000/svg"><g transform="translate(-2428 -168)"><g transform="matrix(.997 0 0 1 88.19 8)"><path d="m2351 182v36c0 1.657 1.34 3 3 3h48c.8 0 1.56-.316 2.12-.879.56-.562.88-1.325.88-2.121v-31c0-1.657-1.34-3-3-3-5.88 0-22.99 0-27.76 0-.53 0-1.04-.211-1.41-.586l-3.24-3.242c-.75-.751-1.77-1.172-2.83-1.172h-12.76c-1.66 0-3 1.343-3 3z" fill="#e89c1b"/></g><g transform="matrix(.997 0 0 1 88.19 8)"><path d="m2357.68 191c-1.48 0-2.74 1.081-2.96 2.545l-3.69 24c-.13.865.12 1.745.69 2.409s1.4 1.046 2.28 1.046h48.46c1.5 0 2.76-1.105 2.97-2.588.73-5.256 2.92-21.074 3.74-27 .12-.859-.14-1.728-.7-2.382-.58-.654-1.4-1.03-2.27-1.03h-27.78c-1.06 0-2.07.416-2.82 1.157-.4.397-.87.867-1.27 1.264-.38.371-.88.579-1.41.579z" fill="#f2ae17"/></g><path d="m2459 173v7h-1.96c-.59 0-1.12.34-1.36.871-.25.532-.16 1.157.22 1.602l5.96 6.991c.28.335.7.528 1.14.527.44 0 .86-.194 1.14-.53l5.93-6.991c.37-.446.46-1.071.21-1.601-.24-.53-.77-.869-1.36-.869h-1.92v-7c0-.53-.21-1.039-.59-1.414-.37-.375-.88-.586-1.41-.586-1.11 0-2.89 0-4 0-.53 0-1.04.211-1.41.586-.38.375-.59.884-.59 1.414z" fill="#5dd446"/></g></svg>