<?xml version="1.0" encoding="UTF-8"?>
<svg xmlns="http://www.w3.org/2000/svg" id="Icons" viewBox="0 0 60 60" width="512" height="512"><path d="M50,60a4,4,0,0,0,4-4V16.242a4.024,4.024,0,0,0-1.172-2.828L40.586,1.172A4.024,4.024,0,0,0,37.758,0H10A4,4,0,0,0,6,4V56a4,4,0,0,0,4,4Zm.586-46H42a2,2,0,0,1-2-2V3.414ZM8,56V4a2,2,0,0,1,2-2H37.758A1.983,1.983,0,0,1,38,2.024V12a4,4,0,0,0,4,4h9.976a1.983,1.983,0,0,1,.024.242V56a2,2,0,0,1-2,2H10A2,2,0,0,1,8,56Z"/><path d="M15,26H45a1,1,0,0,0,0-2H15a1,1,0,0,0,0,2Z"/><path d="M15,34H45a1,1,0,0,0,0-2H15a1,1,0,0,0,0,2Z"/><path d="M15,42H45a1,1,0,0,0,0-2H15a1,1,0,0,0,0,2Z"/><path d="M15,50H35a1,1,0,0,0,0-2H15a1,1,0,0,0,0,2Z"/></svg>
