<svg id="Layer_1" enable-background="new 0 0 512 512" viewBox="0 0 512 512" xmlns="http://www.w3.org/2000/svg"><g clip-rule="evenodd" fill-rule="evenodd"><g><path d="m90.281 23.145h278.846c2.505 0 4.661.893 6.432 2.664l51.073 51.072c1.771 1.771 2.664 3.927 2.664 6.432v381.917c0 5.01-4.086 9.096-9.096 9.096h-329.919c-5.01 0-9.096-4.086-9.096-9.096v-432.989c0-5.01 4.086-9.096 9.096-9.096z" fill="#eceff1"/><path d="m90.281 23.145h16.641v451.181h-16.641c-5.01 0-9.096-4.086-9.096-9.096v-432.989c0-5.01 4.086-9.096 9.096-9.096z" fill="#d1d1d6"/><path d="m372.894 23.933c.966.441 1.855 1.067 2.664 1.875l51.072 51.072c.809.809 1.435 1.698 1.876 2.664h-51.064c-2.505 0-4.548-2.043-4.548-4.548z" fill="#a79ba7"/></g><path d="m261.624 364.842c-4.418 0-8-3.582-8-8s3.582-8 8-8h117.195c4.418 0 8 3.582 8 8s-3.582 8-8 8zm0-235.935c-4.418 0-8-3.582-8-8s3.582-8 8-8h117.195c4.418 0 8 3.582 8 8s-3.582 8-8 8zm0 49.875c-4.418 0-8-3.582-8-8s3.582-8 8-8h117.195c4.418 0 8 3.582 8 8s-3.582 8-8 8zm0 68.092c-4.418 0-8-3.582-8-8s3.582-8 8-8h117.195c4.418 0 8 3.582 8 8s-3.582 8-8 8zm0 49.876c-4.418 0-8-3.582-8-8s3.582-8 8-8h117.195c4.418 0 8 3.582 8 8s-3.582 8-8 8zm0 117.968c-4.418 0-8-3.582-8-8s3.582-8 8-8h117.195c4.418 0 8 3.582 8 8s-3.582 8-8 8z" fill="#a79ba7"/><path d="m138.888 346.871h55.364c3.975 0 7.227 3.252 7.227 7.227v55.364c0 3.975-3.252 7.227-7.227 7.227h-55.364c-3.975 0-7.227-3.252-7.227-7.227v-55.364c0-3.975 3.252-7.227 7.227-7.227zm0-235.936h55.364c3.975 0 7.227 3.252 7.227 7.227v55.364c0 3.975-3.252 7.227-7.227 7.227h-55.364c-3.975 0-7.227-3.252-7.227-7.227v-55.364c0-3.975 3.252-7.227 7.227-7.227zm0 117.968h55.364c3.975 0 7.227 3.252 7.227 7.227v55.364c0 3.975-3.252 7.227-7.227 7.227h-55.364c-3.975 0-7.227-3.252-7.227-7.227v-55.364c0-3.975 3.252-7.227 7.227-7.227z" fill="#8ac9fe"/><g><path d="m349.502 282.108 103.75-172.787c5.624-9.367 17.851-12.419 27.218-6.794l6.803 4.085c9.367 5.624 12.42 17.851 6.795 27.218l-103.75 172.787-37.089 20.573c-.963.534-2.055.516-3-.052-.944-.567-1.474-1.522-1.455-2.623z" fill="#e3a76f"/><path d="m477.953 101.251c.856.36 1.696.784 2.516 1.276l6.803 4.085c9.367 5.625 12.42 17.851 6.795 27.218l-103.75 172.787-37.088 20.573c-.963.534-2.055.516-2.999-.051-.945-.567-1.474-1.522-1.455-2.623l.143-8.366 29.772-16.514 103.75-172.787c5.132-8.549 3.037-19.478-4.487-25.598z" fill="#c48958"/><path d="m348.774 324.515.728-42.406 40.815 24.508-37.089 20.573c-.963.534-2.055.516-3-.052-.943-.567-1.473-1.522-1.454-2.623z" fill="#837683"/><path d="m348.775 324.515.143-8.366 29.772-16.514 11.628 6.982-37.088 20.573c-.963.535-2.055.516-2.999-.051-.945-.568-1.475-1.523-1.456-2.624z" fill="#685e68"/><path d="m444.678 123.6 8.573-14.278c5.624-9.367 17.851-12.419 27.218-6.795l6.803 4.085c9.367 5.624 12.419 17.851 6.795 27.218l-8.573 14.278z" fill="#837683"/><path d="m477.953 101.25c.856.361 1.697.785 2.516 1.276l6.803 4.085c9.367 5.624 12.419 17.851 6.795 27.218l-8.573 14.278-11.628-6.982 8.573-14.278c5.133-8.547 3.038-19.477-4.486-25.597z" fill="#685e68"/></g><path d="m184.252 346.871h10c3.975 0 7.227 3.252 7.227 7.227v55.364c0 3.975-3.252 7.227-7.227 7.227h-10c3.975 0 7.227-3.252 7.227-7.227v-55.364c0-3.975-3.252-7.227-7.227-7.227zm0-235.936h10c3.975 0 7.227 3.252 7.227 7.227v55.364c0 3.975-3.252 7.227-7.227 7.227h-10c3.975 0 7.227-3.252 7.227-7.227v-55.364c0-3.975-3.252-7.227-7.227-7.227zm0 117.968h10c3.975 0 7.227 3.252 7.227 7.227v55.364c0 3.975-3.252 7.227-7.227 7.227h-10c3.975 0 7.227-3.252 7.227-7.227v-55.364c0-3.975-3.252-7.227-7.227-7.227z" fill="#60b7ff"/><g><path d="m77.889 451.549h45.955v23.372c0 7.665-6.271 13.935-13.935 13.935h-18.085c-7.664 0-13.935-6.27-13.935-13.935z" fill="#b1b1b5"/><path d="m63.598 417.896h74.537v29.153c0 7.666-6.27 13.935-13.934 13.935h-46.667c-7.666 0-13.936-6.269-13.936-13.935z" fill="#d1d1d6"/><path d="m121.903 413.666v33.383c0 7.623-6.227 13.935-13.934 13.935h16.232c7.664 0 13.934-6.269 13.934-13.935v-33.391c-5.302.174-10.897.008-16.232.008z" fill="#b1b1b5"/><path d="m49.663 391.323h102.408v27.855c0 7.665-6.27 13.935-13.934 13.935h-74.539c-7.664 0-13.935-6.27-13.935-13.935z" fill="#eceff1"/><path d="m135.839 405.241v12.654 1.282c0 7.665-6.27 13.935-13.934 13.935h16.232c.155 0 .31-.003.464-.008 7.451-.247 13.47-6.418 13.47-13.927v-13.937h-16.232z" fill="#d1d1d6"/><path d="m100.867 204.504c47.361 0 85.755 38.394 85.755 85.755 0 47.627-30.424 44.781-34.551 114.983h-102.409c-4.126-70.202-34.551-67.356-34.551-114.983.001-47.362 38.395-85.755 85.756-85.755z" fill="#ffe177"/><path d="m92.751 204.883c43.555 4.089 77.639 40.752 77.639 85.376 0 44.239-26.25 44.93-33.291 101.065-.54 4.299-.966 8.924-1.26 13.918h16.232c4.126-70.202 34.551-67.356 34.551-114.983 0-47.361-38.394-85.755-85.755-85.755-2.737 0-5.445.128-8.116.379z" fill="#ffd064"/></g><g><path d="m113.436 243.818c5.574 1.326 10.897 3.536 15.777 6.54l10.251-4.553 12.083 12.083-4.552 10.248c3.005 4.88 5.215 10.205 6.542 15.781l10.459 4.026v17.087l-10.462 4.027c-1.326 5.574-3.536 10.898-6.54 15.777l4.553 10.251-12.083 12.083-10.248-4.552c-4.88 3.005-10.205 5.215-15.78 6.542l-4.026 10.459h-17.087l-4.027-10.462c-5.574-1.326-10.897-3.536-15.776-6.54l-10.252 4.553-12.083-12.083 4.552-10.248c-3.005-4.88-5.215-10.206-6.542-15.78l-10.459-4.026v-17.087l10.46-4.027c1.327-5.574 3.536-10.899 6.541-15.778l-4.553-10.251 12.083-12.083 10.252 4.553c4.879-3.004 10.202-5.214 15.776-6.54l4.027-10.462h17.087z" fill="#a79ba7"/><path d="m72.519 342.614-10.252 4.553-1.579-1.579 9.612-4.269c.731.45 1.47.882 2.219 1.295zm40.917-98.796c5.574 1.326 10.897 3.536 15.777 6.54l-2.914 1.294c-4.879-3.004-12.421-6.508-17.995-7.834l-4.027-10.462h5.132zm15.78 98.798c-4.88 3.005-10.205 5.215-15.78 6.542l-4.026 10.459h-5.133l4.026-10.459c5.575-1.327 13.119-4.831 17.999-7.836zm-68.527-95.232 1.579-1.579 10.252 4.553c-.749.413-1.489.845-2.219 1.294zm75.221 0 3.554-1.579 12.083 12.083-4.552 10.248c3.005 4.88 5.215 10.205 6.542 15.781l10.459 4.026v17.087l-10.462 4.027c-1.326 5.574-3.536 10.898-6.54 15.777l4.553 10.251-12.083 12.083-3.554-1.579 10.504-10.504-4.553-10.251c3.004-4.879 5.214-10.203 6.541-15.777l10.462-4.027v-17.087l-10.459-4.026c-1.326-5.576-3.536-10.901-6.542-15.781l4.552-10.248z" fill="#837683"/><ellipse cx="100.866" cy="296.486" fill="#eceff1" rx="29.798" ry="29.798" transform="matrix(.973 -.233 .233 .973 -66.228 31.614)"/><path d="m100.866 266.688c-16.458 0-29.798 13.34-29.798 29.798s13.34 29.798 29.798 29.798c.798 0 1.588-.032 2.37-.094-15.35-1.208-27.428-14.044-27.428-29.704 0-15.661 12.078-28.497 27.428-29.704-.782-.062-1.572-.094-2.37-.094z" fill="#d1d1d6"/></g></g></svg>