<svg height="256" viewBox="0 0 256 256" width="256" xmlns="http://www.w3.org/2000/svg"><g fill="none" stroke-miterlimit="10" stroke-width="0" transform="matrix(2.81 0 0 2.81 1.407 1.407)"><path d="m80.936 16.935-15.09-15.09c-.541-.541-1.274-.845-2.039-.845h-44.065c-1.593 0-2.884 1.291-2.884 2.884v46.214h27.408c1.451 0 2.628 1.134 2.628 2.533v24.064c0 1.399-1.177 2.533-2.628 2.533h-27.408v6.888c0 1.593 1.291 2.884 2.884 2.884h59.155c1.593 0 2.884-1.291 2.884-2.884v-67.142c0-.764-.304-1.498-.845-2.039z" fill="#c9cfd4"/><path d="m8.219 76.695c0 1.399 1.177 2.533 2.628 2.533h33.419c1.451 0 2.628-1.134 2.628-2.533v-24.064c0-1.399-1.177-2.533-2.628-2.533h-33.419c-1.451 0-2.628 1.134-2.628 2.533z" fill="#f7bf50"/><circle cx="71.33" cy="58.99" fill="#f17b7b" r="4.02"/><circle cx="71.33" cy="76.02" fill="#7ec6c5" r="4.02"/><path d="m80.936 16.935-15.09-15.09c-.246-.246-.535-.435-.845-.577v13.884c0 1.451 1.176 2.628 2.628 2.628h13.884c-.142-.31-.331-.599-.577-.845z" fill="#b0b6bc"/><g fill="#000"><path d="m44.265 80.229h-33.418c-2 0-3.628-1.585-3.628-3.533v-24.065c0-1.948 1.627-3.533 3.628-3.533h33.418c2 0 3.627 1.585 3.627 3.533v24.064c.001 1.949-1.626 3.534-3.627 3.534zm-33.418-29.131c-.897 0-1.628.688-1.628 1.533v24.064c0 .846.73 1.533 1.628 1.533h33.418c.897 0 1.627-.688 1.627-1.533v-24.064c0-.846-.73-1.533-1.627-1.533z"/><path d="m26.49 73.593c-.552 0-1-.447-1-1v-12.555c0-1.352-1.1-2.451-2.451-2.451h-3.033c-1.351 0-2.451 1.1-2.451 2.451v12.555c0 .553-.448 1-1 1s-1-.447-1-1v-12.555c0-2.454 1.997-4.451 4.451-4.451h3.033c2.454 0 4.451 1.997 4.451 4.451v12.555c0 .553-.448 1-1 1z"/><path d="m26.49 65.59h-9.934c-.552 0-1-.447-1-1s.448-1 1-1h9.934c.552 0 1 .447 1 1s-.448 1-1 1z"/><path d="m35.275 73.593c-.552 0-1-.447-1-1v-16.006c0-.553.448-1 1-1s1 .447 1 1v16.006c0 .553-.448 1-1 1z"/><path d="m38.556 57.587h-6.563c-.552 0-1-.447-1-1s.448-1 1-1h6.563c.552 0 1 .447 1 1s-.448 1-1 1z"/><path d="m38.556 73.593h-6.563c-.552 0-1-.447-1-1s.448-1 1-1h6.563c.552 0 1 .447 1 1s-.448 1-1 1z"/><path d="m71.327 64.006c-2.768 0-5.02-2.252-5.02-5.021 0-2.768 2.252-5.02 5.02-5.02 2.769 0 5.021 2.252 5.021 5.02 0 2.769-2.252 5.021-5.021 5.021zm0-8.04c-1.665 0-3.02 1.354-3.02 3.02s1.354 3.021 3.02 3.021 3.021-1.355 3.021-3.021-1.356-3.02-3.021-3.02z"/><path d="m71.327 81.038c-2.768 0-5.02-2.252-5.02-5.021 0-2.768 2.252-5.02 5.02-5.02 2.769 0 5.021 2.252 5.021 5.02 0 2.769-2.252 5.021-5.021 5.021zm0-8.04c-1.665 0-3.02 1.354-3.02 3.02s1.354 3.021 3.02 3.021 3.021-1.355 3.021-3.021-1.356-3.02-3.021-3.02z"/><path d="m59.026 65.663h-12.133c-.553 0-1-.447-1-1s.447-1 1-1h11.134v-4.678c0-.553.447-1 1-1h8.281c.553 0 1 .447 1 1s-.447 1-1 1h-7.281v4.678c-.001.553-.448 1-1.001 1z"/><path d="m67.308 77.018h-12.68c-.553 0-1-.447-1-1v-5.113h-6.735c-.553 0-1-.447-1-1s.447-1 1-1h7.735c.553 0 1 .447 1 1v5.113h11.68c.553 0 1 .447 1 1s-.448 1-1 1z"/><path d="m83.068 18.78h-15.439c-2 0-3.628-1.627-3.628-3.628v-15.439l1.415.646c.438.199.82.461 1.138.78l15.091 15.09c.317.318.579.7.777 1.136zm-17.067-15.366v11.738c0 .897.73 1.628 1.628 1.628h11.738z"/><path d="m78.897 90h-59.155c-2.142 0-3.884-1.742-3.884-3.884v-7.888h28.408c.897 0 1.627-.688 1.627-1.533v-24.064c0-.846-.73-1.533-1.627-1.533h-28.409v-47.214c0-2.141 1.743-3.884 3.885-3.884h44.065c1.023 0 2.024.415 2.747 1.138l15.09 15.09c.733.733 1.138 1.709 1.138 2.747v67.142c-.001 2.141-1.743 3.883-3.885 3.883zm-61.04-9.771v5.888c0 1.039.845 1.884 1.884 1.884h59.156c1.039 0 1.884-.845 1.884-1.884v-67.142c0-.503-.196-.977-.552-1.333l-15.09-15.09c-.351-.351-.836-.552-1.332-.552h-44.065c-1.039 0-1.884.845-1.884 1.884v45.213h26.408c2 0 3.627 1.585 3.627 3.533v24.064c0 1.948-1.627 3.533-3.627 3.533h-26.409z"/><path d="m52.539 20.268h-27.562c-.552 0-1-.448-1-1s.448-1 1-1h27.563c.553 0 1 .448 1 1s-.448 1-1.001 1z"/><path d="m72.539 30.268h-47.562c-.552 0-1-.448-1-1s.448-1 1-1h47.563c.553 0 1 .448 1 1s-.448 1-1.001 1z"/><path d="m72.539 40.268h-47.562c-.552 0-1-.448-1-1s.448-1 1-1h47.563c.553 0 1 .448 1 1s-.448 1-1.001 1z"/></g></g></svg>