<svg xmlns="http://www.w3.org/2000/svg" version="1.1" xmlns:xlink="http://www.w3.org/1999/xlink" width="512" height="512" x="0" y="0" viewBox="0 0 73 73" style="enable-background:new 0 0 512 512" xml:space="preserve" class=""><g><path d="M64.141 36.056a4.117 4.117 0 0 0-4.112-4.113c-2.035 0-3.718 1.49-4.044 3.434H44.053c-.03-.047-.05-.097-.091-.138l-7.435-7.435v-5.97c12.563-.374 15.286-.35 16.52-2.72a4.243 4.243 0 0 0 1.102-2.808l.05-7.621a4.278 4.278 0 0 0-4.278-4.308c-27.68.108-26.45-.248-27.872.277-2.322.108-3.937 2.726-4.47 4.734-.572 2.16-.394 4.44-.21 6.667.36 4.392 1.536 5.793 6.138 5.895 3.438.076 6.876.034 10.314-.048v4.806l-8.24 8.24h-8.2c-.574-1.58-2.077-2.718-3.853-2.718a4.117 4.117 0 0 0-4.112 4.112 4.112 4.112 0 0 0 3.396 4.04V56.47h-4.75c-.533 0-1.009.254-1.385.665-.197.101-.396.265-.63.546-1.593 1.909-1.417 4.502-1.192 6.939.307 3.334 1.346 3.98 3.9 4.011 2.952.036 5.906-.022 8.855-.173.682-.035 1.397-.085 1.974-.451.768-.49 1.107-1.405 1.176-2.313.488-1.163.212-1.814.315-6.24.004-.952-.322-1.85-.873-2.402-.379-.381-.837-.582-1.323-.582h-3.562V40.027a4.1 4.1 0 0 0 2.313-3.579h7.928l8.168 8.073c.51.044 1.37.18 1.77-.004.533-.057.122.03 8.027-7.778a.73.73 0 0 0 .41.138H56a4.12 4.12 0 0 0 3.252 3.212l.094 15.81c-4.044.019-4.112-.05-4.52.06-.619-.076-.99-.038-1.563.65-1.593 1.909-1.417 4.502-1.193 6.938.118 1.28.329 2.728 1.382 3.465.715.5 1.646.537 2.518.547 2.953.036 5.907-.022 8.856-.173.682-.035 1.397-.085 1.973-.452.525-.333.854-.896 1.028-1.498.72-1.297.328-2.262.463-6.553.007-1.45-.81-2.985-2.196-2.985h-3.92v-16.35a4.102 4.102 0 0 0 1.967-3.492zM49.921 5.877A2.778 2.778 0 0 1 52.7 8.675l-.05 7.62a2.784 2.784 0 0 1-2.78 2.76h-.009l-26.35-.076a2.784 2.784 0 0 1-2.77-2.78V8.656a2.783 2.783 0 0 1 2.78-2.779zM19.138 58.111c.268.268.439.793.437 1.337l-.022 4.784c-.003.875-.42 1.455-.696 1.455l-10.796-.05c-.277 0-.695-.586-.695-1.465v-4.735c0-.881.419-1.466.696-1.466H18.88c.1 0 .196.076.26.14zm16.282-15.39-6.953-6.951 6.953-6.953 6.95 6.953zM66.354 57.54c.268.269.439.793.436 1.337l-.02 4.784c-.005.875-.422 1.454-.697 1.454l-10.796-.049c-.277 0-.695-.586-.695-1.465v-4.736c0-.88.419-1.466.695-1.466h10.817c.1 0 .197.077.26.141z" fill="#000000" opacity="0.6313725490196078" data-original="#000000"></path><path d="M27.192 13.127h17.384a.75.75 0 0 0 0-1.5H27.192a.75.75 0 0 0 0 1.5zM58.18 62.285c.661 0 1.006-.805.53-1.28l-.226-.227a.75.75 0 1 0-1.06 1.06c.145.116.327.447.756.447zM62.532 62.488c.66 0 1.004-.803.532-1.278l-.142-.144a.75.75 0 1 0-1.065 1.057c.1.076.26.365.675.365zM11.078 61.16a.75.75 0 0 0-1.06 0l-.096.096a.75.75 0 0 0 0 1.06c.708.709 1.866-.446 1.156-1.156zM15.944 62.223a.751.751 0 0 0 0-1.06c-.548-.549-1.503-.012-1.23.81.09.2.863.617 1.23.25z" fill="#000000" opacity="0.6313725490196078" data-original="#000000"></path></g></svg>