<svg clip-rule="evenodd" fill-rule="evenodd" height="173.397mm" image-rendering="optimizeQuality" shape-rendering="geometricPrecision" text-rendering="geometricPrecision" viewBox="0 0 173.397 173.397" width="173.397mm" xmlns="http://www.w3.org/2000/svg"><g id="Layer_x0020_1"><g id="_220660280"><path id="_220661504" d="m19.0922 128.026h18.8836c-3.9501-4.974-7.2031-13.9131-9.6112-19.8965h-9.2724c-4.5402 0-8.2549 7.1013-8.2549 11.6415 0 4.5403 3.7146 8.255 8.2549 8.255z" fill="#bb485f"/><path id="_220660952" d="m154.305 128.026c4.5403 0 8.2549-3.7147 8.2549-8.255 0-4.5402-3.7147-11.6415-8.2549-11.6415h-9.2725c-2.4081 5.9834-5.6611 14.9225-9.6112 19.8965z" fill="#bb485f"/><circle id="_220660520" cx="86.699" cy="86.699" fill="#00abe0" r="66.506"/><g fill="#e4eaf8"><path id="_220660904" d="m86.6986 20.193c10.1708 0 19.2831 7.6018 25.7933 19.892 6.3353 11.9601 10.2539 28.4431 10.2539 46.6136s-3.9186 34.6535-10.2539 46.6136c-6.5102 12.2902-15.6225 19.892-25.7933 19.892s-19.2831-7.6018-25.7933-19.892c-6.3353-11.9601-10.2539-28.4431-10.2539-46.6136s3.9186-34.6535 10.2539-46.6136c6.5102-12.2902 15.6225-19.892 25.7933-19.892zm22.7903 21.4014c-5.9233-11.1822-13.9882-18.0987-22.7903-18.0987s-16.867 6.9165-22.7903 18.0987c-6.0982 11.5124-9.8701 27.4568-9.8701 45.1042s3.7719 33.5918 9.8701 45.1042c5.9233 11.1822 13.9882 18.0987 22.7903 18.0987s16.867-6.9165 22.7903-18.0987c6.0982-11.5124 9.8701-27.4568 9.8701-45.1042s-3.7719-33.5918-9.8701-45.1042z" fill-rule="nonzero"/><path id="_220660424" d="m125.393 32.6055c1.0078.7223 1.9932 1.4737 2.958 2.2498-13.0065 7.0745-27.3331 10.6123-41.6533 10.6123-14.3198 0-28.646-3.5376-41.6523-10.6123.9648-.7761 1.9501-1.5275 2.9579-2.2498 12.1297 6.3165 25.4092 9.4753 38.6944 9.4753 13.2856 0 26.5653-3.159 38.6953-9.4753zm2.958 105.936c-.9648.7762-1.9501 1.5275-2.958 2.2498-12.13-6.3163-25.4097-9.4753-38.6953-9.4753-13.2852 0-26.5647 3.1588-38.6944 9.4753-1.0079-.7223-1.9932-1.4737-2.9579-2.2498 13.0063-7.0747 27.3325-10.6123 41.6523-10.6123 14.3202 0 28.6468 3.5378 41.6533 10.6123z"/><path id="_220660400" d="m88.392 23.5811c0-.9352-.7582-1.6934-1.6934-1.6934s-1.6934.7582-1.6934 1.6934v39.9931c0 .9352.7582 1.6934 1.6934 1.6934s1.6934-.7582 1.6934-1.6934zm0 86.2417c0-.9352-.7582-1.6934-1.6934-1.6934s-1.6934.7582-1.6934 1.6934v39.9934c0 .9352.7582 1.6934 1.6934 1.6934s1.6934-.7582 1.6934-1.6934z" fill-rule="nonzero"/></g><path id="_220660808" d="m19.0922 111.516h135.213c4.5402 0 8.2549 3.7147 8.2549 8.2549v-51.9635c0-3.2642-2.6623-5.9266-5.9266-5.9266h-139.87c-3.2643 0-5.9267 2.6624-5.9266 5.9267v51.9634c0-4.5402 3.7147-8.2549 8.2549-8.2549z" fill="#e95b5b"/><path id="_220660784" d="m136.295 79.6601c1.1874 2.5165 5.0086.7079 3.8198-1.8024-.956-2.0187-2.9526-3.3804-5.2138-3.3804h-8.3186c-3.2445 0-5.8123 2.7702-5.8123 6.028 0 2.4963-.2338 4.4821 1.6644 6.4912 1.0602 1.1221 2.5283 1.8187 4.1479 1.8187h8.3188c.9163 0 1.5787.8616 1.5787 1.7945 0 1.3614.223 2.8249-.5068 3.5975-.2792.2956-.6592.4791-1.0719.4791h-8.3188c-.6116 0-1.1372-.4076-1.3938-.9494-1.1921-2.5175-5.0077-.7057-3.8198 1.8024.9561 2.0186 2.9522 3.3804 5.2136 3.3804h8.3188c3.2442 0 5.8121-2.77 5.8121-6.0279 0-2.4963.2338-4.4821-1.6644-6.4913-1.0602-1.1221-2.5281-1.8187-4.1477-1.8187h-8.3188c-.9164 0-1.5789-.8614-1.5789-1.7945 0-1.361-.223-2.825.5068-3.5975.2792-.2955.6592-.4791 1.0721-.4791h8.3186c.6125 0 1.1365.4074 1.394.9494zm-103.611 17.1429c0 2.7868 4.2334 2.7868 4.2334 0v-14.0394l11.9227 15.3375-.0009.001c1.2522 1.6109 3.7871.6515 3.7877-1.2991l.0001-20.209c0-2.7868-4.2334-2.7868-4.2334 0v14.0394l-11.8758-15.2772c-1.2665-1.6898-3.8338-.7606-3.8338 1.2378zm45.9222-18.0923c2.7868 0 2.7868-4.2334 0-4.2334h-15.7096c-1.169 0-2.1167.9477-2.1167 2.1167v20.209c0 1.169.9477 2.1167 2.1167 2.1167h15.7096c2.7868 0 2.7868-4.2334 0-4.2334h-13.5929v-5.8711h13.5929c2.7868 0 2.7868-4.2334 0-4.2334h-13.5929v-5.8711zm12.037-2.7699c-.8607-2.6478-4.8818-1.3342-4.0184 1.3064l6.6443 20.217c.3651 1.1104 1.5615 1.7146 2.6719 1.3495.7082-.2329 1.2105-.8039 1.3867-1.4751l4.598-13.9817 4.6351 14.1073c.3651 1.1104 1.5615 1.7146 2.6719 1.3495.7082-.2329 1.2105-.8039 1.3867-1.4751l6.6072-20.0914c.8625-2.6379-3.1521-3.956-4.0184-1.3064l-4.6367 14.0993-4.5979-13.9816c-.1763-.6712-.6785-1.2423-1.3867-1.4752-1.4753-.4851-2.6329.7913-2.6704 1.3575l-4.6367 14.0993z" fill="#f1f4fb" fill-rule="nonzero"/></g></g></svg>