<svg xmlns="http://www.w3.org/2000/svg" version="1.1" xmlns:xlink="http://www.w3.org/1999/xlink" width="512" height="512" x="0" y="0" viewBox="0 0 512 512" style="enable-background:new 0 0 512 512" xml:space="preserve" class=""><g transform="matrix(6.123233995736766e-17,-1,1,6.123233995736766e-17,-19.999996185302734,512.0000190734863)"><g fill="#7b7b7b"><path d="M461.2 347.2v46.9h-52.7v-46.9h25.7c.2 0 .5.1.8.1s.5 0 .8-.1zM378.5 287.3c5.5 0 10 4.6 10 10 0 5.5-4.5 10-10 10s-10-4.5-10-10 4.4-10 10-10zM348.3 347.2v46.9h-52.7v-46.9h25.7c.2 0 .5.1.8.1s.5 0 .8-.1zM318.2 117.9V179H192.3v-61.1zM255.3 230.2c5.6 0 10 4.5 10 10s-4.5 10-10 10-10-4.5-10-10c0-5.4 4.4-10 10-10zM216.3 347.2v46.9h-52.7v-46.9h25.6c.2 0 .5.1.8.1s.5 0 .8-.1zM123.5 297.3c0-5.5 4.5-10 10-10 5.6 0 10 4.5 10 10s-4.5 10-10 10c-5.4.1-10-4.5-10-10zM103.5 347.2v46.9H50.8v-46.9h25.5c.2 0 .5.1.8.1s.5 0 .8-.1z" fill="#0c165e" opacity="0.8901960784313725" data-original="#7b7b7b" class=""></path></g><path fill="#c24d4d" d="M439.9 304.5v32.8h-9.8v-32.8c0-1.2-1.1-2.3-2.3-2.3h-30.1c.4-1.5.6-3.2.6-4.8 0-1.7-.2-3.4-.6-5h30.1c6.6 0 12.1 5.5 12.1 12.1zM383.4 250.9v27.3c-1.6-.4-3.2-.6-4.9-.6s-3.3.2-4.8.6v-27.3c0-3.2-2.6-5.8-5.8-5.8h-93.3c.4-1.6.6-3.2.6-4.8 0-1.7-.2-3.4-.6-5H368c8.5.1 15.4 7 15.4 15.6zM329.4 292.4h29.9c-.4 1.6-.6 3.2-.6 5 0 1.7.2 3.3.6 4.8h-29.9c-1.2 0-2.3 1.1-2.3 2.3v32.8h-9.8v-32.8c0-6.6 5.4-12.1 12.1-12.1zM260.2 188.8v32.4c-1.6-.4-3.2-.6-4.9-.6s-3.3.2-4.9.6v-32.4zM144.2 235.4h91.9c-.4 1.6-.6 3.2-.6 5 0 1.7.2 3.3.6 4.8h-91.9c-3.2 0-5.8 2.6-5.8 5.8v27.2c-1.6-.4-3.2-.6-4.9-.6s-3.3.2-4.9.6V251c.1-8.7 7-15.6 15.6-15.6zM194.8 304.5v32.8H185v-32.8c0-1.2-1.1-2.3-2.3-2.3h-30c.4-1.6.6-3.2.6-4.9s-.2-3.3-.6-4.9h30c6.7 0 12.1 5.5 12.1 12.1zM84.3 292.4h30c-.4 1.6-.6 3.2-.6 4.9s.2 3.3.6 4.9h-30c-1.2 0-2.3 1.1-2.3 2.3v32.8h-9.8v-32.8c0-6.6 5.5-12.1 12.1-12.1z" opacity="1" data-original="#484848" class=""></path></g></svg>