<svg enable-background="new 0 0 512 512" height="512" viewBox="0 0 512 512" width="512" xmlns="http://www.w3.org/2000/svg"><g id="_x34_7_Branding"><g><path d="m418.356 99.864v373.136c0 9.337-7.569 16.907-16.907 16.907h-271.3c-9.337 0-16.907-7.569-16.907-16.907v-434c0-9.337 7.569-16.907 16.907-16.907h210.491z" fill="#f4f4f4"/><path d="m418.341 99.889v373.131c0 9.32-7.569 16.888-16.888 16.888h-42.065c9.319 0 16.888-7.569 16.888-16.888v-373.131l-77.696-77.797h42.065z" opacity=".15"/><path d="m418.356 99.864h-60.808c-9.337 0-16.907-7.569-16.907-16.907v-60.864z" fill="#f4f4f4"/><path d="m497.992 322.817v89.888c0 9.337-7.569 16.907-16.907 16.907h-169.017c-9.337 0-16.907-7.569-16.907-16.907v-89.888c0-9.337 7.569-16.907 16.907-16.907h169.017c9.338 0 16.907 7.57 16.907 16.907z" fill="#ffd764"/><path d="m497.992 322.831v89.897c0 9.32-7.569 16.888-16.888 16.888h-33.158c9.37 0 16.939-7.569 16.939-16.888v-89.897c0-9.371-7.569-16.94-16.939-16.94h33.158c9.319 0 16.888 7.569 16.888 16.94z" opacity=".15"/><path d="m376.272 367.762c0 14.344-11.608 26.025-25.952 26.025-14.418 0-26.026-11.682-26.026-26.025 0-14.344 11.608-26.026 26.026-26.026 14.343 0 25.952 11.681 25.952 26.026z" fill="#f4f4f4"/><path d="m207.202 97.251c0 14.344-11.608 26.025-25.952 26.025-14.418 0-26.026-11.682-26.026-26.025 0-14.344 11.608-26.026 26.026-26.026 14.344 0 25.952 11.682 25.952 26.026z" fill="#ffd764"/><path d="m35.871 175.438h44.363v279.347h-44.363z" fill="#ffd764"/><path d="m35.876 175.438 22.148-34.465 22.205 34.465z" fill="#f4f4f4"/><path d="m35.871 454.785v12.94c0 12.251 9.931 22.182 22.182 22.182 12.251 0 22.182-9.931 22.182-22.182v-12.94z" fill="#ff6761"/><g fill="#2b3c65"><path d="m418.339 290.447c2.843 0 5.149-2.303 5.149-5.149v-185.41c0-1.162-.567-2.743-1.488-3.665-7.946-7.952 28.785 28.806-77.712-77.769-.516-.316-1.563-1.508-3.643-1.508h-210.481c-12.181 0-22.088 9.885-22.088 22.033v245.753c0 2.846 2.305 5.149 5.149 5.149s5.149-2.303 5.149-5.149v-245.754c0-6.471 5.29-11.736 11.791-11.736h205.327v55.716c0 12.158 9.895 22.053 22.056 22.053h55.643v180.287c0 2.847 2.305 5.149 5.148 5.149zm-60.792-195.733c-6.484 0-11.758-5.274-11.758-11.756v-48.428l60.105 60.184z"/><path d="m113.225 327.826c2.843 0 5.149-2.303 5.149-5.149v-17.196c0-2.846-2.305-5.149-5.149-5.149s-5.149 2.303-5.149 5.149v17.196c0 2.846 2.305 5.149 5.149 5.149z"/><path d="m481.085 300.76h-169.017c-12.16 0-22.056 9.895-22.056 22.058v89.887c0 12.163 9.895 22.058 22.056 22.058h101.122v38.259c0 6.471-5.264 11.736-11.738 11.736h-271.288c-6.501 0-11.791-5.264-11.791-11.736v-105.293c0-2.846-2.305-5.149-5.149-5.149s-5.149 2.303-5.149 5.149v105.293c0 12.148 9.908 22.033 22.088 22.033h271.288c12.15 0 22.036-9.885 22.036-22.033v-38.259h57.597c12.16 0 22.056-9.895 22.056-22.058v-89.887c.001-12.163-9.895-22.058-22.055-22.058zm11.758 111.946c0 6.486-5.274 11.761-11.758 11.761h-169.017c-6.484 0-11.758-5.274-11.758-11.761v-89.887c0-6.486 5.274-11.761 11.758-11.761h169.017c6.484 0 11.758 5.274 11.758 11.761z"/><path d="m350.319 336.585c-17.189 0-31.174 13.983-31.174 31.174s13.986 31.174 31.174 31.174c17.148 0 31.101-13.983 31.101-31.174s-13.952-31.174-31.101-31.174zm0 52.051c-11.512 0-20.877-9.367-20.877-20.877s9.365-20.877 20.877-20.877c11.472 0 20.804 9.367 20.804 20.877s-9.332 20.877-20.804 20.877z"/><path d="m468.859 336.585h-29.07c-2.843 0-5.149 2.303-5.149 5.149s2.305 5.149 5.149 5.149h29.07c2.843 0 5.149-2.303 5.149-5.149s-2.305-5.149-5.149-5.149z"/><path d="m468.859 362.611h-56.036c-2.843 0-5.149 2.303-5.149 5.149s2.305 5.149 5.149 5.149h56.036c2.843 0 5.149-2.303 5.149-5.149 0-2.847-2.305-5.149-5.149-5.149z"/><path d="m468.859 388.636h-56.036c-2.843 0-5.149 2.303-5.149 5.149s2.305 5.149 5.149 5.149h56.036c2.843 0 5.149-2.303 5.149-5.149s-2.305-5.149-5.149-5.149z"/><path d="m150.076 97.253c0 17.191 13.986 31.174 31.174 31.174 17.148 0 31.101-13.983 31.101-31.174s-13.953-31.179-31.101-31.179c-17.189 0-31.174 13.988-31.174 31.179zm51.978 0c0 11.509-9.332 20.877-20.804 20.877-11.512 0-20.877-9.367-20.877-20.877 0-11.514 9.365-20.882 20.877-20.882 11.471 0 20.804 9.368 20.804 20.882z"/><path d="m299.79 66.074h-29.07c-2.843 0-5.149 2.303-5.149 5.149s2.305 5.149 5.149 5.149h29.07c2.843 0 5.149-2.303 5.149-5.149s-2.306-5.149-5.149-5.149z"/><path d="m299.79 92.099h-56.033c-2.843 0-5.149 2.303-5.149 5.149s2.305 5.149 5.149 5.149h56.033c2.843 0 5.149-2.303 5.149-5.149s-2.306-5.149-5.149-5.149z"/><path d="m299.79 118.13h-56.033c-2.843 0-5.149 2.303-5.149 5.149s2.305 5.149 5.149 5.149h56.033c2.843 0 5.149-2.303 5.149-5.149-.001-2.846-2.306-5.149-5.149-5.149z"/><path d="m80.233 190.886c-2.843 0-5.149 2.303-5.149 5.149v253.602h-34.065v-269.048h39.209c4.068 0 6.534-4.518 4.329-7.939l-21.384-33.195v-8.402c0-2.846-2.305-5.149-5.149-5.149-2.843 0-5.149 2.303-5.149 5.149v8.406l-21.332 33.196c-.709 1.109-.708 2.242-.822 2.786v273.302c-6.688-2.186-11.565-8.409-11.565-15.818v-71.867c0-2.846-2.305-5.149-5.149-5.149s-5.149 2.303-5.149 5.149v71.867c0 13.13 9.427 24.076 21.862 26.491v8.314c0 15.069 12.261 27.328 27.33 27.328s27.33-12.259 27.33-27.328c0-79.924 0-182.912 0-271.693.002-2.848-2.304-5.151-5.147-5.151zm-22.204-40.395 12.759 19.801h-25.485zm17.055 317.237c0 9.392-7.64 17.03-17.033 17.03s-17.033-7.638-17.033-17.03v-7.794h34.065v7.794z"/></g></g></g></svg>