<svg id="Layer_3" enable-background="new 0 0 60 60" height="512" viewBox="0 0 60 60" width="512" xmlns="http://www.w3.org/2000/svg"><g><path d="m34.77 25.23c2.19 2.2 3.4 5.11 3.4 8.21s-1.21 6.01-3.4 8.21l-9.95 9.95c-4.53 4.53-11.89 4.53-16.42 0-4.52-4.52-4.52-11.89 0-16.41l7.53-7.52 1.21 5.99-5.13 5.13c-1.23 1.23-1.91 2.86-1.91 4.6 0 1.75.68 3.38 1.91 4.61 1.22 1.23 2.86 1.91 4.6 1.91s3.38-.68 4.6-1.91l9.96-9.96c2.54-2.53 2.54-6.67 0-9.2-.61-.62-1.35-1.09-2.15-1.42-.05-.28-.08-.57-.08-.86 0-1.21.46-2.34 1.31-3.19l.67-.67c1.43.58 2.74 1.42 3.85 2.53z" fill="#40444f"/><path d="m51.6 24.81-7.53 7.53-1.2-6 5.12-5.13c1.23-1.23 1.91-2.86 1.91-4.6s-.68-3.38-1.91-4.61c-1.22-1.23-2.86-1.9-4.6-1.9s-3.38.67-4.6 1.9l-9.96 9.96c-1.23 1.22-1.9 2.86-1.9 4.6s.67 3.38 1.9 4.61c.61.61 1.35 1.09 2.15 1.41.28 1.42-.14 2.95-1.23 4.05l-.67.67c-1.44-.58-2.74-1.42-3.85-2.53-2.19-2.19-3.4-5.11-3.4-8.21s1.21-6.01 3.4-8.21l9.95-9.95c4.53-4.52 11.89-4.53 16.42 0 4.53 4.52 4.53 11.89 0 16.41z" fill="#2b79c3"/></g></svg>