<svg id="Layer_1" enable-background="new 0 0 100 100" viewBox="0 0 100 100" xmlns="http://www.w3.org/2000/svg"><g><path d="m16.479 23.228c-.168 0-.339-.042-.496-.132l-2.76-1.581c-.479-.274-.645-.885-.371-1.365.274-.479.885-.645 1.365-.371l2.76 1.581c.479.274.645.885.371 1.365-.185.322-.523.503-.869.503z"/></g><g><path d="m86.28 63.216c-.168 0-.339-.042-.496-.132l-2.76-1.581c-.479-.274-.645-.885-.371-1.365.275-.479.886-.646 1.365-.371l2.76 1.581c.479.274.645.885.371 1.365-.185.322-.523.503-.869.503z"/></g><g><path d="m11.883 35.762c-.057 0-.115-.005-.173-.015l-3.139-.549c-.544-.095-.908-.613-.812-1.157.095-.543.612-.905 1.157-.812l3.139.549c.544.095.908.613.812 1.157-.085.485-.507.827-.984.827z"/></g><g><path d="m91.258 49.65c-.057 0-.115-.005-.173-.015l-3.139-.549c-.544-.095-.908-.613-.812-1.157s.616-.904 1.157-.812l3.139.549c.544.095.908.613.812 1.157-.085.485-.507.827-.984.827z"/></g><g><path d="m8.742 49.65c-.477 0-.899-.342-.984-.828-.095-.544.269-1.062.812-1.157l3.139-.549c.545-.092 1.062.269 1.157.812.095.544-.269 1.062-.812 1.157l-3.139.549c-.058.011-.116.016-.173.016z"/></g><g><path d="m88.117 35.762c-.477 0-.899-.342-.984-.828-.095-.544.269-1.062.812-1.157l3.139-.549c.549-.093 1.062.269 1.157.812.095.544-.269 1.062-.812 1.157l-3.139.549c-.059.011-.116.016-.173.016z"/></g><g><path d="m13.72 63.216c-.347 0-.684-.181-.869-.503-.274-.479-.108-1.09.371-1.365l2.76-1.581c.479-.275 1.09-.108 1.365.371.274.479.108 1.09-.371 1.365l-2.76 1.581c-.156.089-.327.132-.496.132z"/></g><g><path d="m83.521 23.228c-.347 0-.684-.181-.869-.503-.274-.479-.108-1.09.371-1.365l2.76-1.581c.479-.274 1.091-.108 1.365.371s.108 1.09-.371 1.365l-2.76 1.581c-.156.089-.327.132-.496.132z"/></g><g><path d="m79.61 44.52c0 11.94-8.31 27.63-16.12 39.73h-26.98c-7.81-12.1-16.12-27.79-16.12-39.73 0-10.05 5.07-18.92 12.8-24.22h33.62c7.73 5.3 12.8 14.17 12.8 24.22z" fill="#fff"/></g><g><path d="m75.02 44.52c0 11.94-8.3 27.63-16.12 39.73h-22.39c-7.81-12.1-16.12-27.79-16.12-39.73 0-10.05 5.07-18.92 12.8-24.22h29.03c7.74 5.3 12.8 14.17 12.8 24.22z" fill="#ffbe1d"/></g><g><path d="m63.491 85.252h-26.982c-.34 0-.656-.172-.84-.458-7.427-11.511-16.28-27.843-16.28-40.274 0-10.001 4.949-19.365 13.238-25.047.456-.312 1.078-.195 1.39.259.312.456.196 1.078-.259 1.39-7.745 5.31-12.369 14.057-12.369 23.398 0 11.784 8.447 27.476 15.666 38.732h25.89c7.219-11.256 15.666-26.948 15.666-38.732 0-9.341-4.624-18.088-12.369-23.398-.456-.312-.572-.935-.259-1.39.312-.455.935-.571 1.39-.259 8.289 5.683 13.238 15.046 13.238 25.047 0 12.431-8.853 28.763-16.28 40.274-.184.286-.5.458-.84.458z"/></g><g><path d="m63.49 84.26v10.57c0 1.75-1.43 3.17-3.19 3.17h-20.6c-1.76 0-3.19-1.42-3.19-3.17v-10.57z" fill="#fff"/></g><g><path d="m60.11 90.27v4.56c0 1.75-1.43 3.17-3.19 3.17h-17.22c-1.76 0-3.19-1.42-3.19-3.17v-10.57h17.58c3.33 0 6.02 2.69 6.02 6.01z" fill="#d7f4ff"/></g><g><path d="m60.299 99h-20.598c-2.312 0-4.194-1.872-4.194-4.173v-10.57c0-.552.448-1 1-1h26.985c.552 0 1 .448 1 1v10.57c.001 2.301-1.881 4.173-4.193 4.173zm-22.792-13.743v9.57c0 1.198.984 2.173 2.194 2.173h20.598c1.209 0 2.194-.975 2.194-2.173v-9.57z"/></g><g><path d="m55.166 85.257c-.552 0-1-.448-1-1v-27.5c0-2.346 1.918-4.254 4.275-4.254h3.004c.552 0 1 .448 1 1s-.448 1-1 1h-3.004c-1.255 0-2.275 1.011-2.275 2.254v27.5c0 .552-.448 1-1 1z"/></g><g><path d="m44.834 85.257c-.552 0-1-.448-1-1v-27.5c0-1.243-1.021-2.254-2.275-2.254h-3.004c-.552 0-1-.448-1-1s.448-1 1-1h3.004c2.357 0 4.275 1.909 4.275 4.254v27.5c0 .552-.448 1-1 1z"/></g><g><path d="m66.81 4.59v22.23c0 1.43-1.16 2.59-2.59 2.59h-15.33l-10.03 7.25v-7.25h-3.08c-1.43 0-2.59-1.16-2.59-2.59v-22.23c0-1.43 1.16-2.59 2.59-2.59h28.44c1.43 0 2.59 1.16 2.59 2.59z" fill="#fff"/></g><g><path d="m38.856 37.66c-.156 0-.312-.036-.455-.11-.334-.171-.545-.515-.545-.89v-6.247h-2.074c-1.978 0-3.587-1.612-3.587-3.593v-22.227c0-1.981 1.609-3.593 3.587-3.593h28.436c1.979 0 3.588 1.612 3.588 3.593v22.227c0 1.981-1.609 3.593-3.588 3.593h-15.006l-9.771 7.057c-.173.126-.379.19-.585.19zm-3.074-34.66c-.875 0-1.587.715-1.587 1.593v22.227c0 .878.712 1.593 1.587 1.593h3.074c.552 0 1 .448 1 1v5.291l8.447-6.101c.17-.123.375-.189.585-.189h15.329c.875 0 1.588-.715 1.588-1.593v-22.228c.001-.878-.712-1.593-1.587-1.593z"/></g><g><path d="m49.996 20.942c-.552 0-1-.448-1-1v-1.475c0-1.181.777-2.203 1.889-2.486 1.625-.414 2.735-1.876 2.701-3.557-.038-1.866-1.584-3.442-3.447-3.514-.984-.033-1.912.317-2.621.998-.711.685-1.103 1.604-1.103 2.591 0 .552-.448 1-1 1s-1-.448-1-1c0-1.536.61-2.968 1.717-4.033 1.104-1.062 2.565-1.612 4.084-1.555 2.902.112 5.311 2.566 5.37 5.471.053 2.615-1.677 4.892-4.208 5.536-.221.056-.382.287-.382.547v1.475c0 .554-.448 1.002-1 1.002z"/></g><g><path d="m51.13 23.92c0 .62-.51 1.12-1.13 1.12s-1.13-.5-1.13-1.12c0-.63.51-1.14 1.13-1.14s1.13.51 1.13 1.14z"/></g></svg>