<svg clip-rule="evenodd" fill-rule="evenodd" stroke-linejoin="round" stroke-miterlimit="2" viewBox="0 0 510 510" xmlns="http://www.w3.org/2000/svg"><path d="m341.885 73.309c7.018 0 12.706 5.689 12.706 12.706v203.318c0 7.018-5.688 12.707-12.706 12.707h-314.179c-7.017 0-12.706-5.689-12.706-12.707v-203.318c0-7.017 5.689-12.706 12.706-12.706z" fill="#66d4f1"/><path d="m27.706 302.04c-3.37 0-6.602-1.339-8.984-3.722-2.383-2.383-3.722-5.615-3.722-8.985v-42.488l98.405-104.925 89.289 97.581 70.919-70.394 80.978 79.289v40.937c0 7.018-5.688 12.707-12.706 12.707z" fill="#c6ea94"/><path d="m229.595 128.614c0 9.935-8.066 18.002-18.002 18.002-9.935 0-18.002-8.067-18.002-18.002 0-9.936 8.067-18.002 18.002-18.002 9.936 0 18.002 8.066 18.002 18.002z" fill="#fdcd56"/><path d="m362.054 378.083-49.049 45.38v-45.38h-32.739c-10.119 0-18.38-8.261-18.38-18.381v-108.167c0-10.119 8.261-18.38 18.38-18.38h196.353c10.12 0 18.381 8.261 18.381 18.38v108.167c0 10.12-8.261 18.381-18.381 18.381z" fill="#fdcd56"/><path d="m22 249.614v39.719c0 3.152 2.555 5.707 5.706 5.707h214.18c3.863 0 7 3.136 7 7 0 3.863-3.137 7-7 7h-214.18c-10.883 0-19.706-8.823-19.706-19.707v-203.318c0-10.883 8.823-19.706 19.706-19.706h314.179c10.884 0 19.706 8.823 19.706 19.706v126.094c0 3.863-3.136 7-7 7-3.863 0-7-3.137-7-7v-126.094c0-3.151-2.554-5.706-5.706-5.706h-314.179c-3.151 0-5.706 2.555-5.706 5.706v143.134l86.299-92.018c1.334-1.421 3.2-2.223 5.149-2.211 1.95.012 3.806.836 5.122 2.274 0 0 84.367 92.203 84.367 92.203l65.744-65.258c2.717-2.696 7.094-2.711 9.829-.033l43.475 42.567c2.76 2.703 2.807 7.138.104 9.899-2.703 2.76-7.139 2.807-9.899.104l-38.544-37.739-66.021 65.532c-1.352 1.342-3.194 2.075-5.099 2.03-1.905-.046-3.71-.867-4.996-2.273 0 0-84.188-92.006-84.188-92.006zm213.591-120.498c0 13.522-10.978 24.5-24.5 24.5s-24.5-10.978-24.5-24.5 10.978-24.5 24.5-24.5 24.5 10.978 24.5 24.5zm-14 0c0-5.795-4.705-10.5-10.5-10.5s-10.5 4.705-10.5 10.5 4.705 10.5 10.5 10.5 10.5-4.705 10.5-10.5zm143.205 255.967-47.037 43.518c-2.042 1.889-5.009 2.39-7.558 1.275-2.549-1.114-4.196-3.632-4.196-6.413v-38.38h-25.739c-13.973 0-25.38-11.407-25.38-25.381v-108.167c0-13.973 11.407-25.38 25.38-25.38h196.353c13.974 0 25.381 11.407 25.381 25.38v108.167c0 13.974-11.407 25.381-25.381 25.381zm-2.742-14h114.565c6.266 0 11.381-5.115 11.381-11.381v-108.167c0-6.265-5.115-11.38-11.381-11.38h-196.353c-6.265 0-11.38 5.115-11.38 11.38v108.167c0 6.266 5.115 11.381 11.38 11.381h32.739c3.866 0 7 3.134 7 7v29.367l37.296-34.505c1.293-1.197 2.991-1.862 4.753-1.862zm-47.53-35.643c-3.864 0-7-3.137-7-7 0-3.864 3.136-7 7-7h127.838c3.864 0 7 3.136 7 7 0 3.863-3.136 7-7 7zm0-49.463c-3.864 0-7-3.136-7-7 0-3.863 3.136-7 7-7h127.838c3.864 0 7 3.137 7 7 0 3.864-3.136 7-7 7zm-265.39 76.182c-3.863 0-7-3.136-7-7 0-3.863 3.137-7 7-7h94.396c3.863 0 7 3.137 7 7 0 3.864-3.137 7-7 7zm0 40.766c-3.863 0-7-3.137-7-7s3.137-7 7-7h150.795c3.864 0 7 3.137 7 7s-3.136 7-7 7zm0 40.766c-3.863 0-7-3.137-7-7s3.137-7 7-7h150.795c3.864 0 7 3.137 7 7s-3.136 7-7 7z"/></svg>