<svg id="Layer" height="512" viewBox="0 0 24 24" width="512" xmlns="http://www.w3.org/2000/svg"><g id="image-upload" fill="#396ce8"><path d="m21.75 8.882v8.118a3.381 3.381 0 0 1 -3.75 3.75h-12a3.381 3.381 0 0 1 -3.75-3.75v-10a3.381 3.381 0 0 1 3.75-3.75h8.8a.3.3 0 0 1 .285.365 4.5 4.5 0 0 0 3.512 5.3 4.5 4.5 0 0 0 2.742-.315.3.3 0 0 1 .411.282z" opacity=".4"/><path d="m20.162 14.162-4.452-4.452a1.006 1.006 0 0 0 -1.42 0l-4.94 4.94a.5.5 0 0 1 -.7 0l-.94-.94a1.006 1.006 0 0 0 -1.42 0l-2.452 2.452a.3.3 0 0 0 -.088.212v.626c0 1.58.67 2.25 2.25 2.25h12c1.58 0 2.25-.67 2.25-2.25v-2.626a.3.3 0 0 0 -.088-.212z"/><path d="m8 10.25a1.25 1.25 0 0 1 -.009-2.5h.009a1.25 1.25 0 0 1 0 2.5z"/><path d="m21.53 3.97-1.5-1.5a.751.751 0 0 0 -1.06 0l-1.5 1.5a.75.75 0 0 0 1.06 1.06l.22-.219v2.189a.75.75 0 0 0 1.5 0v-2.189l.22.219a.75.75 0 0 0 1.06-1.06z"/></g></svg>