<svg id="Layer_1" enable-background="new 0 0 512 512" height="512" viewBox="0 0 512 512" width="512" xmlns="http://www.w3.org/2000/svg" xmlns:xlink="http://www.w3.org/1999/xlink"><linearGradient id="SVGID_1_" gradientUnits="userSpaceOnUse" x1="256" x2="256" y1="31.411" y2="480.589"><stop offset="0" stop-color="#17a6d7"/><stop offset=".0617" stop-color="#259adb"/><stop offset=".1856" stop-color="#3b87e2"/><stop offset=".2649" stop-color="#4380e4"/><stop offset="1" stop-color="#9735fd"/></linearGradient><path d="m123.792 213.537c-18.506 0-33.562 15.057-33.562 33.563s15.056 33.563 33.562 33.563 33.562-15.057 33.562-33.563-15.055-33.563-33.562-33.563zm0 53.121c-10.785 0-19.559-8.773-19.559-19.559s8.774-19.559 19.559-19.559 19.559 8.773 19.559 19.559-8.774 19.559-19.559 19.559zm252.832-151.521c-2.734-2.734-2.734-7.168 0-9.902l31.748-31.748c1.313-1.313 3.094-2.051 4.951-2.051h.001c1.857.001 3.639.739 4.952 2.054l31.719 31.748c2.733 2.735 2.731 7.168-.004 9.901-1.367 1.365-3.158 2.049-4.949 2.049-1.793 0-3.586-.685-4.953-2.054l-19.765-19.782v60.925c0 3.867-3.135 7.002-7.001 7.002s-7.001-3.135-7.001-7.002v-60.936l-19.796 19.796c-2.735 2.735-7.167 2.735-9.902 0zm80.012 66.595c0 3.867-3.135 7.002-7.001 7.002h-72.652c-3.867 0-7.001-3.135-7.001-7.002s3.135-7.002 7.001-7.002h72.652c3.866 0 7.001 3.135 7.001 7.002zm55.361-51.648c0-54.409-44.265-98.674-98.674-98.674-27.173 0-51.815 11.035-69.682 28.856h-312.003c-17.443 0-31.635 14.204-31.635 31.663v356.995c0 17.459 14.191 31.664 31.635 31.664h377.801c17.459 0 31.663-14.205 31.663-31.664v-224.152c40.927-12.027 70.895-49.921 70.895-94.688zm-84.898 318.841c0 9.738-7.922 17.66-17.66 17.66h-377.801c-9.722 0-17.632-7.922-17.632-17.66v-356.995c0-9.737 7.91-17.659 17.632-17.659h300.336c-10.939 15.885-17.353 35.113-17.353 55.813 0 14.428 3.114 28.142 8.705 40.507h-274.765c-3.867 0-7.001 3.135-7.001 7.002v254.438c0 3.867 3.135 7.002 7.001 7.002h343.984c3.867 0 7.001-3.135 7.001-7.002v-204.238c4.504.632 9.102.966 13.777.966s9.273-.334 13.776-.966zm-119.237-23.896h-242.969l129.587-136.033zm18.229 0-52.254-62.693 27.453-28.834 76.297 91.527zm59.452-12.327-78.527-94.202c-1.278-1.533-3.151-2.448-5.147-2.515-1.994-.057-3.924.725-5.302 2.17l-31.755 33.353-64.605-77.512c-1.278-1.534-3.151-2.449-5.146-2.516-2.002-.057-3.925.724-5.301 2.169l-134.198 140.874v-229.928h275.529c12.721 19.116 31.926 33.563 54.452 40.179zm27.78-197.947c-46.704 0-84.7-37.983-84.7-84.671s37.996-84.67 84.7-84.67c46.688 0 84.671 37.982 84.671 84.67s-37.984 84.671-84.671 84.671z" fill="url(#SVGID_1_)"/></svg>