<svg xmlns="http://www.w3.org/2000/svg" version="1.1" xmlns:xlink="http://www.w3.org/1999/xlink" width="512" height="512" x="0" y="0" viewBox="0 0 512 512" style="enable-background:new 0 0 512 512" xml:space="preserve" class=""><g><path fill="#d5dadd" d="M390 384H58c-31.98 0-58-26.02-58-58V102c0-31.98 26.02-58 58-58h332c31.98 0 58 26.02 58 58v224c0 31.98-26.02 58-58 58z" opacity="1" data-original="#d5dadd" class=""></path><path fill="#717abe" d="M164.77 171.48c-21.7 0-39.35-17.65-39.35-39.35s17.65-39.35 39.35-39.35 39.35 17.65 39.35 39.35-17.65 39.35-39.35 39.35z" opacity="1" data-original="#ffb300" class=""></path><path fill="#5dc122" d="M163.52 384H58c-31.98 0-58-26.02-58-58v-12.81l69.32-79.28a32.022 32.022 0 0 1 24.07-10.94h.02c9.22 0 17.99 3.97 24.06 10.91l75.21 85.79c10.16 11.59 12.52 27.52 6.16 41.56-6.37 14.05-19.9 22.77-35.32 22.77z" opacity="1" data-original="#5dc122" class=""></path><path fill="#256f3a" d="M390 384H137.5c-9.54 0-17.91-5.39-21.85-14.08-3.94-8.68-2.49-18.54 3.79-25.72l153.6-175.68a32.022 32.022 0 0 1 24.07-10.94h.02c9.22 0 17.99 3.97 24.06 10.91L448 313.15V326c0 31.98-26.02 58-58 58z" opacity="1" data-original="#256f3a" class=""></path><path fill="#d7dc40" d="M420 468c-50.73 0-92-41.27-92-92s41.27-92 92-92 92 41.27 92 92-41.27 92-92 92z" opacity="1" data-original="#4db1ff" class=""></path><path fill="#216031" d="M420 284c.83 0 1.66.03 2.49.05l-8.74-9.96c-1.24-.05-2.49-.08-3.75-.08-50.73 0-92 41.27-92 92 0 6.16.61 12.18 1.77 18h8.58c-.23-2.64-.35-5.3-.35-8 0-50.74 41.27-92.01 92-92.01z" opacity="1" data-original="#216031" class=""></path><path fill="#c8ccce" d="m413.75 274.08 8.74 9.96c8.87.24 17.43 1.73 25.51 4.32v-6.14a91.673 91.673 0 0 0-34.25-8.14z" opacity="1" data-original="#c8ccce" class=""></path><path fill="#ffffff" d="m403.03 372.66 8.97-8.97V408c0 4.42 3.58 8 8 8s8-3.58 8-8v-44.31l8.97 8.97c3.12 3.12 8.19 3.12 11.31 0s3.12-8.19 0-11.31l-21.39-21.4c-1.39-2.36-3.95-3.95-6.89-3.95s-5.5 1.59-6.89 3.95l-21.39 21.4c-3.12 3.12-3.12 8.19 0 11.31s8.19 3.12 11.31 0z" opacity="1" data-original="#ffffff" class=""></path></g></svg>