<svg clip-rule="evenodd" fill-rule="evenodd" height="512" image-rendering="optimizeQuality" shape-rendering="geometricPrecision" text-rendering="geometricPrecision" viewBox="0 0 1707 1707" width="512" xmlns="http://www.w3.org/2000/svg"><g id="Layer_x0020_1"><g id="_474319288"><path d="m1278 591c72 0 138 29 185 77 48 47 77 113 77 185s-29 138-77 185c-47 48-113 77-185 77s-138-29-185-77c-48-47-77-113-77-185s29-138 77-185c47-48 113-77 185-77z" fill="#7ed63f" fill-rule="nonzero"/><path d="m428 0c72 0 137 29 185 77 47 47 76 112 76 184s-29 138-76 185c-48 47-113 77-185 77s-138-30-185-77-77-113-77-185 30-137 77-184c47-48 113-77 185-77z" fill="#fcbe37" fill-rule="nonzero"/><g fill="#70787e"><path d="m845 86h360c26 0 47 21 47 47 0 25-21 46-47 46h-360c-26 0-47-21-47-46 0-26 21-47 47-47zm0 129h672c26 0 47 21 47 46 0 26-21 47-47 47h-672c-26 0-47-21-47-47 0-25 21-46 47-46zm0 128h672c26 0 47 21 47 47s-21 47-47 47h-672c-26 0-47-21-47-47s21-47 47-47z"/><g><path d="m845 1527h672c26 0 47 20 47 46s-21 47-47 47h-672c-26 0-47-21-47-47s21-46 47-46z"/><path d="m845 1398h672c26 0 47 21 47 47 0 25-21 46-47 46h-672c-26 0-47-21-47-46 0-26 21-47 47-47z"/><path d="m845 1269h360c26 0 47 21 47 47s-21 47-47 47h-360c-26 0-47-21-47-47s21-47 47-47z"/></g><g><path d="m862 1028h-672c-26 0-47-21-47-46 0-26 21-47 47-47h672c26 0 47 21 47 47 0 25-21 46-47 46z"/><path d="m862 900h-672c-26 0-47-21-47-47s21-47 47-47h672c26 0 47 21 47 47s-21 47-47 47z"/><path d="m862 771h-360c-26 0-47-21-47-47 0-25 21-46 47-46h360c26 0 47 21 47 46 0 26-21 47-47 47z"/></g></g><path d="m428 1182c72 0 138 30 185 77 48 48 77 113 77 186 0 72-29 137-77 185-47 47-113 77-185 77-73 0-138-30-186-77-47-48-76-113-76-185 0-73 29-138 76-186 48-47 113-77 186-77z" fill="#df5a49" fill-rule="nonzero"/><path d="m408 169v225c0 13 11 23 23 23 13 0 24-10 24-23v-265c0-4-1-8-3-12-7-11-21-15-32-9v1l-71 40c-11 7-15 21-8 32 6 11 20 15 31 8z" fill="#fff"/><path d="m1269 745c8-2 16-2 23 0 10 3 20 9 26 19 10 15 3 37-12 59-27 42-80 82-109 102-6 4-10 12-10 19v42c0 12 11 23 23 23h133c12 0 23-11 23-23 0-13-11-24-23-24h-109v-6c32-23 83-64 111-108 24-36 34-75 12-109-13-20-32-33-53-39-16-4-32-4-48 1s-31 14-43 29c-15 18-24 45-23 81 0 13 11 23 23 23 13 0 23-11 23-24-1-24 5-40 14-51 5-7 12-12 19-14z" fill="#fff"/><path d="m418 1289c-23 0-46 8-63 26-10 9-10 24 0 33 9 9 23 9 33 0 8-9 19-13 30-13s22 4 31 13c8 8 12 19 12 30s-4 22-12 31l-1 1c-5 4-10 7-15 9-3 1-7 2-10 2s-6 0-9 0c-12 0-23 10-24 22 0 13 9 24 22 25h10c4 0 8 1 11 2 6 2 11 6 16 10 8 9 12 20 12 31s-4 22-12 30l-1 1c-9 8-19 12-30 12s-22-4-30-13c-10-9-24-9-33 0-10 9-10 24 0 33 17 18 40 27 63 27 22 0 45-9 62-25l2-2c17-17 26-40 26-63s-9-46-26-64l-3-2 1-2 2-1c17-18 26-41 26-64 0-49-40-89-90-89z" fill="#fff"/></g></g></svg>