<svg id="Layer_1" enable-background="new 0 0 66 66" height="512" viewBox="0 0 66 66" width="512" xmlns="http://www.w3.org/2000/svg"><g><path d="m1.765 52.693c-.056 2.26-.125 5.073 1.158 7.378 1.151 2.067 3.421 3.664 6.226 4.382 3.281.839 3.159.62 41.956-.179 10.275-.211 13.268-3.349 13.151-13.45l-.45-38.838c-.026-2.231-.169-4.638-1.047-6.637l.225-.226c.098-.098.098-.256 0-.353-.098-.098-.256-.098-.354 0l-.089.089c-1.938-3.714-5.811-3.949-9.797-3.819-40.777 1.302-42.878.634-46.691 3.993-3.504 3.087-3.672 8.406-3.196 12.324.373 3.068-.935 28.947-1.092 35.336zm44.827-34.543c.034.016.064.042.101.042.064 0 .128-.024.177-.073.077-.077.075-.185.032-.278l.812-.811.948.948-.268.268c-.008.008-.005.021-.012.03-.667.033-1.334.057-2.001.087zm2.309-2.308c.005.055.021.111.064.154l.839.839-.789.789-.948-.948zm1.256 1.347.554.554c.098.098.256.098.354 0s.098-.256 0-.354l-.554-.554 1.298-1.298 1.552 1.552-.952.952c-1.098.066-2.196.135-3.295.192zm3.557.253.112.112c.098.098.256.098.354 0s.098-.256 0-.354l-.112-.112 1.297-1.297 1.234 1.234-.811.811c-.875.06-1.753.107-2.629.161zm3.225-3.225c.011.021.009.046.027.064l1.188 1.189-1.202 1.202-1.234-1.234zm.043 3.132c.087.029.148.06.251-.042.069-.069.072-.164.042-.251l1.232-1.232 1.424 1.425-.171.171c-.032.032-.036.074-.048.115-1.053.083-2.105.168-3.159.243zm1.879-1.879 1.551-1.551 1.425 1.425-1.551 1.551zm1.979 1.978-.201-.201 1.551-1.551.33.33c.085.085.213.107.332.009l.015 1.284c-.05-.011-.101-.021-.155-.014-.622.053-1.248.093-1.872.143zm2.008-1.801-.304-.304.297-.297zm-.28-7.328-.342-.342.237-.237c.038.192.076.382.105.579zm-.469-1.994-.158-.158.066-.065c.028.075.065.146.092.223zm-55.385-.542c3.475-3.062 5.354-2.444 46.063-3.745 3.881-.122 7.363.043 9.015 3.57l-.205.205-.395-.395c-.098-.098-.256-.098-.354 0s-.098.256 0 .354l.415.415c-.047.094-.049.205.029.283.049.049.113.073.177.073.038 0 .071-.026.106-.044l.63.63c.042.042.097.056.151.063 0 .001.001.002.001.003-.027.012-.058.011-.08.033l-.395.395-.045-.045c-.098-.098-.256-.098-.354 0s-.098.256 0 .353l.045.045-.617.617c-.098.098-.098.256 0 .354.049.049.113.073.177.073s.128-.025.177-.073l.617-.617.51.51c.049.049.113.073.177.073.028 0 .052-.023.079-.033.055.481.093.969.117 1.463-.098-.069-.229-.072-.317.015l-.566.566-.68-.68c-.098-.098-.256-.098-.354 0s-.098.256 0 .353l.68.68-.49.49c-.098.098-.098.256 0 .353.098.098.256.098.354 0l.49-.49.204.204c.098.098.256.098.354 0s.098-.256 0-.354l-.204-.204.55-.55c.015.422.025.846.03 1.268l.028 2.375c-.014.009-.032.006-.044.018l-.599.599-1.424-1.425.095-.095c.098-.098.098-.256 0-.353-.098-.098-.256-.098-.354 0l-.095.095-.808-.808c-.098-.098-.256-.098-.353 0-.098.098-.098.256 0 .353l.808.808-1.551 1.551-1.188-1.188c-.018-.018-.043-.015-.064-.027l1.242-1.242c.098-.098.098-.256 0-.353-.098-.098-.256-.098-.354 0l-2.779 2.779-.585-.585c-.098-.098-.256-.098-.354 0s-.098.256 0 .354l.585.585-1.297 1.297-1.552-1.552 1.359-1.359c.098-.098.098-.256 0-.354s-.256-.098-.353 0l-3.01 3.01-.839-.839c-.042-.043-.098-.058-.154-.064l.12-.12c.098-.098.098-.256 0-.353-.098-.098-.256-.098-.354 0l-1.217 1.218-.3-.3c-.098-.098-.256-.098-.354 0s-.098.256 0 .354l.3.3-.789.789-.871-.871c-.098-.098-.256-.098-.354 0s-.098.256 0 .354l.871.871-.573.573c-.385.017-.77.03-1.154.046.08-.098.082-.24-.009-.331l-.795-.795 1.544-1.544c.098-.098.098-.256 0-.354s-.256-.098-.354 0l-1.544 1.544-.109-.109c-.098-.098-.256-.098-.354 0s-.098.256 0 .354l.109.109-.472.472-.553-.553c-.098-.098-.256-.098-.354 0s-.098.256 0 .354l.553.553-.411.411c-12.621.423-25.281.261-37.839-.5-.012-.343-.029-.619-.052-.811-.448-3.678-.314-8.651 2.863-11.452zm36.617 11.882.788.788c-.547.022-1.094.046-1.641.065zm-40.566 35.053c.143-5.832 1.201-26.899 1.156-33.668 18.899 1.143 38.684.991 58.878-.749.029-.002.053-.016.08-.023l.377 32.559c.108 9.428-2.351 12.236-12.172 12.438-38.711.797-38.563 1.008-41.687.21-6.784-1.735-6.731-6.764-6.632-10.767z"/><path d="m9.404 12.304c1.29 2.957 5.617 2.577 6.377-.554.188-.773.104-1.664-.24-2.577-.301-.799-.725-1.398-1.261-1.777-1.628-1.157-4.21-.346-5.058 2.206-.049.148-.026.302.05.424-.21.746-.179 1.563.132 2.278zm2.027.743.691-.691.725.725c.049.049.113.073.177.073s.128-.024.177-.073c.098-.098.098-.256 0-.354l-.725-.725.388-.388.654.654-.184.184c-.098.098-.098.256 0 .353.049.049.113.073.177.073s.128-.024.177-.073l.184-.184.138.138c-.743.623-1.672.759-2.579.288zm2.806-1.731c.046.046.106.066.165.068l-.531.531-.654-.654.483-.483zm.12 1.086-.132-.133.499-.499c-.088.227-.212.44-.367.632zm.137-3.133-.155-.155.056-.056c.035.065.066.139.099.211zm-3.59-.077c.179-.162.213-.422.097-.622.854-.822 1.999-.858 2.701-.359.151.107.288.251.416.417l-.133.132-.679-.679c-.098-.098-.256-.098-.353 0-.098.098-.098.256 0 .353l.679.678-.223.222c-.098.098-.098.256 0 .354.049.049.113.073.177.073s.128-.024.177-.073l.223-.222c.248.248.488.575.693.288.138.431.207.846.196 1.229-.043.011-.087.017-.121.05l-.094.094c-.003-.06-.023-.12-.068-.165l-1.399-1.398c-.098-.098-.256-.098-.353 0-.098.098-.098.256 0 .354l.508.507-.483.483-.241-.241c-.098-.098-.256-.098-.354 0s-.098.256 0 .354l.241.241-.388.388-.412-.412c-.098-.098-.256-.098-.354 0s-.098.256 0 .353l.412.412-.755.755c-.005.005-.003.014-.008.02-.295-.235-.536-.534-.684-.873-.39-.893-.139-2.059.582-2.713z"/><path d="m18.524 12.304c.526 1.207 1.808 2.026 3.119 2.026.089 0 .179-.004.269-.012 1.401-.122 2.658-1.202 2.989-2.568.188-.773.105-1.664-.239-2.577-.301-.799-.725-1.398-1.261-1.778-1.644-1.165-4.217-.328-5.059 2.207-.049.148-.025.301.051.423-.212.747-.18 1.564.131 2.279zm3.301 1.018c-.31.028-.625-.023-.924-.125l.156-.156.187.187c.049.049.113.073.177.073s.128-.024.177-.073c.098-.098.098-.256 0-.354l-.187-.187.388-.388.431.431v.001h.001c.102.102.274.303.408.348-.257.129-.531.218-.814.243zm.327-1.376.502-.502.255.255-.502.502zm1.777-.432c-.135.555-.505 1.047-.981 1.38.024-.165-.067-.219-.188-.34l.523-.523c.035.017.066.043.104.043.064 0 .128-.024.177-.073.078-.077.076-.187.03-.281l.206-.206c.098-.098.098-.256 0-.354s-.256-.098-.354 0l-.185.185-.255-.255.623-.623c.098-.098.098-.256 0-.354-.033-.033-.077-.038-.118-.049.053-.007.106-.02.147-.061.098-.098.098-.256 0-.354l-.518-.517.264-.264c.119.193.228.407.322.656.273.726.343 1.414.203 1.99zm-3.905-2.322c.178-.162.213-.422.097-.622.864-.83 2.007-.853 2.701-.359.099.07.193.155.282.251l-.317.317-.204-.204c-.098-.098-.256-.098-.354 0s-.098.256 0 .354l.204.203-.393.394c-.158.158-.044.427.177.427.064 0 .128-.024.177-.073l.394-.394.518.518c.033.033.077.038.118.049-.053.007-.106.02-.147.061l-.623.623c-.249-.249-.528-.651-.766-.413-.098.098-.098.256 0 .354l.413.413-.502.502-.394-.394c-.098-.098-.256-.098-.354 0s-.098.256 0 .354l.394.394-.388.388-.565-.564c-.098-.098-.256-.098-.354 0s-.098.256 0 .354l.565.564-.29.29c-.425-.254-.778-.629-.972-1.074-.389-.893-.139-2.059.583-2.713z"/><path d="m28.021 12.304c1.301 2.983 5.624 2.55 6.376-.554.188-.774.105-1.665-.239-2.577-.87-2.314-2.857-2.716-4.385-1.933-.881.451-1.586 1.312-1.935 2.363-.049.148-.025.301.051.423-.211.746-.179 1.563.132 2.278zm5.405-.79c-.21.867-.988 1.585-1.862 1.765.019-.011.043-.008.059-.024.098-.098.098-.256 0-.354l-.803-.803.749-.749.464.464-.527.527c-.098.098-.098.256 0 .353.049.049.113.073.177.073s.128-.024.177-.073l.537-.536c.244.179.502-.106.334-.334l.762-.761c-.01.156-.032.307-.067.452zm-.136-1.775-.512-.511.21-.21c.084.155.164.321.235.508.027.071.043.141.067.213zm-3.769-.547c.178-.162.213-.422.097-.622.186-.179.392-.328.611-.44.687-.351 1.527-.319 2.09.081.143.101.272.237.395.391-.009.007-.021.004-.029.012l-.26.26-.299-.299c-.098-.098-.256-.098-.353 0-.098.098-.098.256 0 .354l.332.332c-.05.183.066.346.286.286l1.076 1.076c.004.004.01.002.014.006.001.01 0 .02.001.031-.097-.066-.226-.069-.312.017l-.783.783-.464-.464.413-.413c.098-.098.098-.256 0-.353-.238-.238-.517.164-.767.413l-.051-.051c-.098-.098-.256-.098-.354 0s-.098.256 0 .354l.051.051-.749.749-.279-.28c-.098-.098-.256-.098-.354 0s-.098.256 0 .354l.28.28-.203.203c-.158.158-.044.427.177.427.064 0 .128-.024.177-.073l.203-.203.803.803c.036.036.083.044.129.054-.026.003-.051.011-.076.013-.967.086-1.995-.525-2.384-1.418-.39-.894-.14-2.06.582-2.714z"/><path d="m28.033 45.377c4.403 2.63 10.402 2.088 14.262-1.281 7.235-6.313 4.719-18.996-5.613-21.004-6.728-1.311-12.895 3.017-14.284 9.121-1.137 4.999 1.233 10.535 5.635 13.164zm-4.66-12.943c1.244-5.473 6.818-9.584 13.118-8.361 9.464 1.84 11.798 13.465 5.147 19.27-3.545 3.093-9.051 3.589-13.092 1.176-4.041-2.414-6.216-7.496-5.173-12.085z"/><path d="m30.275 38.779c.02 1.615.864 2.298 2.122 2.172.6-.063 1.126-.328 1.59-.563l4.33-2.187c.75-.379 1.526-.771 2.178-1.382 1.704-1.596 1.818-3.723-1.384-5.946l-4.516-3.137c-1.088-.756-2.368-1.452-3.601-.89-1.941.883-1.42 3.014-1.076 4.424.627 2.564.325 4.705.357 7.509zm1.92 1.178.154-.154c.159.159.082.076.147.114-.251.056-.19.037-.301.04zm1.341-.461c-.234.118-.472.235-.712.324.088-.181.001-.249-.121-.371l.625-.625.383.383c.049.049.113.073.177.073s.128-.024.177-.073c.098-.098.098-.256 0-.354l-.383-.383.876-.876.625.625c-.109.109-.71.664-.734.816zm4.906-2.982-.626.626c-.061.061-.07.143-.055.222l-.014.007-.504-.504.775-.775zm-1.165 1.093-1.412.713c.001-.022-.01-.04-.014-.062l1.039-1.039zm-5.87-9.849c.777-.356 1.759.206 2.616.801l4.516 3.137c1.919 1.333 3.002 2.772 1.271 4.395-.265.249-.57.46-.891.652l.896-.896c.053-.053.072-.122.068-.19.008.001.014.009.022.009.064 0 .128-.024.177-.073.098-.098.098-.256 0-.354l-1.41-1.41.604-.604c.098-.098.098-.256 0-.354s-.256-.098-.354 0l-.604.604-.199-.199c-.098-.098-.256-.098-.354 0s-.098.256 0 .353l.199.199-.551.551c-.158.158-.044.427.177.427.161 0 .61-.506.728-.624l1.261 1.261c-.042.011-.086.016-.118.049l-.666.667-.466-.466c.011-.076-.001-.152-.059-.211-.058-.058-.135-.07-.211-.059l-.743-.743c-.098-.098-.256-.098-.354 0s-.098.256 0 .354l.701.701-.775.775-.927-.927c-.098-.098-.256-.098-.354 0s-.098.256 0 .354l.927.927-1.001 1.001-.625-.625.502-.502c.098-.098.098-.256 0-.354s-.256-.098-.354 0l-.502.502-.501-.501c-.098-.098-.256-.098-.354 0s-.098.256 0 .354l.5.5-.876.876-.626-.626c-.098-.098-.256-.098-.354 0s-.098.256 0 .354l.626.626-.625.625-.5-.5c-.098-.098-.256-.098-.354 0s-.098.256 0 .354l.5.5-.373.373c-.35-.212-.343-.639-.348-1.055-.032-2.783.279-5.004-.386-7.733-.386-1.601-.578-2.774.524-3.275z"/><path d="m11.129 54.922c.032 0 .065-.003.099-.01l17.48-.063c.337 1.445 1.472 2.741 3.452 2.741 1.739 0 3.184-1.239 3.663-2.743h20.653c.276 0 .5-.224.5-.5s-.224-.5-.5-.5h-20.488c.077-2.215-2.009-3.959-4.044-3.782-2.035.181-3.323 1.793-3.339 3.782l-17.241.008c-.074.013-.144.03-.213.047l-.121.028c-.271.054-.446.317-.392.588.049.24.258.404.491.404zm20.906-3.859c.069-.006.138-.009.208-.009 1.554 0 3.071 1.549 2.715 3.198-.244 1.231-1.383 2.256-2.589 2.334-1.808.106-2.622-1.171-2.756-2.298-.172-1.397.576-3.061 2.422-3.225z"/></g></svg>