<svg id="_1_-_10" height="512" viewBox="0 0 48 48" width="512" xmlns="http://www.w3.org/2000/svg" data-name="1 - 10"><g id="Graduate"><path d="m46.036 15.237-20.088-8.5a5.029 5.029 0 0 0 -3.9 0l-20.088 8.5a3 3 0 0 0 0 5.526l7.04 2.977v9.573a4.952 4.952 0 0 0 2.4 4.275 24.964 24.964 0 0 0 25.2 0 4.952 4.952 0 0 0 2.4-4.275v-9.573l3-1.27v4.742a2.488 2.488 0 0 0 -.485 4.288 2.491 2.491 0 0 0 -1.015 2v2.5a1 1 0 0 0 1 1h3a1 1 0 0 0 1-1v-2.5a2.491 2.491 0 0 0 -1.015-2 2.488 2.488 0 0 0 -.485-4.288v-5.588l2.036-.861a3 3 0 0 0 0-5.526zm-2.536 14.263a.5.5 0 1 1 -.5-.5.5.5 0 0 1 .5.5zm0 5.5h-1v-1.5a.5.5 0 0 1 1 0zm-6.5-1.687a2.947 2.947 0 0 1 -1.415 2.551 22.967 22.967 0 0 1 -23.17 0 2.947 2.947 0 0 1 -1.415-2.551v-8.727l11.052 4.676a5.024 5.024 0 0 0 3.9 0l11.048-4.676zm8.257-14.392-20.088 8.5a3.019 3.019 0 0 1 -2.338 0l-20.088-8.5a1 1 0 0 1 0-1.842l20.088-8.5a3.013 3.013 0 0 1 2.338 0l20.088 8.5a1 1 0 0 1 0 1.842z"/></g></svg>