<svg id="slideshow" viewBox="0 0 512 512" xmlns="http://www.w3.org/2000/svg"><path d="m469.5713 78.5688h-313.9067a24.9574 24.9574 0 0 0 -24.9292 24.9292v230.8672a24.9569 24.9569 0 0 0 24.9292 24.9287h75.2207a81.9917 81.9917 0 0 0 163.2294 0h75.4566a24.9565 24.9565 0 0 0 24.9287-24.9287v-230.8672a24.957 24.957 0 0 0 -24.9287-24.9292zm-313.9067 15h313.9067a9.94 9.94 0 0 1 9.9287 9.9292v100.2089l-66.4014-50.3724a22.5707 22.5707 0 0 0 -27.1972 0l-22.8893 17.3641a69.4927 69.4927 0 0 0 -101.0241 0l-22.8889-17.3646a22.5715 22.5715 0 0 0 -27.1977 0l-66.166 50.1946v-100.0306a9.94 9.94 0 0 1 9.9292-9.9292zm195.297 86.271-33.9294 25.7393a7.5221 7.5221 0 0 1 -9.0644-.0005l-33.9292-25.7386a54.448 54.448 0 0 1 76.923 0zm28.5384 171.5918a67 67 0 1 1 -67-67 67.0753 67.0753 0 0 1 67 67zm90.0713-7.1377h-75.4013a81.98 81.98 0 0 0 -163.34 0h-75.1654a9.94 9.94 0 0 1 -9.9292-9.9287v-112.0092l75.2319-57.0718a7.5243 7.5243 0 0 1 9.0659 0l68.8682 52.2441a22.5707 22.5707 0 0 0 27.1972 0l68.8692-52.2451a7.5249 7.5249 0 0 1 9.0644 0l75.4678 57.2517v111.83a9.94 9.94 0 0 1 -9.9287 9.929z"/><path d="m92.9414 78.5688h-67.9414a7.5 7.5 0 0 0 -7.5 7.5v67.9412a7.5 7.5 0 0 0 7.5 7.5h67.9414a7.5 7.5 0 0 0 7.5-7.5v-67.9412a7.5 7.5 0 0 0 -7.5-7.5zm-7.5 67.941h-52.9414v-52.941h52.9414z"/><path d="m92.9414 177.4609h-67.9414a7.5 7.5 0 0 0 -7.5 7.5v67.941a7.5 7.5 0 0 0 7.5 7.5h67.9414a7.5 7.5 0 0 0 7.5-7.5v-67.941a7.5 7.5 0 0 0 -7.5-7.5zm-7.5 67.941h-52.9414v-52.941h52.9414z"/><path d="m92.9414 276.3525h-67.9414a7.5 7.5 0 0 0 -7.5 7.5v67.9414a7.5 7.5 0 0 0 7.5 7.5h67.9414a7.5 7.5 0 0 0 7.5-7.5v-67.9414a7.5 7.5 0 0 0 -7.5-7.5zm-7.5 67.9414h-52.9414v-52.9414h52.9414z"/><path d="m347.3154 336.8311-56.3281-25.6622a16.0439 16.0439 0 0 0 -22.6953 14.6011v51.3243a16.027 16.027 0 0 0 22.6953 14.6l56.3281-25.6622a16.0436 16.0436 0 0 0 0-29.2zm-6.2187 13.65a1.0434 1.0434 0 0 1 0 1.8995l-56.3291 25.6624a1.0429 1.0429 0 0 1 -1.4756-.9492v-51.3238a.975.975 0 0 1 .48-.8779.9714.9714 0 0 1 .9971-.0723z"/></svg>