<svg id="Layer_1" height="512" viewBox="0 0 256 256" width="512" xmlns="http://www.w3.org/2000/svg" data-name="Layer 1"><circle cx="102.399" cy="160.826" r="5.004"/><circle cx="128" cy="160.826" r="5.004"/><circle cx="153.601" cy="160.826" r="5.004"/><path d="m48.038 165.828a33.693 33.693 0 1 1 33.692-33.692 33.73 33.73 0 0 1 -33.692 33.692zm0-57.385a23.693 23.693 0 1 0 23.692 23.693 23.719 23.719 0 0 0 -23.692-23.693z"/><path d="m91.077 226.082h-86.077a5 5 0 0 1 -5-5v-17.216a48.039 48.039 0 0 1 96.077 0v17.216a5 5 0 0 1 -5 5zm-81.077-10h76.077v-12.216a38.039 38.039 0 0 0 -76.077 0z"/><path d="m207.962 165.828a33.693 33.693 0 1 1 33.692-33.692 33.73 33.73 0 0 1 -33.692 33.692zm0-57.385a23.693 23.693 0 1 0 23.692 23.693 23.718 23.718 0 0 0 -23.692-23.693z"/><path d="m251 226.082h-86.077a5 5 0 0 1 -5-5v-17.216a48.039 48.039 0 0 1 96.077 0v17.216a5 5 0 0 1 -5 5zm-81.077-10h76.077v-12.216a38.039 38.039 0 0 0 -76.077 0z"/><path d="m105.209 130.986a5 5 0 0 1 -5-5v-14.774h-5a16.317 16.317 0 0 1 -16.3-16.3v-48.7a16.317 16.317 0 0 1 16.3-16.3h64.528a16.316 16.316 0 0 1 16.3 16.3v48.7a16.317 16.317 0 0 1 -16.3 16.3h-32.682l-18.31 18.309a4.991 4.991 0 0 1 -3.536 1.465zm-10-91.068a6.3 6.3 0 0 0 -6.3 6.3v48.7a6.3 6.3 0 0 0 6.3 6.3h10a5 5 0 0 1 5 5v7.7l11.238-11.238a4.994 4.994 0 0 1 3.535-1.465h34.759a6.3 6.3 0 0 0 6.3-6.3v-48.7a6.3 6.3 0 0 0 -6.3-6.3z"/></svg>