<svg id="Image" enable-background="new 0 0 64 64" height="64" viewBox="0 0 64 64" width="64" xmlns="http://www.w3.org/2000/svg"><g><path d="m56 11h-12c-1.1 0-2 .9-2 2v2h-7.04c-2.757 0-5 2.243-5 5v11h-7.96v-2c0-1.1-.9-2-2-2h-12c-1.1 0-2 .9-2 2v6c0 1.1.9 2 2 2h12c1.1 0 2-.9 2-2v-2h7.96v11c0 2.757 2.243 5 5 5h7.04v2c0 1.1.9 2 2 2h12c1.1 0 2-.9 2-2v-6c0-1.1-.9-2-2-2h-12c-1.1 0-2 .9-2 2v2h-7.04c-1.654 0-3-1.346-3-3v-11h10.04v2c0 1.1.9 2 2 2h12c1.1 0 2-.9 2-2v-6c0-1.1-.9-2-2-2h-12c-1.1 0-2 .9-2 2v2h-10.04v-11c0-1.654 1.346-3 3-3h7.04v2c0 1.1.9 2 2 2h12c1.1 0 2-.9 2-2v-6c0-1.1-.9-2-2-2z" fill="#424242"/></g></svg>