<svg id="Layer_1" enable-background="new 0 0 1000 1000" viewBox="0 0 1000 1000" xmlns="http://www.w3.org/2000/svg"><g><g><g><g><g><path d="m490 281.3h20v70.1h-20z" fill="#122436"/></g></g><g><g><path d="m500 509.4c-69.1 0-134.1-26.9-183-75.8s-75.8-113.8-75.8-183v-44.1h20v44.1c0 131.6 107.1 238.7 238.7 238.7s238.7-107.1 238.7-238.7v-44.1h20v44.1c0 69.1-26.9 134.1-75.8 183-48.7 48.8-113.7 75.8-182.8 75.8z" fill="#122436"/></g></g><g><g><g><circle cx="251.3" cy="206.6" fill="#4ea4db" r="74.7"/></g></g><g><g><circle cx="500" cy="206.6" fill="#4ea4db" r="74.7"/></g></g><g><g><circle cx="748.7" cy="206.6" fill="#4ea4db" r="74.7"/></g></g></g><g><g><g><path d="m251.3 151.9c37.9 0 69.1 28.2 74 64.7.4-3.3.7-6.6.7-10 0-41.3-33.4-74.7-74.7-74.7s-74.7 33.4-74.7 74.7c0 3.4.2 6.7.7 10 4.8-36.6 36.1-64.7 74-64.7z" fill="#fff"/></g></g><g><g><path d="m500 151.9c37.9 0 69.1 28.2 74 64.7.4-3.3.7-6.6.7-10 0-41.3-33.4-74.7-74.7-74.7s-74.7 33.4-74.7 74.7c0 3.4.2 6.7.7 10 4.9-36.6 36.1-64.7 74-64.7z" fill="#fff"/></g></g><g><g><path d="m748.7 151.9c37.9 0 69.1 28.2 74 64.7.4-3.3.7-6.6.7-10 0-41.3-33.4-74.7-74.7-74.7s-74.7 33.4-74.7 74.7c0 3.4.2 6.7.7 10 4.9-36.6 36.2-64.7 74-64.7z" fill="#fff"/></g></g></g><g><g><g><path d="m251.3 291.3c-46.7 0-84.7-38-84.7-84.7s38-84.7 84.7-84.7 84.7 38 84.7 84.7-38 84.7-84.7 84.7zm0-149.4c-35.7 0-64.7 29-64.7 64.7s29 64.7 64.7 64.7 64.7-29 64.7-64.7-29.1-64.7-64.7-64.7z" fill="#122436"/></g></g><g><g><path d="m500 291.3c-46.7 0-84.7-38-84.7-84.7s38-84.7 84.7-84.7 84.7 38 84.7 84.7-38 84.7-84.7 84.7zm0-149.4c-35.7 0-64.7 29-64.7 64.7s29 64.7 64.7 64.7 64.7-29 64.7-64.7-29-64.7-64.7-64.7z" fill="#122436"/></g></g><g><g><path d="m748.7 291.3c-46.7 0-84.7-38-84.7-84.7s38-84.7 84.7-84.7 84.7 38 84.7 84.7-37.9 84.7-84.7 84.7zm0-149.4c-35.7 0-64.7 29-64.7 64.7s29 64.7 64.7 64.7 64.7-29 64.7-64.7c.1-35.7-29-64.7-64.7-64.7z" fill="#122436"/></g></g></g><g><g><g><path d="m490 648.6h20v70.1h-20z" fill="#122436"/></g></g><g><g><path d="m758.7 793.4h-20v-44.1c0-131.6-107.1-238.7-238.7-238.7s-238.7 107.1-238.7 238.7v44.1h-20v-44.1c0-69.1 26.9-134.1 75.8-183s113.8-75.8 183-75.8c69.1 0 134.1 26.9 183 75.8s75.8 113.8 75.8 183v44.1z" fill="#122436"/></g></g><g><g><g><circle cx="748.7" cy="793.4" fill="#4ea4db" r="74.7"/></g></g><g><g><circle cx="500" cy="793.4" fill="#4ea4db" r="74.7"/></g></g><g><g><circle cx="251.3" cy="793.4" fill="#4ea4db" r="74.7"/></g></g></g><g><g><g><path d="m748.7 738.7c37.9 0 69.1 28.2 74 64.7.4-3.3.7-6.6.7-10 0-41.3-33.4-74.7-74.7-74.7s-74.7 33.4-74.7 74.7c0 3.4.2 6.7.7 10 4.9-36.5 36.2-64.7 74-64.7z" fill="#fff"/></g></g><g><g><path d="m500 738.7c37.9 0 69.1 28.2 74 64.7.4-3.3.7-6.6.7-10 0-41.3-33.4-74.7-74.7-74.7s-74.7 33.4-74.7 74.7c0 3.4.2 6.7.7 10 4.9-36.5 36.1-64.7 74-64.7z" fill="#fff"/></g></g><g><g><path d="m251.3 738.7c37.9 0 69.1 28.2 74 64.7.4-3.3.7-6.6.7-10 0-41.3-33.4-74.7-74.7-74.7s-74.7 33.4-74.7 74.7c0 3.4.2 6.7.7 10 4.8-36.5 36.1-64.7 74-64.7z" fill="#fff"/></g></g></g><g><g><g><path d="m748.7 878.1c-46.7 0-84.7-38-84.7-84.7s38-84.7 84.7-84.7 84.7 38 84.7 84.7c.1 46.7-37.9 84.7-84.7 84.7zm0-149.4c-35.7 0-64.7 29-64.7 64.7s29 64.7 64.7 64.7 64.7-29 64.7-64.7-29-64.7-64.7-64.7z" fill="#122436"/></g></g><g><g><path d="m500 878.1c-46.7 0-84.7-38-84.7-84.7s38-84.7 84.7-84.7 84.7 38 84.7 84.7-38 84.7-84.7 84.7zm0-149.4c-35.7 0-64.7 29-64.7 64.7s29 64.7 64.7 64.7 64.7-29 64.7-64.7-29-64.7-64.7-64.7z" fill="#122436"/></g></g><g><g><path d="m251.3 878.1c-46.7 0-84.7-38-84.7-84.7s38-84.7 84.7-84.7 84.7 38 84.7 84.7-38 84.7-84.7 84.7zm0-149.4c-35.7 0-64.7 29-64.7 64.7s29 64.7 64.7 64.7 64.7-29 64.7-64.7-29.1-64.7-64.7-64.7z" fill="#122436"/></g></g></g></g><g><g><g><circle cx="500" cy="499.7" fill="#fff" r="164.9"/></g></g><g><g><g><g><g><path d="m473.4 604.6h52.5v42.7h-52.5z" fill="#fff"/></g></g><g><g><path d="m570.6 497.5c0-39.8-32.7-71.9-72.7-70.9-37.6.9-68.2 31.5-69.2 69.1-.5 20.5 7.6 39.1 21 52.3 14.9 14.7 23.6 34.5 23.6 55.5v1.2h52.5v-1.2c0-20.6 8.2-40.5 23-54.9 13.5-13 21.8-31.1 21.8-51.1z" fill="#ffcd35"/></g></g><g><g><path d="m497.9 448.9c36.2-.9 66.4 25.4 71.8 59.8.6-3.6.9-7.4.9-11.1 0-39.8-32.7-71.9-72.7-70.9-37.6.9-68.2 31.5-69.2 69.1-.1 4.4.2 8.8.9 13 5.3-33.4 33.9-59.1 68.3-59.9z" fill="#fff"/></g></g><g><g><path d="m535.9 614.6h-72.5v-11.2c0-18-7.3-35.2-20.7-48.4-16.1-15.9-24.6-37.1-24-59.7.5-20.7 9-40.3 23.8-55.1s34.4-23.2 55.2-23.7c22-.5 42.8 7.7 58.5 23 15.7 15.4 24.4 35.9 24.4 57.9 0 22.2-8.8 42.8-24.7 58.2-12.7 12.2-20 29.6-20 47.7zm-52.9-20h33.4c2.1-20.3 11.1-39.3 25.6-53.3 12-11.6 18.6-27.2 18.6-43.8s-6.5-32-18.4-43.6c-11.8-11.6-27.5-17.7-44.1-17.3-32.5.8-58.6 26.8-59.4 59.3-.4 17 6 33 18.1 44.9 15 14.8 24.1 33.7 26.2 53.8z" fill="#122436"/></g></g><g><g><path d="m535.9 657.3h-72.5v-62.7h72.5zm-52.5-20h32.5v-22.7h-32.5z" fill="#122436"/></g></g><g><g><path d="m489.7 647.3h20v23.4h-20z" fill="#122436"/></g></g></g><g><g><path d="m539.1 522.6h-78.9v-36.7h20v16.7h38.9v-16.7h20z" fill="#122436"/></g></g><g><g><path d="m489.7 515.6h20v89h-20z" fill="#122436"/></g></g></g><g><g><g><path d="m371.1 489.3h27.5v20h-27.5z" fill="#122436"/></g></g><g><g><path d="m601.4 489.3h27.5v20h-27.5z" fill="#122436"/></g></g></g><g><g><g><path d="m490 370.4h20v27.5h-20z" fill="#122436"/></g></g></g><g><g><g><path d="m408.6 404.1h20v27.5h-20z" fill="#122436" transform="matrix(.707 -.707 .707 .707 -172.866 418.35)"/></g></g><g><g><path d="m571.4 567h20v27.5h-20z" fill="#122436" transform="matrix(.707 -.707 .707 .707 -240.334 581.231)"/></g></g></g><g><g><g><path d="m404.8 570.7h27.5v20h-27.5z" fill="#122436" transform="matrix(.707 -.707 .707 .707 -288.041 466.056)"/></g></g><g><g><path d="m567.7 407.8h27.5v20h-27.5z" fill="#122436" transform="matrix(.707 -.707 .707 .707 -125.159 533.522)"/></g></g></g></g><g><g><path d="m500 674.6c-96.4 0-174.9-78.5-174.9-174.9s78.5-174.9 174.9-174.9 174.9 78.5 174.9 174.9-78.5 174.9-174.9 174.9zm0-329.8c-85.4 0-154.9 69.5-154.9 154.9s69.5 154.9 154.9 154.9 154.9-69.5 154.9-154.9-69.5-154.9-154.9-154.9z" fill="#122436"/></g></g></g></g></g></g></svg>