<svg id="Layer_1" enable-background="new 0 0 66 66" height="512" viewBox="0 0 66 66" width="512" xmlns="http://www.w3.org/2000/svg"><g><g><g><g><path d="m6.264 64.237c-1.98-.802-3.274-2.734-3.377-5.04-.122-2.732 1.471-5.286 4.158-6.667 1.808-.928 4.013-1.262 6.339-.964-.093-2.348-.205-4.77-.318-7.192-.121-2.603-.242-5.204-.339-7.711-.051-1.358-.104-2.762.158-4.145.214-1.123.739-2.691 2.03-3.79 1.561-1.329 3.658-1.508 5.504-1.508.718 0 .843.01 10.686.271 3.463.092 4.608 1.179 4.688 4.712l.242 10.856c.048 2.152.103 4.591-.684 6.811-1.298 3.661-4.981 6.448-8.847 6.448-2.501 0-4.66-1.069-5.776-2.86-1.586-2.547-.76-6.3 1.842-8.367 2.231-1.774 5.446-2.204 8.24-1.736-.004-2.866.06-5.799.054-8.759-2.015-.012-4.001.009-5.989.03-1.993.021-3.988.04-6.002.03l-.161 19.704c-.024 2.949-.24 6.26-2.499 8.234-1.51 1.32-3.541 1.679-5.326 1.912-1.523.197-3.148.33-4.623-.269zm5.488-11.777c-1.581 0-3.012.323-4.25.959-5.414 2.782-5.198 11.192 3.256 10.093 8.53-1.113 6.915-4.319 7.119-29.365.002-.324.221-.444.504-.496 4.407.036 8.559-.088 12.985-.053.273.003.495.224.496.498.017 3.287-.066 6.592-.05 9.861.002.318-.292.559-.607.491-2.683-.586-5.889-.264-8.014 1.425-1.941 1.542-3.054 4.745-1.614 7.056.932 1.496 2.773 2.389 4.927 2.389 3.419 0 6.735-2.485 7.903-5.782.909-2.564.673-4.394.385-17.31-.067-2.944-.751-3.658-3.716-3.735-9.909-.262-9.984-.271-10.658-.271-1.664 0-3.541.151-4.855 1.269-1.069.91-1.513 2.251-1.696 3.215-.241 1.272-.191 2.618-.141 3.92.096 2.504.217 5.103.338 7.702.123 2.633.245 5.267.343 7.804.012.31-.266.568-.586.512-.695-.12-1.391-.182-2.069-.182z"/></g></g><g><g><path d="m15.543 63.682c-.261-.09-.399-.375-.309-.636.091-.261.375-.398.637-.308 6.464 2.245 28.718.998 35.597.429 8.548-.707 10.152-3.457 10.386-10.846.188-5.965.16-12.035.133-17.905-.027-5.806-.055-11.807.126-17.719-5.053-4.87-10.046-9.615-15.056-14.442-8.688.119-17.36-.054-25.866.069-8.141.117-9.66 2.55-9.857 9.345-.197 6.77-.066 13.495.06 20 .127 6.511.258 13.244.061 20.033-.009.276-.248.478-.515.485-.276-.008-.493-.238-.485-.515.197-6.765.066-13.485-.061-19.985-.126-6.516-.258-13.254-.06-20.048.229-7.884 2.662-10.198 10.844-10.315 8.619-.124 17.451.052 26.072-.072.133.006.26.049.354.14 5.265 5.074 10.306 9.863 15.363 14.739.102.098.157.234.153.375-.188 5.966-.16 12.035-.133 17.905.027 5.878.056 11.957-.133 17.94-.238 7.541-1.927 11.035-11.304 11.812-7.034.583-29.333 1.838-36.007-.481z"/></g></g><g><g><path d="m52.619 17.507c-2.43 0-3.978-.45-4.962-1.43-1.245-1.239-1.356-3.227-1.301-5.008l.301-9.612c.009-.275.222-.51.516-.484.276.008.493.239.484.515l-.3 9.612c-.069 2.221.232 3.497 1.006 4.268.863.859 2.455 1.216 5.024 1.124l9.214-.333c.248-.035.507.205.518.482.01.276-.206.508-.482.518l-9.214.333c-.278.01-.546.015-.804.015z"/></g></g></g><g><g><path d="m8.785 63.925-2.893-2.894c-.098-.098-.098-.256 0-.354s.256-.098.354 0l2.894 2.894c.098.098.098.256 0 .354-.098.097-.256.098-.355 0z"/></g></g><g><g><path d="m11.159 63.601-3.084-3.084c-.098-.098-.098-.256 0-.353.098-.098.256-.098.354 0l3.084 3.083c.098.098.098.256 0 .354-.097.097-.255.098-.354 0z"/></g></g><g><g><path d="m13.493 62.698-3.413-3.412c-.098-.098-.098-.256 0-.354s.256-.098.354 0l3.413 3.412c.098.098.098.256 0 .354-.097.098-.255.099-.354 0z"/></g></g><g><g><path d="m15.335 61.417-2.817-2.818c-.098-.098-.098-.256 0-.354.099-.099.257-.097.354 0l2.817 2.818c.098.098.098.256 0 .354-.097.097-.256.098-.354 0z"/></g></g><g><g><path d="m16.423 59.505-2.156-2.156c-.098-.098-.098-.256 0-.354s.256-.098.354 0l2.156 2.156c.098.098.098.256 0 .354-.097.097-.256.098-.354 0z"/></g></g><g><g><path d="m17.189 57.272-1.484-1.484c-.098-.098-.098-.256 0-.354s.256-.098.354 0l1.484 1.484c.098.098.098.256 0 .354-.098.097-.256.098-.354 0z"/></g></g><g><g><path d="m17.08 54.851-1.563-1.564c-.232-.232.119-.588.354-.353l1.563 1.563c.098.098.098.256 0 .354-.097.097-.255.099-.354 0z"/></g></g><g><g><path d="m17.875 52.835-1.546-1.546c-.098-.098-.098-.256 0-.354.099-.099.257-.097.354 0l1.546 1.546c.098.098.098.256 0 .354-.097.097-.256.098-.354 0z"/></g></g><g><g><path d="m17.886 50.721-1.244-1.245c-.098-.098-.098-.256 0-.354.099-.098.257-.097.354 0l1.244 1.245c.098.098.098.256 0 .354-.097.097-.255.099-.354 0z"/></g></g><g><g><path d="m6.614 63.317-1.344-1.344c-.098-.098-.098-.256 0-.354s.256-.098.353 0l1.344 1.344c.098.098.098.256 0 .354-.097.097-.255.098-.353 0z"/></g></g><g><g><path d="m5.395 63.16c-.098-.098-.098-.256 0-.354l2.312-2.312c.098-.098.256-.098.354 0s.098.256 0 .354l-2.313 2.312c-.097.097-.255.099-.353 0z"/></g></g><g><g><path d="m7.081 63.472c-.098-.098-.098-.256 0-.354l3.508-3.508c.098-.098.256-.098.353 0 .098.098.098.256 0 .354l-3.508 3.508c-.096.097-.254.099-.353 0z"/></g></g><g><g><path d="m8.769 63.494 4.601-4.601c.098-.098.256-.098.353 0 .098.098.098.256 0 .353l-4.601 4.601c-.234.235-.586-.121-.353-.353z"/></g></g><g><g><path d="m11.268 63.91c-.098-.098-.098-.256 0-.354l4.624-4.624c.098-.098.256-.098.354 0s.098.256 0 .354l-4.624 4.624c-.098.097-.256.098-.354 0z"/></g></g><g><g><path d="m14.392 58.661c-.098-.098-.098-.256 0-.354l2.282-2.282c.098-.098.256-.098.354 0s.098.256 0 .354l-2.282 2.282c-.098.097-.256.099-.354 0z"/></g></g><g><g><path d="m15.569 55.361c-.064 0-.128-.024-.177-.073-.098-.098-.098-.256 0-.354l1.969-1.968c.098-.098.256-.098.354 0s.098.256 0 .354l-1.969 1.968c-.049.048-.113.073-.177.073z"/></g></g><g><g><path d="m15.829 52.288c-.098-.098-.098-.256 0-.354l1.376-1.376c.232-.232.588.119.354.354l-1.376 1.376c-.097.097-.255.099-.354 0z"/></g></g><g><g><path d="m16.517 50.101c-.098-.098-.098-.256 0-.354l.969-.969c.098-.098.256-.098.354 0s.098.256 0 .353l-.969.969c-.098.098-.256.1-.354.001z"/></g></g><g><g><path d="m25.028 55.049-2.666-2.666c-.098-.098-.098-.256 0-.353.098-.098.256-.098.354 0l2.666 2.666c.098.098.098.256 0 .354-.098.096-.256.097-.354-.001z"/></g></g><g><g><path d="m28.093 55.349-3.822-3.822c-.098-.098-.098-.256 0-.354s.256-.098.354 0l3.822 3.822c.098.098.098.256 0 .354-.098.097-.256.099-.354 0z"/></g></g><g><g><path d="m29.754 54.181-2.588-2.588c-.098-.098-.098-.256 0-.354s.256-.098.353 0l2.588 2.588c.098.098.098.256 0 .354-.096.097-.255.098-.353 0z"/></g></g><g><g><path d="m32.014 52.821-2.61-2.61c-.098-.098-.098-.256 0-.354s.256-.098.354 0l2.61 2.61c.098.098.098.256 0 .354-.098.097-.256.098-.354 0z"/></g></g><g><g><path d="m33.223 50.739-1.778-1.778c-.098-.098-.098-.256 0-.354s.256-.098.354 0l1.778 1.778c.098.098.098.256 0 .354-.098.097-.256.098-.354 0z"/></g></g><g><g><path d="m34.418 48.38-1.592-1.592c-.232-.232.119-.588.354-.354l1.592 1.592c.098.098.098.256 0 .354-.097.097-.256.098-.354 0z"/></g></g><g><g><path d="m35 46.132-1.187-1.186c-.098-.098-.098-.256 0-.354s.256-.098.354 0l1.187 1.187c.098.098.098.256 0 .353-.097.097-.256.098-.354 0z"/></g></g><g><g><path d="m35.084 43.583-1.007-1.007c-.098-.098-.098-.256 0-.354s.256-.098.354 0l1.007 1.007c.098.098.098.256 0 .354-.097.097-.256.098-.354 0z"/></g></g><g><g><path d="m22.427 54.201 3.956-3.956c.098-.098.256-.098.354 0s.098.256 0 .354l-3.956 3.956c-.235.234-.586-.122-.354-.354z"/></g></g><g><g><path d="m24.797 55.147c-.098-.098-.098-.256 0-.354l5.04-5.041c.098-.098.256-.098.353 0 .098.098.098.256 0 .354l-5.04 5.041c-.096.097-.255.098-.353 0z"/></g></g><g><g><path d="m27.561 55.608c-.098-.098-.098-.256 0-.354l5.041-5.04c.098-.098.256-.098.354 0s.098.256 0 .354l-5.041 5.04c-.098.097-.256.098-.354 0z"/></g></g><g><g><path d="m30.918 50.145c-.098-.098-.098-.256 0-.354l3.104-3.104c.098-.098.256-.098.354 0s.098.256 0 .354l-3.104 3.104c-.097.097-.256.098-.354 0z"/></g></g><g><g><path d="m33.221 49.421c-.098-.098-.098-.256 0-.354l1.848-1.847c.098-.098.256-.098.354 0s.098.256 0 .354l-1.848 1.847c-.098.097-.256.098-.354 0z"/></g></g><g><g><path d="m33.682 45.077c-.098-.098-.098-.256 0-.354l1.054-1.053c.099-.098.257-.097.354 0 .098.098.098.256 0 .354l-1.054 1.053c-.097.096-.255.099-.354 0z"/></g></g><g><g><path d="m33.925 42.978c-.063 0-.128-.024-.177-.073-.098-.097-.098-.256 0-.354l.52-.521c.097-.097.255-.098.354 0 .098.097.098.256 0 .354l-.52.521c-.049.049-.113.073-.177.073z"/></g></g><g><g><path d="m14.772 33.293-.997-.997c-.098-.098-.098-.256 0-.353.098-.098.256-.098.354 0l.997.997c.098.098.098.256 0 .354-.098.096-.256.097-.354-.001z"/></g></g><g><g><path d="m16.128 31.452-1.146-1.146c-.098-.098-.098-.256 0-.354s.256-.098.354 0l1.145 1.146c.098.098.098.256 0 .354-.096.097-.255.098-.353 0z"/></g></g><g><g><path d="m17.256 30.306-1.35-1.35c-.098-.098-.098-.256 0-.354s.256-.098.354 0l1.35 1.35c.234.235-.121.587-.354.354z"/></g></g><g><g><path d="m19.355 29.707-1.46-1.46c-.098-.098-.098-.256 0-.354s.256-.098.353 0l1.46 1.46c.098.098.098.256 0 .354-.097.097-.255.098-.353 0z"/></g></g><g><g><path d="m21.591 29.669-1.281-1.28c-.098-.098-.098-.256 0-.354.097-.097.255-.099.353 0l1.281 1.28c.098.098.098.256 0 .354-.098.099-.257.097-.353 0z"/></g></g><g><g><path d="m24.398 29.778-1.53-1.531c-.098-.098-.098-.256 0-.354s.256-.098.354 0l1.53 1.531c.098.098.098.256 0 .354-.098.097-.256.098-.354 0z"/></g></g><g><g><path d="m26.597 29.561-1.386-1.386c-.098-.098-.098-.256 0-.353.098-.098.256-.098.353 0l1.386 1.386c.098.098.098.256 0 .354-.097.096-.255.098-.353-.001z"/></g></g><g><g><path d="m28.836 29.669-1.352-1.351c-.098-.098-.098-.256 0-.354s.256-.098.354 0l1.351 1.351c.098.098.098.256 0 .354-.096.097-.255.098-.353 0z"/></g></g><g><g><path d="m31.285 29.632-1.244-1.243c-.098-.098-.098-.256 0-.354.097-.097.255-.099.353 0l1.244 1.243c.098.098.098.256 0 .354-.098.099-.256.097-.353 0z"/></g></g><g><g><path d="m32.781 29.423-1.034-1.034c-.098-.098-.098-.256 0-.354s.256-.098.353 0l1.034 1.034c.098.098.098.256 0 .354-.097.097-.255.098-.353 0z"/></g></g><g><g><path d="m14.596 35.886-1.46-1.46c-.098-.098-.098-.256 0-.354s.256-.098.353 0l1.46 1.46c.098.098.098.256 0 .354-.097.098-.255.099-.353 0z"/></g></g><g><g><path d="m14.209 38.413-1.216-1.216c-.098-.098-.098-.256 0-.354.099-.098.257-.097.353 0l1.216 1.216c.098.098.098.256 0 .353-.096.097-.254.1-.353.001z"/></g></g><g><g><path d="m14.254 40.02-.905-.906c-.098-.098-.098-.256 0-.354s.256-.097.353 0l.905.906c.098.098.098.256 0 .354-.096.097-.254.099-.353 0z"/></g></g><g><g><path d="m13.349 40.251c-.098-.098-.098-.256 0-.354l2.411-2.412c.098-.098.256-.098.354 0s.098.256 0 .354l-2.411 2.412c-.098.097-.256.098-.354 0z"/></g></g><g><g><path d="m13.278 37.978c-.098-.098-.098-.256 0-.354l2.552-2.552c.098-.098.256-.098.354 0s.098.256 0 .354l-2.552 2.552c-.098.097-.256.099-.354 0z"/></g></g><g><g><path d="m13.384 35.92c-.065 0-.128-.024-.177-.073-.098-.098-.098-.256 0-.354l2.774-2.773c.098-.098.256-.098.353 0 .098.098.098.256 0 .354l-2.773 2.773c-.049.049-.113.073-.177.073z"/></g></g><g><g><path d="m14.023 32.724c-.064 0-.128-.024-.177-.073-.098-.098-.098-.256 0-.354l3.061-3.062c.098-.098.256-.098.354 0s.098.256 0 .354l-3.062 3.062c-.048.048-.112.073-.176.073z"/></g></g><g><g><path d="m17.54 30.45 2.581-2.582c.098-.098.256-.098.354 0s.098.256 0 .353l-2.581 2.582c-.234.234-.587-.119-.354-.353z"/></g></g><g><g><path d="m21.659 29.881c-.098-.098-.098-.256 0-.354l1.281-1.281c.098-.099.256-.097.354 0 .098.098.098.256 0 .354l-1.281 1.281c-.096.096-.255.099-.354 0z"/></g></g><g><g><path d="m23.364 30.022c-.098-.098-.098-.256 0-.354l1.379-1.379c.098-.098.256-.098.354 0s.098.256 0 .354l-1.379 1.379c-.097.097-.255.098-.354 0z"/></g></g><g><g><path d="m26.916 29.667c-.098-.098-.098-.256 0-.354l1.519-1.519c.098-.098.256-.098.354 0s.098.256 0 .354l-1.519 1.519c-.097.097-.255.098-.354 0z"/></g></g><g><g><path d="m29.047 29.456 1.395-1.396c.098-.098.256-.098.354 0s.098.256 0 .354l-1.396 1.396c-.234.234-.585-.122-.353-.354z"/></g></g><g><g><path d="m31.675 29.739c-.098-.098-.098-.256 0-.354l.889-.889c.098-.098.256-.098.354 0s.098.256 0 .354l-.889.889c-.098.097-.256.098-.354 0z"/></g></g><g><g><path d="m20.932 37.222-2.497-2.497c-.098-.098-.098-.256 0-.354s.256-.098.353 0l2.497 2.497c.237.237-.124.583-.353.354z"/></g></g><g><g><path d="m22.276 36.693-2.064-2.064c-.098-.098-.098-.256 0-.354s.256-.098.353 0l2.065 2.064c.098.098.098.256 0 .354-.098.097-.256.098-.354 0z"/></g></g><g><g><path d="m24.042 36.491-1.958-1.958c-.098-.098-.098-.256 0-.354s.256-.098.354 0l1.958 1.958c.098.098.098.256 0 .354-.097.096-.255.099-.354 0z"/></g></g><g><g><path d="m25.757 36.045-1.416-1.417c-.098-.098-.098-.256 0-.354s.256-.098.354 0l1.416 1.417c.098.098.098.256 0 .354-.097.097-.256.098-.354 0z"/></g></g><g><g><path d="m27.977 36.008-1.331-1.331c-.098-.098-.098-.256 0-.354s.256-.098.354 0l1.331 1.331c.234.234-.122.586-.354.354z"/></g></g><g><g><path d="m29.517 35.771-.999-.999c-.098-.098-.098-.256 0-.354.097-.097.255-.098.354 0l.999.999c.236.237-.125.584-.354.354z"/></g></g><g><g><path d="m19.938 38.485-1.263-1.263c-.098-.098-.098-.256 0-.354.099-.099.257-.097.353 0l1.263 1.263c.098.098.098.256 0 .354-.096.096-.254.099-.353 0z"/></g></g><g><g><path d="m19.573 40.232-1.427-1.426c-.098-.098-.098-.256 0-.354s.256-.098.354 0l1.427 1.426c.098.098.098.256 0 .354-.097.097-.255.098-.354 0z"/></g></g><g><g><path d="m19.663 42.003-1.036-1.037c-.098-.098-.098-.256 0-.354.099-.098.257-.097.354 0l1.036 1.037c.098.098.098.256 0 .354-.097.097-.255.099-.354 0z"/></g></g><g><g><path d="m19.231 43.731-.844-.844c-.098-.098-.098-.256 0-.354s.256-.098.354 0l.844.844c.098.098.098.256 0 .354-.098.097-.256.098-.354 0z"/></g></g><g><g><path d="m19.094 45.267c-.161 0-.591-.488-.707-.603-.098-.098-.098-.256 0-.354s.256-.098.354 0l.53.53c.157.158.044.427-.177.427z"/></g></g><g><g><path d="m18.435 45.48c-.098-.098-.098-.256 0-.354l.992-.992c.099-.098.257-.097.354 0 .098.098.098.256 0 .354l-.992.992c-.097.097-.255.099-.354 0z"/></g></g><g><g><path d="m18.099 43.751c-.098-.098-.098-.256 0-.354l1.808-1.808c.098-.098.256-.098.354 0s.098.256 0 .354l-1.808 1.808c-.098.097-.256.098-.354 0z"/></g></g><g><g><path d="m18.435 41.302c-.098-.098-.098-.256 0-.354l2.194-2.194c.098-.098.256-.098.353 0 .098.098.098.256 0 .354l-2.194 2.194c-.097.098-.255.099-.353 0z"/></g></g><g><g><path d="m18.627 38.758c-.098-.098-.098-.256 0-.354l2.089-2.089c.098-.098.256-.098.354 0s.098.256 0 .354l-2.089 2.089c-.097.097-.256.098-.354 0z"/></g></g><g><g><path d="m18.948 36.815c-.065 0-.128-.024-.177-.073-.098-.098-.098-.256 0-.354l1.613-1.613c.098-.098.256-.098.353 0 .098.098.098.256 0 .354l-1.613 1.613c-.049.048-.112.073-.176.073z"/></g></g><g><g><path d="m21.7 36.837c-.098-.098-.098-.256 0-.354l1.738-1.739c.098-.097.256-.099.354 0 .098.098.098.256 0 .354l-1.738 1.739c-.099.099-.257.097-.354 0z"/></g></g><g><g><path d="m23.813 36.261c-.098-.098-.098-.256 0-.354l1.196-1.196c.099-.099.257-.097.353 0 .098.098.098.256 0 .354l-1.196 1.196c-.096.096-.254.099-.353 0z"/></g></g><g><g><path d="m26.453 35.781c-.098-.098-.098-.256 0-.354l1.066-1.066c.099-.099.257-.097.354 0 .098.098.098.256 0 .354l-1.066 1.066c-.097.096-.255.099-.354 0z"/></g></g><g><g><path d="m28.134 35.38 1.13-1.13c.098-.098.256-.098.353 0 .098.098.098.256 0 .354l-1.13 1.13c-.232.232-.587-.12-.353-.354z"/></g></g><g><g><path d="m29.767 35.092.716-.716c.098-.097.256-.099.354 0 .098.098.098.256 0 .354l-.716.716c-.233.231-.589-.12-.354-.354z"/></g></g><g><g><path d="m58.617 20.687c-.098-.098-.098-.256 0-.354l3.618-3.617c.099-.099.257-.097.354 0 .098.098.098.256 0 .354l-3.618 3.617c-.096.097-.255.099-.354 0z"/></g></g><g><g><path d="m56.396 20.185 2.861-2.861c.098-.098.256-.098.354 0s.098.256 0 .354l-2.861 2.861c-.235.234-.587-.121-.354-.354z"/></g></g><g><g><path d="m54.051 19.966c-.098-.098-.098-.256 0-.354l2.289-2.289c.098-.098.256-.098.354 0s.098.256 0 .354l-2.289 2.289c-.098.097-.256.098-.354 0z"/></g></g><g><g><path d="m52.024 18.966 1.703-1.703c.099-.098.257-.097.354 0 .098.098.098.256 0 .354l-1.703 1.703c-.235.234-.587-.122-.354-.354z"/></g></g><g><g><path d="m50.153 19.374c-.064 0-.128-.024-.177-.073-.098-.098-.098-.256 0-.354l1.745-1.745c.098-.098.256-.098.354 0s.098.256 0 .354l-1.745 1.745c-.049.049-.113.073-.177.073z"/></g></g><g><g><path d="m47.686 19.403c-.098-.098-.098-.256 0-.354l1.969-1.969c.098-.098.256-.098.354 0s.098.256 0 .354l-1.969 1.969c-.098.097-.256.098-.354 0z"/></g></g><g><g><path d="m59.803 22.966c-.098-.098-.098-.256 0-.354l2.554-2.554c.098-.098.256-.098.354 0s.098.256 0 .354l-2.554 2.554c-.098.097-.256.098-.354 0z"/></g></g><g><g><path d="m60.406 25.167c-.065 0-.128-.024-.177-.073-.098-.098-.098-.256 0-.354l1.642-1.642c.098-.098.256-.098.354 0s.098.256 0 .354l-1.642 1.642c-.05.048-.113.073-.177.073z"/></g></g><g><g><path d="m60.824 26.757 1.289-1.289c.098-.098.256-.098.354 0s.098.256 0 .353l-1.289 1.289c-.234.235-.586-.12-.354-.353z"/></g></g><g><g><path d="m47.169 18.279c-.098-.098-.098-.256 0-.354l1.27-1.27c.098-.098.256-.098.354 0s.098.256 0 .353l-1.27 1.27c-.097.098-.256.099-.354.001z"/></g></g><g><g><path d="m46.189 16.646c-.098-.098-.098-.256 0-.354l.73-.731c.098-.098.256-.098.353 0 .098.098.098.256 0 .353l-.73.731c-.097.098-.255.099-.353.001z"/></g></g><g><g><path d="m48.301 17.801c-.065 0-.128-.024-.177-.073l-1.934-1.934c-.098-.098-.098-.256 0-.354s.256-.098.354 0l1.934 1.934c.098.098.098.256 0 .354-.049.048-.113.073-.177.073z"/></g></g><g><g><path d="m50.709 18.871c-.064 0-.128-.024-.177-.073l-1.851-1.85c-.098-.098-.098-.256 0-.354s.256-.098.354 0l1.851 1.85c.098.098.098.256 0 .354-.049.049-.112.073-.177.073z"/></g></g><g><g><path d="m52.824 19.449-1.772-1.772c-.098-.098-.098-.256 0-.354s.256-.098.354 0l1.772 1.772c.098.098.098.256 0 .354-.097.098-.255.099-.354 0z"/></g></g><g><g><path d="m56.097 20.048-2.432-2.431c-.098-.098-.098-.256 0-.354s.256-.098.353 0l2.432 2.431c.237.237-.124.584-.353.354z"/></g></g><g><g><path d="m58.942 19.672-1.994-1.994c-.098-.098-.098-.256 0-.354s.256-.098.354 0l1.994 1.994c.098.098.098.256 0 .354-.098.097-.256.098-.354 0z"/></g></g><g><g><path d="m60.881 19.119-1.684-1.685c-.098-.098-.098-.256 0-.354s.256-.098.353 0l1.685 1.685c.098.098.098.256 0 .353-.097.098-.255.1-.354.001z"/></g></g><g><g><path d="m61.843 22.573-1.37-1.371c-.098-.098-.098-.256 0-.354.099-.098.257-.097.354 0l1.37 1.371c.098.098.098.256 0 .353-.098.098-.256.099-.354.001z"/></g></g><g><g><path d="m62.075 25.558c-.064 0-.128-.024-.177-.073l-1.669-1.669c-.098-.098-.098-.256 0-.354s.256-.098.354 0l1.669 1.669c.098.098.098.256 0 .354-.049.048-.112.073-.177.073z"/></g></g><g><g><path d="m57.125 61.847-9.163-9.163c-.098-.098-.098-.256 0-.353.098-.098.256-.098.353 0l9.163 9.163c.098.098.098.256 0 .354-.096.096-.255.097-.353-.001z"/></g></g><g><g><path d="m59.415 60.838-6.893-6.893c-.098-.098-.098-.256 0-.353.098-.098.256-.098.354 0l6.892 6.893c.098.098.098.256 0 .354-.096.096-.254.097-.353-.001z"/></g></g><g><g><path d="m61.219 58.177-5.106-5.105c-.098-.098-.098-.256 0-.354s.256-.098.353 0l5.107 5.105c.098.098.098.256 0 .354s-.256.099-.354 0z"/></g></g><g><g><path d="m61.13 53.723-2.883-2.883c-.098-.098-.098-.256 0-.354s.256-.098.353 0l2.883 2.883c.098.098.098.256 0 .354-.096.097-.255.098-.353 0z"/></g></g><g><g><path d="m61.111 50.889-3.154-3.154c-.098-.098-.098-.256 0-.354s.256-.098.354 0l3.154 3.154c.098.098.098.256 0 .354-.098.097-.256.098-.354 0z"/></g></g><g><g><path d="m61.75 48.229-2.047-2.047c-.098-.098-.098-.256 0-.354s.256-.098.354 0l2.047 2.047c.098.098.098.256 0 .354-.097.097-.256.099-.354 0z"/></g></g><g><g><path d="m61.66 45.908-2.539-2.54c-.098-.098-.098-.256 0-.354s.256-.098.354 0l2.539 2.54c.098.098.098.256 0 .354-.097.097-.255.098-.354 0z"/></g></g><g><g><path d="m52.185 61.758-6.649-6.648c-.098-.098-.098-.256 0-.354s.256-.098.354 0l6.648 6.648c.098.098.098.256 0 .354-.097.097-.255.098-.353 0z"/></g></g><g><g><path d="m49.468 62.244-4.708-4.708c-.098-.098-.098-.256 0-.354s.256-.098.354 0l4.708 4.708c.098.098.098.256 0 .354-.098.097-.256.098-.354 0z"/></g></g><g><g><path d="m46.154 61.937-4.11-4.111c-.098-.098-.098-.256 0-.354s.256-.098.354 0l4.11 4.111c.098.098.098.256 0 .354-.098.097-.256.099-.354 0z"/></g></g><g><g><path d="m42.588 62.836-3.845-3.845c-.098-.098-.098-.256 0-.354s.256-.098.354 0l3.845 3.845c.098.098.098.256 0 .354-.097.097-.256.098-.354 0z"/></g></g><g><g><path d="m38.966 62.804-2.648-2.648c-.098-.098-.098-.256 0-.354s.256-.098.354 0l2.648 2.648c.098.098.098.256 0 .354-.097.097-.256.098-.354 0z"/></g></g><g><g><path d="m35.142 62.861-2.026-2.026c-.098-.098-.098-.256 0-.354s.256-.098.354 0l2.026 2.026c.098.098.098.256 0 .354-.098.097-.256.098-.354 0z"/></g></g><g><g><path d="m32.082 63.488-2.266-2.265c-.098-.098-.098-.256 0-.354s.256-.098.354 0l2.266 2.265c.098.098.098.256 0 .354-.097.097-.255.098-.354 0z"/></g></g><g><g><path d="m29.509 63.923-1.827-1.827c-.098-.098-.098-.256 0-.354s.256-.098.353 0l1.827 1.827c.098.098.098.256 0 .354-.097.097-.255.098-.353 0z"/></g></g><g><g><path d="m26.811 64.33-1.943-1.943c-.098-.098-.098-.256 0-.354s.256-.098.354 0l1.943 1.943c.098.098.098.256 0 .354-.098.097-.256.099-.354 0z"/></g></g><g><g><path d="m23.28 64.001-.838-.838c-.098-.098-.098-.256 0-.354s.256-.098.354 0l.838.838c.098.098.098.256 0 .354-.098.097-.256.098-.354 0z"/></g></g><g><g><path d="m20.598 64.328c-.098-.098-.098-.256 0-.354l2.742-2.742c.098-.098.256-.098.354 0s.098.256 0 .354l-2.742 2.742c-.098.097-.256.098-.354 0z"/></g></g><g><g><path d="m23.412 63.586 2.17-2.169c.099-.099.257-.097.353 0 .098.098.098.256 0 .354l-2.17 2.169c-.233.234-.585-.121-.353-.354z"/></g></g><g><g><path d="m25.741 64.328c-.098-.098-.098-.256 0-.354l3.472-3.472c.098-.098.256-.098.353 0 .098.098.098.256 0 .354l-3.472 3.472c-.096.097-.254.098-.353 0z"/></g></g><g><g><path d="m29.04 63.489 4.148-4.147c.098-.098.256-.098.354 0s.098.256 0 .354l-4.148 4.147c-.235.234-.586-.121-.354-.354z"/></g></g><g><g><path d="m31.854 63.94c-.098-.098-.098-.256 0-.354l5.971-5.97c.098-.098.256-.098.354 0s.098.256 0 .354l-5.971 5.97c-.098.097-.256.098-.354 0z"/></g></g><g><g><path d="m36.203 63.528c-.988 0 .879-1.482 7.266-7.869.098-.098.256-.098.354 0s.098.256 0 .354c-.114.113-7.458 7.515-7.62 7.515z"/></g></g><g><g><path d="m39.908 64.134c-.098-.098-.098-.256 0-.353l8.154-8.155c.098-.098.256-.098.354 0s.098.256 0 .354l-8.154 8.155c-.097.096-.255.097-.354-.001z"/></g></g><g><g><path d="m44.566 63.26c-.098-.098-.098-.256 0-.354l8.33-8.33c.098-.098.256-.098.354 0s.098.256 0 .354l-8.33 8.33c-.098.098-.256.099-.354 0z"/></g></g><g><g><path d="m50.679 62.387c-.098-.098-.098-.256 0-.354l7.494-7.495c.098-.098.256-.098.354 0s.098.256 0 .354l-7.494 7.495c-.098.098-.256.099-.354 0z"/></g></g><g><g><path d="m51.359 58.991c-.098-.098-.098-.256 0-.354l4.93-4.93c.098-.098.256-.098.354 0s.098.256 0 .354l-4.93 4.93c-.098.097-.256.098-.354 0z"/></g></g><g><g><path d="m56.096 61.005c-.064 0-.128-.024-.177-.073-.098-.098-.098-.256 0-.354l4.27-4.271c.098-.098.256-.098.354 0s.098.256 0 .354c-.114.114-4.286 4.344-4.447 4.344z"/></g></g><g><g><path d="m57.956 54.333c-.098-.098-.098-.256 0-.354l2.622-2.622c.232-.232.588.119.354.354l-2.622 2.622c-.097.097-.255.099-.354 0z"/></g></g><g><g><path d="m58.247 50.258c-.098-.098-.098-.256 0-.354l1.847-1.846c.098-.098.256-.098.354 0s.098.256 0 .354l-1.847 1.846c-.097.097-.255.098-.354 0z"/></g></g><g><g><path d="m58.442 46.411 2.101-2.101c.098-.098.256-.098.354 0s.098.256 0 .354l-2.101 2.1c-.235.235-.587-.12-.354-.353z"/></g></g><g><g><path d="m58.733 43.694 1.534-1.534c.098-.098.256-.098.354 0s.098.256 0 .354l-1.534 1.534c-.235.234-.587-.121-.354-.354z"/></g></g><g><g><path d="m27.819 17.241-5.286-5.286c-.098-.098-.098-.256 0-.353.098-.098.256-.098.354 0l5.286 5.286c.098.098.098.256 0 .354-.098.097-.256.098-.354-.001z"/></g></g><g><g><path d="m31.03 16.3-5.1-5.1c-.098-.098-.098-.256 0-.353.098-.098.256-.098.354 0l5.1 5.1c.098.098.098.256 0 .353s-.256.098-.354 0z"/></g></g><g><g><path d="m32.641 13.853-4.163-4.163c-.098-.098-.098-.256 0-.354s.256-.098.354 0l4.163 4.163c.098.098.098.256 0 .353-.098.098-.256.099-.354.001z"/></g></g><g><g><path d="m24.892 16.674c-.098-.098-.098-.256 0-.354l6.392-6.392c.098-.098.256-.098.354 0s.098.256 0 .353l-6.392 6.392c-.098.098-.256.099-.354.001z"/></g></g><g><g><path d="m25.741 12.71c-.098-.098-.098-.256 0-.354l4.256-4.256c.098-.098.256-.098.354 0s.098.256 0 .353l-4.256 4.256c-.097.098-.255.099-.354.001z"/></g></g><g><g><path d="m29.799 16.769c-.098-.098-.098-.256 0-.354l2.19-2.189c.232-.232.588.119.354.354l-2.19 2.189c-.097.097-.256.098-.354 0z"/></g></g></g></svg>