<svg id="Icons" viewBox="0 0 60 60" xmlns="http://www.w3.org/2000/svg"><path d="m59 19v-8c0-2.209-1.791-4-4-4h-26.528c-1.515 0-2.9-.856-3.578-2.211l-.789-1.578c-.678-1.355-2.063-2.211-3.578-2.211h-15.527c-2.209 0-4 1.791-4 4v20s57 0 57 0z" fill="#69adfe"/><path d="m54 24v-11c0-1.105-.895-2-2-2h-44c-1.105 0-2 .895-2 2v11z" fill="#e8ecef"/><path d="m59 19v30c0 2.209-1.791 4-4 4h-50c-2.209 0-4-1.791-4-4v-24c0-2.209 1.791-4 4-4h26.528c1.515 0 2.9-.856 3.578-2.211l.789-1.578c.678-1.355 2.063-2.211 3.578-2.211h15.528c2.209 0 4 1.791 4 4z" fill="#8dd1fe"/><rect fill="#e8ecef" height="34" rx="3" width="34" x="13" y="25"/><g fill="#545e6d"><rect height="15" rx="4" width="8" x="26" y="30"/><path d="m39 41c0-.553-.447-1-1-1s-1 .447-1 1c0 3.859-3.141 7-7 7s-7-3.141-7-7c0-.553-.447-1-1-1s-1 .447-1 1c0 4.625 3.507 8.442 8 8.941v3.059h-3c-.553 0-1 .447-1 1s.447 1 1 1h8c.553 0 1-.447 1-1s-.447-1-1-1h-3v-3.059c4.493-.499 8-4.316 8-8.941z"/></g></svg>