<svg xmlns="http://www.w3.org/2000/svg" version="1.1" xmlns:xlink="http://www.w3.org/1999/xlink" width="512" height="512" x="0" y="0" viewBox="0 0 73 73" style="enable-background:new 0 0 512 512" xml:space="preserve" class=""><g><path d="m62.142 31.13-4.976 3.51c.955-2.737 2.588-8.566 3.701-14.112.225-1.12.434-2.275.22-3.396-.05-.265-.546-1.746-1.09-1.885-.418-.772-1.072-1.202-1.816-1.34-6.518-1.179-13.167-1.59-19.596-1.99-5.881-.364-11.961-.74-17.962-1.702a.76.76 0 0 0-.831.507l-1.365 4.172c-3.414-.281-6.345 2.295-6.705 5.047-.293 2.228 1.15 4.389 3.348 5.209l-.48 1.468c-3.431-.303-6.382 2.283-6.744 5.045-.294 2.24 1.167 4.411 3.385 5.22l-.708 2.164c-3.34-.208-6.225 2.321-6.583 5.057-.288 2.19 1.1 4.321 3.235 5.172-1.691 5.446-2.046 5.449-1.499 5.97.062.317.464 1.314.585 1.617a3.678 3.678 0 0 0 2.902 2.268c4.146.58 8.294 1.364 12.303 2.123 11.84 2.24 10.652 1.834 20.587 3.262 10.951 1.57 8.535 3.437 13.133-17.37l12.383-8.733c.799-.564 1.324-1.487 1.48-2.6.577-4.146-4.062-6.687-6.907-4.682zM44.97 52.515c-.107-.955-.326-1.487-1.092-2.115 6.268-4.342 13.323-8.963 19.16-13.693l1.076 1.457c.113.687-.08.491-.08.906L44.97 52.514zm-4.76 1.526c-.548-.78-1.052-1.67-1.708-2.327.045-.102.865-1.966 1.09-2.487.344.01 1.099.276 1.48.532.837.565.482 1.322 1.254 1.46.343.06.916.519 1.022.818.148.417.184 1.04.123 1.331-.993.276-2.125.491-3.261.673zm20.295-19.92c.299.067.6.19.894.364l.748 1.014c-7.158 5.808-17.43 12.355-19.4 13.866-.49-.724-1.087-1.067-1.914-1.37L60.505 34.12zM13.21 20.137c.242-1.852 2.338-3.784 4.739-3.782l-2.414 7.377c-1.527-.593-2.525-2.077-2.325-3.595zM9.333 31.859c.244-1.86 2.352-3.802 4.78-3.78l-2.418 7.386c-1.547-.584-2.563-2.077-2.362-3.606zm-3.906 12.44c.238-1.816 2.253-3.71 4.613-3.777l-2.4 7.335c-1.465-.62-2.407-2.075-2.213-3.558zm6.127-3.579c1.013.31 1.855.958 2.294 1.803-.386.86.67 1.308 1.692.974.796-.26 1.306-.883 1.14-1.392-.157-.48-.865-.682-1.615-.482-.645-1.081-1.753-1.904-3.05-2.313l3.59-10.973c1.028.353 1.872 1.045 2.254 1.946-.307.854.775 1.216 1.72.907.796-.26 1.306-.883 1.14-1.392-.161-.493-.9-.693-1.671-.467-.606-1.11-1.688-1.968-2.979-2.411l3.377-10.318c1.065.355 1.941 1.073 2.315 2.012-.458.854.564 1.4 1.666 1.04 1.79-.585 1.415-2.333-.423-1.887-.59-1.198-1.728-2.123-3.094-2.583l1.108-3.388c12.37 1.897 24.826 1.405 36.893 3.586.577.108 1.03.67.887 1.395-.211 1.07-.431 2.177-.774 3.208-1.504 4.483-2.499 9.02-3.462 13.407-.28 1.305-.462 2.013-.758 3.619C37.984 48.218 38.67 47.556 38.51 47.938c-1.21 2.901-2.285 4.888-2.922 7.294a.75.75 0 0 0 .875.927c1.514-.313 7.405-1.037 8.246-1.624l7.034-4.961c-.343 1.703-2.5 11.745-2.509 11.794-11.412-3.84-23.783-3.216-42.078-7.208zm36.553 23.125c-26.625-3.47-26.916-4.545-38.736-6.2a2.175 2.175 0 0 1-1.717-1.339c-.075-.186-.146-.37-.217-.553 18.132 3.877 29.81 3.27 41.012 6.954-.132.449-.21.694-.342 1.138z" fill="#000000" opacity="0.6784313725490196" data-original="#000000"></path><path d="m27.417 25.695 19.378 4.172a.75.75 0 0 0 .316-1.466l-19.378-4.172c-.979-.201-1.28 1.258-.316 1.466zM25.518 37.191c5.293.15 10.63.603 15.863 1.342a.749.749 0 1 0 .21-1.485 144.429 144.429 0 0 0-16.03-1.357c-.452-.018-.76.315-.771.729a.75.75 0 0 0 .728.771zM34.838 47.17a.75.75 0 0 0-.473-.95 47.093 47.093 0 0 0-11.806-2.332.754.754 0 0 0-.798.699.748.748 0 0 0 .699.797c3.887.261 7.733 1.02 11.428 2.258a.75.75 0 0 0 .95-.472zM58.99 11.002 60 8.644a.75.75 0 0 0-1.378-.59L57.61 10.41c-.39.912.988 1.502 1.379.591zM63.693 8.997l-2.856 2.701c-.72.681.308 1.772 1.03 1.09l2.857-2.7a.75.75 0 0 0-1.031-1.09zM63.93 16.168l3.536-.337a.75.75 0 1 0-.142-1.493l-3.537.337c-.986.093-.85 1.592.142 1.493z" fill="#000000" opacity="0.6784313725490196" data-original="#000000"></path></g></svg>