<svg xmlns="http://www.w3.org/2000/svg" version="1.1" xmlns:xlink="http://www.w3.org/1999/xlink" width="512" height="512" x="0" y="0" viewBox="0 0 52 52" style="enable-background:new 0 0 512 512" xml:space="preserve" class=""><g><path d="M48.858 16.232a1.829 1.829 0 0 0-1.067-.285c-.704.05-1.205.368-1.615.636-1.553 1.152-2.345 1.832-2.295 1.912.055.087.981-.458 2.587-1.44.395-.218.866-.436 1.334-.428.46-.001.86.315 1.208.842.329.495.632 1.177.58 1.744-.055.647-.401 1.312-.892 1.928-.258.33-.562.643-.897.948-.372-.367-.92-.853-1.438-1.53-.926-1.19-1.748-2.351-2.12-2.151-.318.162-.121 1.572 1.01 3.05.522.65 1.172 1.097 1.736 1.313-.76.597-1.61 1.185-2.463 1.835-7.501 5.6-2.307 1.718-10.788 8.06-1.939 1.448-3.957 2.929-6.154 4.137-.488-1.243-1.648-2.399-2.676-2.867.348-.349.709-.685 1.085-1.004 1.705-1.402 3.421-2.74 4.981-3.98l4.395-3.417c5.292-4.144 8.627-6.878 8.512-7.04-.041-.06-.537.227-1.416.806-.18-2.64-.438-5.715-.527-6.803-.09-1.08-.13-2.17-.52-3.06-.34-.89-.92-1.56-1.48-2.02-.56-.46-1.12-.73-1.57-.91-.91-.35-1.42-.39-1.43-.36 0 .07.49.21 1.31.62.81.42 2.08 1.22 2.65 2.87.32.81.31 1.78.37 2.9.05 1.1.1 2.3.17 3.59.01.267.023.552.035.827-1.007-.357-8.735-.635-18.128-.635-8.085 0-14.931.206-17.326.49.057-.48.105-.97.17-1.442.14-1 .3-1.98.47-2.95.18-.96.35-1.89.639-2.73.3-.83.73-1.56 1.37-1.99.404-.306.875-.442 1.403-.536.262 1.171.64 1.791.764 1.747.204-.055-.055-1.273.03-3.18.027-.47.082-.983.223-1.475.145-.496.364-.937.734-1.157.38-.25.956-.35 1.458-.237.526.131.843.382.996.93.142.539.162 1.347.186 2.008.015.687-.009 1.351-.06 1.983-.053.655-.111 1.18-.322 1.532-.188.346-.57.596-.935.709-.753.236-1.382-.123-1.713-.492-.345-.368-.496-.655-.597-.621-.083.023-.128.367.138.934.138.277.377.614.791.872.41.257.987.392 1.596.293.594-.103 1.25-.403 1.709-1.046.451-.636.547-1.398.64-2.038.065-.478.103-.982.126-1.496 1.348-.14 2.547-.239 3.907-.335.218 1.854.779 2.872.937 2.816.204-.055-.055-1.273.03-3.18.027-.47.082-.983.223-1.475.145-.496.364-.937.734-1.157.38-.25.956-.35 1.458-.237.526.131.843.382.996.93.143.539.163 1.347.186 2.008.015.687-.009 1.351-.06 1.983-.052.655-.111 1.18-.322 1.532-.188.346-.57.596-.935.709-.753.236-1.382-.123-1.713-.492-.344-.368-.496-.655-.597-.621-.083.023-.128.367.139.934.137.277.376.614.79.872.41.257.987.392 1.596.293.594-.103 1.25-.403 1.709-1.046.451-.636.547-1.398.64-2.038.091-.668.145-1.376.15-2.111 1.4-.03 2.686-.039 3.846-.029.187 2.056.807 3.184.974 3.125.204-.055-.055-1.273.03-3.18.027-.47.082-.983.223-1.475.145-.496.364-.937.734-1.157.38-.25.957-.35 1.458-.237.527.131.843.382.996.93.143.539.163 1.347.186 2.008.015.687-.009 1.351-.06 1.983-.052.655-.111 1.18-.322 1.532-.188.346-.57.596-.935.709-.753.236-1.382-.123-1.713-.492-.344-.368-.496-.655-.597-.621-.083.023-.128.367.139.934.137.277.376.614.79.872.41.257.987.392 1.596.293.594-.103 1.25-.403 1.709-1.046.451-.636.547-1.398.64-2.038.084-.612.13-1.26.143-1.93.902.109 1.379.213 1.398.154.025-.106-.457-.265-1.39-.428-.016-.737.01-1.417-.212-2.324a2.665 2.665 0 0 0-.784-1.286 2.761 2.761 0 0 0-1.304-.62c-.9-.163-1.785.024-2.488.526-.742.533-1.016 1.349-1.136 1.97-.08.418-.096.8-.094 1.165a77.405 77.405 0 0 0-3.84-.1 7.357 7.357 0 0 0-.198-1.655 2.667 2.667 0 0 0-.784-1.286 2.761 2.761 0 0 0-1.304-.62c-.9-.163-1.785.024-2.488.526-.742.533-1.016 1.349-1.136 1.97a6.027 6.027 0 0 0-.094 1.198c-1.34.059-2.84.153-3.832.232-.008-.626-.016-1.239-.206-2.02a2.667 2.667 0 0 0-.784-1.286 2.761 2.761 0 0 0-1.304-.62c-.9-.163-1.785.024-2.488.526-.742.533-1.016 1.349-1.137 1.97a6.624 6.624 0 0 0-.08 1.693c-.508.113-1.125.276-1.844.57-1.053.427-2.269 1.24-3.284 2.524-1.035 1.268-1.822 2.999-2.312 4.957-1.034 3.95-.823 8.74-.91 13.925-.013 2.62.052 5.372.214 8.22.084 1.426.175 2.866.332 4.353.165 1.482.406 3.02 1.006 4.523.563 1.505 1.612 2.903 2.993 3.768 1.355.898 2.965 1.227 4.37 1.412 2.874.387 5.617.46 8.233.56 5.235.174 9.951.03 13.9-.218l2.809-.16c.88-.052 1.743-.083 2.555-.257.811-.163 1.556-.49 2.132-.93.575-.441.988-.959 1.285-1.456.583-1.007.754-1.886.848-2.465.027-.195.042-.348.05-.482.527-.997.771-2.053.906-3.065.23-2.12.11-4.08.11-6-.055-2.87-.154-5.582-.285-8.134 2.765-2.154 1.727-1.341 4.572-3.578.741-.607 1.421-1.256 1.965-1.993.537-.73.957-1.577.996-2.477.008-.984-.415-1.67-.838-2.273a3.158 3.158 0 0 0-.8-.771zm-22.27 21.071c-.803.37-1.617.662-2.445.826-.741.15-1.478.215-1.996.271h-.007l-.003-.007c-.003.007-.003.002.023-.097.315-.978.987-2.03 1.614-2.964.16-.235.326-.467.492-.686.28.422.736.95 1.246 1.523.391.428.755.823 1.076 1.134zM4.032 43.189a16.557 16.557 0 0 1-.452-2.208c.599.356 1.419.516 2.1.386.053.258.092.513.148.771.053.233.11.488.17.744-.344-.018-.796.059-1.292.152-.236.05-.464.1-.674.155zm-.589-3.323a72.556 72.556 0 0 1-.187-2.065c.629.308 1.343.406 1.823.329.106.659.234 1.32.36 1.983-.555-.188-1.433-.356-1.996-.247zM4.68 11.998c.275.131.545.186.782.188l-.003.012c-.112.612-.213 1.243-.318 1.868a4.863 4.863 0 0 0-.388-.247c-.445-.246-.885-.406-1.213-.401.163-.65.353-1.267.58-1.84.145.157.321.307.56.42zM2.871 29.92c-.017-.686-.05-1.778-.05-2.403a2.408 2.408 0 0 0 1.33.357c.016.786.058 1.583.1 2.38a4.835 4.835 0 0 0-.316-.125c-.386-.131-.76-.209-1.064-.21zm-.086-9.047c.116.078.24.154.383.217a2.16 2.16 0 0 0 1.127.194l-.017.194c-.04.637-.055 1.289-.08 1.935a4.041 4.041 0 0 0-.343-.175c-.387-.17-.763-.263-1.069-.266a134.02 134.02 0 0 1-.001-2.1zm1.362 5.655a7.75 7.75 0 0 0-.36-.126 4.91 4.91 0 0 0-.972-.209 475.25 475.25 0 0 0-.018-1.93c.14.103.299.2.48.28.305.135.605.2.867.21-.012.585.001 1.183.003 1.775zm.78-11.173a78.673 78.673 0 0 0-.271 2.127c-.008-.357-.412-.74-.956-1.006a2.7 2.7 0 0 0-.675-.215c.073-.635.167-1.25.286-1.843.363.5 1.005.868 1.616.937zm-1.846 2.408c.705.34 1.389.228 1.551-.096a76.54 76.54 0 0 0-.24 2.487 4.013 4.013 0 0 0-.643-.368 3.564 3.564 0 0 0-.939-.285c.017-.635.047-1.254.088-1.858.064.038.112.086.183.12zm.033 18.029c-.019-.297-.026-.58-.043-.874.459.317 1.03.523 1.627.55.06.475.136.954.205 1.43-.517-.253-1.18-.401-1.735-.34l-.054-.766zM4.29 33.95c-.482-.166-.93-.275-1.28-.29-.04-.824-.084-1.65-.11-2.456.427.27.93.421 1.42.42.056.802.142 1.612.225 2.422a9.364 9.364 0 0 0-.255-.096zM5.362 9.256a8.188 8.188 0 0 1 2.157-2.085c-.622.585-1.051 1.348-1.33 2.107-.202.559-.348 1.12-.474 1.682a2.687 2.687 0 0 0-1.103-.465 9.37 9.37 0 0 1 .75-1.239zm-.859 35.228c.155-.004.316-.017.485-.051.58-.116 1.019-.389 1.281-.668.03.081.045.162.08.243.27.64.689 1.27 1.24 1.74.005.005.01.008.016.012-.208.12-.433.254-.674.382-.342.198-.677.363-.948.522-.629-.593-1.122-1.338-1.48-2.18zm10.475 4.49c-.97-.064-1.95-.15-2.936-.258.552-.395.976-.818 1.197-1.167 1.168.07 2.311.034 3.429-.009-.192.153-.388.316-.588.488-.41.362-.794.674-1.102.945zm-4.825-.504c-1.044-.168-2.025-.429-2.906-.91a2.604 2.604 0 0 0 1.368-1.129c.858.458 1.774.703 2.673.887.082.015.162.023.244.037-.521.311-.95.665-1.38 1.115zm6.876.622c.634-.558 1.05-1.145 1.25-1.604a114.03 114.03 0 0 1 3.359-.018c-.141.182-.29.377-.45.574-.352.456-.7.861-.925 1.197-1.16-.043-1.4-.055-3.234-.15zm4.947.203c.51-.494.885-1.133 1.006-1.817.88.01 1.757.022 2.63.037-.1.116-.203.237-.305.363-.438.552-.797 1.079-.922 1.466-.786-.01-1.592-.027-2.41-.049zm3.87.06c.555-.462 1.028-1.114 1.237-1.81.991.021 1.978.039 2.957.054-.102.131-.203.268-.303.414-.329.486-.587.959-.69 1.327-1.03.013-2.097.02-3.201.015zm4.66-.04c.142-.147.282-.31.41-.5.287-.418.454-.84.529-1.2.433.003.872.013 1.303.013.685 0 1.359-.018 2.036-.03-.474.434-.934 1.056-1.161 1.644-.366.007-1.035.029-3.116.073zm4.737-.107c.047-.054.095-.106.141-.164.336-.437.568-.808.714-1.271.021-.07.02-.131.028-.196.51-.018 1.03-.054 1.552-.126-.098.112-.203.234-.322.38-.27.332-.539.749-.624 1.127a1.143 1.143 0 0 0-.028.211c-.443.021-.966.03-1.46.04zm5.625-2.04a4.44 4.44 0 0 1-2.63 1.813 3.92 3.92 0 0 0 .23-.255c.34-.412.55-.956.515-1.389-.005-.064-.022-.114-.035-.17.19-.057.382-.112.57-.189.92-.341 1.733-1.002 2.3-1.79-.176.53-.434 1.232-.95 1.98zm1.2-11.69c-.02 1.89.06 3.9-.18 5.82-.13.96-.37 1.9-.83 2.71-.45.81-1.14 1.42-2.02 1.75-.88.35-1.91.45-2.98.48-5.282.147-11.733-.272-17.33-.18-2.44.03-4.87.3-7.17-.14-1.13-.22-2.28-.59-3.03-1.24-.78-.67-1.08-1.64-1.31-2.84-1.427-6.42-2.008-13.307-1.63-20.28.083-1.47.22-2.9.38-4.307 2.35.288 9.239.496 17.377.496 9.408 0 17.148-.278 18.134-.636l.12 2.773c-1.653 1.12-4.163 2.916-5.779 4.08-.564-.097-1.54-.163-2.654-.163-1.75 0-3.167.16-3.167.357 0 .197 1.418.357 3.167.357.766 0 1.459-.032 2.007-.083-3.146 2.278-5.928 4.286-9.42 7.021-.572-.091-1.516-.152-2.587-.152-1.75 0-3.167.16-3.167.357 0 .197 1.418.357 3.167.357.748 0 1.427-.03 1.97-.08-.442.364-.882.751-1.306 1.174l-.318.328c-.26.284-.637.804-.858 1.118-.683 1.017-1.375 1.995-1.837 3.35-.029.108-.06.22-.08.355-.016.149-.043.3-.026.443.012.29.112.56.302.767.2.197.454.33.75.342.14.03.304-.002.448-.003l.273-.026c.628-.06 1.276-.13 1.937-.261 1.337-.261 2.606-.794 3.786-1.431 2.35-1.287 4.414-2.824 6.374-4.31l5.61-4.299 1.748-1.36c.069 2.32.12 4.773.13 7.356z" fill="#000000" opacity="0.5882352941176471" data-original="#000000" class=""></path><path d="M13.166 23.801c-1.75 0-3.167.16-3.167.357 0 .197 1.418.357 3.167.357 1.749 0 3.166-.16 3.166-.357 0-.197-1.417-.357-3.166-.357zM23.166 24.515c1.749 0 3.166-.16 3.166-.357 0-.197-1.417-.357-3.166-.357-1.75 0-3.167.16-3.167.357 0 .197 1.418.357 3.167.357zM13.166 31.301c-1.75 0-3.167.16-3.167.357 0 .197 1.418.357 3.167.357 1.749 0 3.166-.16 3.166-.357 0-.197-1.417-.357-3.166-.357zM13.166 38.801c-1.75 0-3.167.16-3.167.357 0 .197 1.418.357 3.167.357 1.749 0 3.166-.16 3.166-.357 0-.197-1.417-.357-3.166-.357zM33.166 38.801c-1.75 0-3.167.16-3.167.357 0 .197 1.418.357 3.167.357 1.749 0 3.166-.16 3.166-.357 0-.197-1.417-.357-3.166-.357z" fill="#000000" opacity="0.5882352941176471" data-original="#000000" class=""></path></g></svg>