<svg id="Layer_1" enable-background="new 0 0 52 52" height="512" viewBox="0 0 52 52" width="512" xmlns="http://www.w3.org/2000/svg"><g fill="rgb(0,0,0)"><path d="m50 20.6c-.1-2.5-.2-4.8-.4-7-.2-2.1-.5-4.1-1.2-5.7-.6-1.7-1.8-2.9-2.8-3.4-1.1-.6-2-.8-2.6-1-.6-.1-.9-.2-1-.1-1.2-.3-2.4-.5-3.6-.5-1.3-.1-2.6-.1-3.9-.2-5.1-.3-10.5-.5-16-.4-4.1.1-8.7-.1-12.2 2-1.2.7-2.3 1.7-3 3-1.4 2.4-1.6 5.2-1.7 7.7s-.2 5-.2 7.3c-.1 4.8 0 9.3.2 13.6.1 2.3.1 4.8 1.2 6.9 0 0 0 .1.1.1.2.6.7 1.4 1.5 2.3s2 1.9 3.6 2.6 3.5 1.2 5.7 1.4c4.3.3 9.3.6 15 .4 2.8-.1 5.8-.3 8.8-.6 1.5-.1 3-.2 4.7-.4s3.4-.9 4.7-2.1 2.2-2.7 2.7-4.3c.6-1.9.8-3.8 1-5.9.1-1.1 0-2.1 0-3.5-.3-5.3-.1-2.6-.6-12.2zm-.9 14.6c-.6-.3-1.1-.4-1.5-.3.1-.9.2-1.8.2-2.8-.1-3.2-.1-2.8-.2-6.2.2.5.7 1 1.4 1.3.1 1.9 0 .8.1 3.4-.5-.3-1-.4-1.2-.1-.3.3 0 1 .7 1.5.2.1.4.2.5.2.1 2 .1 2.3.1 2.9v.2s0 0-.1-.1zm-5.8 8.2c-1 .9-2.2 1.4-3.4 1.7-1.1.2-2.3.3-3.3.4-.2 0-.4 0-.6.1-.9-2.1-5.9-10.7-7-12.7-.4-.7-.8-1.3-1.2-2 1.2-1.6 4.2-6.3 5.2-7.9.3-.4.5-.8.8-1.3.1-.2.5-.7.6-1 0 0 0 0 .1-.1h.2.1l.2.2c.4.4.8.8 1.1 1.2 3.1 3.3 5.7 6.4 7.5 8.7 1.6 2 2.5 3.4 2.9 3.7v.4c-.2 1.8-.4 3.5-.9 4.9-.4 1.6-1.3 2.8-2.3 3.7zm-1.7 3.6.3.3c-1.3.1-2.6.2-3.9.3-.1-.5-.6-1.2-1.2-1.6 1-.1 2-.1 3.3-.3.3-.1.6-.1 1-.2-.1.4 0 .9.5 1.5zm-10.2-.7c1.2 0 3.2-.1 4.5-.2-.1.3 0 .9.5 1.5.1.1.2.2.2.2-1.4.1-2.7.2-4 .3-.1-.7-.6-1.6-1.2-1.8zm16.1-24.3.2.2c.4.3.9.3 1.2.2 0 1 .1 2.1.1 3.2-.6-.3-1.1-.5-1.4-.2v.1c-.1-1.4-.1-2.4-.1-3.5zm1.3-.7c-.1-.1-.2-.2-.4-.3-.4-.2-.7-.3-1-.3 0-.9-.1-1.9-.1-2.9.1.1.2.2.3.3.4.3.8.5 1.2.4zm-.2-7.5c.1 1.1.1 2.2.1 3.4-.1-.1-.2-.2-.3-.3-.4-.3-.9-.5-1.2-.4 0-1.2-.1-2.4-.1-3.6.1.1.3.3.4.4.4.3.8.5 1.1.5zm-.1-1.5c0-.1-.1-.1 0 0-.6-.4-1-.7-1.4-.8 0-.7-.1-1.3-.1-2 0-.3-.1-.6-.1-.9.4.2.7.3 1 .2.3 1 .4 2.2.6 3.5zm-1.2-5.1c-.4-.1-.7-.2-.9-.2-.2-.4-.4-.8-.6-1.2-.5-.7-1.1-1.2-1.8-1.6.4.2.9.4 1.4.7.7.5 1.4 1.3 1.9 2.3zm-44.6 15.1c0-2.4.2-4.8.3-7.3s.3-5 1.6-7c1.2-2.1 3.5-3.3 6-3.8s5.2-.4 8-.5c5.5 0 10.9.1 16 .3 1.3.1 2.6.1 3.8.2 1.3.1 2.5.2 3.6.5s2.1 1 2.7 1.8c.6.9 1 1.9 1.1 3.1.3 4.7.4 9.3.6 13.5.3 7.5.2 3.7.4 9 0 .7 0 1.3-.1 1.9-.3-.7-1-2-2.1-3.8-1.6-2.5-4.2-5.8-7.3-9.1-.4-.4-.8-.8-1.2-1.2l-.1-.1s-.1-.1-.2-.2c-.8-.6-1.9-.5-2.5.4-1.3 2.2-4.7 8.1-5.8 10.5-1.7-2.6-2.7-4.3-5-7.8-1.2-1.9-2.3-3.8-3.5-5.8-3.8-6.3-.1-.2-2-3.3l-.1-.2c-.1-.1-.2-.2-.2-.3-.2-.2-.4-.3-.7-.4-.3 0-.5 0-.8.1s-.5.3-.6.5c-.3.4-.5.8-.7 1.2-3.6 7.2-1.9 3.7-7.7 15.3-1 2-2.4 4.9-3.3 7 0-.3 0-.5 0-.8-.3-4.4-.3-8.9-.2-13.7zm2.3 22.8c.6.4 1.3.7 2 .9 1.2.3 2.4.5 3.5.6 0 .3 0 .7.2 1.1 0 .1.1.1.1.2-2.2-.5-4.1-1.3-5.8-2.8zm7.2 3c0-.4-.1-.9-.4-1.4.8.1 1.2.1 2.4.2-.1.3 0 .7.2 1.2.1.1.1.2.2.3-.3 0-.5 0-.8 0-.6-.2-1.1-.2-1.6-.3zm8.5.4c-1.7 0-3.3-.1-4.8-.1 0-.3-.1-.7-.3-1-.1-.2-.2-.3-.3-.5.5 0 1 0 1.4.1h3.4c0 .4.1 1 .6 1.5zm1.2 0c.1-.3 0-.7-.3-1.1-.1-.2-.2-.3-.4-.4 1.8 0 2.9-.1 4-.2-.1.3 0 .8.3 1.2.1.2.2.3.3.5-1.3 0-2.6 0-3.9 0zm5.2-.1c0-.3-.1-.7-.4-1.1-.1-.2-.3-.4-.4-.6 1-.1 1.8-.1 2.5-.2 1.1-.1 1.6-.2 1.6-.2 0-.1-.6-.1-1.6 0-1.1 0-2.6 0-4.6.1-2 0-4.5 0-7.3-.1-1.4-.1-2.9-.2-4.6-.3-1.6-.2-3.3-.3-5-.8-1.6-.5-3.1-1.6-3.8-3.3-.5-1.4-.6-2.9-.7-4.4.2-.3.4-.7.7-1.1.8-1.4 2-3.6 3.5-6.3 1.4-2.7 3.2-5.9 5.1-9.5 3.2-6.2 3.1-6 3.3-6.3.1-.2.3-.4.2-.3l.1.1c.1.2 4 6.6 5.6 9.1 1.2 1.8 2.4 3.6 3.5 5.3s2.2 3.3 3.1 4.8c1.3 2.1 6.2 10.1 7.8 12.1-2 .2-6.9.7-4.9.7-.3.2-.3.9.1 1.5.1.1.2.3.3.4-1.5.3-1.8.3-4.1.4zm16.2-1.4c-.3-.6-1-1.5-1.5-1.8.7-.3 1.4-.7 2-1.2.1-.1.2-.2.3-.2.4.6 1.2 1.3 2.1 1.6-.1.1-.1.1-.2.2-.8.6-1.8 1.1-2.7 1.4zm3.6-2.5c-.4-.6-1.3-1.2-2.1-1.5.7-.8 1.3-1.8 1.7-2.8.1.2.3.3.5.5.4.3.7.6 1.2.7h.2c0 .1-.1.3-.1.4-.3 1-.8 1.9-1.4 2.7zm1.8-4c-.1-.2-.4-.6-.8-.9-.3-.3-.7-.5-1-.6.3-1 .4-2.1.6-3.1.3.4 1 .8 1.7 1 0 .2 0 .4-.1.6-.1.9-.2 2-.4 3z"/><path d="m24.8 17.6c.8.2 1.2.1 1.3.1 0-.1-.4-.2-1-.6s-1.4-1.1-1.9-2.2-.6-2.7.1-4.1 2.5-2.4 4.2-2c.9.2 1.7.6 2.3 1.2s1 1.4 1.1 2.1c.2.8.1 1.5-.1 2.2s-.6 1.2-1 1.7c-.9.9-1.8 1.3-2.6 1.4-.7.2-1.1.1-1.2.3 0 0 .1.1.3.2s.5.1.9.1c.8 0 2.1-.3 3.2-1.3.5-.5 1.1-1.2 1.4-2s.5-1.8.3-2.8-.7-2-1.4-2.9c-.8-.8-1.8-1.4-3-1.6-2.4-.4-4.8 1-5.7 2.8-1 1.9-.6 3.9.1 5.2.8 1.2 1.9 1.9 2.7 2.2z"/></g></svg>