<svg id="Capa_1" enable-background="new 0 0 512 512" height="512" viewBox="0 0 512 512" width="512" xmlns="http://www.w3.org/2000/svg"><g><path d="m127.76 311.385h48.504v26.076h-48.504z" fill="#9bb9c1"/><path d="m335.587 311.385h48.803v26.076h-48.803z" fill="#9bb9c1" transform="matrix(-1 0 0 -1 719.976 648.846)"/><path d="m504.933 45.328h-219.711c-3.903 0-7.067 3.164-7.067 7.067v40.569l65.214 116.404h79.535c.973 0 1.906.387 2.594 1.074l45.203 45.204c2.311 2.311 6.263.674 6.263-2.594v-40.015c0-2.026 1.642-3.669 3.668-3.669h24.3c3.903 0 7.067-3.164 7.067-7.067v-149.906c.001-3.903-3.163-7.067-7.066-7.067z" fill="#86f1a7"/><path d="m504.933 45.328h-34.14v102.781c0 22.453-18.202 40.655-40.655 40.655h-107.979l21.211 20.604h79.535c.973 0 1.906.387 2.594 1.074l45.203 45.204c2.311 2.311 6.263.674 6.263-2.594v-40.015c0-2.026 1.642-3.669 3.668-3.669h24.3c3.903 0 7.067-3.164 7.067-7.067v-149.906c0-3.903-3.164-7.067-7.067-7.067z" fill="#80e29d"/><path d="m168.63 160.803c0-36.599 28.96-66.433 65.214-67.839v-85.897c0-3.903-3.164-7.067-7.067-7.067h-219.71c-3.903 0-7.067 3.164-7.067 7.067v149.906c0 3.903 3.164 7.067 7.067 7.067h24.3c2.026 0 3.668 1.642 3.668 3.669v40.015c0 3.268 3.952 4.905 6.263 2.594l45.203-45.204c.688-.688 1.621-1.074 2.594-1.074h79.535z" fill="#7ad0df"/><path d="m226.778 0h-34.14v51.821c0 50.598-41.018 91.615-91.615 91.615h-101.023v13.537c0 3.903 3.164 7.067 7.067 7.067h24.3c2.026 0 3.668 1.642 3.668 3.669v40.015c0 3.268 3.952 4.905 6.263 2.594l45.203-45.204c.688-.688 1.621-1.074 2.594-1.074h79.535l65.214-71.076v-85.897c0-3.903-3.164-7.067-7.066-7.067z" fill="#70c6da"/><path d="m197.788 59.104h-161.732c-4.267 0-7.726-3.459-7.726-7.726s3.459-7.726 7.726-7.726h161.732c4.267 0 7.726 3.459 7.726 7.726s-3.459 7.726-7.726 7.726zm7.727 22.916c0-4.268-3.459-7.726-7.726-7.726h-94.595c-4.267 0-7.726 3.459-7.726 7.726 0 4.268 3.459 7.726 7.726 7.726h94.595c4.266 0 7.726-3.458 7.726-7.726zm-120.35 0c0-4.268-3.459-7.726-7.726-7.726h-41.383c-4.267 0-7.726 3.459-7.726 7.726 0 4.268 3.459 7.726 7.726 7.726h41.383c4.267 0 7.726-3.458 7.726-7.726zm111.211 30.643c0-4.268-3.459-7.726-7.726-7.726h-39.219c-4.267 0-7.726 3.459-7.726 7.726 0 4.268 3.459 7.726 7.726 7.726h39.219c4.267 0 7.726-3.458 7.726-7.726zm-64.974 0c0-4.268-3.459-7.726-7.726-7.726h-87.62c-4.267 0-7.726 3.459-7.726 7.726 0 4.268 3.459 7.726 7.726 7.726h87.62c4.267 0 7.726-3.458 7.726-7.726z" fill="#f1f4f6"/><path d="m197.788 59.104c4.267 0 7.726-3.459 7.726-7.726s-3.459-7.726-7.726-7.726h-5.151v8.17c0 2.451-.097 4.88-.286 7.283h5.437z" fill="#dfeaef"/><path d="m196.376 112.663c0-4.268-3.459-7.726-7.726-7.726h-12.973c-4.037 5.664-8.702 10.849-13.894 15.453h26.867c4.267-.001 7.726-3.459 7.726-7.727z" fill="#dfeaef"/><path d="m205.515 82.02c0-4.268-3.459-7.726-7.726-7.726h-7.928c-1.35 5.354-3.172 10.52-5.418 15.453h13.346c4.266-.001 7.726-3.459 7.726-7.727z" fill="#dfeaef"/><g fill="#f1f4f6"><path d="m475.944 104.432h-39.856c-4.267 0-7.726-3.459-7.726-7.726s3.459-7.726 7.726-7.726h39.856c4.267 0 7.726 3.459 7.726 7.726s-3.459 7.726-7.726 7.726z"/><path d="m410.333 104.432h-96.121c-4.267 0-7.726-3.459-7.726-7.726s3.459-7.726 7.726-7.726h96.121c4.267 0 7.726 3.459 7.726 7.726s-3.459 7.726-7.726 7.726z"/><path d="m475.944 135.074h-94.595c-4.267 0-7.726-3.459-7.726-7.726 0-4.268 3.459-7.726 7.726-7.726h94.595c4.267 0 7.726 3.459 7.726 7.726 0 4.268-3.459 7.726-7.726 7.726z"/><path d="m355.595 135.074h-21.026c-4.267 0-7.726-3.459-7.726-7.726 0-4.268 3.459-7.726 7.726-7.726h21.026c4.267 0 7.726 3.459 7.726 7.726 0 4.268-3.459 7.726-7.726 7.726z"/><path d="m436.088 165.717h-92.775c-4.267 0-7.726-3.459-7.726-7.726 0-4.268 3.459-7.726 7.726-7.726h92.775c4.267 0 7.726 3.459 7.726 7.726 0 4.268-3.459 7.726-7.726 7.726z"/></g><g fill="#dfeaef"><path d="m475.944 119.622h-5.151v15.453h5.151c4.267 0 7.726-3.459 7.726-7.726 0-4.269-3.459-7.727-7.726-7.727z"/><path d="m475.944 88.979h-5.151v15.453h5.151c4.267 0 7.726-3.459 7.726-7.726s-3.459-7.727-7.726-7.727z"/></g><path d="m168.63 273.053h174.74v34.676h-174.74z" fill="#5766cb"/><path d="m302.163 273.053h41.207v34.676h-41.207z" fill="#3d4fc3"/><path d="m168.63 250.947v-90.144c0-37.495 30.396-67.891 67.891-67.891h38.958c37.495 0 67.891 30.396 67.891 67.891v90.144z" fill="#617881"/><g fill="#475959"><path d="m342.695 151.191-99.756 99.756h21.853l78.579-78.579v-11.565c-.001-3.263-.231-6.472-.676-9.612z"/><path d="m305.824 250.947 37.546-37.546v-21.854l-59.399 59.4z"/><path d="m309.673 102.139-141.043 141.05v7.758h14.095l139.434-139.441c-3.777-3.578-7.965-6.726-12.486-9.367z"/><path d="m338.699 136.007c-1.986-5.061-4.563-9.825-7.645-14.208l-129.147 129.148h21.853z"/><path d="m296.434 96.208c-5.888-1.909-12.128-3.035-18.598-3.255l-109.206 109.206v21.853z"/><path d="m236.835 92.912-68.205 68.205v21.853l90.058-90.058z"/></g><path d="m283.43 93.373c11.607 12.182 18.733 28.672 18.733 46.826v53.785c0 20.081-16.278 36.359-36.359 36.359h-97.174v20.604l87.37 18.179 87.37-18.179v-90.144c0-34.806-26.192-63.493-59.94-67.43z" fill="#475959"/><g fill="#404a4a"><path d="m338.699 136.007c-1.986-5.061-4.563-9.825-7.645-14.208l-28.892 28.892v21.853z"/><path d="m181.475 230.343-12.845 12.846v7.758l11.667 2.427 23.03-23.031z"/><path d="m342.695 151.19-40.532 40.532v2.262c0 20.081-16.278 36.359-36.359 36.359h-2.262l-33.402 33.402 18.089 3.764 95.141-95.141v-11.565c0-3.263-.23-6.472-.675-9.613z"/><path d="m295.959 260.812 47.411-47.411v-21.854l-75.006 75.006z"/><path d="m244.363 230.343h-21.853l-26.335 26.335 18.09 3.764z"/><path d="m297.183 114.63c2.225 5.469 3.758 11.294 4.489 17.365l20.487-20.488c-3.777-3.578-7.965-6.726-12.486-9.367z"/><path d="m290.5 102.141 5.934-5.934c-4.172-1.353-8.522-2.312-13.004-2.835 2.59 2.719 4.956 5.652 7.07 8.769z"/></g><path d="m168.63 334.863v57.737c0 37.495 30.396 67.891 67.891 67.891h38.958c37.495 0 67.891-30.396 67.891-67.891v-47.023z" fill="#5766cb"/><path d="m343.4 250.947h-174.8c-7.73 0-13.996 5.947-13.996 13.283 0 7.336 6.266 13.283 13.996 13.283h174.8c7.73 0 13.996-5.947 13.996-13.283 0-7.336-6.266-13.283-13.996-13.283z" fill="#d0e2e7"/><path d="m98.976 342.746h14.243l7.633-36.647h-21.876c-6.396 0-11.581 5.185-11.581 11.581v13.484c0 6.397 5.185 11.582 11.581 11.582z" fill="#d0e2e7"/><circle cx="256" cy="387.14" fill="#dd5790" r="17.109"/><path d="m345.47 345.576h-178.94c-.817 0-1.48-.662-1.48-1.48v-39.348c0-.817.662-1.48 1.48-1.48h178.94c.817 0 1.48.662 1.48 1.48v39.348c0 .818-.663 1.48-1.48 1.48z" fill="#d0e2e7"/><path d="m413.024 342.746h-14.243l-10.323-36.647h24.566c6.396 0 11.581 5.185 11.581 11.581v13.484c0 6.397-5.185 11.582-11.581 11.582z" fill="#d0e2e7"/><path d="m138.974 298.213v101.041c0 48.044 38.947 86.991 86.991 86.991h60.07c48.044 0 86.991-38.947 86.991-86.991 0 0 0-90.804 0-101.049 0-.521.423-.937.944-.937h23.866c.521 0 .944.423.944.944v101.042c0 62.268-50.478 112.745-112.745 112.745h-60.07c-62.268 0-112.745-50.478-112.745-112.745v-101.041c0-.521.416-.944.938-.944h23.879c.521 0 .937.422.937.944z" fill="#f1f4f6"/><path d="m302.163 331.955v15.668c0 50.956-41.308 92.264-92.264 92.264h-14.585c-2.69 0-5.342-.157-7.95-.461 12.366 12.977 29.817 21.065 49.158 21.065h38.958c37.495 0 67.891-30.396 67.891-67.891v-47.023z" fill="#3d4fc3"/><path d="m345.47 303.269h-39.728v3.432c0 10.091-8.181 18.272-18.272 18.272h-122.42v19.124c0 .817.662 1.48 1.48 1.48h178.94c.817 0 1.48-.662 1.48-1.48v-39.348c0-.818-.663-1.48-1.48-1.48z" fill="#b4d0d5"/></g></svg>