<svg height="512" viewBox="0 0 64 64" width="512" xmlns="http://www.w3.org/2000/svg"><g fill="rgb(0,0,0)"><path d="m54.31641 44.24274c-3.63428.01649-7.28649.24842-10.93567.19159.37439-1.34852.83091-3.31416-.16378-4.47664-1.24263-.91875-1.70313 1.07422-1.687 1.98746-.452 7.81823-10.95013 12.64676-16.068 5.88023-1.73776-2.37885-1.791-5.52069-2.61782-8.24738-.99478-.577-.34834 4.097-.19831 4.82416-5.45278-.64749-12.28372 1.6822-16.71726-2.31709-4.201-6.906-1.44872-19.79714-2.0956-27.99114 9.91913.4073 20.08714-.55471 30.0899-.41485a8.09524 8.09524 0 0 1 -.26965-1.53754c-9.89534.19128-20.06568-.222-29.82013 1.08978-.15341-.74509.494-6.00031-.78421-4.30857-.50652 10.7866-2.11856 22.207.625 32.7511 3.66262 6.89251 13.2321 4.0938 19.67445 5.03373a9.382 9.382 0 0 0 9.07855 6.1825 35.08554 35.08554 0 0 0 -.10126 5.69177 26.01185 26.01185 0 0 0 -6.0352.5651c-3.23874 2.58068 9.26382 1.65276 10.34781 1.78022a1.22006 1.22006 0 0 0 .00008-2.43864c-.75275.00573-1.504.03442-2.25556.04876a34.99279 34.99279 0 0 0 -.47894-5.7807 12.026 12.026 0 0 0 8.42462-5.77374c3.99019-.0744 8.0159.14115 11.988-.02115a1.36039 1.36039 0 0 0 -.00002-2.71896z"/><path d="m26.42963 21.518a.834.834 0 0 0 1.38409.80566c10.12849-9.15413 11.11225 5.00127 10.9738 12.38559.50856 5.92287-3.0142 15.36042-9.97914 9.38008-3.29654-3.70875-2.622-9.18094-2.68973-13.82359 2.49738-.42472 4.8799-2.29264 7.02952-3.68382.56583-.38279.95222-1.36813.10731-1.65429-2.69327.37772-4.95693 2.80833-7.1 4.39621.98694-18.4168-2.94591 5.42057-.97478 10.41325 3.14851 13.0196 15.29271 7.63275 15.39495-3.601.20931-5.483.215-11.58694-2.36649-16.55974-2.79116-4.3435-10.36553-2.73935-11.77953 1.94165z"/><path d="m37.33344 28.83319c-.14335-3.11795-12.19027 4.98556-8.25117 4.83637 2.00313-1.44915 7.6941-2.57156 8.25117-4.83637z"/><path d="m36.01874 36.616c.85705-.35344 1.26386-1.67493.188-2.04472-2.18578-.18766-4.03278 1.82406-5.57276 3.15429a.722.722 0 0 0 .87112 1.12907c1.51741-.86583 3.38358-1.54102 4.51364-2.23864z"/><path d="m33.64343 40.28711c-.88741.53994-2.13862 1.3738-2.41386 2.4074.39615 2.11125 2.86749.00811 3.65129-.79767a1.07826 1.07826 0 0 0 -1.23743-1.60973z"/><path d="m38.51965 8.087c-1.44638-.8681-3.43415 5.50716-2.13839 5.9261 1.33601.7593 3.57509-5.55145 2.13839-5.9261z"/><path d="m41.99231 13.05774c-1.04189.48361-3.59678 1.09191-2.97743 2.62572 1.045 1.25974 2.82347-.58382 3.78432-1.23941a.8333.8333 0 0 0 -.80689-1.38631z"/><path d="m41.54883 17.75531c-.97919 2.41837 4.11827 1.5767 3.69135-.29317-.57549-1.4603-2.88148-.44998-3.69135.29317z"/><path d="m61.38055 12.6637c.41474-8.66787-9.42673-8.94253-15.80048-9.22242a306.92842 306.92842 0 0 0 -42.51407 1.46362c-1.02487.18092-.78513 1.85432.24515 1.81129a234.61585 234.61585 0 0 1 37.59616-1.45219c6.36248 1.1816 19.0981-2.70783 18.87769 7.25083q-7.34655-.20434-14.69421-.29309a3.95849 3.95849 0 0 1 -.30029 1.45935q7.48553.07023 14.96667.32721c-.48083 6.75211-.88352 13.508-1.08671 20.2768.17171 1.62214-1.88017 14.61779 1.8724 10.75674 1.16374-10.24574.71237-20.77366.871-31.11557a.77893.77893 0 0 0 -.03331-1.26257z"/><path d="m8.25769 9.02808a.97931.97931 0 1 1 -.34613-.07038.56524.56524 0 0 0 -.42694-.91662 1.95567 1.95567 0 0 0 -1.67962 1.33056c-.70855 2.72516 3.648 3.39563 3.8584.7508.52892-1.80713-2.01533-2.59744-1.40571-1.09436z"/><path d="m13.52138 8.98773a.97931.97931 0 1 1 -.34613-.07038.56524.56524 0 0 0 -.42695-.91662 1.95567 1.95567 0 0 0 -1.67956 1.33056c-.70856 2.72516 3.648 3.39563 3.8584.7508.52886-1.80709-2.01538-2.59741-1.40576-1.09436z"/><path d="m18.53048 8.23238a.97931.97931 0 1 1 -.34614-.07037.56524.56524 0 0 0 -.42694-.91663 1.95567 1.95567 0 0 0 -1.67956 1.33062c-.70856 2.72516 3.648 3.39563 3.8584.75079.52887-1.80718-2.01538-2.59746-1.40576-1.09441z"/><path d="m15.66156 9.77a.19451.19451 0 0 0 .01978.05121.29924.29924 0 0 0 -.01978-.05121z"/></g></svg>