<svg id="Layer_1" enable-background="new 0 0 66 66" height="512" viewBox="0 0 66 66" width="512" xmlns="http://www.w3.org/2000/svg"><path d="m6.558 13.102c-.379 2.874.164 6.162.183 8.133.083 6.462.167 12.924.239 19.386.06 5.669 1.885 7.025 6.474 7.309l19.854 1.264v3.528c-4.154.265-4.215 6.229-3.083 7.935.271.409.658.751 1.111 1.025l-.003.003c-.098.098-.098.256 0 .354.049.049.113.073.177.073s.128-.024.177-.073l.112-.112c.163.072.328.142.504.195 6.482 1.959 8.912-8.221 2.005-9.347v-3.518l12.703.809c7.426.468 12.933-.636 14.441-8.137.447-2.173.404-4.41.363-6.572-.403-21.793-.366-21.127-.445-22.059 4.515-1.392 4.848-6.272.773-8.007-1.359-.573-2.864-.653-4.192-.724-16.812-.89-34.197-1.812-51.15.606-1.403.191-2.759.425-3.919 1.176-2.662 1.724-2.514 5.169.617 6.303.99.369 2.029.418 3.059.45zm26.421 48.149c.064-.097.067-.223-.019-.309l-.088-.088.481-.481.69.69-.066.066c-.047.047-.068.108-.07.168-.311.023-.622.009-.928-.046zm1.84-.12-.067-.067.69-.69.324.324c-.294.185-.613.329-.947.433zm-.421-.421-.69-.69.69-.69.69.69zm1.765-.298c-.009-.013-.006-.03-.017-.042l-.35-.35.725-.725c.15.15.218.265.395.234-.225.368-.425.609-.753.883zm.927-1.198c-.051-.138-1.338-1.393-1.441-1.497.051-.007.104-.02.144-.059l.623-.623c.122.123.645.702.806.702.221 0 .334-.269.177-.427l-.629-.629.489-.489c.352.966.28 2.089-.169 3.022zm-.055-3.508-.62.62-.693-.693c-.098-.098-.256-.098-.354 0s-.098.256 0 .354l.693.693-.623.623c-.049.049-.073.112-.073.176-.092-.042-.199-.043-.275.033-.098.098-.098.256 0 .354l1.076 1.076-.725.725-.69-.69.521-.521c.098-.098.098-.256 0-.354s-.256-.098-.354 0l-.521.521-.136-.136c-.098-.098-.256-.098-.354 0s-.098.256 0 .354l.136.136-.69.69-.484-.484c-.098-.098-.256-.098-.354 0s-.098.256 0 .354l.484.484-.481.481-.901-.901c-.098-.098-.256-.098-.354 0s-.098.256 0 .354l.901.901-.1.1c-.427-.212-.777-.502-1.007-.849-.868-1.31-.848-6.849 2.966-6.369 1.247.158 2.429.948 3.012 1.968zm-30.573-44.442.708.708-.144.144-.273-.008c-.318-.01-.639-.024-.96-.043.002-.037-.017-.067-.031-.102zm11.326-.213 1.204 1.204-.078.078c-.617-.007-1.235-.017-1.852-.025l-.265-.265zm2.725.39.915.915c-.548-.005-1.094-.009-1.643-.014l-.086-.086zm9.438.975c.017-.08.01-.164-.053-.226l-.126-.126c.016-.01.036-.007.05-.021l.85-.85 1.235 1.235c-.576-.003-1.157-.007-1.729-.01-.075-.001-.152-.001-.227-.002zm-.537-.003c-.969-.006-1.945-.012-2.921-.018l-.048-.048c.016-.01.036-.007.05-.021l1.416-1.416zm-17.266-.181.154-.154.161.161c-.105-.002-.21-.005-.315-.007zm-2.077-.047h.002c-.001 0-.001 0-.002 0zm-2.091 28.425c-.244-21.81-.234-19.935-.382-21.797-.145-1.832-.309-3.89-.058-5.683 7.333.196 15.332.246 22.632.287 5.033.028 10.237.058 15.358.137 12.904.211 13.321.288 14.866.005.022.339.029.684.036 1.029l.384 20.789c.013.676.02 1.36.018 2.045l-.824-.824.679-.679c.098-.098.098-.256 0-.354s-.256-.098-.354 0l-.679.679-.104-.104c-.098-.098-.256-.098-.354 0s-.098.256 0 .354l.104.104-.777.777c-.098.098-.098.256 0 .354s.256.098.354 0l.777-.777 1.059 1.059c.031.031.072.035.111.046-.013.687-.041 1.374-.11 2.053l-1.388-1.388c-.098-.098-.256-.098-.354 0s-.098.256 0 .354l.799.799c-.095-.053-.212-.056-.293.025l-1.059 1.059c-.254-.254-.552-.683-.794-.441s.186.54.44.794l-.553.553c-.158.158-.044.427.177.427.161 0 .612-.509.73-.626l1.07 1.07c-.095-.052-.211-.055-.291.026l-.947.947-1.507-1.509c-.232-.232-.588.119-.354.354l1.507 1.507-1.386 1.386-.825-.825.927-.928c.098-.098.098-.256 0-.354s-.256-.098-.353 0l-.927.928-.721-.721c-.098-.098-.256-.098-.353 0-.098.098-.098.256 0 .354l.721.721-1.386 1.386-1.338-1.339c-.098-.098-.256-.098-.354 0s-.098.256 0 .354l1.338 1.339-1.274 1.274-1.611-1.611 3.029-3.029c.098-.098.098-.256 0-.354s-.256-.098-.354 0l-3.029 3.029-.665-.665c-.098-.098-.256-.098-.354 0s-.098.256 0 .354l.665.665-1.611 1.611-1.891-1.891 2.179-2.179c.098-.098.098-.256 0-.354s-.256-.098-.354 0l-2.179 2.179-.272-.272c-.098-.098-.256-.098-.354 0s-.098.256 0 .354l.272.272-.713.713-.881-.881.833-.833c.098-.098.098-.256 0-.354s-.256-.098-.354 0l-.883.883c-.066-.002-.132.02-.183.071s-.072.117-.071.183l-1.66 1.66-1.17-1.17c-.098-.098-.256-.098-.354 0s-.098.256 0 .354l1.17 1.17-.946.945c-.04.04-.052.092-.059.143l-2.686-.171 1.238-1.238.755.755c.098.098.256.098.353 0 .098-.098.098-.256 0-.354l-.755-.755 2.536-2.536c.098-.098.098-.256 0-.354s-.256-.098-.354 0l-2.536 2.536-.609-.609c-.098-.098-.256-.098-.353 0-.098.098-.098.256 0 .354l.609.609-1.066 1.066c-.011-.019-.008-.042-.024-.057l-1.009-1.009 2.062-2.062c.098-.098.098-.256 0-.354s-.256-.098-.354 0l-2.062 2.062-.609-.609c-.098-.098-.256-.098-.354 0s-.098.256 0 .354l.609.609-.656.657-1.162-1.161.65-.65c.098-.098.098-.256 0-.354s-.256-.098-.354 0l-.65.65-.104-.104c-.098-.098-.256-.098-.354 0s-.098.256 0 .354l.104.104-.769.769-.553-.553c-.098-.098-.256-.098-.353 0-.098.098-.098.256 0 .354l.553.553-.582.582-17.818-1.134c-3.99-.249-5.477-1.138-5.531-6.323zm25.131-28.175.569-.569.576.576c-.383-.002-.762-.005-1.145-.007zm4.159-.053c.002 0 .004.002.006.002.064 0 .128-.024.177-.073.05-.05.073-.116.071-.182l1.006-1.006 1.364 1.365c-.903-.009-1.804-.017-2.705-.024zm7.002-.33-1.531-1.531 1.204-1.204 1.806 1.806-1.416 1.416c-1.188-.016-2.377-.031-3.568-.043l1.621-1.62 1.531 1.531c.049.049.113.073.177.073s.128-.024.177-.073c.097-.099.097-.257-.001-.355zm7.496-2.628.743.744-1.664 1.664-.885-.885 1.756-1.756c-.021.082-.015.168.05.233zm2.265 3.044c.049.049.113.073.177.073s.128-.024.177-.073l.212-.212.455.455-3.682-.06c.066-.097.069-.226-.017-.312l-.154-.153 1.664-1.664 1.381 1.381-.212.212c-.099.097-.099.255-.001.353zm2.935.273-.093-.002.874-.874c.104.104.782.804.908.867-.636.025-.991.02-1.689.009zm-.457-.344c-.093.093-.091.238-.007.337l-.813-.013c-.008-.049-.019-.099-.057-.137l-.682-.682 1.417-1.416 1.027 1.027zm-5.559.246-.206-.003.101-.101zm-.458-.458-.425.425c-.005.005-.003.013-.008.019l-1.753-.029 1.3-1.3zm-2.726.248-1.31-1.31 1.487-1.487 1.31 1.31zm-.558.149-1.664-.027c-.171-.003-.342-.004-.513-.007l1.071-1.071zm8.573 35.614-.656-.656 1.386-1.386.989.989c-.53.437-1.109.777-1.719 1.053zm-1.009-1.009-.825-.825 1.386-1.386.825.825zm-14.017 1.479.772-.772.683.683c.098.098.256.098.354 0s.098-.256 0-.354l-.683-.683 1.611-1.611.881.881-1.961 1.961zm-5.91-.376 1.07-1.07 1.009 1.009c.016.016.039.013.057.024l-.163.163zm-2.065-.131c.04-.011.083-.016.115-.048.098-.098.098-.256 0-.354l-.273-.273.769-.769 1.162 1.161-.16.16c-.061.061-.07.142-.055.221zm-.239-.048c.025.025.06.026.092.038l-.636-.041.271-.271zm14.531.958-3.997-.254 1.65-1.65 1.153 1.153c.098.098.256.098.354 0s.098-.256 0-.354l-1.153-1.153.713-.713 1.891 1.891-.272.272c-.098.098-.098.256 0 .354s.256.098.354 0l.272-.272.341.341c.098.098.256.098.354 0s.098-.256 0-.354l-.341-.341 1.611-1.611 1.611 1.611-.384.384c-.098.098-.098.256 0 .354s.256.098.353 0l.385-.384.401.401c.098.098.256.098.354 0s.098-.256 0-.354l-.401-.401 1.274-1.274 1.699 1.699c-2.38.903-5.247.842-8.222.655zm10.802-2.259-1.009-1.009 1.386-1.386.792.792c.025.025.06.026.091.038-.339.554-.757 1.084-1.26 1.565zm2.597-5.079c-.182.908-.517 2.021-1.099 3.098l-.768-.767.947-.947c.08-.08.078-.196.026-.291l.019.019c.098.098.256.098.354 0s.098-.256 0-.353l-1.177-1.178 1.058-1.059c.081-.081.079-.198.025-.293l.536.536c.103.103.171.073.262.038-.05.401-.101.802-.182 1.196-.001-.001-.001 0-.001.001zm1.194-29.581c-.001 0-.002 0-.002.001-.86.376-1.839.522-2.773.572.162-.103.148-.273.048-.373l-.838-.838 1.806-1.805 1.133 1.133-.425.425c-.158.158-.044.427.177.427.064 0 .128-.024.177-.073l.425-.425.439.439c.098.098.256.098.353 0 .098-.098.098-.256 0-.354l-.439-.439 1.239-1.239c.119.119.346.397.5.397.064 0 .128-.025.177-.073.098-.098.098-.256 0-.354l-.323-.323.607-.607c.295 1.535-.946 2.931-2.281 3.509zm-.206-3.996c.016-.016.013-.038.023-.057l1.15 1.15-1.239 1.239-1.133-1.133zm-58.035-.966c3.265-2.114 23.134-2.56 27.81-2.56 8.943 0 17.881.474 26.662.939 1.795.095 4.861.202 5.885 2.532l-.794.795-1.381-1.381c-.098-.098-.256-.098-.354 0-.068.068-.071.16-.045.246-.035.012-.073.014-.101.042l-1.2 1.199-.496-.495c-.098-.098-.256-.098-.354 0s-.098.256 0 .353l.496.496-1.806 1.806-1.027-1.027 1.278-1.278c.098-.098.098-.256 0-.354s-.256-.098-.354 0l-1.278 1.278-.706-.709c-.098-.098-.256-.098-.354 0s-.098.256 0 .354l.708.708-1.416 1.416-1.381-1.381 1.05-1.05c.098-.098.098-.256 0-.353-.098-.098-.256-.098-.354 0l-1.05 1.05-.743-.744c-.064-.064-.151-.07-.233-.05l.321-.321c.098-.098.098-.256 0-.353-.098-.098-.256-.098-.354 0l-2.247 2.247-1.31-1.31.544-.544c.098-.098.098-.256 0-.354s-.256-.098-.353 0l-.544.544-.071-.071c-.098-.098-.256-.098-.354 0s-.098.256 0 .354l.071.071-1.487 1.487-1.806-1.806.017-.017c.098-.098.098-.256 0-.354s-.256-.098-.354 0l-.061.061c-.073-.009-.148.006-.204.062s-.071.131-.062.204l-1.248 1.248-.673-.673c-.098-.098-.256-.098-.354 0s-.098.256 0 .354l.673.673-1.699 1.699-1.452-1.451 1.993-1.993c.098-.098.098-.256 0-.354s-.256-.098-.354 0l-1.993 1.993c-.098-.098-.256-.098-.353 0-.098.098-.098.256 0 .354l-.956.956-1.31-1.31c-.098-.098-.256-.098-.354 0s-.098.256 0 .354l1.31 1.31-.319.319c-.017.017-.014.041-.025.061-.606-.004-1.211-.009-1.815-.013.05-.094.052-.208-.027-.287l-.646-.646 3.25-3.25c.098-.098.098-.256 0-.353-.098-.098-.256-.098-.354 0l-3.25 3.25-.885-.885c-.098-.098-.256-.098-.354 0s-.098.256 0 .354l.885.885-.673.673c-.068.068-.071.161-.044.247-.024 0-.047 0-.071 0-.009-.047-.018-.096-.055-.133l-1.459-1.459 1.914-1.914c.098-.098.098-.256 0-.354s-.256-.098-.354 0l-1.914 1.914-.213-.213c-.098-.098-.256-.098-.354 0s-.098.256 0 .354l.213.213-.85.85c-.014.014-.011.034-.021.05l-1.183-1.183 1.746-1.746c.098-.098.098-.256 0-.354s-.256-.098-.354 0l-1.746 1.746c-.098-.098-.256-.098-.354 0s-.098.256 0 .353l-1.416 1.416c-.014.014-.011.034-.021.05l-1.537-1.537c-.098-.098-.256-.098-.353 0-.098.098-.098.256 0 .353l1.551 1.551c-1.157-.007-2.317-.018-3.481-.027.03-.012.065-.012.089-.037l3.336-3.337c.098-.098.098-.256 0-.354s-.256-.098-.354 0l-3.336 3.336c-.065.065-.071.152-.049.234l-1.12-1.12 1.607-1.606c.098-.098.098-.256 0-.354s-.256-.098-.354 0l-1.65 1.65c-.073-.009-.147.006-.204.062-.056.056-.071.13-.062.204l-.858.858-1.204-1.204 1.033-1.032c.098-.098.098-.256 0-.354s-.256-.098-.354 0l-2.378 2.377-.779-.779c-.098-.098-.256-.098-.353 0-.098.098-.098.256 0 .353l.779.779c-.069.069-.072.163-.043.25-.697-.01-1.393-.018-2.09-.03l1.861-1.861c.098-.098.098-.256 0-.354s-.256-.098-.353 0l-2.205 2.205c-.025 0-.05-.001-.076-.001l-.528-.528 1.41-1.409c.098-.098.098-.256 0-.354s-.256-.098-.353 0l-1.41 1.409-.106-.106c-.098-.098-.256-.098-.353 0-.098.098-.098.256 0 .353l.106.106-.46.46c-.009.009-.006.022-.013.032-.226-.004-.452-.01-.679-.015l-.371-.371 1.362-1.362c.098-.098.098-.256 0-.354s-.256-.098-.354 0l-1.362 1.362-.566-.566c-.098-.098-.256-.098-.354 0s-.098.256 0 .353l.566.566-.333.344c-.445-.01-.891-.019-1.335-.03l-.167-.167 1.864-1.864c.098-.098.098-.256 0-.354s-.256-.098-.354 0l-1.864 1.864-.708-.708.744-.744c.098-.098.098-.256 0-.353-.098-.098-.256-.098-.353 0l-1.77 1.77-.46-.46c-.098-.098-.256-.098-.353 0-.098.098-.098.256 0 .354l.46.46-.054.051c-.408-.056-.809-.135-1.186-.276-2.403-.87-2.344-3.277-.418-4.525z"/><path d="m53.213 34.85c3.25-2.819 4.744-7.658 3.91-11.243-.865-3.718-4.326-6.697-8.417-7.243-4.345-.579-9.789 1.725-11.712 5.118-1.424 2.512-1.795 5.632-.993 8.344 2.207 7.453 11.442 10.034 17.212 5.024zm2.936-11.017c.714 3.071-.504 6.818-2.554 9.213-2.491-2.083-4.753-3.804-7.068-5.745l.38-10.02c4.717-.15 8.429 3.057 9.242 6.552zm-10.244-6.474-.385 10.149c-.006.154.059.302.177.401 2.364 1.993 4.646 3.725 7.193 5.852-.113.108-.214.232-.332.334-5.278 4.582-13.614 2.151-15.599-4.554-1.565-5.29 1.419-11.255 8.946-12.182z"/><path d="m17.501 21.191c-2.182-.229-4.163-.228-6.057 0-.678.082-.428-.716-.656 21.647-.003.259.179.486.511.505 1.97-.043 3.883.043 5.945 0 .27-.006.486-.225.489-.495l.216-21.155c.002-.258-.191-.475-.448-.502zm-.763 21.161c-1.674.021-3.211-.036-4.944-.017l.206-20.199c1.555-.157 3.182-.155 4.945.005z"/><path d="m25.957 26.483c-2.172-.17-4.146-.17-6.029 0-.255.023-.452.235-.455.491l-.216 15.866c-.004.285.239.524.508.507 1.953-.034 3.903.033 5.945 0 .271-.004.488-.223.492-.493l.216-15.865c.004-.264-.198-.485-.461-.506zm-.748 15.869c-1.725.015-3.154-.026-4.945-.012l.203-14.897c1.555-.118 3.182-.117 4.945.003z"/><path d="m34.382 43.349c.27-.003.489-.22.495-.49l.216-10.577c.005-.27-.204-.496-.474-.51-2.165-.112-4.126-.113-6.001 0-.26.016-.464.229-.47.489l-.216 10.577c-.005.277.215.512.505.51 2.043-.02 4.01.023 5.945.001zm-5.44-1.004.196-9.599c1.557-.079 3.182-.077 4.945.002l-.196 9.605c-1.618.012-2.914-.016-4.945-.008z"/><path d="m19.461 19.209v-1.196h2.753v1.368c0 .138.112.25.25.25s.25-.112.25-.25v-1.368h2.405v1.358c0 .138.112.25.25.25s.25-.112.25-.25v-1.358h2.405v1.758c0 .138.112.25.25.25s.25-.112.25-.25v-1.758h6.022c.138 0 .25-.112.25-.25s-.112-.25-.25-.25h-6.022v-1.028c0-.138-.112-.25-.25-.25s-.25.112-.25.25v1.028h-2.405v-.68c0-.138-.112-.25-.25-.25s-.25.112-.25.25v.68h-2.405v-1.26c0-.138-.112-.25-.25-.25s-.25.112-.25.25v1.26h-2.753v-1.609c0-.138-.112-.25-.25-.25s-.25.112-.25.25v1.609h-3.584c-.138 0-.25.112-.25.25s.112.25.25.25h3.584v1.196c0 .138.112.25.25.25s.25-.112.25-.25z"/></svg>