<svg id="FILLED_COLOR" viewBox="0 0 128 128" xmlns="http://www.w3.org/2000/svg"><g><g><g><g><path d="m40.54 96.62h46.92a2 2 0 0 1 2 2v7.38a3 3 0 0 1 -3 3h-44.92a3 3 0 0 1 -3-3v-7.38a2 2 0 0 1 2-2z" fill="#c5d0f3"/><path d="m84.09 109v9.37a3 3 0 0 1 -3 3h-34.18a3 3 0 0 1 -3-3v-9.37z" fill="#b4c3f3"/></g><path d="m105.66 48.31a41.66 41.66 0 1 0 -77.33 21.53c6.84 11.72 11.94 21.25 12.45 26.78h46.45c.51-5.54 5.61-15.07 12.45-26.78a41.52 41.52 0 0 0 5.98-21.53z" fill="#4bd8bd"/></g><g fill="#b4c3f3"><path d="m79.42 102.8a.56.56 0 1 1 -1.11 0 .56.56 0 0 1 1.11 0z"/><path d="m83.14 102.8a.56.56 0 0 1 -1.12 0 .56.56 0 0 1 1.12 0z"/><path d="m86.86 102.8a.56.56 0 0 1 -1.12 0 .56.56 0 0 1 1.12 0z"/></g></g><g><g fill="#83d5ff"><g><path d="m22.75 32.49a3.24 3.24 0 1 1 -3.24-3.23 3.24 3.24 0 0 1 3.24 3.23z"/><path d="m22.75 70.79a3.24 3.24 0 1 0 -3.24 3.21 3.24 3.24 0 0 0 3.24-3.21z"/><path d="m13.77 51.64a3.24 3.24 0 1 1 -3.23-3.24 3.23 3.23 0 0 1 3.23 3.24z"/></g><g><path d="m105.25 70.79a3.24 3.24 0 1 1 3.24 3.21 3.24 3.24 0 0 1 -3.24-3.21z"/><path d="m105.25 32.49a3.24 3.24 0 1 0 3.24-3.23 3.24 3.24 0 0 0 -3.24 3.23z"/><path d="m114.23 51.64a3.24 3.24 0 1 1 3.23 3.23 3.24 3.24 0 0 1 -3.23-3.23z"/></g></g><path d="m99.86 45.71-5.86-2.36a2.4 2.4 0 0 1 -1.4-1.5 30.31 30.31 0 0 0 -1.44-3.48 2.43 2.43 0 0 1 -.16-2.06l2.51-5.84a2.41 2.41 0 0 0 -.5-2.65l-5.19-5.22a2.37 2.37 0 0 0 -2.66-.51l-5.84 2.51a2.45 2.45 0 0 1 -2-.07 31.07 31.07 0 0 0 -3.48-1.44 2.48 2.48 0 0 1 -1.51-1.41l-2.35-5.91a2.41 2.41 0 0 0 -2.24-1.51h-7.43a2.41 2.41 0 0 0 -2.24 1.51l-2.35 5.91a2.49 2.49 0 0 1 -1.5 1.41 30.46 30.46 0 0 0 -3.49 1.44 2.45 2.45 0 0 1 -2 .07l-5.84-2.51a2.37 2.37 0 0 0 -2.66.51l-5.23 5.22a2.41 2.41 0 0 0 -.5 2.65l2.5 5.84a2.43 2.43 0 0 1 -.07 2.06 30.31 30.31 0 0 0 -1.44 3.48 2.4 2.4 0 0 1 -1.4 1.5l-5.91 2.36a2.4 2.4 0 0 0 -1.56 2.29v7.38a2.4 2.4 0 0 0 1.52 2.24l5.91 2.36a2.4 2.4 0 0 1 1.4 1.49 29.74 29.74 0 0 0 1.44 3.49 2.41 2.41 0 0 1 .11 2.04l-2.51 5.85a2.41 2.41 0 0 0 .5 2.65l5.23 5.22a2.39 2.39 0 0 0 2.66.51l5.84-2.52a2.49 2.49 0 0 1 2 .07 32.43 32.43 0 0 0 3.49 1.45 2.47 2.47 0 0 1 1.5 1.4l2.35 5.91a2.4 2.4 0 0 0 2.25 1.46h7.38a2.4 2.4 0 0 0 2.24-1.52l2.35-5.91a2.46 2.46 0 0 1 1.51-1.4 33.14 33.14 0 0 0 3.48-1.45 2.49 2.49 0 0 1 2-.07l5.84 2.52a2.39 2.39 0 0 0 2.66-.51l5.23-5.22a2.41 2.41 0 0 0 .5-2.65l-2.5-5.79a2.41 2.41 0 0 1 .07-2 29.74 29.74 0 0 0 1.44-3.49 2.4 2.4 0 0 1 1.49-1.58l5.91-2.36a2.4 2.4 0 0 0 1.52-2.24v-7.33a2.4 2.4 0 0 0 -1.57-2.29zm-35.86 28.35a22.42 22.42 0 1 1 22.43-22.42 22.42 22.42 0 0 1 -22.43 22.42z" fill="#336cbd"/></g></g><g><path d="m58.38 45.31v2.93l2.62-1.39v-.14zm8.62 11.12v.13l2.63 1.44v-3z" fill="#fff"/><path d="m69.63 61v1.26a5.63 5.63 0 1 1 -11.25 0v-11l2.62-1.42v12.37a3 3 0 0 0 3 3 3 3 0 0 0 3-3v-2.65z" fill="#fff"/><path d="m61.16 56.5-.13.07v3l2.97-1.57zm2.84-11.22 2.85 1.5.13-.07v-3z" fill="#e2e7f3"/><path d="m67 46.85v3l-1.58-.85-1.42-.72-2.84-1.5-.16-.07-2.65-1.4-2.35-1.23a3 3 0 0 0 -2.77 5.27l1.51.79-2.74 1.45h-.1a5.62 5.62 0 0 1 5.33-9.9l1.12.58 2.65 1.45 3 1.56 2.85 1.5z" fill="#edf2ff"/><path d="m76.07 51.64h-.09l-2.74 1.45-3.61 1.91-2.63 1.43-.13.07-2.87-1.5 1.42-.75 1.58-.81 2.63-1.44.76-.4 2.85-1.5 1.51-.79a3 3 0 0 0 1.45-1.76 2.89 2.89 0 0 0 -.2-2.22 3 3 0 0 0 -4-1.25l-2.35 1.24v-3l1.11-.58a5.62 5.62 0 0 1 5.33 9.9z" fill="#e2e7f3"/><path d="m69.63 48.24v3l.76.4 2.85-1.5zm-12 3.4-2.84 1.5 3.59 1.86v-3z" fill="#edf2ff"/><path d="m69.63 41.06v10.94l-2.63 1.44v-12.38a3 3 0 0 0 -6 0v2.66l-2.65-1.4v-1.26a5.63 5.63 0 0 1 11.25 0z" fill="#fff"/><path d="m78.34 59.18a5.63 5.63 0 0 1 -7.6 2.36l-1.11-.54-2.63-1.44-3-1.56-2.84-1.5-.16-.07v-3l1.54.81 1.46.76 2.85 1.5.13.06 2.65 1.44 2.37 1.2a3 3 0 0 0 4-1.2 2.92 2.92 0 0 0 .21-2.27 3 3 0 0 0 -1.45-1.75l-1.51-.79 2.75-1.5h.09a5.63 5.63 0 0 1 2.25 7.49z" fill="#edf2ff"/><path d="m64 48.28-1.39.72-1.61.84-2.65 1.4-.77.4-2.84 1.5-1.51.79a2.91 2.91 0 0 0 -1.45 1.75 3 3 0 0 0 4.22 3.52l2.38-1.2v3l-1.12.59a5.62 5.62 0 0 1 -5.33-9.9h.1l2.74-1.45 3.61-1.9 2.62-1.49.13-.07z" fill="#e2e7f3"/><g fill="#41bda5"><path d="m61.16 46.78-.13.07v-.14z"/><path d="m66.98 56.43v.13l-.13-.06z"/></g></g><g><path d="m66.12 120.85h-5a.5.5 0 0 0 0 1h5a.5.5 0 0 0 0-1z"/><path d="m58.52 114.67h-9.81a.5.5 0 0 0 -.5.5.5.5 0 0 0 .5.5h9.81a.5.5 0 0 0 .5-.5.5.5 0 0 0 -.5-.5z"/><path d="m78.86 102.25a.55.55 0 0 0 -.55.55.56.56 0 1 0 1.11 0 .55.55 0 0 0 -.56-.55z"/><path d="m82.58 102.25a.55.55 0 0 0 -.56.55.56.56 0 0 0 1.12 0 .55.55 0 0 0 -.56-.55z"/><path d="m86.3 102.25a.55.55 0 0 0 -.56.55.56.56 0 0 0 1.12 0 .55.55 0 0 0 -.56-.55z"/><path d="m117.46 47.9a3.73 3.73 0 0 0 -3.68 3.24h-7.73c.07-.89.11-1.81.11-2.83a42.18 42.18 0 0 0 -1.53-11.26l1.61-1.6a3.67 3.67 0 0 0 2.25.78 3.74 3.74 0 1 0 -3.74-3.74 3.67 3.67 0 0 0 .78 2.25l-1.23 1.26a42.15 42.15 0 0 0 -34.18-29.4.49.49 0 0 0 -.57.42.5.5 0 0 0 .43.56 41.18 41.18 0 0 1 33.53 29.19l-2.34 2.33h-9.17c-.14-.32-.28-.64-.43-1a1.89 1.89 0 0 1 -.06-1.64l2.49-5.79a2.9 2.9 0 0 0 -.62-3.2l-5.21-5.22a2.9 2.9 0 0 0 -3.17-.62l-5.84 2.51a2 2 0 0 1 -1.63-.05 30.21 30.21 0 0 0 -3.53-1.47 2 2 0 0 1 -1.2-1.12l-2.36-5.91a2.9 2.9 0 0 0 -2.7-1.83h-7.43a2.9 2.9 0 0 0 -2.7 1.83l-2.35 5.9a2 2 0 0 1 -1.2 1.13 29.39 29.39 0 0 0 -3.55 1.47 2 2 0 0 1 -1.63.05l-5.88-2.51a2.88 2.88 0 0 0 -3.21.62l-5.22 5.21a2.92 2.92 0 0 0 -.57 3.21l2.51 5.84a1.89 1.89 0 0 1 -.06 1.64c-.15.31-.29.63-.43 1h-9.19l-2.35-2.33a41.27 41.27 0 0 1 36.52-29.56.5.5 0 0 0 .46-.54.52.52 0 0 0 -.54-.46 42.27 42.27 0 0 0 -37.23 29.74l-1.22-1.22a3.67 3.67 0 0 0 .78-2.25 3.74 3.74 0 1 0 -3.74 3.74 3.67 3.67 0 0 0 2.25-.78l1.61 1.61a42.05 42.05 0 0 0 -1.53 11.25c0 1 0 1.94.11 2.83h-7.73a3.73 3.73 0 1 0 0 1h7.78a41.6 41.6 0 0 0 3 12.38l-3.31 3.31a3.67 3.67 0 0 0 -2.25-.78 3.74 3.74 0 1 0 3.74 3.74 3.67 3.67 0 0 0 -.78-2.25l3-3a42.82 42.82 0 0 0 2.45 4.42.25.25 0 0 0 0 .07c6.9 11.78 11.62 20.74 12.35 26.09a2.49 2.49 0 0 0 -2.2 2.46v7.38a3.5 3.5 0 0 0 3.5 3.5h1.87v8.87a3.5 3.5 0 0 0 3.5 3.5h5.13a.5.5 0 0 0 0-1h-5.09a2.5 2.5 0 0 1 -2.5-2.5v-8.87h39.18v5.19h-19.59a.5.5 0 0 0 -.5.5.5.5 0 0 0 .5.5h19.59v2.68a2.5 2.5 0 0 1 -2.5 2.5h-5.85a.5.5 0 1 0 0 1h5.85a3.5 3.5 0 0 0 3.5-3.5v-3.18-5.68h1.87a3.5 3.5 0 0 0 3.54-3.51v-7.38a2.48 2.48 0 0 0 -2.16-2.46c.74-5.39 5.46-14.33 12.31-26.06a.25.25 0 0 0 0-.07 43 43 0 0 0 2.34-4.53l3 3a3.67 3.67 0 0 0 -.78 2.25 3.74 3.74 0 1 0 3.74-3.74 3.67 3.67 0 0 0 -2.25.78l-3.31-3.31a41.6 41.6 0 0 0 3-12.38h7.81a3.73 3.73 0 1 0 3.68-4.24zm-9-18.14a2.74 2.74 0 1 1 -2.74 2.73 2.73 2.73 0 0 1 2.77-2.73zm-7.08 10.34a.47.47 0 0 0 .35-.15l2.08-2.06a41.36 41.36 0 0 1 1.35 10.42c0 1 0 1.94-.11 2.83h-3.17v-3.14a2.87 2.87 0 0 0 -1.83-2.7l-5.92-2.37a1.9 1.9 0 0 1 -1.13-1.24c-.19-.56-.39-1.08-.6-1.59zm-66.47-9.83a1.91 1.91 0 0 1 .4-2.1l5.23-5.17a1.86 1.86 0 0 1 2.1-.4l5.84 2.51a3 3 0 0 0 2.52-.11 29.8 29.8 0 0 1 3.43-1.43 2.94 2.94 0 0 0 1.8-1.7l2.31-5.87a1.91 1.91 0 0 1 1.77-1.19h7.38a1.91 1.91 0 0 1 1.77 1.19l2.36 5.92a3 3 0 0 0 1.81 1.69 29.64 29.64 0 0 1 3.42 1.39 3 3 0 0 0 2.47.07l5.84-2.51a1.88 1.88 0 0 1 2.11.4l5.22 5.23a1.89 1.89 0 0 1 .4 2.09l-2.51 5.84a3 3 0 0 0 .08 2.48 31 31 0 0 1 1.42 3.4 2.86 2.86 0 0 0 1.68 1.8l5.91 2.36a1.88 1.88 0 0 1 1.2 1.77v7.38a1.9 1.9 0 0 1 -1.21 1.78l-5.9 2.35a2.93 2.93 0 0 0 -1.69 1.8 30.18 30.18 0 0 1 -1.42 3.43 2.93 2.93 0 0 0 -.08 2.47l2.52 5.86a1.91 1.91 0 0 1 -.4 2.1l-5.23 5.22a1.9 1.9 0 0 1 -2.1.4l-5.84-2.52a3 3 0 0 0 -2.47.08 32.73 32.73 0 0 1 -3.42 1.43 2.89 2.89 0 0 0 -1.81 1.69l-2.36 5.91a1.88 1.88 0 0 1 -1.77 1.2h-7.38a1.88 1.88 0 0 1 -1.77-1.2l-2.36-5.91a2.94 2.94 0 0 0 -1.8-1.68 33.83 33.83 0 0 1 -3.38-1.43 3.16 3.16 0 0 0 -1.38-.29 3 3 0 0 0 -1.14.23l-5.84 2.52a1.9 1.9 0 0 1 -2.11-.4l-5.22-5.22a1.91 1.91 0 0 1 -.4-2.1l2.51-5.85a2.93 2.93 0 0 0 -.08-2.47c-.2-.39-.38-.79-.55-1.21-.32-.72-.6-1.44-.87-2.22a2.9 2.9 0 0 0 -1.68-1.79l-5.92-2.39a1.88 1.88 0 0 1 -1.2-1.77v-7.33a1.9 1.9 0 0 1 1.21-1.78l5.9-2.35a2.89 2.89 0 0 0 1.69-1.87 32.21 32.21 0 0 1 1.42-3.42 3 3 0 0 0 .08-2.48zm-18.13 2.22a2.74 2.74 0 1 1 2.73 2.74 2.73 2.73 0 0 1 -2.73-2.74zm6.06 15.82a41.36 41.36 0 0 1 1.35-10.42l2.08 2.11a.47.47 0 0 0 .35.15h9c-.21.51-.41 1-.6 1.59a1.93 1.93 0 0 1 -1.12 1.2l-5.9 2.3a2.89 2.89 0 0 0 -1.88 2.76v3.19h-3.12c-.12-.94-.16-1.86-.16-2.88zm-12.3 6.06a2.74 2.74 0 1 1 2.73-2.74 2.73 2.73 0 0 1 -2.73 2.74zm12.46-2.23h3.09v3.19a2.87 2.87 0 0 0 1.91 2.67l5.92 2.37a1.91 1.91 0 0 1 1.08 1.21c.18.56.39 1.08.6 1.6h-9a.47.47 0 0 0 -.35.15l-.43.42a40.57 40.57 0 0 1 -2.82-11.61zm-3.49 21.38a2.74 2.74 0 1 1 2.74-2.73 2.74 2.74 0 0 1 -2.74 2.73zm69.49 25.1v7.38a2.5 2.5 0 0 1 -2.5 2.5h-44.96a2.5 2.5 0 0 1 -2.54-2.5v-2.7h36.71a.5.5 0 0 0 0-1h-36.71v-3.68a1.5 1.5 0 0 1 1.5-1.5h46.96a1.5 1.5 0 0 1 1.54 1.5zm10.28-29a.36.36 0 0 0 0 .09c-6.98 11.78-11.74 20.82-12.49 26.41h-45.57c-.72-5.5-5.49-14.57-12.42-26.45a.36.36 0 0 0 0-.09 41.52 41.52 0 0 1 -2.5-4.83l.57-.57h9.13c.14.32.28.64.43.95a1.87 1.87 0 0 1 .06 1.63l-2.49 5.85a2.89 2.89 0 0 0 .62 3.2l5.2 5.19a2.92 2.92 0 0 0 3.22.62l5.84-2.52a1.94 1.94 0 0 1 1.63.06 33 33 0 0 0 3.55 1.47 2 2 0 0 1 1.19 1.11l2.35 5.91a2.89 2.89 0 0 0 2.71 1.84h7.38a2.86 2.86 0 0 0 2.7-1.84l2.35-5.9a2 2 0 0 1 1.26-1.09 34.84 34.84 0 0 0 3.53-1.47 2 2 0 0 1 1.63-.06l5.84 2.52a2.88 2.88 0 0 0 3.17-.65l5.22-5.22a2.89 2.89 0 0 0 .62-3.2l-2.51-5.82a1.87 1.87 0 0 1 .06-1.63c.15-.31.29-.63.43-.95h9.18l.57.57a40.22 40.22 0 0 1 -2.5 4.84zm12 1.2a2.74 2.74 0 1 1 -2.73-2.74 2.74 2.74 0 0 1 2.67 2.71zm-9.06-7-.43-.42a.47.47 0 0 0 -.35-.15h-9c.21-.52.42-1 .6-1.6a1.94 1.94 0 0 1 1.12-1.19l5.84-2.46a2.89 2.89 0 0 0 1.84-2.71v-3.15h3.16a40.65 40.65 0 0 1 -2.84 11.61zm15.3-9.38a2.73 2.73 0 0 1 -2.73-2.72 2.74 2.74 0 1 1 2.73 2.74z"/><path d="m64 74.56a22.92 22.92 0 1 0 -22.93-22.92 23 23 0 0 0 22.93 22.92zm0-44.84a21.92 21.92 0 1 1 -21.93 21.92 21.95 21.95 0 0 1 21.93-21.92z"/><path d="m49.22 59.42a6.14 6.14 0 0 0 8.28 2.58l.38-.2v.43a6.13 6.13 0 1 0 12.25 0v-.43l.38.2a6.12 6.12 0 0 0 6.49-10.36 6.12 6.12 0 0 0 -6.48-10.35l-.38.21v-.44a6.13 6.13 0 0 0 -12.25 0v.43l-.38-.2a6.12 6.12 0 0 0 -6.51 10.35 6.15 6.15 0 0 0 -1.78 7.78zm7.78 1.68a5.12 5.12 0 1 1 -4.74-9.1l8.9-4.68 1.77.93-9.93 5.24a3.47 3.47 0 1 0 3.23 6.15l1.62-.85v1.86zm16.21-7.4 1.28.67a2.48 2.48 0 0 1 -2.31 4.38l-2.08-1.09v-2.32zm-18.47 0 3.11 1.64v2.32l-2.05 1.09a2.48 2.48 0 1 1 -2.31-4.38zm2.84-1.5.27.14v1.87l-2-1.07zm3.92 5.06 1.4.73-1.4.74zm0 2.6 2.5-1.3 2.48 1.3v2.35a2.48 2.48 0 1 1 -5 0zm7.6-2.73-1.2-.63 1.2-.63zm1-6.19v-1.87l2 1.07-1.78.94zm3.11-1.36-3.11-1.64v-2.32l2.08-1.1a2.48 2.48 0 0 1 2.31 4.38zm-9.21 4.86-2.47-1.31v-3l2.47-1.29 2.48 1.3v3zm2.48-8.44-1.4-.74 1.4-.73zm0-2.6-2.48 1.32-2.47-1.31v-2.35a2.48 2.48 0 0 1 5 0zm-6.39 3.36-1.21.63v-1.24zm-2.21 1.16-3.11 1.64-1.28-.68a2.46 2.46 0 0 1 -1.21-1.45 2.53 2.53 0 0 1 .17-1.89 2.49 2.49 0 0 1 3.35-1l2.08 1.1zm11.25 14.29a5.13 5.13 0 1 1 -10.25 0v-10.67l1.65-.87v11.54a3.48 3.48 0 1 0 7 0v-1.82l1.65.87zm8.76-3.21a5.11 5.11 0 0 1 -6.89 2.1l-9.45-5v-1.84l10.21 5.38a3.48 3.48 0 0 0 3.24-6.15l-.67-.35 1.75-.93a5.15 5.15 0 0 1 1.81 6.79zm-6.89-16.82a5.12 5.12 0 0 1 4.85 9h-.08l-8.9 4.68-1.79-.86 9.92-5.21a3.48 3.48 0 0 0 -3.24-6.15l-1.61.85v-1.86zm-12.1-1.12a5.13 5.13 0 0 1 10.25 0v10.68l-1.65.87v-11.55a3.47 3.47 0 0 0 -3.5-3.47 3.47 3.47 0 0 0 -3.47 3.47v1.83l-1.65-.89zm-8.77 3.27a5.12 5.12 0 0 1 6.87-2.15l9.45 5v1.82l-10.19-5.36a3.47 3.47 0 0 0 -4.93 4.11 3.44 3.44 0 0 0 1.7 2l.67.35-1.76.92a5.15 5.15 0 0 1 -1.83-6.69z"/></g></svg>