<svg id="Layer_1" enable-background="new 0 0 64 64" height="512" viewBox="0 0 64 64" width="512" xmlns="http://www.w3.org/2000/svg"><g><path d="m16.49 16.94c.25.25.58.38 1 .38s.75-.13 1-.38.38-.64.4-1.16c.02-.46.02-.8.02-1s-.01-.52-.02-.97c-.02-.52-.15-.91-.4-1.16s-.58-.38-1-.38-.75.13-1 .38-.38.64-.4 1.16c-.01.22-.01.55-.01.97 0 .43 0 .76.01 1 .02.52.15.91.4 1.16z"/><path d="m57 39.79v-1.86c0-2.17-1.76-3.93-3.93-3.93h-11.14c-2.17 0-3.93 1.76-3.93 3.93v1.84h-24.77c-2.33 0-4.23 1.9-4.23 4.23v9.77c0 2.33 1.9 4.23 4.23 4.23h43.54c2.33 0 4.23-1.9 4.23-4.23v-9.77c0-2.25-1.78-4.09-4-4.21zm-41 9.98h16c.55 0 1 .45 1 1s-.45 1-1 1h-16c-.55 0-1-.45-1-1s.45-1 1-1zm-1-3c0-.55.45-1 1-1h9c.55 0 1 .45 1 1s-.45 1-1 1h-9c-.55 0-1-.45-1-1zm25-8.84c0-1.06.87-1.93 1.93-1.93h11.14c1.06 0 1.93.87 1.93 1.93v11.14c0 1.06-.87 1.93-1.93 1.93h-11.14c-1.06 0-1.93-.87-1.93-1.93z"/><path d="m43.53 47h1.56c.19 0 .33-.09.41-.26l.43-1.16h3.14l.43 1.16c.08.18.22.26.41.26h1.56c.06 0 .12-.03.17-.08s.08-.11.08-.17c0-.05 0-.08-.01-.11l-2.8-7.69c-.08-.23-.24-.35-.48-.35h-1.87c-.24 0-.4.12-.48.35l-2.8 7.69c-.01.02-.01.06-.01.11 0 .06.03.12.08.17.06.05.11.08.18.08zm3.97-6.29 1.07 3.06h-2.14z"/><path d="m55 25.77v-9.77c0-2.33-1.9-4.23-4.23-4.23h-23.77v-1.84c0-2.17-1.76-3.93-3.93-3.93h-11.14c-2.17 0-3.93 1.76-3.93 3.93v1.86c-2.22.13-4 1.96-4 4.21v9.77c0 2.33 1.9 4.23 4.23 4.23h42.54c2.33 0 4.23-1.9 4.23-4.23zm-41.25-11.99c.04-1.06.39-1.87 1.06-2.44.66-.57 1.56-.86 2.68-.86s2.01.29 2.68.86c.66.57 1.02 1.39 1.06 2.44.02.46.02.81.02 1.04 0 .24-.01.58-.02 1.03-.05.98-.34 1.74-.88 2.29l.89 1.26c.02.05.04.09.04.12v.04c0 .06-.02.11-.07.15s-.1.07-.17.07h-1.66c-.11 0-.2-.03-.27-.08s-.13-.12-.19-.2l-.41-.53c-.3.1-.64.14-1.02.14-1.14 0-2.03-.28-2.69-.83s-1-1.36-1.04-2.44c-.01-.22-.01-.57-.01-1.03s-.01-.8 0-1.03zm-7.75 11.99v-9.77c0-1.15.88-2.09 2-2.21v7.28c0 2.17 1.76 3.93 3.93 3.93h11.14c2.17 0 3.93-1.76 3.93-3.93v-7.3h23.77c1.23 0 2.23 1 2.23 2.23v9.77c0 1.23-1 2.23-2.23 2.23h-42.54c-1.23 0-2.23-1-2.23-2.23z"/><path d="m32 19.77h9c.55 0 1-.45 1-1s-.45-1-1-1h-9c-.55 0-1 .45-1 1s.45 1 1 1z"/><path d="m48 21.77h-16c-.55 0-1 .45-1 1s.45 1 1 1h16c.55 0 1-.45 1-1s-.45-1-1-1z"/></g></svg>