<svg xmlns="http://www.w3.org/2000/svg" version="1.1" xmlns:xlink="http://www.w3.org/1999/xlink" width="512" height="512" x="0" y="0" viewBox="0 0 512 512" style="enable-background:new 0 0 512 512" xml:space="preserve" class=""><g><path fill="#5f66c9" d="m363.8 463.5-61-66c-15 4.3-31.5 6.5-49.5 6.5-32.3 0-62.1-7.6-89.3-22.8-26.9-14.9-49.2-36.8-64.5-63.5C83.7 290.6 75.8 260 75.8 226s7.9-64.5 23.8-91.5c15.4-26.5 37.7-48.4 64.5-63.3C191.3 56 221 48.4 253.4 48.4c32.7 0 62.6 7.6 89.8 22.8 26.8 14.8 49 36.7 64.3 63.3 15.7 27 23.5 57.5 23.5 91.5 0 32-6.9 60.9-20.8 86.8-13.4 25.3-33.1 46.8-57.3 62.3l83.5 88.5h-72.6zM149.5 292.3c10.2 19.2 24.3 34 42.3 44.5s38.5 15.7 61.5 15.8c23 0 43.5-5.3 61.5-15.8s32.1-25.3 42.3-44.5 15.2-41.3 15.3-66.3-5.1-47-15.3-66-24.3-33.7-42.3-44-38.5-15.5-61.5-15.5-43.5 5.2-61.5 15.5-32.1 25-42.3 44-15.3 41-15.3 66 5.1 47.1 15.3 66.3z" opacity="1" data-original="#64c95f"></path></g></svg>