<svg id="Layer_1" enable-background="new 0 0 500 500" height="512" viewBox="0 0 500 500" width="512" xmlns="http://www.w3.org/2000/svg" xmlns:xlink="http://www.w3.org/1999/xlink"><linearGradient id="SVGID_1_" gradientUnits="userSpaceOnUse" x1="77.723" x2="425.278" y1="251.25" y2="251.25"><stop offset="0" stop-color="#0005aa"/><stop offset="1" stop-color="#0095ff"/></linearGradient><g><path d="m425.278 226.865c0 38.119-6.166 71.241-18.499 99.362-12.333 28.124-29.43 50.688-51.292 67.689l67.829 53.254-53.535 47.368-86.889-69.791c-9.907 1.682-20.181 2.523-30.832 2.523-33.822 0-64.002-8.128-90.533-24.385-26.535-16.257-47.088-39.472-61.663-69.652-14.575-30.174-21.958-64.886-22.143-104.126v-20.181c0-40.172 7.239-75.537 21.723-106.088 14.478-30.551 34.939-54 61.382-70.352 26.44-16.348 56.663-24.525 90.674-24.525 34.007 0 64.23 8.177 90.673 24.525 26.438 16.352 46.899 39.801 61.382 70.352 14.479 30.551 21.723 65.823 21.723 105.808zm-85.207-18.499c0-42.787-7.664-75.3-22.983-97.54-15.323-22.234-37.186-33.354-65.587-33.354-28.217 0-49.988 10.979-65.307 32.934-15.323 21.958-23.08 54.144-23.264 96.558v19.9c0 41.671 7.66 73.996 22.983 96.979 15.319 22.983 37.37 34.475 66.148 34.475 28.212 0 49.891-11.072 65.026-33.214 15.135-22.143 22.795-54.42 22.983-96.839v-19.899z" fill="url(#SVGID_1_)"/></g></svg>