<svg id="Capa_1" enable-background="new 0 0 496.781 496.781" height="512" viewBox="0 0 496.781 496.781" width="512" xmlns="http://www.w3.org/2000/svg"><g><path d="m336.949 397.827c0 28.097-22.777 50.874-50.874 50.874h-148.724l-56.135 47.023c-1.231 1.031-3.106.156-3.106-1.45v-41.227c0-2.4-1.946-4.346-4.346-4.346h-22.89c-28.097-.001-50.874-22.778-50.874-50.874v-168.294c0-28.097 22.777-50.874 50.873-50.874h286.075v219.168z" fill="#86e8d0"/><path d="m70.006 397.827v-168.294c0-28.097 22.777-50.874 50.873-50.874h-70.006c-28.096.001-50.873 22.778-50.873 50.874v168.293c0 28.097 22.777 50.874 50.874 50.874h22.89c2.401 0 4.346 1.946 4.346 4.346v41.227c0 1.606 1.875 2.481 3.106 1.45l56.135-47.023h-16.472c-28.096 0-50.873-22.777-50.873-50.873z" fill="#5de1c4"/><path d="m336.949 322.21v-143.55h-159.83c5.677 35.161 22.259 67.958 47.559 93.417v52.309c0 14.217 11.577 25.782 25.807 25.782 6.385 0 12.521-2.378 17.281-6.696l30.545-27.715c12.563 3.635 25.496 5.778 38.638 6.453z" fill="#5de1c4"/><path d="m345.706.612c-83.051.081-150.929 68.16-150.776 151.211.082 44.312 19.264 84.141 49.748 111.7v60.862c0 5.007 5.941 7.639 9.649 4.274l39.162-35.534c17.806 6.588 37.192 9.92 57.437 9.255 81.693-2.681 145.872-69.137 145.855-150.874-.017-83.389-67.663-150.975-151.075-150.894z" fill="#fd8087"/><path d="m247.316 177.68c-.163-87.95 69.145-160.609 155.867-165.799-17.717-7.279-37.132-11.288-57.478-11.269-83.051.081-150.929 68.16-150.776 151.211.082 44.313 19.264 84.141 49.748 111.7v60.862c0 5.007 5.941 7.639 9.649 4.274l39.162-35.534c.487.18.979.348 1.468.523-29.387-29.855-47.556-70.785-47.64-115.968z" fill="#fe646f"/><g><path d="m347.61 266.512c-9.993 0-18.123-8.13-18.123-18.123s8.13-18.123 18.123-18.123 18.123 8.13 18.123 18.123-8.13 18.123-18.123 18.123z" fill="#f9f7f8"/></g><g><g><path d="m347.61 204.571c-8.284 0-15-6.716-15-15v-30.301c0-11.088 8.284-20.438 19.27-21.751 18.913-2.26 32.58-18.984 31.112-38.073-1.35-17.565-16.224-31.896-33.86-32.625-18.372-.794-34.139 12.349-36.67 30.491-.228 1.63-.343 3.304-.343 4.969 0 8.284-6.716 15-15 15s-15-6.716-15-15c0-3.044.212-6.109.63-9.11 4.677-33.511 33.743-57.714 67.621-56.324 33.113 1.369 59.997 27.292 62.534 60.3 2.516 32.711-19.148 61.659-50.294 68.904v23.521c0 8.283-6.716 14.999-15 14.999z" fill="#f9f7f8"/></g></g><g><g><path d="m199.504 270.644h-107.74c-4.142 0-7.5-3.357-7.5-7.5s3.358-7.5 7.5-7.5h107.74c4.142 0 7.5 3.357 7.5 7.5s-3.358 7.5-7.5 7.5z" fill="#f9f7f8"/></g></g><g><g><path d="m214.537 320.311h-167.372c-4.142 0-7.5-3.357-7.5-7.5s3.358-7.5 7.5-7.5h167.372c4.142 0 7.5 3.357 7.5 7.5s-3.358 7.5-7.5 7.5z" fill="#f9f7f8"/></g></g><g><g><path d="m282.119 369.978h-234.954c-4.142 0-7.5-3.357-7.5-7.5s3.358-7.5 7.5-7.5h234.954c4.143 0 7.5 3.357 7.5 7.5s-3.358 7.5-7.5 7.5z" fill="#f9f7f8"/></g></g></g></svg>