<svg id="Line" viewBox="0 0 64 64" xmlns="http://www.w3.org/2000/svg"><path d="m45.33691 11.88477a.99877.99877 0 0 0 -.19336 1.40039 16.4498 16.4498 0 0 1 -2.79589 22.72168 7.899 7.899 0 0 0 -2.88379 4.80761l-.54944 3.23926h-13.82526l-.553-3.36426c-.38851-3.509-3.93712-5.02531-5.78328-7.69429-7.91465-10.33816-.31573-25.78083 12.58524-26.23433a16.21879 16.21879 0 0 1 10.43433 3.2128 1 1 0 1 0 1.19531-1.60351 18.166 18.166 0 0 0 -11.70605-3.60742c-16.86998.8439-24.12289 22.2363-10.79272 32.8653a5.48763 5.48763 0 0 1 2.09447 3.38573l.68068 4.1408v2.09747a1.00019 1.00019 0 0 0 2-.00007v-1.19822h13.5166v6.19829a5.00588 5.00588 0 0 1 -5 5h-3.5166a5.00588 5.00588 0 0 1 -5-5 1.00018 1.00018 0 0 0 -2 .00006 7.00848 7.00848 0 0 0 7 6.99994h3.5166a7.00848 7.00848 0 0 0 7-7v-7.11968l.67676-3.99267a5.8784 5.8784 0 0 1 2.17188-3.58008 18.53406 18.53406 0 0 0 3.12772-25.48147.99928.99928 0 0 0 -1.4002-.19333z"/><path d="m59 22.21875h-3.9043a1.00019 1.00019 0 0 0 .00007 2h3.90423a1.00019 1.00019 0 0 0 0-2z"/><path d="m55.81445 35.835-3.38183-1.95312a1.00035 1.00035 0 0 0 -.99995 1.73245c.30736.12167 3.598 2.22848 3.88078 2.08694a1.00585 1.00585 0 0 0 .501-1.86627z"/><path d="m52.07031 12.65332a.99449.99449 0 0 0 .499-.13379l3.38183-1.95215a1.00016 1.00016 0 0 0 -1-1.73242l-3.38183 1.95215a1.0058 1.0058 0 0 0 .501 1.86621z"/><path d="m9.9043 23.21875a.99943.99943 0 0 0 -1-1h-3.9043a1 1 0 0 0 0 2h3.9043a.99943.99943 0 0 0 1-1z"/><path d="m11.56738 33.88184-3.38183 1.95316a1.00036 1.00036 0 0 0 1.00005 1.73235l3.38178-1.95309a1.00036 1.00036 0 0 0 -1-1.73242z"/><path d="m11.43066 12.51953a1.00036 1.00036 0 0 0 1-1.73245l-3.38183-1.95208a1.00035 1.00035 0 0 0 -1 1.73245z"/><path d="m32 10.22a13.01247 13.01247 0 0 0 -13 13c.72 17.24 25.29 17.24 26 0a13.01247 13.01247 0 0 0 -13-13zm0 24a11.01943 11.01943 0 0 1 -11-11c.61-14.59 21.4-14.59 22 0a11.013 11.013 0 0 1 -11 11z"/><path d="m32.84961 16.083a4.30189 4.30189 0 0 0 -5.12007 4.19049 1 1 0 0 0 1.99995-.00006 2.27434 2.27434 0 1 1 3.00285 2.1533 2.59234 2.59234 0 0 0 -1.73034 2.47659v1.916a1.00019 1.00019 0 0 0 2-.00007v-1.91593a.60288.60288 0 0 1 .373-.582 4.28743 4.28743 0 0 0 -.52539-8.23832z"/><path d="m32.00238 29.528a1.00018 1.00018 0 0 0 .00006 2 1.00018 1.00018 0 0 0 -.00006-2z"/></svg>