<svg clip-rule="evenodd" fill-rule="evenodd" stroke-linejoin="round" stroke-miterlimit="2" viewBox="0 0 64 64" xmlns="http://www.w3.org/2000/svg"><g transform="translate(-2348 -248)"><path d="m2363.21 255.143.43-2.732c.17-1.09-.57-2.115-1.66-2.288s-2.12.572-2.29 1.663l-1.25 7.901c-.18 1.091.57 2.116 1.66 2.288l7.9 1.252c1.09.173 2.12-.572 2.29-1.663.17-1.09-.57-2.115-1.66-2.288l-3.55-.562c4.22-2.97 9.37-4.714 14.92-4.714 14.35 0 26 11.65 26 26s-11.65 26-26 26-26-11.65-26-26c0-1.104-.9-2-2-2s-2 .896-2 2c0 16.557 13.44 30 30 30s30-13.443 30-30-13.44-30-30-30c-6.22 0-12 1.897-16.79 5.143zm16.79 6.857c-9.93 0-18 8.066-18 18s8.07 18 18 18 18-8.066 18-18-8.07-18-18-18zm-2 6v12c0 .53.21 1.039.59 1.414l5 5c.78.781 2.04.781 2.82 0 .79-.78.79-2.048 0-2.828l-4.41-4.414v-11.172c0-1.104-.9-2-2-2s-2 .896-2 2z"/></g></svg>