<svg xmlns="http://www.w3.org/2000/svg" version="1.1" xmlns:xlink="http://www.w3.org/1999/xlink" width="512" height="512" x="0" y="0" viewBox="0 0 66 66" style="enable-background:new 0 0 512 512" xml:space="preserve" class=""><g><path d="M27.59 20.11c-1.7.04-3.08 1.14-3.53 2.79-.45 1.66.2 3.31 1.65 4.19.58.36 1.27.53 1.95.53.87 0 1.74-.28 2.41-.84 1.2-.99 1.68-2.77 1.14-4.22s-2.05-2.47-3.62-2.45zm1.57 5.57c-.73.6-1.89.68-2.7.19-1.08-.66-1.23-1.77-1.01-2.59s.91-1.7 2.17-1.73h.05c.93 0 1.87.65 2.19 1.52.33.89.03 2.01-.7 2.61zM38.72 20.11c-1.7.04-3.08 1.14-3.53 2.79-.45 1.66.2 3.31 1.65 4.19.58.36 1.27.53 1.95.53.87 0 1.74-.28 2.41-.84 1.2-.99 1.68-2.77 1.14-4.22s-2.08-2.47-3.62-2.45zm1.57 5.57c-.73.6-1.89.68-2.7.19-1.08-.66-1.23-1.77-1.01-2.59s.91-1.7 2.17-1.73h.05c.93 0 1.87.65 2.19 1.52.33.89.03 2.01-.7 2.61zM33.21 43.72c-1.91.04-3.47 1.28-3.97 3.14-.5 1.87.22 3.72 1.85 4.72.66.4 1.42.6 2.19.6.98 0 1.96-.32 2.72-.94 1.35-1.11 1.89-3.11 1.28-4.75s-2.32-2.79-4.07-2.77zm1.88 6.41c-.88.72-2.27.82-3.24.23-1.3-.8-1.47-2.18-1.22-3.12s1.09-2.05 2.61-2.08h.06c1.12 0 2.25.78 2.64 1.83.39 1.07.03 2.42-.85 3.14z" fill="#000000" opacity="0.6705882352941176" data-original="#000000"></path><path d="M57.26 43.7c-.32-.19-.65-.33-1-.41l.83-5.32c.06-.37.06-.74.02-1.1.14-1.13-.2-2.26-.95-3.12-.78-.9-1.9-1.41-3.1-1.38l-2.91.05c.16-.19.33-.38.47-.58.43-.6.69-1.38.8-2.27.01-.04.03-.08.04-.13.38-3.29-1.22-7.94-2.83-11.21-.03-.05-.06-.1-.1-.14-1.26-2.51-2.71-4.62-3.95-5.62-1.3-1.05-3.22-1.81-5.42-2.28.47-.86 1.09-1.63 1.84-2.24 1.24-1.01 2.84-1.58 4.46-1.66.08 1.42.83 2.71 2.11 3.5.69.42 1.5.63 2.31.63 1.03 0 2.07-.34 2.87-.99 1.43-1.17 1.99-3.28 1.35-5.01s-2.46-2.95-4.3-2.92c-2.01.05-3.66 1.35-4.19 3.32 0 .01 0 .02-.01.02-1.99.05-3.96.74-5.52 2-1.03.84-1.85 1.9-2.42 3.08-2.85-.43-6.01-.43-8.85 0a8.957 8.957 0 0 0-2.42-3.08c-1.56-1.27-3.53-1.95-5.51-2 0-.01 0-.02-.01-.03-.53-1.97-2.17-3.27-4.19-3.32-1.87-.03-3.65 1.18-4.3 2.92-.64 1.73-.07 3.84 1.35 5.01.8.66 1.83.99 2.87.99.81 0 1.62-.21 2.31-.63 1.28-.78 2.03-2.07 2.11-3.49 1.61.08 3.21.65 4.46 1.66.75.61 1.37 1.38 1.83 2.24-2.2.48-4.12 1.24-5.42 2.28-1.23.99-2.69 3.11-3.95 5.63-.03.04-.06.08-.09.13-1.62 3.27-3.22 7.93-2.84 11.21.01.05.03.09.04.14.11.88.36 1.66.8 2.26.28.4.62.76.98 1.11l-3.42.05c-1.15.02-2.24.53-2.99 1.4-.73.86-1.07 1.98-.94 3.1-.04.34-.04.68 0 1.02l.65 4.68c-.5.06-.97.21-1.42.49-1.11.68-2.1 2.41-.5 6.82.25.69.63 1.55 1.37 2.16.55.44 1.23.68 1.95.71l1.05 7.64a4.019 4.019 0 0 0 3.98 3.47h.07l33-.53c1.96-.03 3.6-1.46 3.91-3.4l1.12-7.2c.62-.07 1.21-.3 1.69-.69.74-.6 1.13-1.47 1.38-2.16 1.63-4.4.64-6.13-.47-6.81zM47 5.19c.27-1.02 1.18-2.21 2.83-2.25h.06c1.23 0 2.42.82 2.85 1.98s.04 2.62-.92 3.4c-.95.78-2.46.89-3.51.25-1.4-.87-1.58-2.36-1.31-3.38zM18.17 8.57c-1.05.64-2.56.54-3.51-.25-.95-.78-1.35-2.25-.92-3.4.42-1.14 1.64-1.98 2.86-1.98h.06c1.65.04 2.56 1.24 2.83 2.25.27 1.02.09 2.51-1.32 3.38zm.79 10.71h28.57c1.64 3.43 2.6 6.98 2.54 9.37H16.42c-.06-2.39.9-5.94 2.54-9.37zm3.85-5.68c2.1-1.69 6.27-2.53 10.44-2.53s8.34.84 10.44 2.53c1.01.82 2.13 2.37 3.15 4.24H19.67c1.01-1.87 2.13-3.42 3.14-4.24zM17.04 31c-.19-.26-.32-.57-.43-.92h33.27c-.1.35-.24.66-.43.92-.37.51-.85 1-1.41 1.45l-28.96.46c-.84-.57-1.54-1.21-2.04-1.91zM9.59 50.03c-.97-2.69-1.01-4.54-.1-5.1.34-.21.71-.32 1.1-.32.24 0 .49.04.74.12 1.02.33 2.05 1.3 2.51 2.38.38.9.49 1.84.32 2.65-.19.87-.73 1.61-1.44 1.97-.72.36-1.62.3-2.19-.17-.48-.38-.75-1.02-.94-1.53zm42.55 9.36a2.575 2.575 0 0 1-2.51 2.18l-33 .53c-1.28.03-2.42-.94-2.6-2.23l-.9-6.5c.4-.05.81-.17 1.18-.36 1.09-.55 1.91-1.65 2.19-2.94.24-1.11.11-2.33-.4-3.52-.62-1.45-1.98-2.74-3.39-3.19-.33-.11-.66-.16-.99-.18l-.8-5.81a2.585 2.585 0 0 1 2.52-2.93l39.63-.64h.04c.75 0 1.46.32 1.95.89.5.58.72 1.34.6 2.09l-1 6.4c-.46-.03-.93.02-1.4.18-.71.23-1.4.66-1.99 1.22s-1.08 1.24-1.4 1.97c-.51 1.19-.65 2.4-.4 3.52.28 1.29 1.1 2.39 2.19 2.94.45.23.93.35 1.41.38zm4.27-9.36c-.19.51-.46 1.15-.93 1.53-.57.46-1.47.53-2.19.17-.71-.36-1.24-1.09-1.44-1.97-.18-.81-.07-1.75.32-2.65.46-1.08 1.49-2.05 2.51-2.38.25-.08.5-.12.74-.12.39 0 .75.11 1.1.32.9.56.86 2.42-.11 5.1z" fill="#000000" opacity="0.6705882352941176" data-original="#000000"></path></g></svg>