<svg fill="none" height="25" viewBox="0 0 24 25" width="24" xmlns="http://www.w3.org/2000/svg"><g clip-rule="evenodd" fill="rgb(0,0,0)" fill-rule="evenodd"><path d="m10.9548 2.5271h2.0904c1.8366-.00001 3.2762-.00002 4.4183.12373 1.1656.12628 2.1099.38859 2.9163.97442.4881.35466.9174.78394 1.272 1.27208.5859.80633.8482 1.75071.9745 2.91625.1237 1.14213.1237 2.58172.1237 4.41822v.0906c0 1.8365 0 3.2761-.1237 4.4182-.1263 1.1656-.3886 2.1099-.9745 2.9163-.3546.4881-.7839.9174-1.272 1.272-.8064.5859-1.7507.8482-2.9163.9745-1.1421.1237-2.5817.1237-4.4182.1237h-2.0906c-1.8365 0-3.27609 0-4.41822-.1237-1.16554-.1263-2.10992-.3886-2.91624-.9745-.48815-.3546-.91743-.7839-1.27209-1.272-.58583-.8064-.84814-1.7507-.97442-2.9163-.12374-1.1421-.12374-2.5817-.12373-4.4183v-.0905c-.00001-1.8365-.00001-3.27609.12373-4.41822.12628-1.16554.38859-2.10992.97442-2.91625.35466-.48814.78394-.91742 1.27209-1.27208.80632-.58583 1.7507-.84814 2.91624-.97442 1.14213-.12375 2.58173-.12374 4.41832-.12373zm-4.25675 1.615c-1.03792.11245-1.68813.32759-2.19614.69668-.3608.26214-.67809.57943-.94023.94023-.36909.50801-.58423 1.15822-.69668 2.19613-.11397 1.05195-.115 2.41036-.115 4.30196s.00103 3.25.115 4.302c.11245 1.0379.32759 1.6881.69668 2.1961.26214.3608.57943.6781.94023.9402.50801.3691 1.15822.5842 2.19614.6967 1.05194.114 2.41038.115 4.30195.115h2c1.8916 0 3.25-.001 4.302-.115 1.0379-.1125 1.6881-.3276 2.1961-.6967.3608-.2621.6781-.5794.9402-.9402.3691-.508.5842-1.1582.6967-2.1961.114-1.052.115-2.4104.115-4.302s-.001-3.25001-.115-4.30196c-.1125-1.03791-.3276-1.68812-.6967-2.19613-.2621-.3608-.5794-.67809-.9402-.94023-.508-.36909-1.1582-.58423-2.1961-.69668-1.052-.11397-2.4104-.115-4.302-.115h-2c-1.89157 0-3.25001.00103-4.30195.115z"/><path d="m8.75 20.7771v-17h1.5v17z"/><path d="m4.25 7.2771c0-.41421.33579-.75.75-.75v1.5c-.41421 0-.75-.33579-.75-.75zm.75.75h1.5c.41421 0 .75-.33579.75-.75s-.33579-.75-.75-.75h-1.5z"/><path d="m4.25 11.2771c0-.4142.33579-.75.75-.75h1.5c.41421 0 .75.3358.75.75s-.33579.75-.75.75h-1.5c-.41421 0-.75-.3358-.75-.75z"/><path d="m17.5681 9.78744c.2704.31376.2353.78736-.0784 1.05776l-1.2266 1.0572c-.1997.1721-.3316.2869-.4222.3747.0906.0878.2225.2026.4222.3747l1.2266 1.0572c.3137.2704.3488.744.0784 1.0578-.2704.3137-.744.3488-1.0578.0784l-1.2265-1.0572c-.0105-.009-.0209-.018-.0314-.027-.2304-.1986-.4574-.3942-.6206-.5785-.1805-.2039-.3818-.5008-.3818-.9054s.2013-.7015.3818-.9054c.1632-.1843.3902-.3799.6206-.5785.0105-.009.0209-.018.0314-.027l1.2265-1.0572c.3138-.27043.7874-.23531 1.0578.07844z"/></g></svg>