<svg fill="none" height="100" viewBox="0 0 100 100" width="100" xmlns="http://www.w3.org/2000/svg"><path clip-rule="evenodd" d="m12.5 25c0-2.3012 1.8655-4.1667 4.1667-4.1667h66.6666c2.3012 0 4.1667 1.8655 4.1667 4.1667s-1.8655 4.1666-4.1667 4.1666h-66.6666c-2.3012 0-4.1667-1.8654-4.1667-4.1666zm0 25c0-2.3012 1.8655-4.1667 4.1667-4.1667h66.6666c2.3012 0 4.1667 1.8655 4.1667 4.1667s-1.8655 4.1666-4.1667 4.1666h-66.6666c-2.3012 0-4.1667-1.8654-4.1667-4.1666zm0 25c0-2.3012 1.8655-4.1667 4.1667-4.1667h66.6666c2.3012 0 4.1667 1.8655 4.1667 4.1667s-1.8655 4.1666-4.1667 4.1666h-66.6666c-2.3012 0-4.1667-1.8654-4.1667-4.1666z" fill="#000" fill-rule="evenodd"/></svg>