<svg id="Layer_1" enable-background="new 0 0 66 66" height="512" viewBox="0 0 66 66" width="512" xmlns="http://www.w3.org/2000/svg"><g><path d="m14.678 64.017c5.406 1.637 23.686 1.17 37.05-.7 3.656-.511 5.373-1.616 5.661-7.006.849-15.888 1.023-40.348.604-41.349-.021-.05-.053-.094-.089-.135-.006-.007-.009-.016-.015-.023-2.302-2.342-12.225-13.156-12.832-13.692-.068-.061-.165-.108-.281-.119-.019-.003-.035-.01-.055-.012l-30.148.507c-4.38.074-7.011 1.379-6.562 7.171.243 3.122.18 3.742.058 15.994-.031.066-.032.131-.002.198l-.272 27.33c-.04 4.084-.107 9.721 6.883 11.836zm-5.536-46.637.726.726-.741.741zm.035-4.983 1.475 1.475-1.49 1.49c.013-1.225.025-1.987.015-2.965zm-.135-3.357.866-.866 1.371 1.371-2.114 2.114c-.019-.883-.059-1.716-.123-2.619zm-.043-.664c-.026-.402-.033-.78-.025-1.137l.581.581zm.109 12.419.572.572-.583.583zm45.257 40.73c-.015-.156-2.355-2.445-2.466-2.556l.855-.855c.098-.098.098-.256 0-.354s-.256-.098-.354 0l-.856.855-1.651-1.651.572-.572c.098-.098.098-.256 0-.354s-.256-.098-.354 0l-.572.572-.514-.514c-.098-.098-.256-.098-.354 0s-.098.256 0 .354l.514.514-1.996 1.996-1.892-1.892.794-.794c.098-.098.098-.256 0-.354s-.256-.098-.354 0l-.824.824c-.087-.029-.181-.026-.25.043s-.071.163-.043.25l-2.545 2.545-.86-.86c-.098-.098-.256-.098-.353 0-.098.098-.098.256 0 .354l.86.86-2.311 2.311c-.098.098-.098.256 0 .354s.256.098.354 0l2.311-2.311 2.15 2.15c.098.098.256.098.354 0 .06-.06.07-.14.056-.217l2.554-2.554 1.344 1.344c.098.098.256.098.354 0s.098-.256 0-.354l-1.344-1.344 1.996-1.996 1.651 1.651-3.279 3.278c-.098.098-.098.256 0 .354s.256.098.353 0l3.279-3.278 2.403 2.402c.013.013.032.01.047.019-.69.319-1.508.457-2.406.583-7.305 1.022-14.709 1.564-22.101 1.637l.91-.91.281.281c.098.098.256.098.354 0s.098-.256 0-.353l-.281-.281 1.809-1.808c-.077.098-.079.237.011.327l1.931 1.931-.065.065c-.098.098-.098.256 0 .354s.256.098.354 0l.065-.065.021.021c.098.098.256.098.354 0s.098-.256 0-.354l-.021-.021 1.858-1.858 1.148 1.148c.098.098.256.098.354 0s.098-.256 0-.354l-1.148-1.148 3.727-3.727c.098-.098.098-.256 0-.354s-.256-.098-.354 0l-3.727 3.727-1.033-1.033c-.098-.098-.256-.098-.354 0s-.098.256 0 .354l1.033 1.033-1.858 1.858-1.931-1.931c-.09-.09-.229-.088-.327-.011l2.579-2.579c.098-.098.098-.256 0-.354s-.256-.098-.354 0l-4.425 4.425-1.136-1.136c-.098-.098-.256-.098-.354 0s-.098.256 0 .354l1.137 1.136-1.067 1.067c-.057.057-.07.132-.061.206-1.418.009-2.835.002-4.251-.023l1.069-1.069 1.008 1.007c.098.098.256.098.354 0s.098-.256 0-.354l-1.008-1.007 2.543-2.543c.098-.098.098-.256 0-.354s-.256-.098-.354 0l-2.543 2.543-.203-.203c-.098-.098-.256-.098-.354 0s-.098.256 0 .354l.203.203-1.171 1.171c-.065.065-.071.154-.048.237-4.444-.093-6.936-.193-9.192-.876-5.859-1.774-6.221-6.009-6.172-10.87l.257-25.787.26-.26.51.51c.098.098.256.098.354 0s.098-.256 0-.354l-.511-.511 2.205-2.205c.098-.098.098-.256 0-.354s-.256-.098-.354 0l-2.205 2.205-.248-.248.025-2.522.944-.944.751.751c.098.098.256.098.353 0 .098-.098.098-.256 0-.354l-.751-.751 2.156-2.156c.098-.098.098-.256 0-.353-.098-.098-.256-.098-.354 0l-2.156 2.156-.701-.701c-.06-.06-.141-.07-.219-.056l.01-1.025c.118.099.249.077.334-.008l.764-.764.591.591c.098.098.256.098.354 0s.098-.256 0-.354l-.591-.591 2.267-2.267c.098-.098.098-.256 0-.354s-.256-.098-.354 0l-2.267 2.267-1.073-1.072.007-.67c.04-.011.082-.016.114-.047l1.771-1.772c.083.02.138.044.233-.05.064-.064.07-.15.05-.233l1.406-1.407c.098-.098.098-.256 0-.354s-.256-.098-.354 0l-1.371 1.371-1.497-1.497 2.165-2.165c.083.013.136.017.212-.059.059-.059.07-.136.059-.212l.971-.971c.098-.098.098-.256 0-.353-.098-.098-.256-.098-.354 0l-.93.93-1.369-1.371 2.437-2.438.685.685c.098.098.256.098.354 0s.098-.256 0-.354l-.732-.732c.005-.07-.013-.14-.066-.194-.054-.054-.124-.071-.194-.066l-.885-.885 1.282-1.282c.229-.02.462-.036.698-.045l1.892 1.891-.607.607c-.098.098-.098.256 0 .354s.256.098.354 0l.622-.622c.103.064.203.079.303-.021.084-.084.081-.207.021-.303l.947-.947 1.406 1.406c.098.098.256.098.354 0s.098-.256 0-.354l-1.406-1.406.361-.361c.09-.09.087-.228.012-.326l1.788-.03c.004.005.002.011.006.016l.419.419-1.235 1.234c-.098.098-.098.256 0 .353.098.098.256.098.354 0l1.235-1.234 1.091 1.09c.098.098.256.098.354 0s.098-.256 0-.354l-1.09-1.09.178-.178c.077-.077.076-.186.031-.279l2.432-.041c.008.051.02.102.059.142l.67.67-.921.921c-.098.098-.098.256 0 .353.098.098.256.098.354 0l.921-.921.895.895c.098.098.256.098.354 0s.098-.256 0-.354l-.895-.895.776-.776c.02-.02.019-.049.03-.073l.822-.014.487.487-.294.293c-.098.098-.098.256 0 .354s.256.098.354 0l.293-.294.325.325c.098.098.256.098.354 0s.098-.256 0-.354l-.325-.325.289-.289c.062-.062.07-.145.053-.224l15.848-.266c-.728 3.119-1.052 6.174-.981 9.554.042 1.961.522 3.378 2.483 3.849l.208.208-.891.891c-.098.098-.098.256 0 .354s.256.098.353 0l.891-.892.652.652-.088.088c-.098.098-.098.256 0 .354s.256.098.354 0l.088-.088.379.379c.098.098.256.098.354 0s.098-.256 0-.354l-.379-.379.678-.678.679.679-.028.028c-.098.098-.098.256 0 .354s.256.098.354 0l.028-.028 1.201 1.201c.007.053.02.107.061.148s.095.054.148.061l.096.096c.098.098.256.098.354 0s.098-.256 0-.353l-.023-.023.996-.996 1.499 1.499-2.202 2.202c-.098.098-.098.256 0 .354s.256.098.354 0l2.202-2.202.227.227c.098.098.256.098.354 0s.098-.256 0-.354l-.227-.227 1.102-1.102.97.969-.89.89-.008-.008c-.098-.098-.256-.098-.353 0-.098.098-.098.256 0 .353l.008.008-.887.887c-.098.098-.098.256 0 .354.049.049.113.073.177.073s.128-.024.177-.073l.887-.887.97.97-.625.625-.141-.141c-.098-.098-.256-.098-.353 0-.098.098-.098.256 0 .354l.141.141-.316.316c-.098.098-.098.256 0 .354s.256.098.354 0l.316-.316.996.996-.988.988c-.061.061-.07.141-.056.22-.066-.002-.132.02-.182.071-.098.098-.098.256 0 .353l.723.723-.458.458c-.098.098-.098.256 0 .354.034.034.079.04.122.05-.063 0-.127.024-.175.073-.098.098-.098.256 0 .353l.649.649c-.083.098-.084.242.008.334.084.084.219.108.337.007.104.1.255.091.348-.002.013-.013.01-.032.019-.046-.009 5.961-.1 11.931-.303 17.884-.066-.001-.132.021-.182.071l-.59.59-.134-.134c-.098-.098-.256-.098-.354 0s-.098.256 0 .354l.164.164c-.029.087-.026.181.043.25.103.103.164.071.25.043l.679.679c.01.01.026.007.038.016-.036.957-.085 1.91-.126 2.866-.091-.04-.196-.041-.271.034l-.117.117-.998-.998c-.098-.098-.256-.098-.354 0s-.098.256 0 .354l.998.998-.791.791c-.098.098-.098.256 0 .354s.256.098.353 0l.792-.792c.048.046.11.071.172.071.064 0 .128-.024.177-.073.001 0 0-.001 0-.001-.053 1.187-.095 2.378-.156 3.563-.012-.038-.015-.078-.045-.108l-.487-.487.284-.283c.098-.098.098-.256 0-.354s-.256-.098-.354 0l-.284.283-1.344-1.344c-.098-.098-.256-.098-.354 0s-.098.256 0 .354l1.344 1.344-.722.722c-.098.098-.098.256 0 .354s.256.098.354 0l.722-.722.487.487c.098.098.256.098.354 0 .025-.025.026-.06.038-.092-.016.32-.025.643-.042.963-.12 2.066-.363 4.238-2.034 5.267zm-10.042.304-1.893-1.892 2.515-2.514 1.892 1.892zm-32.815-58.345-.438-.437c.386-.181.809-.305 1.26-.386zm5.864-.722-.316-.316.642-.011zm3.2-.374.189-.003-.096.096zm3.701-.062.953-.016-.485.484zm3.146-.053.295-.005-.15.15zm28.72 24.372c-.034-.034-.079-.04-.122-.051.063 0 .127-.024.175-.073l.458-.458.201.201c.082.083.181.1.306.02 0 .211-.004.422-.004.633l-.371.371zm.926-8.901-.363.363-.969-.969 1.308-1.308c.014.636.013 1.277.024 1.914zm.009.698c.01.638.016 1.277.024 1.916l-.315.315-.97-.97zm.04 3.271c.004.423.012.844.015 1.267l-.973-.973.626-.625zm.039 3.141-.503.503-.609-.609c.044-.01.089-.017.124-.051l.974-.974c.002.378.012.753.014 1.131zm.009.699c0 .105-.002.21-.002.314l-.156-.156zm-.013 2.077v.055c-.008-.012-.006-.027-.016-.038zm-1.769-10.846-1.156-1.156c.761.006 1.524.011 2.293.018zm-1.808-1.161c.012.036.014.075.043.103l1.411 1.411-1.102 1.102-1.499-1.499 1.117-1.117zm-1.5.764-.643-.643c-.098-.098-.256-.098-.353 0-.098.098-.098.256 0 .354l.643.643-.996.996-1.128-1.128 1.008-1.008c.638.005 1.284.01 1.92.015.105.001.213.002.319.003zm-2.831-.132-.67-.671c.446.004.887.007 1.331.01zm-1.388-.676-.676.676-.652-.652.035-.035c.008-.008.005-.02.012-.028.457.036.834.035 1.281.039zm8.935 31.623-.362-.362.396-.396c-.01.254-.025.505-.034.758zm-.177 4.014c-.001.015-.001.03-.002.045-.007-.009-.004-.022-.012-.03zm-.258-36.571c-1.28-.011-2.557-.021-3.823-.03-6.909-.047-8.328.488-8.403-3.09-.067-3.189.231-6.081.892-9.018 4.01 4.137 7.213 7.871 11.334 12.138zm-41.763-12.157 1.771-.03.658.658-.932.932-1.56-1.558c.021-.001.042-.001.063-.002zm-3.971.814.536.535-.921.921c-.098.098-.098.256 0 .354s.256.098.353 0l.921-.921.838.838-2.438 2.438-.827-.827c-.021-.021-.05-.019-.075-.031.116-1.33.507-2.568 1.613-3.307z"/><path d="m49.393 44.497-.065-6.505c-.024-2.434-.71-3.569-3.91-3.85l-8.395-.74c-.237-2.112-1.881-3.529-3.72-3.583-.197-1.844-.105-3.694.266-5.51.386-.034.742-.101 1.02-.189 1.041-.332 1.884-1.141 2.2-2.111.349-1.071.019-2.301-.801-2.99-.99-.831-2.313-.715-3.011-.57-2.08.427-3.106 1.788-3.091 3.249.008.777.332 1.48.912 1.98.447.385 1.095.568 1.758.629-.359 1.856-.447 3.743-.245 5.625-1.647.428-2.929 1.938-3.409 3.603l-8.575.771c-2.819.253-3.477 1.295-3.416 3.637l.161 6.149c-1.773.046-3.08 1.022-3.161 2.939-.167 3.913 5.142 3.673 6.313 1.213.446-.938.292-2.135-.384-2.979-.427-.533-1.046-.896-1.765-1.07l-.165-6.278c-.048-1.816.236-2.411 2.506-2.615l8.299-.746c-.092 1.265.404 2.476 1.313 3.135.508.368 1.132.561 1.817.592l-.286 6.611c-1.665.734-2.955 2.402-2.099 4 .977 1.827 3.862 2.034 5.403-.201 1.551-2.248-.137-4.367-2.211-4.122-.025.003-.053.011-.079.015l.276-6.374c1.431-.254 2.926-1.083 3.689-2.364.265-.445.423-.937.489-1.442l8.304.732c2.695.237 2.98.979 2.998 2.863l.065 6.54c-1.512.39-2.634 1.999-2.602 3.269.048 1.855 2.039 3.173 3.94 2.384 2.63-1.091 2.458-5.147-.339-5.697zm-32.232.578c.108 0 .216.006.324.018.474.052.89.215 1.221.463l-.206.205-.262-.261c-.098-.098-.256-.098-.354 0s-.098.256 0 .354l.261.261-.221.222c-.024.024-.024.058-.037.088l-.087-.089c-.098-.098-.256-.098-.354 0s-.098.256 0 .354l.819.819-.542.542-.702-.702.084-.084c.098-.098.098-.256 0-.354s-.256-.098-.354 0l-.741.741-.241-.241c-.098-.098-.256-.098-.354 0s-.098.256 0 .354l.241.241-.405.405c-.232-.314-.365-.799-.342-1.338.06-1.368.961-1.998 2.252-1.998zm.628 3.75c.034.034.079.04.123.051-.131.036-.263.071-.405.09.004-.004.01-.002.014-.006l.202-.202zm-.621-.219c-.04.04-.052.093-.06.144l-.744-.744.303-.304.702.702zm-1.537.134.38-.38.62.62c-.056-.005-.104.004-.161-.003-.35-.043-.624-.123-.839-.237zm3.69-.926c-.209.44-.632.807-1.16 1.006-.005.002-.012.002-.018.004.097-.098.097-.255 0-.353l-.066-.066.542-.542.184.184c.049.049.113.073.177.073s.128-.024.177-.073c.098-.098.098-.256 0-.354l-.966-.966c.03-.012.064-.012.088-.036l.222-.222.299.299c.098.098.256.098.354 0s.098-.256 0-.354l-.299-.299.213-.213c.426.541.532 1.325.253 1.912zm12.44 1.485c.024-.085.02-.174-.047-.241l-.235-.235.443-.443.546.546c-.041.092-.042.197.033.273.016.016.04.013.059.024-.388.116-.469.11-.799.076zm.898-1.656.523.523-.383.383-.523-.523zm1.797-.743-.407-.407.201-.201c.011-.011.008-.029.017-.042.037.06.089.112.114.177.056.145.074.306.075.473zm-1.686-1.336c.435-.055.868.094 1.191.347-.021.011-.047.009-.065.027l-.201.201-.162-.162c-.098-.098-.256-.098-.354 0s-.098.256 0 .354l.162.162-.042.042c-.098.098-.098.256 0 .354s.256.098.354 0l.042-.042.454.454c.103.103.163.071.248.044-.067.26-.181.526-.357.782-.255.369-.584.661-.944.868.002-.015.009-.028.008-.043l.543-.544c.121-.047.082-.008.13-.13l.126-.126c.098-.098.098-.256 0-.354s-.256-.098-.354 0l-.015.015-.523-.523.102-.102c.098-.098.098-.256 0-.354s-.256-.098-.354 0l-.118.118c-.096-.058-.218-.061-.301.022s-.08.205-.022.301l-.399.399-.142-.142c-.098-.098-.256-.098-.354 0s-.098.256 0 .354l.142.142-.443.443-.381-.381c-.098-.098-.256-.098-.354 0s-.098.256 0 .354l.381.381-.049.049c-.154-.13-.29-.276-.382-.449-.679-1.279 1.167-2.709 2.433-2.861zm-.315-22.535-.126-.126.284-.284.704.704c-.274.014-.557.007-.826-.028.037-.09.037-.192-.036-.266zm1.078-1.33.567.567-.567.567-.567-.567zm.753 1.468c-.104.033-.222.061-.349.085-.006-.008-.004-.019-.011-.027l-.04-.04.567-.567.327.327c-.155.09-.319.167-.494.222zm1.059-3.382c.752.632.866 1.983-.18 2.882-.012-.025-.01-.054-.031-.074l-.327-.327.284-.284c.098-.098.098-.256 0-.354s-.256-.098-.354 0l-.284.284-.581-.581c.062-.097.065-.222-.02-.306-.098-.098-.256-.098-.354 0l-.887.887-.047-.047c-.098-.098-.256-.098-.354 0s-.098.256 0 .354l.047.047-.284.284-.425-.425c-.098-.098-.256-.098-.354 0s-.098.256 0 .353l.425.425-.077.077c-.03-.021-.067-.037-.093-.06-.461-.398-.562-.89-.565-1.234-.02-2.118 3.256-2.914 4.461-1.901zm-5.621 14.658c.429-3.216 3.986-4.97 5.769-2.39l-.52.52-.425-.425c-.098-.098-.256-.098-.354 0s-.098.256 0 .354l.425.425-.502.502-.045-.045c-.098-.098-.256-.098-.354 0s-.098.256 0 .354l1.154 1.154-.676.676-.755-.755.473-.473c.098-.098.098-.256 0-.354s-.256-.098-.354 0l-.473.473-.251-.251c-.098-.098-.256-.098-.354 0s-.098.256 0 .354l.251.251-.708.708-.488-.489c-.098-.098-.256-.098-.354 0s-.098.256 0 .354l.489.489-.359.359-.663-.663c-.098-.098-.256-.098-.354 0s-.098.256 0 .354l.663.663-.311.311c-.01-.007-.023-.009-.033-.016-.674-.491-1.024-1.448-.891-2.44zm1.397 2.687.191-.191.127.127c.098.098.256.098.353 0 .098-.098.098-.256 0-.354l-.127-.127.359-.359.93.93c-.677.166-1.313.161-1.833-.026zm2.026-.515c-.005.005-.003.014-.008.019l-.761-.761.708-.708.755.755zm.401.374c-.037.014-.073.018-.11.031-.001-.008-.007-.014-.009-.022.024-.012.052-.01.072-.03l.695-.694.256.256c-.313.195-.628.353-.904.459zm1.315-.754-.314-.314.676-.676.11.11c.085.085.197.102.318.015-.216.35-.494.628-.79.865zm.894-1.07c-.003-.059-.023-.119-.068-.164l-.149-.149c.015-.078.005-.159-.055-.22-.061-.061-.141-.07-.22-.055l-.795-.794.502-.502.587.587c.098.098.256.098.354 0s.098-.256 0-.354l-.587-.587.423-.423c.389.835.417 1.843.008 2.661zm14.825 11.787c-.012-.034-.013-.07-.04-.097l-.442-.442.102-.102c.046.017.094.015.14.004.082.134.153.276.199.429.022.067.028.138.041.208zm-3.791.833c-.029-1.125 1.697-3.188 3.161-1.931l-.206.206-.281-.281c-.098-.098-.256-.098-.353 0-.098.098-.098.256 0 .354l.296.296c-.058.096-.061.218.022.301.101.101.199.084.301.022l.457.457c.098.098.256.098.354 0 .041-.041.054-.094.061-.148.023.202.01.407-.028.609-.002-.003-.001-.007-.004-.009-.098-.098-.256-.098-.354 0l-.093.092-.819-.819c-.098-.098-.256-.098-.354 0-.071.071-.072.167-.041.256-.033.012-.069.013-.096.04l-.623.623-.042-.042c-.098-.098-.256-.098-.354 0s-.098.256 0 .354l.042.042-.48.48c-.067.067-.071.157-.046.242-.312-.305-.509-.721-.52-1.144zm2.459 1.124-.703-.703.623-.623c.015-.015.012-.037.023-.055l.579.579-.5.5c-.085.083-.082.206-.022.302zm-1.604.272c-.035-.02-.063-.051-.097-.074.059-.003.119-.023.164-.068l.48-.48.81.81c-.466.1-.961.04-1.357-.188zm1.873-.003-.197-.197c.04.025.08.052.126.052.064 0 .128-.024.177-.073l.579-.579c.05-.008.101-.019.139-.058.038-.038.049-.089.058-.139l.028-.028c-.189.432-.507.8-.91 1.022z"/><path d="m34.654 20.72-.036.036c-.098.098-.098.256 0 .354s.256.098.354 0l.036-.036.437.437c.232.233.588-.119.354-.354l-.437-.437.203-.203c.098-.098.098-.256 0-.354s-.256-.098-.354 0l-.203.203-.295-.295c-.098-.098-.256-.098-.354 0s-.098.256 0 .354z"/><path d="m55.638 57.011-.845.845-1.754-1.754 1.268-1.268c.098-.098.098-.256 0-.354s-.256-.098-.354 0l-1.268 1.268-.894-.894c-.098-.098-.256-.098-.354 0s-.098.256 0 .354l.894.894-.549.549c-.098.098-.098.256 0 .354s.256.098.353 0l.549-.549 1.754 1.754-1.344 1.344c-.098.098-.098.256 0 .354s.256.098.353 0l1.344-1.344.205.205c.098.098.256.098.354 0s.098-.256 0-.354l-.205-.205.844-.844c.098-.098.098-.256 0-.354-.095-.099-.253-.099-.351-.001z"/><path d="m55.662 49.816.949-.949c.098-.098.098-.256 0-.354s-.256-.098-.354 0l-.949.949c-.098.098-.098.256 0 .354s.256.098.354 0z"/></g></svg>