<svg clip-rule="evenodd" fill-rule="evenodd" stroke-linejoin="round" stroke-miterlimit="2" viewBox="0 0 510 510" xmlns="http://www.w3.org/2000/svg"><g><path d="m70.143 175.387v-50.606c0-2.761 2.238-5 5-5h359.714c2.762 0 5 2.239 5 5v260.438c0 2.761-2.238 5-5 5h-50.142v-209.832c0-2.762-2.239-5-5-5z" fill="#a4d4ff"/><path d="m181.007 263.614c0 32.55-26.427 58.977-58.977 58.977s-58.977-26.427-58.977-58.977 26.427-58.977 58.977-58.977v58.977z" fill="#a4d4ff"/><path d="m391.715 397.219v48.605c0 3.866-3.134 7-7 7h-369.715c-3.866 0-7-3.134-7-7v-270.437c0-3.866 3.134-7 7-7h48.143v-48.606c0-3.866 3.134-7 7-7h48.142v-48.605c0-3.866 3.134-7 7-7h369.715c3.866 0 7 3.134 7 7v270.437c0 3.866-3.134 7-7 7h-48.143v48.606c0 3.866-3.134 7-7 7zm-14-214.832h-355.715v256.437h355.715zm55.142-55.606h-355.714v41.606h307.572c3.866 0 7 3.134 7 7v207.832h41.142c0-9.2 0-256.438 0-256.438zm14 200.832h41.143v-256.437h-355.715v41.605h307.572c3.866 0 7 3.134 7 7zm-258.85-63.999c0 36.414-29.563 65.977-65.977 65.977s-65.977-29.563-65.977-65.977c0-36.413 29.563-65.977 65.977-65.977s65.977 29.564 65.977 65.977zm-14.469-7c-3.114-23.092-21.416-41.394-44.508-44.508v44.508zm-58.508-44.508c-25.382 3.423-44.977 25.195-44.977 51.508 0 28.687 23.29 51.977 51.977 51.977 26.313 0 48.086-19.595 51.508-44.977h-51.508c-3.866 0-7-3.134-7-7zm-60.977 154.844c-3.863 0-7-3.137-7-7 0-3.864 3.137-7 7-7h290.472c3.863 0 7 3.136 7 7 0 3.863-3.137 7-7 7zm162.205-149.435c-3.864 0-7-3.137-7-7s3.136-7 7-7h128.267c3.863 0 7 3.137 7 7s-3.137 7-7 7zm0 37.359c-3.864 0-7-3.137-7-7 0-3.864 3.136-7 7-7h128.267c3.863 0 7 3.136 7 7 0 3.863-3.137 7-7 7zm0 37.358c-3.864 0-7-3.136-7-7 0-3.863 3.136-7 7-7h128.267c3.863 0 7 3.137 7 7 0 3.864-3.137 7-7 7zm0 37.359c-3.864 0-7-3.137-7-7 0-3.864 3.136-7 7-7h128.267c3.863 0 7 3.136 7 7 0 3.863-3.137 7-7 7zm-162.205 74.717c-3.863 0-7-3.136-7-7 0-3.863 3.137-7 7-7h290.472c3.863 0 7 3.137 7 7 0 3.864-3.137 7-7 7z" fill="#1f4571"/></g></svg>