<svg id="Capa_1" enable-background="new 0 0 512 512" height="512" viewBox="0 0 512 512" width="512" xmlns="http://www.w3.org/2000/svg"><g><path d="m508.458 111.494c-2.246-1.901-5.212-2.715-8.12-2.232l-31.706 5.309v-48.993c0-3.018-1.362-5.875-3.706-7.775-2.346-1.901-5.423-2.641-8.374-2.017l-200.552 42.403-200.552-42.404c-2.951-.623-6.029.116-8.374 2.017-2.344 1.901-3.706 4.757-3.706 7.775v48.993l-31.706-5.309c-6.005-1.001-11.662 3.781-11.662 9.872v286.294c0 4.893 3.538 9.069 8.365 9.873l201.901 33.625c5.376.892 10.622-2.852 11.517-8.229.895-5.375-2.854-10.622-8.229-11.517l-193.536-32.231v-265.99l23.349 3.91v228.62c0 4.73 3.311 8.814 7.938 9.793l202.623 42.842c1.362.288 2.779.288 4.141 0l202.623-42.842c4.628-.978 7.939-5.063 7.939-9.793v-228.62l23.35-3.91v265.983l-194.206 32.183c-5.376.891-9.129 6.135-8.238 11.511s6.134 9.13 11.511 8.238l202.579-33.57c4.831-.801 8.373-4.978 8.373-9.875v-286.295c0-2.943-1.296-5.737-3.542-7.639zm-445.072-33.57 182.604 38.61v277.449l-182.604-38.609zm385.227 277.45-182.604 38.609v-277.449l182.604-38.61z"/><path d="m214.555 323.787-113.515-24.002c-5.412-1.144-10.72 2.314-11.864 7.722s2.314 10.72 7.722 11.863l113.515 24.002c5.5 1.162 10.972-2.59 11.93-8.108.907-5.223-2.602-10.38-7.788-11.477z"/><path d="m214.555 270.234-113.515-24.002c-5.412-1.143-10.72 2.314-11.864 7.722s2.314 10.72 7.722 11.864l113.515 24.002c5.5 1.162 10.972-2.59 11.93-8.108.907-5.223-2.602-10.381-7.788-11.478z"/><path d="m214.555 216.681-113.514-24.001c-5.413-1.144-10.72 2.314-11.864 7.722-1.144 5.409 2.314 10.72 7.722 11.863l113.515 24.001c5.5 1.162 10.972-2.59 11.93-8.108.906-5.223-2.603-10.38-7.789-11.477z"/><path d="m96.899 158.712 113.515 24.002c5.5 1.162 10.972-2.59 11.93-8.108.906-5.224-2.602-10.381-7.788-11.478l-113.515-24.002c-5.412-1.144-10.72 2.314-11.864 7.722-1.143 5.409 2.314 10.72 7.722 11.864z"/><path d="m299.245 182.932c.685 0 1.382-.071 2.08-.218l113.515-24.002c5.408-1.144 8.866-6.455 7.722-11.863-1.143-5.408-6.45-8.867-11.863-7.722l-113.515 24.002c-11.405 2.411-9.612 19.803 2.061 19.803z"/><path d="m299.245 236.485c.685 0 1.382-.071 2.08-.218l113.515-24.001c5.408-1.144 8.866-6.455 7.722-11.863-1.143-5.407-6.45-8.868-11.863-7.722l-113.515 24.001c-11.405 2.411-9.612 19.803 2.061 19.803z"/><path d="m299.245 290.038c.685 0 1.382-.071 2.08-.218l113.515-24.002c5.408-1.144 8.866-6.455 7.722-11.864-1.143-5.407-6.45-8.868-11.863-7.722l-113.515 24.002c-11.405 2.412-9.612 19.804 2.061 19.804z"/><path d="m410.699 299.786-113.515 24.002c-5.204 1.1-8.671 6.249-7.788 11.478.933 5.522 6.446 9.267 11.929 8.108l113.515-24.002c5.408-1.144 8.866-6.455 7.722-11.863-1.143-5.409-6.45-8.869-11.863-7.723z"/><circle cx="255.583" cy="446.432" r="10"/></g></svg>