<svg enable-background="new 0 0 32 32" height="512" viewBox="0 0 32 32" width="512" xmlns="http://www.w3.org/2000/svg"><g id="Layer_51"><g><path d="m9 13c.55 0 1-.45 1-1v-5h2c.55 0 1-.45 1-1s-.45-1-1-1h-6c-.55 0-1 .45-1 1s.45 1 1 1h2v5c0 .55.45 1 1 1z"/><path d="m28 5h-10c-.55 0-1 .45-1 1s.45 1 1 1h10c.55 0 1-.45 1-1s-.45-1-1-1z"/><path d="m28 10h-10c-.55 0-1 .45-1 1s.45 1 1 1h10c.55 0 1-.45 1-1s-.45-1-1-1z"/><path d="m28 15h-24c-.55 0-1 .45-1 1s.45 1 1 1h24c.55 0 1-.45 1-1s-.45-1-1-1z"/><path d="m28 20h-24c-.55 0-1 .45-1 1s.45 1 1 1h24c.55 0 1-.45 1-1s-.45-1-1-1z"/><path d="m28 25h-24c-.55 0-1 .45-1 1s.45 1 1 1h24c.55 0 1-.45 1-1s-.45-1-1-1z"/></g></g></svg>