<?xml version="1.0" ?>
<svg height="512" viewBox="0 0 50 58" width="512" xmlns="http://www.w3.org/2000/svg" id="fi_4248224">
  <g id="Page-1" fill="none" fill-rule="evenodd">
    <g id="045---TXT-File" fill-rule="nonzero">
      <path id="Shape" d="m46 30h2c1.1045695 0 2 .8954305 2 2s-.8954305 2-2 2h-46c-1.1045695 0-2-.8954305-2-2s.8954305-2 2-2z" fill="#556080"/>
      <path id="Shape" d="m4 34v-32c.0032948-1.10320187.89679813-1.9967052 2-2h32l8 8v26z" fill="#d1d4d1"/>
      <path id="Shape" d="m46 50v6c-.0032948 1.1032019-.8967981 1.9967052-2 2h-38c-1.10320187-.0032948-1.9967052-.8967981-2-2v-6z" fill="#d1d4d1"/>
      <path id="Shape" d="m38 0v6c0 1.1045695.8954305 2 2 2h6z" fill="#95a5a5"/>
      <g fill="#556080">
        <path id="Shape" d="m41 14h-32c-.55228475 0-1-.4477153-1-1s.44771525-1 1-1h32c.5522847 0 1 .4477153 1 1s-.4477153 1-1 1z"/>
        <path id="Shape" d="m41 19h-32c-.55228475 0-1-.4477153-1-1s.44771525-1 1-1h32c.5522847 0 1 .4477153 1 1s-.4477153 1-1 1z"/>
        <path id="Shape" d="m41 24h-32c-.55228475 0-1-.4477153-1-1s.44771525-1 1-1h32c.5522847 0 1 .4477153 1 1s-.4477153 1-1 1z"/>
        <path id="Shape" d="m29 29h-20c-.55228475 0-1-.4477153-1-1s.44771525-1 1-1h20c.5522847 0 1 .4477153 1 1s-.4477153 1-1 1z"/>
      </g>
      <path id="Shape" d="m50 32v18c-.0032948 1.1032019-.8967981 1.9967052-2 2h-46c-1.10320187-.0032948-1.9967052-.8967981-2-2v-18c.0032948 1.1032019.89679813 1.9967052 2 2h46c1.1011688-.0081672 1.9918328-.8988312 2-2z" fill="#8697cb"/>
      <path id="Shape" d="m17 37h-6c-.5522847 0-1 .4477153-1 1s.4477153 1 1 1h2v9c0 .5522847.4477153 1 1 1s1-.4477153 1-1v-9h2c.5522847 0 1-.4477153 1-1s-.4477153-1-1-1z" fill="#fff"/>
      <path id="Shape" d="m39 37h-6c-.5522847 0-1 .4477153-1 1s.4477153 1 1 1h2v9c0 .5522847.4477153 1 1 1s1-.4477153 1-1v-9h2c.5522847 0 1-.4477153 1-1s-.4477153-1-1-1z" fill="#fff"/>
      <path id="Shape" d="m29.625 37.219c-.2071041-.1658359-.4716222-.2425711-.735322-.2133128-.2636999.0292583-.5049635.1621115-.670678.3693128l-3.219 4.025-3.219-4.024c-.345178-.4313343-.9746656-.5011779-1.406-.156-.4313343.345178-.5011779.9746656-.156 1.406l3.5 4.374-3.5 4.375c-.3451779.4313344-.2753343 1.060822.156 1.406.4313344.3451779 1.060822.2753343 1.406-.156l3.219-4.025 3.219 4.024c.345178.4313344.9746656.501178 1.406.156s.501178-.9746656.156-1.406l-3.5-4.374 3.5-4.375c.1658359-.2071041.2425711-.4716222.2133128-.735322-.0292583-.2636999-.1621115-.5049635-.3693128-.670678z" fill="#fff"/>
    </g>
  </g>
</svg>
