<svg id="Layer_1" height="512" viewBox="0 0 512 512" width="512" xmlns="http://www.w3.org/2000/svg" xmlns:xlink="http://www.w3.org/1999/xlink" data-name="Layer 1"><linearGradient id="linear-gradient" gradientUnits="userSpaceOnUse" x1="256" x2="256" y1="509" y2="3"><stop offset="0" stop-color="#8d3fff"/><stop offset="1" stop-color="#00b4d1"/></linearGradient><path d="m307.118 383.184v21.671c0 6.617 5.383 12 12 12h87.935c6.617 0 12-5.383 12-12v-21.671c0-4.418 3.582-8 8-8s8 3.582 8 8v21.671c0 15.439-12.561 28-28 28h-87.935c-15.439 0-28-12.561-28-28v-21.671c0-4.418 3.582-8 8-8s8 3.582 8 8zm55.967 12.894c4.418 0 8-3.582 8-8v-67.45l8.478 8.478c1.562 1.562 3.609 2.343 5.657 2.343s4.095-.781 5.657-2.343c3.124-3.125 3.124-8.189 0-11.314l-22.135-22.135c-3.125-3.123-8.189-3.123-11.314 0l-22.135 22.135c-3.124 3.125-3.124 8.189 0 11.314 3.126 3.123 8.19 3.123 11.314 0l8.478-8.478v67.45c0 4.418 3.582 8 8 8zm-126.595-294.543h10.305c4.418 0 8-3.582 8-8s-3.582-8-8-8h-10.305c-4.418 0-8 3.582-8 8s3.582 8 8 8zm34.033 0h23.515c4.418 0 8-3.582 8-8s-3.582-8-8-8h-23.515c-4.418 0-8 3.582-8 8s3.582 8 8 8zm-52.126 28.476c-4.418 0-8 3.582-8 8s3.582 8 8 8h.452c4.418 0 8-3.582 8-8s-3.582-8-8-8zm-75.188-28.476h69.552c4.418 0 8-3.582 8-8s-3.582-8-8-8h-69.552c-4.418 0-8 3.582-8 8s3.582 8 8 8zm86.329 118.386h-118.561c-4.418 0-8 3.582-8 8s3.582 8 8 8h118.562c4.418 0 8-3.582 8-8s-3.582-8-8-8zm64.5-44.955h-23.553c-4.418 0-8 3.582-8 8s3.582 8 8 8h23.553c4.418 0 8-3.582 8-8s-3.582-8-8-8zm-158.049 89.909c-4.418 0-8 3.582-8 8s3.582 8 8 8h10.306c4.418 0 8-3.582 8-8s-3.582-8-8-8zm158.049-134.864h-51.46c-4.418 0-8 3.582-8 8s3.582 8 8 8h51.46c4.418 0 8-3.582 8-8s-3.582-8-8-8zm-206.79 224.774h-25.789c-4.418 0-8 3.582-8 8s3.582 8 8 8h25.789c4.418 0 8-3.582 8-8s-3.582-8-8-8zm85.853 0h-62.124c-4.418 0-8 3.582-8 8s3.582 8 8 8h62.124c4.418 0 8-3.582 8-8s-3.582-8-8-8zm8.062-44.954h-30.678c-4.418 0-8 3.582-8 8s3.582 8 8 8h30.678c4.418 0 8-3.582 8-8s-3.582-8-8-8zm18.75-44.956h-29.89c-4.418 0-8 3.582-8 8s3.582 8 8 8h29.89c4.418 0 8-3.582 8-8s-3.582-8-8-8zm-138.454 60.956h65.298c4.418 0 8-3.582 8-8s-3.582-8-8-8h-65.298c-4.418 0-8 3.582-8 8s3.582 8 8 8zm0-179.82h133.21c4.418 0 8-3.582 8-8s-3.582-8-8-8h-133.21c-4.418 0-8 3.582-8 8s3.582 8 8 8zm0 44.955h185.298c4.418 0 8-3.582 8-8s-3.582-8-8-8h-185.298c-4.418 0-8 3.582-8 8s3.582 8 8 8zm0 44.955h25.789c4.418 0 8-3.582 8-8s-3.582-8-8-8h-25.789c-4.418 0-8 3.582-8 8s3.582 8 8 8zm0 44.954h50.802c4.418 0 8-3.582 8-8s-3.582-8-8-8h-50.802c-4.418 0-8 3.582-8 8s3.582 8 8 8zm414.271 17.443c1.479 2.575 4.174 4.017 6.945 4.017 1.351 0 2.721-.343 3.977-1.063 3.831-2.201 5.153-7.091 2.953-10.922l-.262-.453c-2.212-3.824-7.105-5.132-10.931-2.921-3.824 2.212-5.132 7.105-2.921 10.931l.238.412zm33.27 64.768c0 80.458-65.457 145.915-145.915 145.915-.189 0-.376-.006-.564-.007v.006h-280.026c-13.132 0-23.815-10.684-23.815-23.815v-31.863h-31.865c-13.132 0-23.815-10.684-23.815-23.815v-320.488c0-8.864 3.312-16.862 9.58-23.13l73.311-73.309c6.268-6.268 14.266-9.58 23.129-9.58h219.662c13.132 0 23.815 10.684 23.815 23.815v31.863h31.863c13.133 0 23.816 10.684 23.816 23.815v141.739c22.254 7.193 42.572 19.741 59.409 37.017 3.084 3.164 3.02 8.229-.145 11.312-3.165 3.085-8.229 3.019-11.312-.145-24.667-25.308-57.71-39.245-93.044-39.245-71.635 0-129.914 58.279-129.914 129.914s58.279 129.915 129.914 129.915 129.915-58.279 129.915-129.915c0-11.982-1.629-23.848-4.841-35.264-1.196-4.254 1.281-8.672 5.534-9.868 4.257-1.192 8.671 1.282 9.868 5.534 3.608 12.827 5.438 26.15 5.438 39.598zm-156.503-288.408v142.88c3.498-.252 7.027-.387 10.588-.387 9.893 0 19.625.974 29.092 2.874v-137.551c0-4.31-3.507-7.815-7.816-7.815h-31.863zm-323.734 17.658c1.67-.262 3.374-.404 5.104-.404h50.255c4.308 0 7.812-3.505 7.812-7.812v-50.254c0-1.73.142-3.434.404-5.104zm-1.947 344.985h210.699c-12.915-21.763-20.344-47.146-20.344-74.235 0-71.378 51.521-130.943 119.326-143.479v-192.792c0-4.31-3.506-7.815-7.815-7.815h-211.636c-5.578 2.865-9.113 8.554-9.113 14.866v50.254c0 13.13-10.683 23.812-23.812 23.812h-50.255c-6.312 0-12.001 3.535-14.866 9.113v312.46c0 4.31 3.506 7.815 7.815 7.815zm269.872 55.679c-18.784-9.639-35.215-23.235-48.191-39.679h-173.817v31.863c0 4.31 3.506 7.815 7.815 7.815h214.193z" fill="url(#linear-gradient)"/></svg>