<svg height="512" viewBox="0 0 372.9993 273.7305" width="512" xmlns="http://www.w3.org/2000/svg"><g id="Layer_2" data-name="Layer 2"><g id="Layer_1-2" data-name="Layer 1"><path d="m372.9993 28.241v217.28a28.204 28.204 0 0 1 -16.8723 25.8094 28.62 28.62 0 0 1 -11.3686 2.36h-316.589a27.7218 27.7218 0 0 1 -11.3669-2.4316 28.152 28.152 0 0 1 -16.8025-25.7374v-217.2804a28.2545 28.2545 0 0 1 16.8025-25.8095 27.696 27.696 0 0 1 11.3669-2.4315h316.589a27.4564 27.4564 0 0 1 11.3686 2.4315 28.2041 28.2041 0 0 1 16.8723 25.8095z" fill="#edf3f3"/><circle cx="186.488" cy="136.865" fill="#058789" r="71.795"/><circle cx="186.488" cy="136.865" fill="#edf3f3" r="53.716"/><path d="m217.8808 142.8277-43.8115 26.6157a7 7 0 0 1 -10.6068-5.9947v-53.1669a7 7 0 0 1 10.6068-5.9947l43.8115 26.6157a6.97 6.97 0 0 1 0 11.9249z" fill="#f77c5b"/><path d="m67.0634 0v273.6908h-38.894a27.7218 27.7218 0 0 1 -11.3669-2.4316 28.152 28.152 0 0 1 -16.8025-25.7378v-217.2804a28.2545 28.2545 0 0 1 16.8025-25.8095 27.696 27.696 0 0 1 11.3669-2.4315z" fill="#f77c5b"/><g fill="#edf3f3"><path d="m50.191 0v25.8112h-33.3885v-23.3797a27.696 27.696 0 0 1 11.3669-2.4315z"/><path d="m16.832 60.717h33.365v27.482h-33.365z"/><path d="m16.832 123.124h33.365v27.482h-33.365z"/><path d="m16.832 185.532h33.365v27.482h-33.365z"/><path d="m50.191 247.9511v25.74h-22.0216a27.7218 27.7218 0 0 1 -11.3669-2.4316v-23.3084z"/></g><path d="m372.9993 28.241v217.28a28.204 28.204 0 0 1 -16.8723 25.8094 28.62 28.62 0 0 1 -11.3686 2.36h-38.8224v-273.6904h38.8224a27.4564 27.4564 0 0 1 11.3686 2.4315 28.2041 28.2041 0 0 1 16.8723 25.8095z" fill="#f77c5b"/><path d="m356.127 2.4315v23.38h-33.3187v-25.8115h21.95a27.4564 27.4564 0 0 1 11.3687 2.4315z" fill="#edf3f3"/><path d="m322.779 60.717h33.365v27.482h-33.365z" fill="#edf3f3"/><path d="m322.779 123.124h33.365v27.482h-33.365z" fill="#edf3f3"/><path d="m322.779 185.532h33.365v27.482h-33.365z" fill="#edf3f3"/><path d="m356.127 247.9511v23.38a28.62 28.62 0 0 1 -11.3686 2.36h-21.95v-25.74z" fill="#edf3f3"/><path d="m67.063 0h238.873v16.754h-238.873z" fill="#f77c5b"/><path d="m67.063 256.976h238.873v16.754h-238.873z" fill="#f77c5b"/></g></g></svg>