<svg id="Layer_1" enable-background="new 0 0 66 66" height="512" viewBox="0 0 66 66" width="512" xmlns="http://www.w3.org/2000/svg"><g><g><g><g><g><g><path d="m57.383 42.943c-.064 0-.128-.024-.177-.073l-8.271-8.271c-.098-.098-.098-.256 0-.354s.256-.098.354 0l8.271 8.271c.098.098.098.256 0 .354-.049.049-.113.073-.177.073z"/></g></g></g></g></g><g><g><g><g><g><path d="m58.416 40.154c-.064 0-.128-.024-.177-.073l-6.11-6.111c-.098-.098-.098-.256 0-.354s.256-.098.354 0l6.11 6.111c.098.098.098.256 0 .354-.049.049-.113.073-.177.073z"/></g></g></g></g></g><g><g><g><g><g><path d="m57.666 35.671c-.064 0-.128-.024-.177-.073l-3.159-3.159c-.098-.098-.098-.256 0-.354s.256-.098.354 0l3.159 3.159c.098.098.098.256 0 .354-.049.048-.113.073-.177.073z"/></g></g></g></g></g><g><g><g><g><g><path d="m58.72 32.607c-.064 0-.128-.025-.177-.073l-2.489-2.489c-.098-.098-.098-.256 0-.354s.256-.098.354 0l2.489 2.489c.098.098.098.256 0 .354-.049.049-.113.073-.177.073z"/></g></g></g></g></g><g><g><g><g><g><path d="m58.339 30.025c-.064 0-.128-.024-.177-.073l-1.917-1.917c-.098-.098-.098-.256 0-.354s.256-.098.354 0l1.917 1.917c.098.098.098.256 0 .354-.049.048-.113.073-.177.073z"/></g></g></g></g></g><g><g><g><g><g><path d="m58.555 27.177c-.064 0-.128-.024-.177-.073l-1.559-1.559c-.098-.098-.098-.256 0-.354s.256-.098.354 0l1.559 1.559c.098.098.098.256 0 .354-.049.049-.113.073-.177.073z"/></g></g></g></g></g><g><g><g><g><g><path d="m53.657 42.288c-.064 0-.128-.024-.177-.073l-6.234-6.234c-.098-.098-.098-.256 0-.354s.256-.098.353 0l6.234 6.234c.098.098.098.256 0 .354-.048.048-.111.073-.176.073z"/></g></g></g></g></g><g><g><g><g><g><path d="m50.249 41.943c-.064 0-.128-.024-.177-.073l-4.837-4.836c-.098-.098-.098-.256 0-.354s.256-.098.353 0l4.837 4.836c.098.098.098.256 0 .354-.048.049-.112.073-.176.073z"/></g></g></g></g></g><g><g><g><g><g><path d="m47.631 42.676c-.065 0-.128-.024-.177-.073l-4.42-4.42c-.098-.098-.098-.256 0-.354s.256-.098.354 0l4.42 4.421c.098.098.098.256 0 .353-.049.048-.113.073-.177.073z"/></g></g></g></g></g><g><g><g><g><g><path d="m44.075 42.566c-.064 0-.128-.024-.177-.073l-3.832-3.832c-.098-.098-.098-.256 0-.354s.256-.098.354 0l3.832 3.832c.098.098.098.256 0 .354-.049.049-.112.073-.177.073z"/></g></g></g></g></g><g><g><g><g><g><path d="m40.92 42.762c-.064 0-.128-.024-.177-.073l-3.549-3.549c-.098-.098-.098-.256 0-.354s.256-.098.354 0l3.549 3.549c.098.098.098.256 0 .354-.049.049-.113.073-.177.073z"/></g></g></g></g></g><g><g><g><g><g><path d="m37.156 42.445c-.064 0-.128-.024-.177-.073l-2.274-2.274c-.098-.098-.098-.256 0-.354s.256-.098.354 0l2.274 2.274c.098.098.098.256 0 .354-.049.048-.112.073-.177.073z"/></g></g></g></g></g><g><g><g><g><g><path d="m34.56 42.529c-.065 0-.128-.024-.177-.073l-2.167-2.167c-.098-.098-.098-.256 0-.354s.256-.098.353 0l2.167 2.167c.098.098.098.256 0 .354-.049.048-.112.073-.176.073z"/></g></g></g></g></g><g><g><g><g><g><path d="m31.862 42.129c-.064 0-.128-.024-.177-.073l-1.672-1.672c-.098-.098-.098-.256 0-.353.098-.098.256-.098.353 0l1.672 1.672c.098.098.098.256 0 .354-.048.048-.111.072-.176.072z"/></g></g></g></g></g><g><g><g><g><g><path d="m29.106 42.533c-.064 0-.128-.025-.177-.073l-1.692-1.692c-.098-.098-.098-.256 0-.354s.256-.098.354 0l1.692 1.692c.098.098.098.256 0 .354-.049.048-.112.073-.177.073z"/></g></g></g></g></g><g><g><g><g><g><path d="m26.606 42.809c-.064 0-.128-.024-.177-.073l-1.681-1.682c-.098-.098-.098-.256 0-.354.099-.099.257-.097.354 0l1.681 1.682c.098.098.098.256 0 .354-.049.048-.113.073-.177.073z"/></g></g></g></g></g><g><g><g><g><g><path d="m25.404 42.659c-.064 0-.128-.024-.177-.073-.098-.098-.098-.256 0-.354l2.684-2.685c.098-.098.256-.098.354 0s.098.256 0 .354l-2.684 2.685c-.049.049-.112.073-.177.073z"/></g></g></g></g></g><g><g><g><g><g><path d="m27.989 43.329c-.065 0-.128-.024-.177-.073-.098-.098-.098-.256 0-.354l4.215-4.215c.098-.098.256-.098.354 0s.098.256 0 .354l-4.215 4.215c-.049.049-.112.073-.177.073z"/></g></g></g></g></g><g><g><g><g><g><path d="m32.393 42.659c-.065 0-.128-.024-.177-.073-.098-.098-.098-.256 0-.354l4.753-4.753c.098-.098.256-.098.354 0s.098.256 0 .353l-4.753 4.753c-.05.05-.113.074-.177.074z"/></g></g></g></g></g><g><g><g><g><g><path d="m35.456 42.946c-.065 0-.128-.024-.177-.073-.098-.098-.098-.256 0-.353l5.887-5.886c.098-.098.256-.098.354 0s.098.256 0 .354l-5.887 5.886c-.049.048-.113.072-.177.072z"/></g></g></g></g></g><g><g><g><g><g><path d="m39.764 42.659c-.064 0-.128-.024-.177-.073-.098-.098-.098-.256 0-.354l6.409-6.408c.098-.098.256-.098.353 0 .098.098.098.256 0 .354l-6.409 6.408c-.048.049-.112.073-.176.073z"/></g></g></g></g></g><g><g><g><g><g><path d="m42.349 42.755c-.064 0-.128-.024-.177-.073-.098-.098-.098-.256 0-.354l7.305-7.304c.098-.098.256-.098.354 0s.098.256 0 .354l-7.305 7.304c-.049.048-.113.073-.177.073z"/></g></g></g></g></g><g><g><g><g><g><path d="m45.508 43.138c-.064 0-.128-.024-.177-.073-.098-.098-.098-.256 0-.354l7.339-7.339c.098-.098.256-.098.354 0s.098.256 0 .354l-7.339 7.339c-.049.049-.113.073-.177.073z"/></g></g></g></g></g><g><g><g><g><g><path d="m50.008 42.372c-.064 0-.128-.024-.177-.073-.098-.098-.098-.256 0-.354l5.444-5.445c.098-.098.256-.098.354 0s.098.256 0 .353l-5.444 5.445c-.049.049-.113.074-.177.074z"/></g></g></g></g></g><g><g><g><g><g><path d="m53.645 42.755c-.064 0-.128-.024-.177-.073-.098-.098-.098-.256 0-.354l3.479-3.479c.098-.098.256-.098.354 0s.098.256 0 .354l-3.479 3.479c-.049.048-.112.073-.177.073z"/></g></g></g></g></g><g><g><g><g><g><path d="m55.082 39.883c-.064 0-.128-.024-.177-.073-.098-.098-.098-.256 0-.354l2.824-2.824c.098-.098.256-.098.354 0s.098.256 0 .354l-2.824 2.824c-.049.048-.113.073-.177.073z"/></g></g></g></g></g><g><g><g><g><g><path d="m53.263 37.011c-.064 0-.128-.024-.177-.073-.098-.098-.098-.256 0-.354l3.016-3.016c.098-.098.256-.098.354 0s.098.256 0 .354l-3.016 3.016c-.049.049-.113.073-.177.073z"/></g></g></g></g></g><g><g><g><g><g><path d="m54.028 33.564c-.064 0-.128-.024-.177-.073-.098-.098-.098-.256 0-.354l1.829-1.829c.098-.098.256-.098.354 0s.098.256 0 .354l-1.829 1.829c-.049.049-.112.073-.177.073z"/></g></g></g></g></g><g><g><g><g><g><path d="m55.848 36.819c-.064 0-.128-.024-.177-.073-.098-.098-.098-.256 0-.354l2.44-2.44c.098-.098.256-.098.354 0s.098.256 0 .354l-2.441 2.44c-.048.049-.112.073-.176.073z"/></g></g></g></g></g><g><g><g><g><g><path d="m56.709 32.894c-.064 0-.128-.024-.177-.073-.098-.098-.098-.256 0-.354l1.586-1.586c.098-.098.256-.098.354 0s.098.256 0 .354l-1.586 1.586c-.049.049-.113.073-.177.073z"/></g></g></g></g></g><g><g><g><g><g><path d="m56.039 29.831c-.065 0-.128-.024-.177-.073-.098-.098-.098-.256 0-.353l1.726-1.726c.098-.098.256-.098.354 0s.098.256 0 .353l-1.726 1.726c-.049.048-.113.073-.177.073z"/></g></g></g></g></g><g><g><g><g><g><path d="m56.422 26.767c-.064 0-.128-.024-.177-.073-.098-.098-.098-.256 0-.354l1.354-1.354c.098-.098.256-.098.354 0s.098.256 0 .354l-1.354 1.354c-.049.049-.113.073-.177.073z"/></g></g></g></g></g><g><g><g><g><g><g><g><path d="m53.962 60.033c-.414 0-.826-.006-1.231-.015l-43.553-.926c-1.888-.04-3.692-.172-5.032-1.33-1.43-1.238-1.782-3.241-1.999-5.021-2.062-16.917-.849-27.591-.266-32.721.118-1.037.211-1.855.239-2.411.039-.795-.003-1.619-.045-2.415-.125-2.415-.255-4.913 1.847-6.991 1.988-1.965 4.956-2.236 7.866-2.236l.576.003 44.535.382c1.992.017 4.057.145 5.486 1.469 1.563 1.448 1.743 3.687 1.794 5.856l.811 34.419c.079 3.344-.026 6.808-2.201 9.182-2.227 2.427-5.711 2.755-8.827 2.755zm-42.174-53.066c-2.697 0-5.432.236-7.163 1.947-1.783 1.763-1.67 3.932-1.551 6.229.042.821.087 1.671.044 2.517-.029.587-.124 1.42-.243 2.474-.579 5.09-1.782 15.685.264 32.486.204 1.667.5 3.38 1.661 4.385 1.088.941 2.702 1.051 4.399 1.087l43.553.926c3.233.071 7.061.026 9.3-2.417 1.924-2.101 2.013-5.342 1.938-8.483l-.81-34.418c-.046-1.955-.197-3.963-1.474-5.146-1.168-1.082-2.944-1.186-4.815-1.202z"/></g></g></g></g></g><g><g><g><g><g><path d="m58.866 43.66c-.004 0-.008 0-.012 0-8.668-.211-17.488-.355-26.018-.496-8.532-.14-17.354-.284-26.025-.495-.135-.003-.263-.061-.354-.16-.092-.099-.14-.231-.133-.365.245-4.91.554-9.832.853-14.592.3-4.776.609-9.715.855-14.638.013-.266.232-.475.499-.475h.003l49.549.245c.268.002.486.213.497.481.083 2.181.18 4.385.276 6.6.339 7.782.691 15.829.509 23.407-.003.132-.059.258-.155.35-.092.089-.216.138-.344.138zm-51.517-1.978c8.503.204 17.143.346 25.504.483 8.368.137 17.015.279 25.525.483.154-7.399-.188-15.246-.52-22.84-.09-2.055-.18-4.1-.259-6.127l-48.592-.24c-.242 4.771-.542 9.548-.832 14.173-.288 4.592-.586 9.335-.826 14.068z"/></g></g></g></g></g><g><g><g><g><g><path d="m28.397 53.735c-.589 0-1.175-.183-1.647-.515-.756-.53-1.231-1.442-1.242-2.379 0-.204.02-.392.06-.59.352-1.79 1.438-2.87 2.904-2.887h.001c1.055 0 2.063.627 2.555 1.56.206.382.331.832.361 1.295.047.556-.054 1.132-.291 1.655-.347.767-.954 1.374-1.666 1.664-.327.131-.673.197-1.035.197zm.12-5.372c-1.413.017-1.846 1.462-1.969 2.083-.026.133-.04.258-.04.389.007.606.327 1.224.816 1.567.492.343 1.188.429 1.733.208.475-.194.888-.613 1.131-1.15.167-.368.237-.772.204-1.168-.021-.332-.106-.639-.247-.9-.326-.616-.979-1.029-1.628-1.029z"/></g></g></g></g></g><g><g><g><g><g><path d="m30.89 50.751c-.271 0-.494-.217-.5-.49-.006-.276.214-.504.49-.51 8.518-.173 17.589-.51 27.728-1.029.296-.02.51.199.524.474.015.275-.197.511-.474.525-10.149.519-19.23.856-27.76 1.03-.002 0-.005 0-.008 0z"/></g></g></g></g></g><g><g><g><g><g><path d="m15.677 50.928c-2.286 0-4.509-.013-6.691-.038-.276-.003-.497-.229-.494-.506.003-.274.227-.494.5-.494h.006c5.329.061 10.909.048 17.054-.042h.007c.272 0 .496.219.5.493.004.276-.217.503-.493.507-3.639.054-7.081.08-10.389.08z"/></g></g></g></g></g><g><g><g><g><g><path d="m32.355 35.033c-.431 0-.834-.139-1.198-.412-.54-.404-.847-1.12-.822-1.913.015-.442.081-1.526.163-2.856.163-2.641.387-6.258.375-7.711-.005-.554.029-1.182.496-1.624.416-.394 1.13-.483 1.724-.233.673.285 5.92 5.441 6.561 6.603.462.84.573 1.756.304 2.513-.34.962-1.177 1.531-2.077 2.077-1.223.741-2.163 1.377-3.073 2.259-.576.556-1.455 1.297-2.453 1.297zm.023-13.896c-.079 0-.225.013-.321.104-.175.166-.187.547-.184.89.012 1.488-.213 5.125-.377 7.781-.081 1.316-.147 2.389-.161 2.826-.012.361.094.835.422 1.081.618.462 1.336.183 2.355-.803.978-.947 1.969-1.619 3.251-2.396.768-.465 1.422-.904 1.652-1.556.174-.488.087-1.106-.237-1.696-.599-1.087-5.573-5.867-6.101-6.178-.075-.029-.192-.053-.299-.053z"/></g></g></g></g></g></g><g><g><g><g><g><path d="m34.056 33.528c-.064 0-.128-.024-.177-.073l-1.837-1.837c-.098-.098-.098-.256 0-.354s.256-.098.354 0l1.837 1.837c.098.098.098.256 0 .354-.049.049-.113.073-.177.073z"/></g></g></g></g></g><g><g><g><g><g><path d="m35.072 32.711c-.064 0-.128-.025-.177-.073l-1.325-1.326c-.098-.098-.098-.256 0-.354.099-.098.257-.097.354 0l1.325 1.326c.098.098.098.256 0 .354-.049.049-.113.073-.177.073z"/></g></g></g></g></g><g><g><g><g><g><path d="m36.524 31.717c-.063 0-.128-.024-.177-.073l-1.249-1.249c-.098-.098-.098-.256 0-.354s.256-.098.354 0l1.249 1.249c.098.098.098.256 0 .354-.049.049-.112.073-.177.073z"/></g></g></g></g></g><g><g><g><g><g><path d="m37.781 30.478c-.064 0-.128-.024-.177-.073l-1.232-1.232c-.098-.098-.098-.256 0-.354s.256-.098.354 0l1.232 1.232c.098.098.098.256 0 .354-.049.048-.112.073-.177.073z"/></g></g></g></g></g><g><g><g><g><g><path d="m38.941 29.345c-.064 0-.128-.024-.177-.073l-1.679-1.679c-.098-.098-.098-.256 0-.354s.256-.097.354 0l1.679 1.679c.098.098.098.256 0 .354-.049.049-.112.073-.177.073z"/></g></g></g></g></g><g><g><g><g><g><path d="m32.867 34.123c-.064 0-.128-.024-.177-.073l-1.362-1.362c-.098-.098-.098-.256 0-.354s.256-.098.354 0l1.362 1.362c.098.098.098.256 0 .354-.049.048-.112.073-.177.073z"/></g></g></g></g></g><g><g><g><g><g><path d="m31.353 34.239c-.065 0-.128-.024-.177-.073-.098-.098-.098-.256 0-.354l3.468-3.468c.098-.098.256-.098.354 0s.098.256 0 .354l-3.468 3.468c-.05.048-.113.073-.177.073z"/></g></g></g></g></g><g><g><g><g><g><path d="m34.002 32.965c-.064 0-.128-.024-.177-.073-.098-.098-.098-.256 0-.354l2.603-2.602c.098-.098.256-.098.354 0s.098.256 0 .354l-2.603 2.602c-.049.048-.113.073-.177.073z"/></g></g></g></g></g><g><g><g><g><g><path d="m36.549 29.5c-.064 0-.128-.024-.177-.073-.098-.098-.098-.256 0-.353l1.86-1.86c.098-.098.256-.098.354 0s.098.256 0 .354l-1.86 1.86c-.049.048-.113.072-.177.072z"/></g></g></g></g></g><g><g><g><g><g><path d="m37.721 29.857c-.064 0-.128-.024-.177-.073-.098-.098-.098-.256 0-.354l.901-.901c.099-.099.257-.097.354 0 .098.098.098.256 0 .354l-.901.901c-.049.049-.114.073-.177.073z"/></g></g></g></g></g></g><g><g><g><g><g><path d="m28.7 52.776c-.064 0-.128-.024-.177-.073l-1.027-1.028c-.098-.098-.098-.256 0-.354.099-.099.257-.097.354 0l1.027 1.028c.098.098.098.256 0 .354-.049.049-.113.073-.177.073z"/></g></g></g></g></g><g><g><g><g><g><path d="m29.701 52.426c-.065 0-.128-.024-.177-.073l-1.256-1.256c-.098-.098-.098-.256 0-.354.099-.098.257-.097.353 0l1.256 1.256c.098.098.098.256 0 .353-.048.049-.112.074-.176.074z"/></g></g></g></g></g><g><g><g><g><g><path d="m30.356 51.073c-.064 0-.128-.024-.177-.073l-1.023-1.023c-.098-.098-.098-.256 0-.354s.256-.098.354 0l1.023 1.023c.098.098.098.256 0 .354-.049.049-.112.073-.177.073z"/></g></g></g></g></g><g><g><g><g><g><path d="m27.479 52.868c-.064 0-.128-.024-.177-.073-.098-.098-.098-.256 0-.354l1.322-1.322c.098-.098.256-.096.354 0 .098.098.098.256 0 .354l-1.322 1.322c-.049.049-.113.073-.177.073z"/></g></g></g></g></g><g><g><g><g><g><path d="m29.14 52.559c-.065 0-.128-.024-.177-.073-.098-.098-.098-.256 0-.354l.863-.863c.098-.098.256-.098.353 0 .098.098.098.256 0 .353l-.863.863c-.048.05-.112.074-.176.074z"/></g></g></g></g></g><g><g><g><g><g><path d="m29.256 50.744c-.065 0-.128-.024-.177-.073-.098-.098-.098-.256 0-.354l.683-.683c.098-.098.256-.098.354 0s.098.256 0 .354l-.683.683c-.049.049-.113.073-.177.073z"/></g></g></g></g></g><g><g><g><g><g><path d="m60.577 58.605c-.064 0-.128-.024-.177-.073l-3.685-3.684c-.098-.098-.098-.256 0-.354s.256-.098.353 0l3.685 3.684c.098.098.098.256 0 .354-.048.049-.111.073-.176.073z"/></g></g></g></g></g><g><g><g><g><g><path d="m61.826 57.098c-.064 0-.128-.024-.177-.073l-2.393-2.393c-.098-.098-.098-.256 0-.354s.256-.098.353 0l2.394 2.393c.098.098.098.256 0 .354-.049.049-.112.073-.177.073z"/></g></g></g></g></g><g><g><g><g><g><path d="m62.899 54.93c-.064 0-.128-.024-.177-.073l-1.629-1.629c-.098-.098-.098-.256 0-.353.098-.098.256-.098.354 0l1.629 1.629c.098.098.098.256 0 .354-.049.048-.113.072-.177.072z"/></g></g></g></g></g><g><g><g><g><g><path d="m63.567 52.895c-.064 0-.128-.024-.177-.073l-1.271-1.27c-.098-.098-.098-.256 0-.354s.256-.098.354 0l1.271 1.27c.098.098.098.256 0 .354-.049.049-.112.073-.177.073z"/></g></g></g></g></g><g><g><g><g><g><path d="m64.518 51.413c-.064 0-.128-.024-.177-.073l-1.626-1.625c-.098-.098-.098-.256 0-.354s.256-.098.354 0l1.626 1.625c.098.098.098.256 0 .354-.05.049-.113.073-.177.073z"/></g></g></g></g></g><g><g><g><g><g><path d="m57.829 59.155c-.064 0-.128-.024-.177-.073l-2.989-2.99c-.098-.098-.098-.256 0-.354s.256-.098.353 0l2.989 2.99c.098.098.098.256 0 .353-.048.049-.111.074-.176.074z"/></g></g></g></g></g><g><g><g><g><g><path d="m55.77 59.041c-.064 0-.128-.025-.177-.073l-2.498-2.498c-.098-.098-.098-.256 0-.354s.256-.098.354 0l2.498 2.498c.098.098.098.256 0 .353-.049.049-.112.074-.177.074z"/></g></g></g></g></g><g><g><g><g><g><path d="m53.142 59.546c-.064 0-.128-.024-.177-.073l-2.193-2.193c-.098-.098-.098-.256 0-.353.098-.098.256-.098.354 0l2.193 2.193c.098.098.098.256 0 .354-.05.048-.113.072-.177.072z"/></g></g></g></g></g><g><g><g><g><g><path d="m50.067 59.283c-.064 0-.128-.025-.177-.073l-1.713-1.713c-.098-.098-.098-.256 0-.354s.256-.098.354 0l1.713 1.713c.098.098.098.256 0 .354-.049.048-.112.073-.177.073z"/></g></g></g></g></g><g><g><g><g><g><path d="m47.916 59.076c-.064 0-.128-.024-.177-.073l-1.453-1.453c-.098-.098-.098-.256 0-.353.098-.098.256-.098.354 0l1.453 1.453c.098.098.098.256 0 .354-.049.048-.113.072-.177.072z"/></g></g></g></g></g><g><g><g><g><g><path d="m46.085 59.029c-.064 0-.128-.024-.177-.073-.098-.098-.098-.256 0-.354l2.734-2.734c.098-.098.256-.098.354 0s.098.256 0 .354l-2.734 2.734c-.049.048-.113.073-.177.073z"/></g></g></g></g></g><g><g><g><g><g><path d="m49.273 59.461c-.064 0-.128-.025-.177-.073-.098-.098-.098-.256 0-.354l3.35-3.35c.098-.098.256-.098.354 0s.098.256 0 .354l-3.35 3.35c-.049.049-.112.073-.177.073z"/></g></g></g></g></g><g><g><g><g><g><path d="m52.083 59.407c-.064 0-.128-.025-.177-.073-.098-.098-.098-.256 0-.354l3.934-3.933c.098-.098.256-.098.354 0s.098.256 0 .354l-3.934 3.933c-.049.049-.113.073-.177.073z"/></g></g></g></g></g><g><g><g><g><g><path d="m55.164 59.461c-.065 0-.128-.025-.177-.073-.098-.098-.098-.256 0-.354l3.968-3.969c.098-.098.256-.098.354 0s.098.256 0 .354l-3.968 3.969c-.049.049-.113.073-.177.073z"/></g></g></g></g></g><g><g><g><g><g><path d="m59.108 58.704c-.064 0-.128-.024-.177-.073-.098-.098-.098-.256 0-.354l3.167-3.167c.098-.098.256-.098.354 0s.098.256 0 .354l-3.167 3.167c-.049.049-.112.073-.177.073z"/></g></g></g></g></g><g><g><g><g><g><path d="m60.892 54.327c-.064 0-.128-.024-.177-.073-.098-.098-.098-.256 0-.354l1.934-1.934c.098-.098.256-.098.354 0s.098.256 0 .354l-1.934 1.934c-.05.049-.114.073-.177.073z"/></g></g></g></g></g><g><g><g><g><g><path d="m62.892 50.598c-.063 0-.128-.024-.177-.073-.098-.098-.098-.256 0-.354l1.07-1.071c.098-.098.256-.098.354 0s.098.256 0 .354l-1.07 1.071c-.05.049-.113.073-.177.073z"/></g></g></g></g></g><g><g><g><g><g><path d="m38.263 9.206c-.001 0-.002 0-.003 0l-12.736-.145c-.138-.001-.249-.115-.247-.253.002-.137.113-.247.25-.247h.002l12.736.145c.138.001.249.115.247.253-.001.137-.113.247-.249.247z"/></g></g></g></g></g><g><g><g><g><g><path d="m28.62 10.436c-.077 0-.154-.036-.203-.104-.485-.673-.673-1.56-.5-2.372.028-.135.154-.222.296-.193.135.029.222.162.192.296-.144.676.013 1.415.418 1.975.08.112.055.268-.057.349-.043.034-.095.049-.146.049z"/></g></g></g></g></g><g><g><g><g><g><path d="m32.085 10.061c-.069 0-.138-.029-.188-.085-.325-.369-.469-.896-.374-1.377.026-.136.159-.229.293-.197.136.026.224.158.197.293-.064.332.034.696.259.95.091.104.081.262-.022.353-.047.042-.106.063-.165.063z"/></g></g></g></g></g><g><g><g><g><g><path d="m34.992 9.479c-.113 0-.216-.077-.243-.191l-.263-1.078c-.032-.134.05-.27.184-.302.136-.036.27.049.303.183l.263 1.08c.032.134-.05.269-.185.302-.02.003-.039.006-.059.006z"/></g></g></g></g></g><g><g><g><g><g><path d="m12.669 27.64c-.064 0-.128-.024-.177-.073-.098-.098-.098-.256 0-.354l8.323-8.323c.098-.098.256-.098.354 0s.098.256 0 .354l-8.323 8.323c-.049.049-.113.073-.177.073z"/></g></g></g></g></g><g><g><g><g><g><path d="m17.796 26.59c-.064 0-.128-.024-.177-.073-.098-.098-.098-.256 0-.353l7.893-7.894c.098-.098.256-.098.354 0s.098.256 0 .354l-7.893 7.893c-.049.049-.113.073-.177.073z"/></g></g></g></g></g></g></svg>