<svg id="Icon" viewBox="0 0 64 64" xmlns="http://www.w3.org/2000/svg" xmlns:xlink="http://www.w3.org/1999/xlink"><linearGradient id="linear-gradient" gradientUnits="userSpaceOnUse" x1="2" x2="62" y1="32" y2="32"><stop offset="0" stop-color="#3ec9ff"/><stop offset="1" stop-color="#a447ff"/></linearGradient><path d="m51 34.33185v-29.33185c0-1.6543-1.3457-3-3-3h-3c-1.30194 0-2.40161.8385-2.81573 2h-31.36854c-.41412-1.1615-1.51379-2-2.81573-2h-3c-1.6543 0-3 1.3457-3 3v50c0 1.6543 1.3457 3 3 3h3c1.30194 0 2.40161-.8385 2.81573-2h25.71155c2.53314 3.62164 6.72748 6 11.47272 6 7.71973 0 14-6.28027 14-14 0-6.68927-4.71844-12.29004-11-13.66815zm-3-.33185c-1.39038 0-2.73132.21045-4 .5896v-3.5896h5v3.05066c-.33167-.02362-.66248-.05066-1-.05066zm-4-12h5v7h-5zm5-2h-5v-7h5zm-4-16h3c.55176 0 1 .44873 1 1v6h-5v-6c0-.55127.44824-1 1-1zm-41 18h5v7h-5zm0 9h5v7h-5zm5-11h-5v-7h5zm-5 20h5v7h-5zm1-36h3c.55176 0 1 .44873 1 1v6h-5v-6c0-.55127.44824-1 1-1zm3 52h-3c-.55176 0-1-.44873-1-1v-6h5v6c0 .55127-.44824 1-1 1zm3-2v-48h31v29.37006c-4.72162 2.25256-8 7.05927-8 12.62994 0 2.14905.50104 4.17847 1.37006 6zm37 6c-6.61719 0-12-5.3833-12-12s5.38281-12 12-12 12 5.3833 12 12-5.38281 12-12 12zm2-1h-4c-1.10254 0-2-.89697-2-2v-10h-1.6084c-.80957 0-1.53418-.48242-1.8457-1.229-.31152-.74609-.14648-1.60059.42188-2.17578l5.6084-5.68506c.75781-.76855 2.08984-.76855 2.84766 0l5.6084 5.68555c.56836.57471.7334 1.4292.42188 2.17529-.31152.74658-1.03613 1.229-1.8457 1.229h-1.6084v10c0 1.10303-.89746 2-2 2zm-6-14c1.10254 0 2 .89697 2 2v10h4v-10c0-1.10303.89746-2 2-2h1.6084l-5.6084-5.68555-5.6084 5.68555zm-28-6.45312v-17.09375c0-1.08301.55957-2.05371 1.49707-2.59619.93652-.54248 2.05762-.54541 2.99609-.00586l14.90039 8.54688c.94336.54102 1.50684 1.51416 1.50684 2.60205s-.56348 2.06104-1.50684 2.60205l-14.90039 8.54736c-.94054.53257-2.04643.53567-2.99609-.00635-.9375-.54248-1.49707-1.51318-1.49707-2.59619zm2-17.09375v17.09375c0 .52051.34863.77881.49902.86572.15137.08691.54883.26123.99805.00195l14.90039-8.54736c.4541-.25977.50293-.69287.50293-.86719s-.04883-.60742-.50195-.86768l-.00098.00049-14.90039-8.54736c-.30443-.2012-.74074-.15183-.99805.00195-.15039.08691-.49902.34521-.49902.86572z" fill="url(#linear-gradient)"/></svg>