<svg id="Layer_1" height="512" viewBox="0 0 512 512" width="512" xmlns="http://www.w3.org/2000/svg" xmlns:xlink="http://www.w3.org/1999/xlink" data-name="Layer 1"><linearGradient id="linear-gradient" gradientUnits="userSpaceOnUse" x1="245.333" x2="245.333" y1="70.714" y2="356.328"><stop offset="0" stop-color="#4793eb"/><stop offset="1" stop-color="#2367ec"/></linearGradient><linearGradient id="linear-gradient-2" gradientUnits="userSpaceOnUse" x1="245.333" x2="245.333" y1="349.714" y2="417.857"><stop offset="0" stop-color="#2b50d2"/><stop offset="1" stop-color="#182ea5"/></linearGradient><linearGradient id="linear-gradient-3" gradientUnits="userSpaceOnUse" x1="250.666" x2="250.666" y1="150.429" y2="299.571"><stop offset="0" stop-color="#fff"/><stop offset="1" stop-color="#edf1f2"/></linearGradient><radialGradient id="radial-gradient" cx="369.429" cy="320.286" gradientUnits="userSpaceOnUse" r="135.83"><stop offset="0" stop-color="#fed200"/><stop offset="1" stop-color="#f59815"/></radialGradient><radialGradient id="radial-gradient-2" cx="366.857" cy="337.643" gradientUnits="userSpaceOnUse" r="121.134"><stop offset=".061" stop-color="#fff"/><stop offset="1" stop-color="#f2ebe6"/></radialGradient><rect fill="url(#linear-gradient)" height="362.667" rx="53.333" width="448" x="21.333" y="64"/><path d="m21.333 362.667v10.666a53.333 53.333 0 0 0 53.334 53.334h341.333a53.333 53.333 0 0 0 53.333-53.334v-10.666z" fill="url(#linear-gradient-2)" opacity=".5"/><path d="m315.2 206.449-108.8-62.817a20.267 20.267 0 0 0 -30.4 17.552v125.632a20.222 20.222 0 0 0 30.4 17.551l108.8-62.816a20.266 20.266 0 0 0 0-35.1z" fill="url(#linear-gradient-3)"/><circle cx="400" cy="357.333" fill="url(#radial-gradient)" r="90.667"/><path d="m434.209 339.124-26.667-26.667a10.67 10.67 0 0 0 -15.085 0l-26.667 26.667a10.667 10.667 0 1 0 15.086 15.085l8.457-8.457v48.915a10.667 10.667 0 0 0 21.333 0v-48.915l8.458 8.457a10.667 10.667 0 1 0 15.085-15.085z" fill="url(#radial-gradient-2)"/></svg>